<svg width="300" height="300" viewBox="0 0 300 300" fill="none" xmlns="http://www.w3.org/2000/svg">
<g clip-path="url(#clip0_38_125)">
<path d="M150 300C67.2771 300 0 232.723 0 150C0 67.2771 67.2771 0 150 0C232.723 0 300 67.2771 300 150C300 232.723 232.723 300 150 300ZM150 7.77471C71.631 7.77471 7.77471 71.631 7.77471 150C7.77471 228.369 71.631 292.225 150 292.225C228.369 292.225 292.225 228.369 292.225 150C292.225 71.631 228.473 7.77471 150 7.77471Z" fill="white"/>
<path d="M85.1074 171.25H70.18L69.869 170.317C69.558 169.073 69.247 168.037 69.1434 167.311C68.8324 165.652 68.6251 163.994 68.6251 162.335V157.152C68.5214 153.213 67.6921 151.658 67.0701 151.036C66.3445 150.414 64.7895 149.585 61.0577 149.585H50.4841V171.25H36.5933V113.406H64.9969C69.0397 113.406 72.1496 114.028 74.4302 114.961C76.7107 115.894 78.6803 117.345 80.2353 119.211C81.4792 120.663 82.5159 122.425 83.3452 124.187C84.0708 126.053 84.4855 128.126 84.4855 130.511C84.4855 133.31 83.7598 136.108 82.3085 138.804C81.2719 140.877 79.6133 142.432 77.54 143.676C79.095 144.712 80.2353 145.853 81.0646 147.304C82.2049 149.377 82.8268 152.487 82.8268 156.53V160.262C82.8268 163.268 82.9305 164.616 83.1378 165.134C83.3452 166.274 83.8635 167 84.6928 167.415L85.3148 167.829V171.25H85.1074ZM72.0459 168.659H81.8939C81.1682 167.829 80.6499 166.896 80.4426 165.652C80.2353 164.719 80.1316 162.957 80.1316 160.262V156.53C80.1316 152.902 79.6133 150.207 78.6803 148.548C77.7474 146.889 76.1924 145.645 73.9119 144.712L70.6983 143.468L74.0155 142.328C76.8144 141.395 78.6803 139.84 79.8206 137.56C81.0646 135.175 81.6866 132.791 81.6866 130.407C81.6866 128.437 81.3756 126.571 80.7536 125.12C80.1316 123.565 79.1987 122.114 78.162 120.766C76.8144 119.211 75.2595 118.071 73.2899 117.242C71.3203 116.412 68.5214 115.998 64.7895 115.894H38.9775V168.555H47.6852V146.889H60.8503C64.5822 146.889 67.1738 147.615 68.7287 148.963C70.2837 150.414 71.0093 153.005 71.113 156.945V162.128C71.113 163.683 71.3203 165.238 71.6313 166.689C71.7349 167.207 71.8386 167.829 72.0459 168.555V168.659ZM61.9906 140.462H47.5815V123.047H62.3016C64.9969 123.047 67.0701 123.462 68.5214 124.187C71.2166 125.535 72.5642 128.23 72.5642 132.066C72.5642 135.694 71.113 138.182 68.3141 139.426C66.8628 140.151 64.6859 140.462 61.887 140.462H61.9906ZM50.2767 137.871H62.0943C64.4785 137.871 66.2408 137.56 67.3811 137.041C69.247 136.212 70.0763 134.553 70.0763 131.962C70.0763 129.163 69.247 127.297 67.4848 126.364C66.4481 125.846 64.6859 125.535 62.509 125.535H50.3804V137.767L50.2767 137.871Z" fill="white"/>
<path d="M102.419 172.598C98.3761 172.598 95.0589 171.458 92.3637 169.074C89.6685 166.69 88.3209 163.372 88.3209 159.122C88.3209 153.628 90.4978 149.585 94.748 147.097C97.0285 145.75 100.242 144.92 104.596 144.298L108.224 143.884C110.505 143.573 111.541 143.262 112.06 143.055C113.407 142.433 113.615 141.811 113.615 141.189C113.615 139.634 112.993 139.115 112.578 138.908C111.645 138.39 110.09 138.079 108.12 138.079C106.151 138.079 104.492 138.597 103.767 139.53C103.145 140.256 102.73 141.292 102.523 142.64L102.315 143.78H89.5648V142.433C89.8758 138.597 91.0161 135.383 92.882 132.896C95.9919 128.956 101.175 126.987 108.431 126.987C113.096 126.987 117.243 127.92 120.975 129.786C124.914 131.755 126.883 135.591 126.883 140.981V159.744C126.883 160.988 126.883 162.647 126.883 164.409C126.883 166.068 127.194 166.482 127.298 166.586C127.505 166.897 127.92 167.208 128.335 167.415L129.06 167.726V171.458H115.273L114.962 170.629C114.651 169.8 114.34 168.867 114.237 168.037C113.2 168.97 111.956 169.8 110.816 170.525C108.328 171.976 105.425 172.702 102.419 172.702V172.598ZM108.017 135.487C110.505 135.487 112.371 135.902 113.718 136.627C114.859 137.249 116.102 138.493 116.102 141.189C116.102 142.536 115.584 144.298 112.993 145.439C112.06 145.853 110.505 146.164 108.431 146.475L104.803 146.89C100.864 147.408 97.8578 148.238 95.8882 149.378C92.4674 151.348 90.7051 154.561 90.7051 159.122C90.7051 162.647 91.7417 165.238 93.9186 167.104C96.0956 168.97 98.7908 169.903 102.212 169.903C104.803 169.903 107.291 169.281 109.364 168.141C111.127 167.104 112.785 165.757 114.133 164.305L116.102 162.128L116.31 165.031C116.31 165.86 116.517 166.69 116.621 167.415C116.621 167.83 116.828 168.245 116.932 168.659H125.743C125.743 168.659 125.225 168.141 125.017 167.83C124.499 167.104 124.292 166.068 124.188 164.305C124.188 162.439 124.188 160.781 124.188 159.537V140.774C124.188 136.316 122.737 133.414 119.731 131.859C116.413 130.2 112.682 129.371 108.431 129.371C102.004 129.371 97.4432 131.03 94.9553 134.243C93.6077 136.005 92.6747 138.286 92.3637 140.981H100.138C100.449 139.737 100.968 138.597 101.693 137.664C103.041 136.109 105.114 135.28 108.017 135.28V135.487ZM105.529 164.824C103.767 164.824 102.315 164.305 101.071 163.269C99.7238 162.232 98.9981 160.574 98.9981 158.293C98.9981 155.805 100.035 153.835 102.108 152.695C103.248 152.073 104.907 151.451 107.395 151.037L109.779 150.622C110.919 150.415 111.749 150.207 112.371 150C112.993 149.793 113.615 149.482 114.237 149.067L116.206 147.823V154.146C116.206 158.189 114.962 160.988 112.682 162.647C110.505 164.098 108.12 164.927 105.633 164.927L105.529 164.824ZM113.615 152.281H113.304C112.578 152.695 111.541 152.903 110.297 153.213L107.913 153.628C105.84 154.043 104.285 154.457 103.456 154.976C102.212 155.701 101.59 156.842 101.59 158.397C101.59 159.848 101.901 160.781 102.626 161.299C103.352 161.921 104.285 162.232 105.425 162.232C107.498 162.232 109.261 161.61 111.023 160.47C112.578 159.33 113.407 157.256 113.511 154.146V152.384L113.615 152.281Z" fill="white"/>
<path d="M150.415 172.803C146.061 172.803 142.122 171.456 138.701 168.968C135.176 166.376 133.103 162.541 132.585 157.461V156.01H145.646L145.853 157.15C146.061 158.498 146.579 159.534 147.512 160.26C148.341 161.089 149.482 161.4 151.037 161.4C154.043 161.4 156.012 159.845 157.256 156.425C157.775 155.077 158.086 153.107 158.397 150.827C158.086 151.034 157.775 151.241 157.464 151.449C155.287 152.796 152.592 153.418 149.378 153.418C144.713 153.418 140.567 151.76 137.042 148.65C133.414 145.436 131.548 140.772 131.548 134.759C131.548 128.747 133.31 123.563 136.939 119.728C140.567 115.892 145.232 113.923 150.933 113.923C159.744 113.923 165.86 117.862 169.178 125.74C170.94 130.094 171.873 135.692 171.873 142.637C171.873 149.583 171.044 155.077 169.281 159.534C165.86 168.449 159.537 172.907 150.415 172.907V172.803ZM135.28 158.705C135.902 162.23 137.56 164.925 140.152 166.895C143.158 169.175 146.579 170.315 150.311 170.315C158.293 170.315 163.683 166.48 166.69 158.602C168.348 154.351 169.074 148.961 169.074 142.637C169.074 136.314 168.245 130.716 166.586 126.777C163.683 119.935 158.5 116.618 150.726 116.618C145.646 116.618 141.707 118.277 138.597 121.594C135.487 124.911 133.932 129.369 133.932 134.863C133.932 140.357 135.487 144.089 138.493 146.784C141.603 149.583 145.128 150.93 149.171 150.93C151.866 150.93 154.147 150.412 155.909 149.272C156.842 148.754 157.775 147.821 158.708 146.784L161.196 143.674L160.988 147.717C160.781 152.071 160.263 155.181 159.433 157.461C157.464 162.955 153.628 164.199 150.829 164.199C148.652 164.199 146.89 163.577 145.543 162.333C144.506 161.4 143.78 160.156 143.366 158.809H135.28V158.705ZM151.555 144.711C148.445 144.711 146.061 143.778 144.506 141.808C143.055 139.942 142.225 137.247 142.225 133.722C142.225 129.472 143.469 126.466 145.75 124.6C147.305 123.356 149.171 122.838 151.244 122.838C154.147 122.838 156.427 123.874 158.189 126.051C159.848 128.125 160.677 130.82 160.677 134.137C160.677 138.387 159.226 141.497 156.427 143.259C154.976 144.192 153.317 144.711 151.555 144.711ZM147.408 126.673C145.646 128.021 144.817 130.405 144.817 133.826C144.817 136.729 145.335 138.906 146.475 140.253C147.512 141.601 149.171 142.223 151.555 142.223C152.799 142.223 153.939 141.912 154.976 141.186C157.049 139.839 157.982 137.558 157.982 134.241C157.982 131.442 157.36 129.265 156.116 127.71C154.976 126.259 153.317 125.533 151.244 125.533C149.689 125.533 148.445 125.948 147.305 126.777L147.408 126.673Z" fill="white"/>
<path d="M194.679 172.596C187.319 172.596 182.032 169.901 179.026 164.718C176.123 159.742 174.672 152.485 174.672 143.363C174.672 134.241 176.123 126.984 179.026 121.905C182.032 116.618 187.319 113.923 194.679 113.923C202.039 113.923 207.326 116.618 210.436 121.905C213.338 126.984 214.79 134.137 214.79 143.363C214.79 152.589 213.338 159.742 210.436 164.718C207.43 170.004 202.143 172.596 194.783 172.596H194.679ZM194.679 116.514C188.252 116.514 183.794 118.691 181.203 123.149C178.508 127.814 177.16 134.552 177.16 143.259C177.16 151.967 178.508 158.705 181.203 163.37C183.794 167.827 188.148 170.004 194.679 170.004C201.21 170.004 205.564 167.827 208.155 163.37C210.85 158.705 212.198 151.967 212.198 143.259C212.198 134.552 210.85 127.814 208.259 123.149C205.667 118.691 201.313 116.514 194.783 116.514H194.679ZM194.679 163.888C190.947 163.888 188.356 161.815 187.112 157.98C186.075 154.559 185.557 149.583 185.557 143.259C185.557 136.521 186.075 131.649 187.112 128.332C188.356 124.704 190.947 122.734 194.679 122.734C198.411 122.734 201.002 124.704 202.143 128.332C203.179 131.649 203.698 136.521 203.698 143.259C203.698 149.997 203.179 154.455 202.143 157.98C201.002 161.815 198.411 163.888 194.679 163.888ZM194.679 125.326C192.087 125.326 190.429 126.57 189.6 129.161C188.667 132.167 188.148 136.936 188.148 143.259C188.148 149.583 188.667 154.04 189.6 157.254C190.429 160.053 192.087 161.297 194.679 161.297C197.271 161.297 198.826 160.053 199.655 157.254C200.588 154.04 201.106 149.376 201.106 143.259C201.106 136.832 200.588 132.064 199.655 129.058C198.826 126.466 197.271 125.222 194.679 125.222V125.326Z" fill="white"/>
<path d="M245.888 171.25H233.449V155.804H218.107V143.468H233.449V128.126H245.888V143.468H261.231V155.804H245.888V171.25ZM236.04 168.658H243.297V153.212H258.639V146.06H243.297V130.718H236.04V146.06H220.698V153.212H236.04V168.658Z" fill="white"/>
</g>
<defs>
<clipPath id="clip0_38_125">
<rect width="300" height="300" fill="white"/>
</clipPath>
</defs>
</svg>
