<svg width="300" height="300" viewBox="0 0 300 300" fill="none" xmlns="http://www.w3.org/2000/svg">
<g clip-path="url(#clip0_25_547)">
<path d="M150 299.906C67.3029 299.906 0 232.697 0 150C0 67.3029 67.3029 0 150 0C232.697 0 300 67.3029 300 150C300 232.697 232.697 300 150 300V299.906ZM150 7.04005C71.1514 7.04005 7.04005 71.1514 7.04005 150C7.04005 228.849 71.1514 292.96 150 292.96C228.849 292.96 292.96 228.849 292.96 150C292.96 71.1514 228.755 7.04005 150 7.04005Z" fill="#1C1E28"/>
<path d="M62.891 121.652C71.6207 122.966 71.1514 129.537 71.1514 129.537L43.4605 157.979C48.7171 158.448 59.4179 158.824 75.3754 156.571C78.1914 152.253 79.7872 147.09 79.7872 141.646C79.7872 126.346 67.3967 113.955 52.0963 113.955C44.3053 113.955 37.1714 117.24 32.1964 122.497C48.4355 120.526 58.5731 121.183 62.891 121.746" fill="#1C1E28"/>
<path d="M41.3017 160.513C32.572 159.199 33.0414 152.628 33.0414 152.628L60.7322 124.186C55.5695 123.717 45.1502 123.341 29.5683 125.5C26.3768 130.006 24.4056 135.544 24.4056 141.552C24.4056 156.852 36.7961 169.243 52.0964 169.243C60.4506 169.243 67.96 165.488 73.0288 159.668C56.1327 161.827 45.6196 161.076 41.2078 160.607" fill="#1C1E28"/>
<path d="M111.327 135.356H98.2791V128.504H122.497V134.981L107.854 151.501H123.342V158.447H97.1527V151.501L111.327 135.356Z" fill="#1C1E28"/>
<path d="M135.544 128.504H127.002V158.447H135.544V128.504Z" fill="#1C1E28"/>
<path d="M135.545 118.46C137.985 123.154 133.292 127.753 128.598 125.407C127.848 125.031 127.284 124.468 126.909 123.717C124.468 119.024 129.162 114.424 133.855 116.865C134.606 117.24 135.169 117.897 135.545 118.554" fill="#1C1E28"/>
<path d="M202.284 132.165C199.562 129.349 196.37 127.847 192.71 127.847C189.049 127.847 186.045 129.161 183.792 131.696V118.367H175.438V158.448H183.792V154.505C186.139 157.415 189.049 158.917 192.616 158.917C196.183 158.917 199.374 157.415 202.096 154.412C204.912 151.408 206.32 147.653 206.32 143.148C206.32 138.642 204.912 134.981 202.284 132.165ZM190.832 151.783C186.421 151.783 183.417 148.029 183.417 143.148C183.417 138.266 186.421 134.793 190.832 134.793C195.244 134.793 198.248 138.36 198.248 143.148C198.248 147.935 195.244 151.783 190.832 151.783Z" fill="#1C1E28"/>
<path d="M224.155 151.877C222.09 151.69 220.588 150.939 219.18 149.155L240.206 142.491C240.206 142.491 240.206 137.422 237.015 133.479C234.293 130.1 230.726 128.317 226.22 127.941C221.715 127.566 218.054 128.786 214.581 131.508C211.201 134.136 209.512 137.797 209.23 142.115C208.949 146.433 210.075 150.188 212.891 153.473C215.613 156.665 219.274 158.448 223.874 158.824C231.758 159.481 237.109 154.224 237.672 153.473L232.791 148.31C232.415 148.874 229.036 152.253 224.343 151.877M222.372 135.451C226.22 134.136 229.881 135.451 231.852 138.642L216.927 143.429C216.74 139.956 218.711 136.765 222.372 135.451Z" fill="#1C1E28"/>
<path d="M257.76 151.877C255.695 151.69 254.193 150.939 252.785 149.155L273.811 142.491C273.811 142.491 273.811 137.422 270.62 133.479C267.897 130.1 264.331 128.317 259.825 127.941C255.319 127.566 251.658 128.786 248.185 131.508C244.806 134.136 243.117 137.797 242.835 142.115C242.553 146.433 243.68 150.188 246.496 153.473C249.218 156.665 252.879 158.448 257.478 158.824C265.363 159.481 270.713 154.224 271.277 153.473L266.396 148.31C266.02 148.874 262.641 152.253 257.948 151.877M256.07 135.451C259.919 134.136 263.58 135.451 265.551 138.642L250.626 143.429C250.438 139.956 252.409 136.765 256.07 135.451Z" fill="#1C1E28"/>
<path d="M162.672 154.318V155.35C162.672 158.73 161.921 162.766 158.542 164.831C151.408 169.337 143.993 161.64 143.993 161.64L138.642 167.178C138.642 167.178 143.899 173.842 153.849 173.842C158.261 173.842 162.015 172.622 164.925 169.994C168.492 166.896 170.745 161.733 170.745 153.567V128.504H162.297V133.198C160.326 130.194 156.853 127.941 152.816 127.941C144.462 127.941 138.736 134.324 138.736 143.523C138.736 152.722 144.18 159.011 152.535 159.011C156.665 159.011 159.95 157.322 162.485 154.318M154.881 151.877C150.47 151.877 147.466 148.123 147.466 143.242C147.466 138.36 150.47 134.887 154.881 134.887C159.293 134.887 162.297 138.454 162.297 143.242C162.297 148.029 159.199 151.877 154.881 151.877Z" fill="#1C1E28"/>
<path d="M179.756 187.923C178.536 187.923 177.409 187.453 176.564 186.609C175.626 185.764 175.25 184.637 175.25 183.323C175.25 182.009 175.719 180.883 176.658 180.038C177.597 179.193 178.723 178.724 180.037 178.724C181.352 178.724 182.478 179.193 183.417 180.132L182.29 181.54C181.539 180.883 180.694 180.507 179.944 180.507C179.193 180.507 178.442 180.789 177.878 181.258C177.315 181.821 177.034 182.478 177.034 183.229C177.034 183.98 177.315 184.731 177.878 185.294C178.442 185.858 179.193 186.139 179.944 186.139C180.694 186.139 181.539 185.764 182.29 185.013L183.417 186.233C182.29 187.36 181.07 187.923 179.662 187.923" fill="#1C1E28"/>
<path d="M203.692 180.319V184.825C203.692 184.825 203.786 185.576 204.068 185.857C204.255 186.139 204.631 186.233 205.006 186.233C205.382 186.233 205.757 186.045 206.133 185.67L206.884 186.984C206.227 187.547 205.476 187.922 204.725 187.922C203.974 187.922 203.223 187.641 202.66 187.078C202.096 186.514 201.815 185.763 201.815 184.825V176.001H203.692V178.817H206.039V180.319H203.692Z" fill="#1C1E28"/>
<path d="M208.573 177.034C208.573 177.034 208.198 176.565 208.198 176.189C208.198 175.814 208.292 175.532 208.573 175.344C208.855 175.157 209.136 174.969 209.418 174.969C209.7 174.969 209.981 175.063 210.263 175.344C210.544 175.626 210.638 175.814 210.638 176.189C210.638 176.565 210.544 176.752 210.263 177.034C209.981 177.316 209.7 177.409 209.418 177.409C209.136 177.409 208.855 177.316 208.573 177.034ZM210.357 187.735H208.479V178.817H210.357V187.735Z" fill="#1C1E28"/>
<path d="M214.581 178.723V180.319H216.927V181.821H214.581V187.734H212.703V178.817C212.703 177.878 212.985 177.127 213.642 176.564C214.205 176.001 215.05 175.719 215.989 175.719C216.927 175.719 217.678 176.001 218.429 176.564L217.678 178.066C217.678 178.066 216.74 177.409 216.177 177.409C215.238 177.409 214.768 177.784 214.768 178.723" fill="#1C1E28"/>
<path d="M219.556 177.034C219.556 177.034 219.18 176.565 219.18 176.189C219.18 175.814 219.274 175.532 219.556 175.344C219.837 175.157 220.119 174.969 220.401 174.969C220.682 174.969 221.058 175.063 221.245 175.344C221.433 175.626 221.621 175.814 221.621 176.189C221.621 176.565 221.527 176.752 221.245 177.034C220.964 177.316 220.682 177.409 220.401 177.409C220.119 177.409 219.837 177.316 219.556 177.034ZM221.339 187.735H219.462V178.817H221.339V187.735Z" fill="#1C1E28"/>
<path d="M234.105 186.609C233.26 185.764 232.885 184.637 232.885 183.229C232.885 181.821 233.354 180.695 234.199 179.85C235.044 179.005 236.076 178.63 237.297 178.63C238.517 178.63 239.456 179.099 240.207 180.132V175.251H242.084V187.735H240.207V186.421C239.549 187.36 238.517 187.923 237.203 187.923C236.076 187.923 235.044 187.547 234.199 186.609M234.668 183.323C234.668 184.168 234.95 184.919 235.513 185.388C236.076 185.952 236.733 186.233 237.484 186.233C238.235 186.233 238.892 185.952 239.362 185.388C239.925 184.825 240.113 184.168 240.113 183.323C240.113 182.479 239.831 181.728 239.362 181.164C238.892 180.601 238.235 180.32 237.484 180.32C236.733 180.32 236.076 180.601 235.513 181.164C234.95 181.728 234.668 182.479 234.668 183.323Z" fill="#1C1E28"/>
<path d="M181.258 197.215C182.478 197.215 183.511 197.685 184.355 198.436C185.2 199.28 185.67 200.407 185.67 201.721C185.67 203.035 185.294 204.255 184.355 205.1C183.511 205.945 182.572 206.414 181.446 206.414C180.319 206.414 179.287 205.945 178.442 204.912V209.512H176.564V197.309H178.442V198.905C179.193 197.779 180.131 197.215 181.352 197.215M178.254 201.815C178.254 202.66 178.536 203.411 179.005 203.88C179.568 204.443 180.131 204.725 180.882 204.725C181.633 204.725 182.29 204.443 182.854 203.88C183.417 203.317 183.698 202.66 183.698 201.815C183.698 200.97 183.417 200.219 182.854 199.656C182.29 199.093 181.633 198.811 180.882 198.811C180.131 198.811 179.474 199.093 179.005 199.656C178.442 200.219 178.254 200.97 178.254 201.815Z" fill="#1C1E28"/>
<path d="M201.345 205.1C200.407 205.945 199.374 206.414 197.966 206.414C196.558 206.414 195.526 205.945 194.587 205.1C193.648 204.162 193.273 203.129 193.273 201.815C193.273 200.501 193.742 199.468 194.587 198.529C195.526 197.591 196.558 197.215 197.966 197.215C199.374 197.215 200.407 197.685 201.345 198.529C202.284 199.468 202.66 200.501 202.66 201.815C202.66 203.129 202.19 204.162 201.345 205.1ZM195.995 203.88C196.558 204.443 197.215 204.725 198.06 204.725C198.905 204.725 199.562 204.443 200.125 203.88C200.688 203.317 200.876 202.66 200.876 201.721C200.876 200.782 200.594 200.125 200.125 199.562C199.562 198.999 198.905 198.717 198.06 198.717C197.215 198.717 196.558 198.999 195.995 199.562C195.432 200.125 195.244 200.782 195.244 201.721C195.244 202.66 195.526 203.317 195.995 203.88Z" fill="#1C1E28"/>
<path d="M205.382 205.1C204.537 204.255 204.161 203.129 204.161 201.721C204.161 200.313 204.631 199.187 205.476 198.342C206.32 197.497 207.353 197.122 208.573 197.122C209.793 197.122 210.732 197.591 211.483 198.623V193.742H213.36V206.227H211.483V204.913C210.826 205.851 209.793 206.414 208.479 206.414C207.353 206.414 206.32 206.039 205.476 205.1M206.039 201.815C206.039 202.66 206.32 203.411 206.884 203.88C207.447 204.443 208.104 204.725 208.855 204.725C209.606 204.725 210.263 204.443 210.732 203.88C211.295 203.317 211.483 202.66 211.483 201.815C211.483 200.97 211.202 200.219 210.732 199.656C210.263 199.093 209.606 198.811 208.855 198.811C208.104 198.811 207.447 199.093 206.884 199.656C206.32 200.219 206.039 200.97 206.039 201.815Z" fill="#1C1E28"/>
<path d="M221.715 202.19V197.309H223.592V206.227H221.715V204.631C221.433 205.194 220.964 205.664 220.494 205.945C219.931 206.227 219.368 206.414 218.805 206.414C217.772 206.414 217.021 206.133 216.364 205.476C215.707 204.819 215.426 203.974 215.426 202.754V197.309H217.303V202.19C217.303 203.88 217.96 204.631 219.368 204.631C220.025 204.631 220.588 204.443 221.058 203.974C221.527 203.505 221.809 202.941 221.809 202.097" fill="#1C1E28"/>
<path d="M230.069 206.414C228.849 206.414 227.722 205.945 226.877 205.1C225.939 204.255 225.563 203.129 225.563 201.815C225.563 200.501 226.033 199.374 226.971 198.529C227.91 197.685 229.036 197.215 230.35 197.215C231.665 197.215 232.791 197.685 233.73 198.623L232.603 200.031C231.852 199.374 231.008 198.999 230.257 198.999C229.506 198.999 228.755 199.28 228.191 199.75C227.628 200.313 227.347 200.97 227.347 201.721C227.347 202.472 227.628 203.223 228.191 203.786C228.755 204.349 229.506 204.631 230.257 204.631C231.008 204.631 231.852 204.255 232.603 203.504L233.73 204.725C232.603 205.851 231.383 206.414 229.975 206.414" fill="#1C1E28"/>
<path d="M237.39 198.811V203.316C237.39 203.316 237.484 204.067 237.766 204.349C237.954 204.63 238.329 204.724 238.705 204.724C239.08 204.724 239.456 204.537 239.831 204.161L240.582 205.475C239.925 206.038 239.174 206.414 238.423 206.414C237.672 206.414 236.921 206.132 236.358 205.569C235.795 205.006 235.513 204.255 235.513 203.316V194.493H237.39V197.309H239.737V198.811H237.39Z" fill="#1C1E28"/>
<path d="M192.991 180.319C192.24 179.286 191.114 178.817 189.8 178.629C188.486 178.535 187.359 178.911 186.327 179.662C185.294 180.413 184.825 181.539 184.731 182.853C184.637 184.167 185.013 185.294 185.764 186.232C186.608 187.171 187.641 187.734 189.049 187.828C190.832 188.016 192.147 187.077 192.804 186.608L191.771 185.294C191.771 185.294 190.926 186.232 189.612 186.232C188.298 186.232 187.453 185.763 186.89 184.918L193.742 182.759C193.742 182.759 193.93 181.539 192.991 180.319ZM186.514 183.416C186.514 182.196 187.172 181.07 188.392 180.6C189.706 180.131 191.114 180.6 191.583 181.727L186.421 183.416H186.514Z" fill="#1C1E28"/>
<path d="M231.007 180.319C230.163 179.286 229.13 178.817 227.816 178.629C226.502 178.535 225.375 178.911 224.343 179.662C223.31 180.413 222.841 181.539 222.747 182.853C222.653 184.167 223.029 185.294 223.78 186.232C224.624 187.171 225.657 187.734 227.065 187.828C228.849 188.016 230.163 187.077 230.82 186.608L229.787 185.294C229.787 185.294 228.942 186.232 227.628 186.232C226.314 186.232 225.469 185.763 224.906 184.918L231.758 182.759C231.758 182.759 231.946 181.539 231.007 180.319ZM224.437 183.416C224.437 182.196 225.094 181.07 226.314 180.6C227.628 180.131 229.036 180.6 229.506 181.727L224.343 183.416H224.437Z" fill="#1C1E28"/>
<path d="M197.309 180.413V178.818H195.432V187.735H197.309V183.886C197.309 182.854 197.591 182.103 197.966 181.446C198.436 180.883 199.093 180.507 200.031 180.507V178.63C200.031 178.63 198.342 178.63 197.121 180.413" fill="#1C1E28"/>
<path d="M189.424 198.905V197.309H187.547V206.227H189.424V202.378C189.424 201.345 189.706 200.501 190.081 199.937C190.551 199.374 191.208 198.999 192.146 198.999H192.24V197.121C192.24 197.121 190.457 197.121 189.33 198.905" fill="#1C1E28"/>
</g>
<defs>
<clipPath id="clip0_25_547">
<rect width="300" height="300" fill="white"/>
</clipPath>
</defs>
</svg>
