<svg width="300" height="300" viewBox="0 0 300 300" fill="none" xmlns="http://www.w3.org/2000/svg">
<g clip-path="url(#clip0_38_279)">
<path d="M150 299.897C67.2734 299.897 0 232.624 0 150C0 67.3764 67.2734 0 150 0C232.727 0 300 67.2734 300 150C300 232.727 232.727 300 150 300V299.897ZM150 7.72665C71.4973 7.72665 7.72665 71.4973 7.72665 150C7.72665 228.503 71.4973 292.273 150 292.273C228.503 292.273 292.273 228.503 292.273 150C292.273 71.4973 228.4 7.72665 150 7.72665Z" fill="white"/>
<path d="M230.563 148.353H208.413C207.692 148.353 207.177 147.735 207.177 147.117C207.177 146.499 207.795 145.881 208.413 145.881H230.563C231.284 145.881 231.799 146.499 231.799 147.117C231.799 147.735 231.181 148.353 230.563 148.353Z" fill="white"/>
<path d="M118.372 168.443C118.372 168.443 117.548 168.237 117.342 167.928C112.5 161.128 109.924 153.196 109.924 144.851C109.924 123.01 127.644 105.291 149.485 105.291C171.325 105.291 189.045 123.01 189.045 144.851C189.045 152.784 186.676 160.407 182.246 167.001C181.834 167.619 181.009 167.722 180.494 167.31C179.876 166.898 179.773 166.073 180.185 165.558C184.306 159.48 186.47 152.269 186.47 144.851C186.47 124.453 169.883 107.866 149.485 107.866C129.086 107.866 112.5 124.453 112.5 144.851C112.5 152.681 114.869 160.098 119.402 166.486C119.814 167.104 119.711 167.825 119.093 168.237C118.887 168.443 118.578 168.443 118.372 168.443Z" fill="white"/>
<path d="M170.398 220.671H127.953C127.232 220.671 126.717 220.156 126.717 219.435C126.717 219.332 125.893 206.969 122.905 193.576C120.536 182.759 114.354 167.821 114.251 167.718C114.045 167.306 114.148 166.791 114.457 166.378C114.766 165.966 115.178 165.863 115.694 165.863C115.797 165.863 129.396 168.027 149.588 168.027C169.78 168.027 182.452 165.863 182.658 165.863C183.07 165.76 183.585 165.863 183.894 166.275C184.203 166.687 184.306 167.1 184.1 167.615C184.1 167.718 178.228 182.244 175.652 193.576C172.974 205.218 171.841 219.332 171.841 219.435C171.841 220.053 171.222 220.671 170.604 220.671H170.398ZM129.189 218.095H169.265C169.574 214.387 170.81 202.848 173.077 192.958C175.137 184.098 179.155 173.178 180.907 168.748C176.374 169.366 165.247 170.602 149.691 170.602C134.135 170.602 122.287 169.263 117.548 168.645C119.299 173.178 123.626 184.304 125.481 192.855C127.953 204.084 128.983 214.49 129.293 217.992L129.189 218.095Z" fill="white"/>
<path d="M149.794 256.008C139.286 256.008 130.735 247.457 130.735 236.949V219.435C130.735 218.714 131.353 218.199 131.971 218.199C132.589 218.199 133.207 218.817 133.207 219.435V236.949C133.207 246.015 140.625 253.433 149.691 253.433C158.757 253.433 166.174 246.015 166.174 236.949V218.92C166.174 218.199 166.793 217.684 167.411 217.684C168.029 217.684 168.647 218.302 168.647 218.92V236.949C168.647 247.457 160.096 256.008 149.588 256.008H149.794Z" fill="white"/>
<path d="M167.514 231.183H131.868C131.147 231.183 130.632 230.565 130.632 229.947C130.632 229.329 131.25 228.711 131.868 228.711H167.514C168.235 228.711 168.75 229.329 168.75 229.947C168.75 230.565 168.132 231.183 167.514 231.183Z" fill="white"/>
<path d="M167.514 239.423H131.868C131.147 239.423 130.632 238.805 130.632 238.187C130.632 237.569 131.25 236.951 131.868 236.951H167.514C168.235 236.951 168.75 237.569 168.75 238.187C168.75 238.805 168.132 239.423 167.514 239.423Z" fill="white"/>
<path d="M197.596 109.923C197.596 109.923 196.772 109.717 196.566 109.408C196.154 108.79 196.257 108.068 196.875 107.656L213.462 95.6027C213.977 95.1906 214.801 95.2937 215.213 95.9118C215.625 96.5299 215.522 97.2511 214.904 97.6632L198.317 109.717C198.317 109.717 197.802 109.923 197.596 109.923Z" fill="white"/>
<path d="M166.484 90.1427C166.484 90.1427 166.175 90.1427 166.072 90.1427C165.35 89.9367 165.041 89.2155 165.247 88.4944L171.944 67.787C172.15 67.1688 172.871 66.7567 173.592 66.9628C174.313 67.1688 174.622 67.89 174.416 68.6111L167.72 89.3185C167.514 89.8337 166.999 90.2457 166.484 90.2457V90.1427Z" fill="white"/>
<path d="M129.808 90.145C129.293 90.145 128.777 89.8359 128.571 89.2178L122.184 69.5406C121.978 68.8194 122.287 68.0983 123.008 67.8923C123.729 67.6862 124.45 67.9953 124.657 68.7164L131.044 88.3936C131.25 89.1148 130.941 89.8359 130.22 90.042C130.117 90.042 129.911 90.042 129.808 90.042V90.145Z" fill="white"/>
<path d="M100.343 112.705C100.343 112.705 99.8281 112.705 99.622 112.499L83.0355 100.445C82.4174 100.033 82.3143 99.2091 82.7264 98.694C83.1385 98.0759 83.9627 97.9729 84.4778 98.3849L101.064 110.439C101.682 110.851 101.786 111.675 101.373 112.19C101.167 112.499 100.755 112.705 100.343 112.705Z" fill="white"/>
<path d="M89.6289 147.632C89.6289 147.632 89.6289 147.632 89.5259 147.632L69.2305 145.366C68.5094 145.366 67.9943 144.644 68.0973 143.923C68.2003 143.202 68.7154 142.687 69.5396 142.79L89.8349 145.056C90.5561 145.056 91.0712 145.778 90.9682 146.499C90.9682 147.117 90.35 147.632 89.7319 147.632H89.6289Z" fill="white"/>
</g>
<defs>
<clipPath id="clip0_38_279">
<rect width="300" height="300" fill="white"/>
</clipPath>
</defs>
</svg>
