<svg width="300" height="300" viewBox="0 0 300 300" fill="none" xmlns="http://www.w3.org/2000/svg">
<g clip-path="url(#clip0_38_320)">
<path d="M150 300C67.313 300 0 232.687 0 150C0 67.313 67.313 0 150 0C232.687 0 300 67.313 300 150C300 232.687 232.687 300 150 300ZM150 7.79086C71.572 7.79086 7.79086 71.572 7.79086 150C7.79086 228.428 71.572 292.209 150 292.209C228.428 292.209 292.209 228.428 292.209 150C292.209 71.572 228.428 7.79086 150 7.79086Z" fill="white"/>
<path d="M237.881 128.499H65.8587V131.095H237.881V128.499Z" fill="white"/>
<path d="M151.87 184.904C117.694 184.904 88.608 160.805 85.6994 129.953V128.499H218.248V129.953C215.235 160.805 186.15 184.904 151.87 184.904ZM88.4003 131.095C91.9321 159.87 119.46 182.307 151.87 182.307C184.28 182.307 211.807 159.974 215.339 131.095H88.4003Z" fill="white"/>
<path d="M70.8448 196.434L69.3905 194.357L94.2174 177.425L95.6717 179.606L70.8448 196.434Z" fill="white"/>
<path d="M104.917 220.847L102.839 219.392L119.252 193.838L121.433 195.293L104.917 220.847Z" fill="white"/>
<path d="M209.95 178.602L208.493 180.752L233.343 197.596L234.8 195.446L209.95 178.602Z" fill="white"/>
<path d="M184.956 195.053L182.773 196.46L199.209 221.954L201.392 220.547L184.956 195.053Z" fill="white"/>
<path d="M150.576 203.548L150.242 232.113L152.839 232.143L153.173 203.579L150.576 203.548Z" fill="white"/>
</g>
<defs>
<clipPath id="clip0_38_320">
<rect width="300" height="300" fill="white"/>
</clipPath>
</defs>
</svg>
