<svg width="300" height="300" viewBox="0 0 300 300" fill="none" xmlns="http://www.w3.org/2000/svg">
<g clip-path="url(#clip0_38_124)">
<path d="M150 300C67.2771 300 0 232.723 0 150C0 67.2771 67.2771 0 150 0C232.723 0 300 67.2771 300 150C300 232.723 232.723 300 150 300ZM150 7.77471C71.631 7.77471 7.77471 71.631 7.77471 150C7.77471 228.369 71.631 292.225 150 292.225C228.369 292.225 292.225 228.369 292.225 150C292.225 71.631 228.473 7.77471 150 7.77471Z" fill="#1C1E28"/>
<path d="M109.986 106.253C132.688 85.5205 167.415 85.5205 190.117 106.253L224.43 71.9407C182.757 32.2379 117.346 32.2379 75.7774 71.9407L110.09 106.253H109.986Z" fill="#1C1E28"/>
<g opacity="0.2">
<path d="M106.358 190.014C85.6254 167.312 85.6254 132.585 106.358 109.883L72.0456 75.5703C32.3428 117.243 32.3428 182.654 72.0456 224.223L106.358 189.91V190.014Z" fill="#1C1E28"/>
</g>
<g opacity="0.8">
<path d="M193.746 109.987C214.478 132.689 214.478 167.416 193.746 190.118L228.058 224.431C267.761 182.758 267.761 117.347 228.058 75.7783L193.746 110.091V109.987Z" fill="#1C1E28"/>
</g>
<g opacity="0.4">
<path d="M190.118 193.745C167.415 214.478 132.688 214.478 109.986 193.745L75.6738 228.057C117.346 267.76 182.757 267.76 224.326 228.057L190.014 193.745H190.118Z" fill="#1C1E28"/>
</g>
</g>
<defs>
<clipPath id="clip0_38_124">
<rect width="300" height="300" fill="white"/>
</clipPath>
</defs>
</svg>
