<svg width="300" height="300" viewBox="0 0 300 300" fill="none" xmlns="http://www.w3.org/2000/svg">
<g clip-path="url(#clip0_9_13)">
<path fill-rule="evenodd" clip-rule="evenodd" d="M149.948 7.7293C71.3889 7.7293 7.67777 71.4405 7.67777 150C7.67777 228.561 71.2877 292.271 149.948 292.271C228.613 292.271 292.322 228.558 292.322 150C292.322 71.444 228.512 7.7293 149.948 7.7293ZM-0.0515289 150C-0.0515289 67.1717 67.1202 0 149.948 0C232.773 0 300.052 67.1681 300.052 150C300.052 232.83 232.878 300 149.948 300C67.0153 300 -0.0515289 232.827 -0.0515289 150Z" fill="#1C1E28"/>
<path fill-rule="evenodd" clip-rule="evenodd" d="M207.617 102.563L207.183 180.831L205.161 179.39C200.517 176.08 195.483 174.536 191.584 173.824C189.639 173.469 187.989 173.323 186.831 173.265C186.252 173.237 185.798 173.23 185.492 173.231C185.339 173.231 185.223 173.233 185.148 173.235L185.066 173.237L185.048 173.238L184.988 173.241C177.101 173.241 169.982 175.662 164.864 179.488C159.744 183.317 156.699 188.48 156.699 194.005C156.699 199.534 159.721 204.697 164.827 208.523C169.93 212.348 177.048 214.772 184.988 214.772C192.931 214.772 200.048 212.372 205.15 208.561C210.252 204.75 213.277 199.588 213.277 194.005H215.854C215.854 200.584 212.283 206.449 206.692 210.625C201.102 214.801 193.431 217.348 184.988 217.348C176.542 217.348 168.87 214.773 163.282 210.585C157.695 206.398 154.122 200.535 154.122 194.005C154.122 187.473 157.724 181.609 163.322 177.425C168.916 173.243 176.576 170.668 184.962 170.663L184.975 170.663L185.085 170.659C185.179 170.657 185.314 170.655 185.487 170.654C185.833 170.654 186.332 170.661 186.958 170.692C188.209 170.754 189.973 170.911 192.047 171.289C195.638 171.945 200.196 173.275 204.633 175.962L205.024 105.51L126.091 116.088V205.651H123.514V113.833L207.617 102.563Z" fill="#1C1E28"/>
<path fill-rule="evenodd" clip-rule="evenodd" d="M216.898 71.0517L215.75 194.018L213.174 193.994L214.294 73.9502L115.574 85.4994L115.157 190.845L113.202 189.64C108.962 187.027 104.4 185.806 100.87 185.242C99.1105 184.962 97.6212 184.847 96.5767 184.802C96.0548 184.779 95.6451 184.774 95.3695 184.775C95.2317 184.775 95.1275 184.777 95.0596 184.778L94.9855 184.78L94.9696 184.781L94.9155 184.783C86.9724 184.783 79.8551 187.181 74.7529 190.993C69.651 194.804 66.6263 199.966 66.6263 205.548C66.6263 211.132 69.6271 216.267 74.7123 220.05C79.7992 223.835 86.9165 226.211 94.9155 226.211C102.915 226.211 110.086 223.834 115.227 220.047C120.366 216.26 123.411 211.124 123.411 205.548H125.987C125.987 212.132 122.385 217.973 116.755 222.121C111.126 226.269 103.405 228.787 94.9155 228.787C86.4254 228.787 78.7539 226.268 73.1744 222.117C67.5931 217.965 64.0499 212.125 64.0499 205.548C64.0499 198.969 67.6208 193.104 73.2111 188.929C78.7962 184.757 86.4588 182.21 94.8928 182.206L94.904 182.205L95.0026 182.203C95.087 182.201 95.2085 182.199 95.3642 182.198C95.6755 182.198 96.124 182.203 96.6875 182.228C97.8137 182.276 99.4031 182.399 101.276 182.698C104.489 183.211 108.577 184.247 112.599 186.339L113.007 83.2057L216.898 71.0517Z" fill="#1C1E28"/>
</g>
<defs>
<clipPath id="clip0_9_13">
<rect width="300" height="300" fill="white"/>
</clipPath>
</defs>
</svg>
