<svg width="300" height="300" viewBox="0 0 300 300" fill="none" xmlns="http://www.w3.org/2000/svg">
<g clip-path="url(#clip0_38_237)">
<path d="M163.92 198.824H156.752V180.229H163.608C166.413 180.229 174.931 180.229 174.931 189.059C174.931 193.526 173.061 198.824 163.92 198.824ZM159.349 196.227H163.92C169.633 196.227 172.334 193.941 172.334 189.059C172.334 185.839 171.295 182.826 163.608 182.826H159.349V196.227Z" fill="white"/>
<path d="M149.688 251.075C118.213 251.075 92.6593 225.417 92.6593 193.942C92.6593 193.319 90.4779 121.955 142.832 64.5099C144.598 62.5362 147.091 61.3936 149.792 61.3936C152.389 61.3936 154.986 62.5362 156.752 64.5099C209.107 121.955 206.925 193.319 206.925 193.942C206.925 225.313 181.267 250.971 149.792 250.971L149.688 251.075ZM149.688 64.0944C147.819 64.0944 145.949 64.9254 144.702 66.2758C93.0748 122.993 95.2563 193.215 95.2563 193.942C95.2563 224.067 119.668 248.478 149.688 248.478C179.709 248.478 204.224 224.067 204.224 193.942C204.224 193.215 206.302 122.889 154.778 66.2758C153.532 64.8215 151.662 64.0944 149.792 64.0944H149.688ZM159.349 226.352H144.806V170.777H164.335C178.982 170.777 186.669 177.114 186.669 189.164C186.669 201.213 178.255 208.485 164.647 208.485H159.349V226.456V226.352ZM147.403 223.755H156.752V205.784H164.647C176.801 205.784 184.072 199.551 184.072 189.06C184.072 178.568 177.424 173.27 164.335 173.27H147.403V223.651V223.755ZM134.522 226.352H119.979V170.777H134.522V226.352ZM122.472 223.755H131.821V173.374H122.472V223.755Z" fill="white"/>
<path d="M150 300C67.313 300 0 232.687 0 150C0 67.313 67.313 0 150 0C232.687 0 300 67.313 300 150C300 232.687 232.687 300 150 300ZM150 7.79086C71.572 7.79086 7.79086 71.572 7.79086 150C7.79086 228.428 71.572 292.209 150 292.209C228.428 292.209 292.209 228.428 292.209 150C292.209 71.572 228.428 7.79086 150 7.79086Z" fill="white"/>
</g>
<defs>
<clipPath id="clip0_38_237">
<rect width="300" height="300" fill="white"/>
</clipPath>
</defs>
</svg>
