<svg width="300" height="300" viewBox="0 0 300 300" fill="none" xmlns="http://www.w3.org/2000/svg">
<g clip-path="url(#clip0_38_201)">
<path d="M150 300C67.3123 300 0.0513916 232.636 0.0513916 149.949C0.0513916 67.2609 67.3123 0 150 0C232.688 0 299.949 67.2609 299.949 149.949C299.949 232.636 232.688 299.897 150 299.897V300ZM150 7.7134C71.6318 7.7134 7.7648 71.5804 7.7648 149.949C7.7648 228.317 71.6318 292.184 150 292.184C228.368 292.184 292.235 228.317 292.235 149.949C292.235 71.5804 228.471 7.7134 150 7.7134Z" fill="white"/>
<path d="M280.202 185.639H19.8999V188.21H280.202V185.639Z" fill="white"/>
<path d="M91.8916 187.177H73.7908V127.321H91.8916V187.177ZM76.3619 184.606H89.3204V129.892H76.3619V184.606Z" fill="white"/>
<path d="M118.837 187.177H100.736V148.096H118.837V187.177ZM103.307 184.606H116.266V150.667H103.307V184.606Z" fill="white"/>
<path d="M145.782 187.179H127.682V101.098H145.782V187.179ZM130.253 184.608H143.211V103.669H130.253V184.608Z" fill="white"/>
<path d="M172.728 187.179H154.627V118.478H172.728V187.179ZM157.095 184.608H170.054V121.049H157.095V184.608Z" fill="white"/>
<path d="M199.673 187.18H181.573V107.063H199.673V187.18ZM184.041 184.609H196.999V109.635H184.041V184.609Z" fill="white"/>
<path d="M226.619 187.179H208.518V136.476H226.619V187.179ZM210.986 184.608H223.945V139.047H210.986V184.608Z" fill="white"/>
</g>
<defs>
<clipPath id="clip0_38_201">
<rect width="300" height="300" fill="white"/>
</clipPath>
</defs>
</svg>
