<?xml version="1.0" encoding="UTF-8"?>
<svg id="Layer_1" xmlns="http://www.w3.org/2000/svg" version="1.1" viewBox="0 0 300 300">
  <!-- Generator: Adobe Illustrator 30.1.0, SVG Export Plug-In . SVG Version: 2.1.1 Build 136)  -->
  <defs>
    <style>
      .st0 {
        fill: #fff;
      }
    </style>
  </defs>
  <g>
    <path class="st0" d="M149.99,277.44c-70.26,0-127.42-57.17-127.42-127.44S79.73,22.56,149.99,22.56s127.43,57.17,127.43,127.43-57.17,127.44-127.43,127.44ZM149.99,29.09c-66.66,0-120.89,54.24-120.89,120.9s54.23,120.91,120.89,120.91,120.9-54.24,120.9-120.91S216.66,29.09,149.99,29.09Z"/>
    <path class="st0" d="M150,189.69c-21.89,0-39.69-17.81-39.69-39.69s17.81-39.69,39.69-39.69,39.69,17.81,39.69,39.69-17.81,39.69-39.69,39.69ZM150,112.48c-20.69,0-37.52,16.83-37.52,37.52s16.83,37.52,37.52,37.52,37.52-16.83,37.52-37.52-16.83-37.52-37.52-37.52Z"/>
    <rect class="st0" x="148.91" y="65.13" width="2.18" height="30.25"/>
    <rect class="st0" x="99.59" y="85.56" width="2.18" height="30.24" transform="translate(-41.7 100.68) rotate(-45)"/>
    <rect class="st0" x="65.12" y="148.91" width="30.25" height="2.18"/>
    <rect class="st0" x="85.56" y="198.23" width="30.24" height="2.18" transform="translate(-111.45 129.57) rotate(-45)"/>
    <rect class="st0" x="148.91" y="204.63" width="2.18" height="30.25"/>
    <rect class="st0" x="198.23" y="184.2" width="2.18" height="30.24" transform="translate(-82.56 199.32) rotate(-45)"/>
    <rect class="st0" x="204.62" y="148.91" width="30.25" height="2.18"/>
    <rect class="st0" x="184.2" y="99.59" width="30.24" height="2.18" transform="translate(-12.81 170.43) rotate(-45)"/>
  </g>
  <g>
    <path class="st0" d="M133.28,134.55h4.3v31.41h-4.3v-31.41Z"/>
    <path class="st0" d="M145.21,134.55h14.28c2.35,0,4.29.35,5.82,1.05,2.9,1.34,4.35,3.81,4.35,7.42,0,1.88-.39,3.42-1.17,4.62s-1.86,2.16-3.26,2.89c1.23.5,2.15,1.15,2.77,1.97.62.81.97,2.13,1.04,3.96l.15,4.21c.04,1.2.14,2.09.3,2.67.26,1,.71,1.64,1.37,1.92v.71h-5.22c-.14-.27-.26-.62-.34-1.05-.09-.43-.16-1.25-.21-2.48l-.26-5.24c-.1-2.05-.84-3.43-2.22-4.13-.79-.38-2.03-.58-3.72-.58h-9.41v13.47h-4.25v-31.41ZM159.03,148.94c1.94,0,3.48-.4,4.61-1.2,1.13-.8,1.69-2.24,1.69-4.32,0-2.24-.79-3.76-2.37-4.58-.85-.43-1.98-.64-3.39-.64h-10.1v10.73h9.56Z"/>
  </g>
</svg>