<?xml version="1.0" encoding="UTF-8"?>
<svg id="Layer_1" xmlns="http://www.w3.org/2000/svg" version="1.1" viewBox="0 0 300 300">
  <!-- Generator: Adobe Illustrator 30.1.0, SVG Export Plug-In . SVG Version: 2.1.1 Build 136)  -->
  <defs>
    <style>
      .st0 {
        fill: #fff;
      }
    </style>
  </defs>
  <path class="st0" d="M150.01,277.43h-.38c-33.95-.1-65.89-13.47-89.93-37.65-24.05-24.18-37.23-56.19-37.12-90.14.09-33.95,13.46-65.89,37.65-89.93,24.09-23.95,55.96-37.13,89.77-37.13h.38c33.95.09,65.89,13.47,89.93,37.65,24.05,24.19,37.23,56.2,37.13,90.15-.21,70.14-57.34,127.06-127.42,127.06ZM149.99,29.1c-32.07,0-62.3,12.5-85.16,35.23-22.95,22.81-35.63,53.11-35.72,85.32-.1,32.2,12.41,62.58,35.22,85.52,22.81,22.94,53.12,35.63,85.32,35.73h.36c66.49,0,120.69-54,120.89-120.55.09-32.2-12.42-62.58-35.23-85.52-22.81-22.95-53.11-35.63-85.32-35.72h-.36Z"/>
  <rect class="st0" x="71.94" y="153.96" width="149.76" height="2.18" transform="translate(-66.64 149.23) rotate(-45)"/>
  <path class="st0" d="M111.84,146.29l-.79-2.03c.05-.02,5.13-2.06,6.14-6.33l2.12.5c-1.28,5.39-7.21,7.76-7.47,7.86Z"/>
  <path class="st0" d="M103.96,161.75c-16.22,0-29.42-13.2-29.42-29.42s26.5-64.02,29.27-65.88l.48-.32.64.19-.02.06c4.29,2.87,28.48,51.4,28.48,65.96,0,16.22-13.2,29.42-29.43,29.42ZM104.53,68.94c-4.18,6.24-27.81,49.09-27.81,63.39,0,15.02,12.22,27.24,27.24,27.24s27.26-12.22,27.26-27.24c0-13.82-22.12-56.91-26.69-63.39Z"/>
  <path class="st0" d="M184.32,212.94c-11.24,0-20.39-9.14-20.39-20.39s9.15-20.39,20.39-20.39,20.39,9.14,20.39,20.39-9.14,20.39-20.39,20.39ZM184.32,174.34c-10.05,0-18.22,8.17-18.22,18.21s8.17,18.21,18.22,18.21,18.21-8.17,18.21-18.21-8.17-18.21-18.21-18.21Z"/>
  <rect class="st0" x="183.23" y="150.12" width="2.18" height="15.12"/>
  <rect class="st0" x="158.57" y="160.33" width="2.18" height="15.12" transform="translate(-71.95 162.07) rotate(-45)"/>
  <rect class="st0" x="141.89" y="191.46" width="15.11" height="2.18"/>
  <rect class="st0" x="152.1" y="216.12" width="15.12" height="2.18" transform="translate(-106.83 176.52) rotate(-45)"/>
  <rect class="st0" x="183.23" y="219.87" width="2.18" height="15.11"/>
  <rect class="st0" x="207.89" y="209.65" width="2.18" height="15.12" transform="translate(-92.38 211.39) rotate(-45)"/>
  <rect class="st0" x="211.63" y="191.46" width="15.11" height="2.18"/>
  <rect class="st0" x="201.42" y="166.8" width="15.12" height="2.18" transform="translate(-57.51 196.94) rotate(-45)"/>
</svg>