<?xml version="1.0" encoding="UTF-8"?>
<svg id="Layer_1" xmlns="http://www.w3.org/2000/svg" version="1.1" viewBox="0 0 300 300">
  <!-- Generator: Adobe Illustrator 30.1.0, SVG Export Plug-In . SVG Version: 2.1.1 Build 136)  -->
  <defs>
    <style>
      .st0 {
        fill: #fff;
      }
    </style>
  </defs>
  <path class="st0" d="M150.01,277.43h-.38c-33.95-.1-65.89-13.47-89.93-37.65-24.05-24.18-37.23-56.19-37.13-90.14.09-33.95,13.47-65.89,37.65-89.93,24.18-24.05,56.08-37.33,90.15-37.13,33.95.09,65.89,13.47,89.93,37.65,24.04,24.18,37.22,56.2,37.13,90.15-.1,33.95-13.47,65.89-37.65,89.93-24.09,23.95-55.96,37.13-89.76,37.13ZM149.99,29.1c-32.07,0-62.3,12.5-85.17,35.23-22.94,22.81-35.63,53.11-35.72,85.32-.1,32.2,12.41,62.58,35.23,85.52,22.81,22.94,53.12,35.63,85.32,35.73h.36c32.07,0,62.3-12.5,85.16-35.23,22.94-22.81,35.63-53.11,35.72-85.32.09-32.2-12.42-62.58-35.23-85.52-22.81-22.95-53.11-35.63-85.32-35.72h-.36Z"/>
  <path class="st0" d="M202.24,161.37h.02c10.51,1.58,9.93,9.46,9.93,9.46l-33.43,34.34c6.39.57,19.25.99,38.53-1.76,3.35-5.2,5.3-11.38,5.3-18.02,0-18.42-14.94-33.36-33.36-33.36-9.46,0-17.99,3.94-24.06,10.27,19.56-2.44,31.81-1.58,37.07-.92"/>
  <path class="st0" d="M176.11,208.23h-.02c-10.51-1.58-9.93-9.46-9.93-9.46l33.43-34.34c-6.28-.57-18.81-.98-37.53,1.62-3.89,5.45-6.19,12.13-6.19,19.34,0,18.42,14.93,33.36,33.36,33.36,10.11,0,19.16-4.5,25.28-11.61-20.34,2.65-33.02,1.76-38.4,1.09"/>
  <rect class="st0" x="68.11" y="147" width="167.62" height="2.18" transform="translate(-60.22 150.79) rotate(-45)"/>
  <path class="st0" d="M110.84,81.25c-18.43,0-33.43,14.99-33.43,33.43s14.79,33.22,33.05,33.42v-33.39h-10.94c-3.25,0-5.89,2.65-5.89,5.9s2.65,5.89,5.89,5.89v7.29c-7.26,0-13.17-5.92-13.17-13.18s5.91-13.18,13.17-13.18h10.94v-3.68c0-6.05,4.92-10.98,10.96-10.98s10.98,4.93,10.98,10.98-4.93,10.96-10.98,10.96h-3.68v32.68c15.12-3.2,26.52-16.64,26.52-32.7,0-18.43-14.99-33.43-33.42-33.43"/>
  <path class="st0" d="M125.12,103.73c0-2.03-1.65-3.68-3.69-3.68s-3.68,1.65-3.68,3.68v3.68h3.68c2.04,0,3.69-1.65,3.69-3.68"/>
</svg>