<?xml version="1.0" encoding="UTF-8"?>
<svg id="Layer_1" xmlns="http://www.w3.org/2000/svg" version="1.1" viewBox="0 0 300 300">
  <!-- Generator: Adobe Illustrator 30.1.0, SVG Export Plug-In . SVG Version: 2.1.1 Build 136)  -->
  <defs>
    <style>
      .st0 {
        fill: #fff;
      }
    </style>
  </defs>
  <path class="st0" d="M150,277.43c-70.26,0-127.42-57.17-127.42-127.43S79.74,22.57,150,22.57s127.43,57.16,127.43,127.43-57.16,127.43-127.43,127.43ZM150,29.1c-66.66,0-120.89,54.23-120.89,120.9s54.23,120.9,120.89,120.9,120.9-54.24,120.9-120.9S216.66,29.1,150,29.1Z"/>
  <path class="st0" d="M216.68,189.35H71.34c-2.25,0-4.09-1.84-4.09-4.09v-70.53c0-2.25,1.84-4.09,4.09-4.09h145.33c2.26,0,4.09,1.84,4.09,4.09v70.53c0,2.26-1.84,4.09-4.09,4.09ZM71.34,112.82c-1.05,0-1.91.86-1.91,1.91v70.53c0,1.06.86,1.92,1.91,1.92h145.33c1.06,0,1.92-.86,1.92-1.92v-70.53c0-1.05-.86-1.91-1.92-1.91H71.34Z"/>
  <path class="st0" d="M230.17,167.4h-10.49c-.6,0-1.09-.49-1.09-1.09v-32.63c0-.6.49-1.09,1.09-1.09h10.49c1.42,0,2.58,1.16,2.58,2.58v29.65c0,1.42-1.16,2.58-2.58,2.58ZM220.76,165.23h9.4c.23,0,.4-.17.4-.4v-29.65c0-.23-.17-.4-.4-.4h-9.4v30.46Z"/>
  <path class="st0" d="M91.93,184.88h-14.78c-2.2,0-4-1.8-4-4v-60.93c0-2.2,1.79-4,4-4h14.78c2.21,0,4,1.79,4,4v60.93c0,2.21-1.8,4-4,4ZM77.16,118.13c-1,0-1.82.82-1.82,1.82v60.93c0,1.01.82,1.83,1.82,1.83h14.78c1.01,0,1.83-.82,1.83-1.83v-60.93c0-1-.82-1.82-1.83-1.82h-14.78Z"/>
  <path class="st0" d="M115.68,184.88h-14.77c-2.2,0-4-1.8-4-4v-60.93c0-2.2,1.79-4,4-4h14.77c2.21,0,4,1.79,4,4v60.93c0,2.21-1.8,4-4,4ZM100.9,118.13c-1,0-1.82.82-1.82,1.82v60.93c0,1.01.82,1.83,1.82,1.83h14.77c1.01,0,1.83-.82,1.83-1.83v-60.93c0-1-.82-1.82-1.83-1.82h-14.77Z"/>
  <path class="st0" d="M139.42,184.88h-14.77c-2.2,0-4-1.8-4-4v-60.93c0-2.2,1.79-4,4-4h14.77c2.21,0,4,1.79,4,4v60.93c0,2.21-1.8,4-4,4ZM124.65,118.13c-1,0-1.82.82-1.82,1.82v60.93c0,1.01.82,1.83,1.82,1.83h14.77c1.01,0,1.83-.82,1.83-1.83v-60.93c0-1-.82-1.82-1.83-1.82h-14.77Z"/>
  <path class="st0" d="M163.17,184.88h-14.78c-2.2,0-4-1.8-4-4v-60.93c0-2.2,1.79-4,4-4h14.78c2.21,0,4,1.79,4,4v60.93c0,2.21-1.8,4-4,4ZM148.4,118.13c-1,0-1.82.82-1.82,1.82v60.93c0,1.01.82,1.83,1.82,1.83h14.78c1.01,0,1.83-.82,1.83-1.83v-60.93c0-1-.82-1.82-1.83-1.82h-14.78Z"/>
  <path class="st0" d="M186.92,184.88h-14.77c-2.2,0-4-1.8-4-4v-60.93c0-2.2,1.79-4,4-4h14.77c2.21,0,4,1.79,4,4v60.93c0,2.21-1.8,4-4,4ZM172.14,118.13c-1,0-1.82.82-1.82,1.82v60.93c0,1.01.82,1.83,1.82,1.83h14.77c1.01,0,1.83-.82,1.83-1.83v-60.93c0-1-.82-1.82-1.83-1.82h-14.77Z"/>
  <path class="st0" d="M210.66,184.88h-14.78c-2.2,0-4-1.8-4-4v-60.93c0-2.2,1.79-4,4-4h14.78c2.21,0,4,1.79,4,4v60.93c0,2.21-1.8,4-4,4ZM195.89,118.13c-1,0-1.82.82-1.82,1.82v60.93c0,1.01.82,1.83,1.82,1.83h14.78c1.01,0,1.83-.82,1.83-1.83v-60.93c0-1-.82-1.82-1.83-1.82h-14.78Z"/>
</svg>