<?xml version="1.0" encoding="UTF-8"?>
<svg id="Layer_1" xmlns="http://www.w3.org/2000/svg" version="1.1" viewBox="0 0 300 300">
  <!-- Generator: Adobe Illustrator 30.1.0, SVG Export Plug-In . SVG Version: 2.1.1 Build 136)  -->
  <defs>
    <style>
      .st0 {
        fill: #fff;
      }
    </style>
  </defs>
  <path class="st0" d="M150.01,277.43h-.38c-33.95-.1-65.89-13.47-89.93-37.65-24.05-24.18-37.23-56.19-37.13-90.14.09-33.95,13.47-65.89,37.65-89.93,24.18-24.05,55.98-37.33,90.15-37.13,33.95.09,65.89,13.47,89.93,37.65,24.04,24.18,37.22,56.2,37.13,90.15-.1,33.95-13.47,65.89-37.65,89.93-24.09,23.95-55.96,37.13-89.76,37.13ZM149.99,29.1c-32.07,0-62.3,12.5-85.17,35.23-22.94,22.81-35.63,53.11-35.72,85.32-.1,32.2,12.41,62.58,35.23,85.52,22.81,22.94,53.12,35.63,85.32,35.73h.36c32.07,0,62.3-12.5,85.16-35.23,22.94-22.81,35.63-53.11,35.72-85.32.09-32.2-12.42-62.58-35.23-85.52-22.81-22.95-53.11-35.63-85.32-35.72h-.36Z"/>
  <path class="st0" d="M183.12,212.96h-66.24c-1.99,0-3.85-1.07-4.85-2.79l-33.12-57.36c-.99-1.73-.99-3.88,0-5.6l33.12-57.37c1.01-1.73,2.87-2.8,4.86-2.8h66.24c1.99,0,3.85,1.07,4.85,2.8l33.12,57.37c.99,1.72,1,3.86,0,5.6l-33.12,57.36c-.99,1.73-2.85,2.8-4.85,2.8ZM116.88,89.21c-1.22,0-2.36.65-2.97,1.71l-33.11,57.37c-.61,1.05-.61,2.36,0,3.43l33.12,57.35c.61,1.05,1.75,1.71,2.97,1.71h66.24c1.22,0,2.36-.65,2.96-1.71l33.12-57.36c.61-1.06.61-2.37,0-3.42l-33.12-57.38c-.61-1.05-1.74-1.71-2.96-1.71h-66.24Z"/>
  <path class="st0" d="M149.99,166.12c-8.88,0-16.1-7.23-16.1-16.12s7.22-16.12,16.1-16.12,16.12,7.23,16.12,16.12-7.23,16.12-16.12,16.12ZM149.99,136.06c-7.68,0-13.93,6.25-13.93,13.94s6.25,13.94,13.93,13.94,13.94-6.25,13.94-13.94-6.25-13.94-13.94-13.94Z"/>
</svg>