<svg width="300" height="300" viewBox="0 0 300 300" fill="none" xmlns="http://www.w3.org/2000/svg">
<g clip-path="url(#clip0_613_614)">
<path d="M149.948 0C232.696 0 300 67.3041 300 150.052C300 232.8 232.696 300.104 149.948 300.104V300C67.2004 300 -0.103516 232.695 -0.103516 150.052C-0.103294 67.4085 67.2006 2.32157e-05 149.948 0ZM149.948 7.82617C71.4788 7.8262 7.72288 71.5824 7.72266 150.052C7.72266 228.521 71.4787 292.174 149.948 292.174C228.418 292.174 292.175 228.417 292.175 150.052C292.175 71.6867 228.313 7.82617 149.948 7.82617ZM166.122 173.529C191.478 169.982 208.487 170.608 216.939 171.339L171.757 217.773C171.754 217.822 171.058 228.422 185.217 230.608L185.113 230.712C192.418 231.651 209.531 232.8 237.078 229.252C228.73 238.852 216.522 244.903 202.853 244.903C178.018 244.903 157.773 224.66 157.773 199.721C157.774 189.912 160.905 180.938 166.122 173.529ZM233.635 69.9102L73.252 230.293L71.374 228.415L231.757 68.1367L233.635 69.9102ZM202.957 154.433C227.896 154.433 248.14 174.676 248.14 199.615C248.14 208.589 245.426 217.041 240.939 224.032C214.957 227.789 197.531 227.163 188.87 226.433L234.053 179.998C234.053 179.998 234.783 169.355 220.592 167.163V167.059C213.392 166.224 196.905 164.971 170.4 168.311C178.644 159.754 190.122 154.433 202.957 154.433ZM96.9395 58.7461C121.879 58.7462 142.122 78.9896 142.122 103.929C142.122 125.633 126.679 143.893 106.227 148.172V103.929H111.235C119.374 103.929 126.053 97.2503 126.053 89.1113C126.053 80.9723 119.374 74.2941 111.235 74.2939C103.096 74.2939 96.418 80.9722 96.418 89.1113V94.1201H81.6006C71.7919 94.1201 63.7568 102.155 63.7568 111.964C63.757 121.772 71.792 129.807 81.6006 129.807V119.894C77.2181 119.894 73.6701 116.451 73.6699 111.964C73.6699 107.477 77.218 103.929 81.6006 103.929H96.418V149.111C71.7919 148.903 51.7568 128.868 51.7568 103.929C51.7568 78.9896 72.0003 58.7461 96.9395 58.7461ZM111.234 84.2061C114.052 84.2061 116.243 86.5018 116.243 89.2148C116.243 92.0322 113.947 94.2236 111.234 94.2236H106.226V89.2148C106.226 86.3975 108.417 84.2062 111.234 84.2061Z" fill="#1C1E28"/>
</g>
<defs>
<clipPath id="clip0_613_614">
<rect width="300" height="300" fill="white"/>
</clipPath>
</defs>
</svg>
