<svg width="300" height="300" viewBox="0 0 300 300" fill="none" xmlns="http://www.w3.org/2000/svg">
<g clip-path="url(#clip0_613_555)">
<path d="M150 0C232.68 0 300 67.3196 300 150C300 232.68 232.68 300 150 300C67.3196 300 0 232.68 0 150C2.15448e-06 67.3196 67.3196 2.15503e-06 150 0ZM150 7.73242C71.5464 7.73242 7.73242 71.5464 7.73242 150C7.73242 228.454 71.5464 292.268 150 292.268C228.454 292.268 292.268 228.454 292.268 150C292.268 71.5464 228.454 7.73242 150 7.73242ZM74.6396 130.618C95.6703 136.391 114.639 150.206 126.392 170.618C138.247 191.031 140.721 214.33 135.154 235.464H135.052L114.433 223.505C116.082 213.196 115.258 202.474 111.547 192.268L63.2988 220.104L51.959 213.505V200.412L100.206 172.577C93.1958 164.33 84.3302 158.144 74.6396 154.433V130.618ZM225.154 154.433C215.464 158.144 206.598 164.33 199.588 172.577L247.835 200.412V213.505L236.495 220.104L188.247 192.268C184.639 202.474 183.711 213.196 185.36 223.505L164.742 235.464C159.278 214.33 161.752 191.031 173.505 170.618C185.238 150.136 204.165 136.436 225.154 130.646V154.433ZM225.154 130.646V130.618H225.258C225.223 130.628 225.189 130.637 225.154 130.646ZM161.237 50.4121V106.186C171.856 104.227 181.649 99.6906 189.69 93.0928L210.31 105.052C194.743 120.413 173.402 129.896 149.794 129.896C126.186 129.896 104.845 120.413 89.2783 105.052L109.896 93.0928H110.104C118.145 99.6906 127.938 104.227 138.557 106.186V50.4121L149.896 43.8145L161.237 50.4121Z" fill="#1C1E28"/>
</g>
<defs>
<clipPath id="clip0_613_555">
<rect width="300" height="300" fill="white"/>
</clipPath>
</defs>
</svg>
