<svg width="300" height="300" viewBox="0 0 300 300" fill="none" xmlns="http://www.w3.org/2000/svg">
<g clip-path="url(#clip0_33_1351)">
<path d="M150 300C67.3523 300 0.0518799 232.7 0.0518799 149.948C0.0518799 67.1967 67.3523 0 150 0C232.648 0 299.948 67.3004 299.948 149.948C299.948 232.596 232.648 299.896 150 299.896V300ZM150 7.77739C71.6039 7.77739 7.82927 71.552 7.82927 149.948C7.82927 228.344 71.6039 292.119 150 292.119C228.396 292.119 292.171 228.344 292.171 149.948C292.171 71.552 228.5 7.77739 150 7.77739Z" fill="#1C1E28"/>
<path d="M208.693 224.092H83.3218V204.39H208.693V224.092ZM87.8846 219.53H204.131V208.952H87.8846V219.53Z" fill="#1C1E28"/>
<path d="M242.603 226.165H49.5161C48.894 226.165 48.3755 225.647 48.3755 225.024C48.3755 224.402 48.894 223.884 49.5161 223.884H242.499C243.121 223.884 243.64 224.402 243.64 225.024C243.64 225.647 243.121 226.165 242.499 226.165" fill="#1C1E28"/>
<path d="M243.847 196.509H221.76V87.8325H243.847V196.509ZM226.322 191.946H239.285V92.3953H226.322V191.946Z" fill="#1C1E28"/>
<path d="M243.018 226.478C242.396 226.478 241.877 225.96 241.877 225.338V58.9014C241.877 58.2792 242.396 57.7607 243.018 57.7607C243.64 57.7607 244.158 58.2792 244.158 58.9014V225.234C244.158 225.856 243.64 226.375 243.018 226.375" fill="#1C1E28"/>
<path d="M210.041 145.282H160.577C160.577 145.282 159.955 145.075 159.955 144.764C159.955 144.453 160.266 144.245 160.577 144.245H208.59L203.716 140.097C203.716 140.097 203.405 139.579 203.716 139.268C203.923 139.06 204.338 139.06 204.545 139.268L210.56 144.453C210.56 144.453 210.767 144.867 210.767 145.075C210.767 145.282 210.456 145.49 210.249 145.49" fill="#1C1E28"/>
<path d="M204.027 150.363C204.027 150.363 203.716 150.363 203.612 150.156C203.405 149.948 203.405 149.533 203.612 149.326L209.627 144.141C209.627 144.141 210.249 143.934 210.456 144.141C210.664 144.348 210.664 144.763 210.456 144.971L204.442 150.156C204.442 150.156 204.234 150.259 204.027 150.259" fill="#1C1E28"/>
<path d="M146.059 197.339H145.852C145.645 197.339 145.541 197.028 145.541 196.82V154.097C145.541 154.097 145.852 153.578 146.163 153.578C146.474 153.578 146.785 153.786 146.785 154.097V195.576L151.867 191.221C151.867 191.221 152.489 191.013 152.696 191.221C152.904 191.428 152.904 191.843 152.696 192.05L146.682 197.235C146.682 197.235 146.474 197.339 146.267 197.339" fill="#1C1E28"/>
<path d="M146.059 197.339C146.059 197.339 145.748 197.339 145.645 197.235L139.63 192.05C139.63 192.05 139.319 191.532 139.63 191.221C139.837 191.013 140.252 190.91 140.46 191.221L146.474 196.406C146.474 196.406 146.682 196.924 146.474 197.235C146.37 197.339 146.163 197.443 146.059 197.443" fill="#1C1E28"/>
</g>
<defs>
<clipPath id="clip0_33_1351">
<rect width="300" height="300" fill="white"/>
</clipPath>
</defs>
</svg>
