<svg width="300" height="300" viewBox="0 0 300 300" fill="none" xmlns="http://www.w3.org/2000/svg">
<g clip-path="url(#clip0_25_911)">
<path d="M149.952 300C67.2861 300 0 232.714 0 149.952C0 67.19 67.2861 0 149.952 0C232.618 0 300 67.2861 300 149.952C300 232.618 232.714 299.904 149.952 299.904V300ZM149.952 7.20923C71.2272 7.20923 7.20923 71.2272 7.20923 149.952C7.20923 228.677 71.2272 292.695 149.952 292.695C228.677 292.695 292.791 228.677 292.791 149.952C292.791 71.2272 228.773 7.20923 149.952 7.20923Z" fill="#1C1E28"/>
<path d="M178.789 118.615H121.211V77.667H178.789V118.615ZM123.614 116.212H176.386V80.0701H123.614V116.212Z" fill="#1C1E28"/>
<path d="M183.787 219.737H116.212V116.212H183.787V219.737ZM118.615 217.334H181.384V118.615H118.615V217.334Z" fill="#1C1E28"/>
<path d="M162.929 280.775H137.072V217.43H162.929V280.775ZM139.475 278.372H160.526V219.833H139.475V278.372Z" fill="#1C1E28"/>
<path d="M143.896 279.525H141.493V298.846H143.896V279.525Z" fill="#1C1E28"/>
<path d="M157.833 279.525H155.43V298.942H157.833V279.525Z" fill="#1C1E28"/>
</g>
<defs>
<clipPath id="clip0_25_911">
<rect width="300" height="300" fill="white"/>
</clipPath>
</defs>
</svg>
