<svg width="300" height="300" viewBox="0 0 300 300" fill="none" xmlns="http://www.w3.org/2000/svg">
<g clip-path="url(#clip0_25_727)">
<path d="M145.893 221.779C123.678 221.779 102.956 221.779 82.9806 221.593C70.0994 221.593 58.5251 216.179 49.4709 206.191C38.55 193.963 34.2562 178.095 37.8966 162.694C41.5369 147.199 52.4579 134.691 67.8592 128.531C69.6327 127.784 70.2861 127.037 70.3795 125.171C71.0328 114.063 76.4467 104.262 85.0341 98.1949C93.7149 92.1277 104.823 90.4476 115.557 93.5278C117.61 94.0879 118.544 93.9012 120.224 91.0076C126.104 81.1134 135.532 74.6728 146.08 73.366C146.92 73.2727 147.76 73.086 148.6 72.806C151.027 72.1526 153.734 71.8726 156.907 71.8726C164.094 71.8726 170.628 72.9927 176.416 75.0462C178.376 75.7929 180.056 76.5396 181.549 77.3797C198.351 86.9939 206.938 101.649 207.032 120.97C207.032 123.708 208.276 125.233 210.765 125.544C224.02 127.224 234.847 133.105 243.248 143.092C249.222 150.28 251.929 158.68 253.889 166.708V166.988C253.889 171.561 253.889 175.948 253.889 180.522V180.802L253.516 182.016C253.236 183.136 252.862 184.163 252.582 185.283C247.168 206.191 228.313 221.499 207.685 221.593C185.47 221.593 165.028 221.686 145.799 221.686L145.893 221.779ZM105.009 94.2746C98.2886 94.2746 91.848 96.2347 86.4342 100.062C78.4068 105.756 73.3664 114.903 72.8063 125.357C72.6197 128.158 71.4996 129.651 68.7926 130.771C54.0447 136.652 43.6837 148.506 40.2301 163.254C36.7765 177.909 40.7902 193.03 51.2444 204.604C59.8318 214.125 70.7528 219.166 82.9806 219.259C120.317 219.446 159.987 219.539 207.778 219.259C227.38 219.259 245.302 204.698 250.435 184.723C250.715 183.603 250.995 182.482 251.369 181.362L251.649 180.242C251.649 175.762 251.649 171.468 251.742 166.988C249.782 159.24 247.262 151.213 241.568 144.492C233.541 134.878 223.18 129.278 210.672 127.784C205.165 127.131 204.791 126.571 204.698 121.064C204.698 102.582 196.484 88.5807 180.429 79.3399C179.029 78.4998 177.442 77.8464 175.575 77.0997C170.068 75.0462 163.721 74.0194 156.814 74.0194C153.92 74.0194 151.4 74.2994 149.16 74.9528C148.226 75.2329 147.293 75.4195 146.36 75.5129C136.559 76.7263 127.691 82.7935 122.184 92.0344C120.317 95.208 118.544 96.7014 114.81 95.5813C111.543 94.6479 108.183 94.1812 104.916 94.1812L105.009 94.2746Z" fill="#1C1E28"/>
<path d="M150 300C67.1126 300 -0.280029 232.701 -0.280029 150C-0.280029 67.2993 67.1126 0 150 0C232.887 0 300.28 67.2993 300.28 150C300.28 232.701 232.887 300 150 300ZM150 7.00062C71.033 7.00062 6.72059 71.1263 6.72059 150C6.72059 228.874 71.033 292.999 150 292.999C228.967 292.999 293.279 228.874 293.279 150C293.279 71.1263 229.06 7.00062 150 7.00062Z" fill="#1C1E28"/>
</g>
<defs>
<clipPath id="clip0_25_727">
<rect width="300" height="300" fill="white"/>
</clipPath>
</defs>
</svg>
