<svg width="300" height="300" viewBox="0 0 300 300" fill="none" xmlns="http://www.w3.org/2000/svg">
<g clip-path="url(#clip0_25_731)">
<path d="M150.047 300C67.2688 300 0 232.731 0 149.953C0 67.1753 67.2688 0 150.047 0C232.825 0 300 67.2688 300 149.953C300 232.638 232.731 300 150.047 300ZM150.047 7.00716C71.1928 7.00716 7.00716 71.1928 7.00716 149.953C7.00716 228.714 71.1928 292.993 150.047 292.993C228.901 292.993 292.993 228.807 292.993 149.953C292.993 71.0993 228.807 7.00716 150.047 7.00716Z" fill="#1C1E28"/>
<path d="M108.845 262.254H106.509V237.682L100.903 241.887L99.502 240.018L108.845 232.917V262.254Z" fill="#1C1E28"/>
<path d="M125.195 262.067C120.43 262.067 116.693 256.181 116.693 248.707C116.693 241.233 120.43 235.347 125.195 235.347C129.959 235.347 133.603 241.233 133.603 248.707C133.603 256.181 129.866 262.067 125.195 262.067ZM125.195 237.776C121.925 237.776 119.028 242.821 119.028 248.8C119.028 254.78 121.831 259.825 125.195 259.825C128.558 259.825 131.267 254.78 131.267 248.8C131.267 242.821 128.465 237.776 125.195 237.776Z" fill="#1C1E28"/>
<path d="M167.798 262.067C163.033 262.067 159.39 256.181 159.39 248.707C159.39 241.233 163.127 235.347 167.798 235.347C172.47 235.347 176.3 241.233 176.3 248.707C176.3 256.181 172.563 262.067 167.798 262.067ZM167.798 237.776C164.528 237.776 161.725 242.821 161.725 248.8C161.725 254.78 164.528 259.825 167.798 259.825C171.068 259.825 173.964 254.78 173.964 248.8C173.964 242.821 171.162 237.776 167.798 237.776Z" fill="#1C1E28"/>
<path d="M146.497 248.334C142.76 248.334 139.77 245.344 139.77 241.607C139.77 237.87 142.76 234.88 146.497 234.88C150.234 234.88 153.224 238.991 153.224 241.607C153.224 245.344 150.234 248.334 146.497 248.334ZM146.497 237.216C144.068 237.216 142.105 239.178 142.105 241.607C142.105 244.036 144.068 245.998 146.497 245.998C148.926 245.998 150.888 244.036 150.888 241.607C150.888 240.393 148.926 237.216 146.497 237.216Z" fill="#1C1E28"/>
<path d="M146.497 262.628C145.002 262.628 143.507 262.254 142.105 261.507C140.984 260.946 140.05 260.012 139.489 258.891C137.621 255.434 138.088 251.417 140.704 248.801C143.32 246.185 147.337 245.718 150.794 247.586C151.916 248.147 152.85 249.081 153.41 250.202C155.279 253.659 154.812 257.676 152.196 260.292C150.608 261.881 148.646 262.628 146.497 262.628ZM146.497 248.707C144.815 248.707 143.32 249.455 142.386 250.389C140.891 251.884 139.863 254.593 141.545 257.676C141.919 258.424 142.479 258.984 143.227 259.358C146.31 261.04 149.019 260.012 150.514 258.517C152.009 257.022 153.037 254.313 151.355 251.23C150.981 250.482 150.421 249.922 149.673 249.548C148.552 248.894 147.431 248.707 146.403 248.707H146.497Z" fill="#1C1E28"/>
<path d="M182.934 261.881H180.598V241.607H189.194C192.37 241.607 194.986 244.223 194.986 247.399C194.986 250.576 192.37 253.192 189.194 253.192H182.934V261.974V261.881ZM182.934 250.856H189.194C191.062 250.856 192.65 249.361 192.65 247.399C192.65 245.437 191.156 243.943 189.194 243.943H182.934V250.763V250.856Z" fill="#1C1E28"/>
<path d="M172.376 221.052C172.376 221.052 171.722 221.052 171.349 221.052H152.102V165.369H171.909C189.007 165.929 197.976 175.366 198.537 193.304C198.723 202.74 196.481 209.841 191.81 214.512C187.419 218.903 180.879 221.052 172.376 221.052ZM154.438 218.717H171.349C179.664 218.903 186.017 216.941 190.128 212.831C194.332 208.626 196.294 202.086 196.107 193.397C195.547 176.674 187.605 168.265 171.816 167.704H154.438V218.717Z" fill="#1C1E28"/>
<path d="M102.305 166.117H99.969V219.091H102.305V166.117Z" fill="#1C1E28"/>
<path d="M138.929 166.117H136.593V219.091H138.929V166.117Z" fill="#1C1E28"/>
<path d="M137.808 190.408H101.09V192.744H137.808V190.408Z" fill="#1C1E28"/>
<path d="M149.58 125.381L95.8581 96.6987C95.2976 96.4184 95.1107 95.671 95.391 95.1104C95.6713 94.5499 96.4187 94.363 96.9793 94.6433L149.58 122.765L202.367 94.8302C202.928 94.5499 203.675 94.8302 203.955 95.2973C204.236 95.8579 203.955 96.6053 203.488 96.8856L149.58 125.381Z" fill="#1C1E28"/>
<path d="M218.437 146.59H80.0686V134.725H218.437V146.59ZM82.4043 144.255H216.101V137.061H82.4043V144.255Z" fill="#1C1E28"/>
<path d="M194.893 69.231C191.903 69.231 189.568 66.8018 189.568 63.9055C189.568 61.0092 191.997 58.5801 194.893 58.5801C197.789 58.5801 200.218 61.0092 200.218 63.9055C200.218 66.8018 197.789 69.231 194.893 69.231ZM194.893 60.8224C193.211 60.8224 191.903 62.2238 191.903 63.8121C191.903 65.4004 193.305 66.8018 194.893 66.8018C196.481 66.8018 197.883 65.4004 197.883 63.8121C197.883 62.2238 196.481 60.8224 194.893 60.8224Z" fill="#1C1E28"/>
<path d="M119.589 68.0165V101.371H116.506V80.1622L116.692 71.2865H116.506L112.862 73.9025L108.564 76.8922L106.696 74.3696L116.225 68.0165H119.589Z" fill="#1C1E28"/>
<path d="M128.464 93.1488L127.717 90.346L141.358 68.0165H145.562V90.346H150.42V93.1488H145.562V101.371H142.666V93.1488H128.651H128.464ZM142.479 71.1931L138.929 77.2659L130.987 90.346H142.479V71.1931Z" fill="#1C1E28"/>
<path d="M159.203 81.5637C160.978 80.3491 163.594 80.0688 165.369 80.0688C170.975 80.0688 174.525 83.6191 174.525 90.4394C174.525 97.2597 170.414 101.838 164.435 101.838C157.428 101.838 154.625 97.0728 154.625 89.5051C154.625 79.1345 160.791 71.3799 166.303 68.0165H170.881V68.2968C165.462 71.4733 161.538 75.2105 159.109 81.3768H159.296L159.203 81.5637ZM158.175 84.8337C157.708 86.422 157.708 88.1037 157.708 89.5051C157.708 96.6057 160.698 99.1283 164.622 99.1283C168.919 99.1283 171.442 96.4188 171.442 91.0934C171.442 85.3942 169.013 83.0585 164.715 83.0585C161.725 83.0585 159.39 84.0862 158.175 84.9271" fill="#1C1E28"/>
</g>
<defs>
<clipPath id="clip0_25_731">
<rect width="300" height="300" fill="white"/>
</clipPath>
</defs>
</svg>
