<svg width="300" height="300" viewBox="0 0 300 300" fill="none" xmlns="http://www.w3.org/2000/svg">
<g clip-path="url(#clip0_25_729)">
<path d="M150 300C67.2928 300 0.0465698 232.661 0.0465698 149.953C0.0465698 67.2462 67.2928 0 150 0C232.707 0 299.953 67.2462 299.953 149.953C299.953 232.661 232.707 299.907 150 299.907V300ZM150 6.98541C71.2046 6.98541 7.03198 71.158 7.03198 149.953C7.03198 228.749 71.2046 292.921 150 292.921C228.795 292.921 292.968 228.749 292.968 149.953C292.968 71.158 228.889 6.98541 150 6.98541Z" fill="#1C1E28"/>
<path d="M287.1 200.435H12.8998V202.763H287.1V200.435Z" fill="#1C1E28"/>
<path d="M289.894 107.576H9.45352V109.904H289.894V107.576Z" fill="#1C1E28"/>
<path d="M31.2481 180.876H28.9196V202.67H31.2481V180.876Z" fill="#1C1E28"/>
<path d="M41.1208 180.783H38.7923V202.577H41.1208V180.783Z" fill="#1C1E28"/>
<path d="M50.9935 180.783H48.665V202.577H50.9935V180.783Z" fill="#1C1E28"/>
<path d="M60.8662 180.689H58.5377V202.484H60.8662V180.689Z" fill="#1C1E28"/>
<path d="M70.7389 180.596H68.4104V202.391H70.7389V180.596Z" fill="#1C1E28"/>
<path d="M80.6116 180.596H78.2831V202.391H80.6116V180.596Z" fill="#1C1E28"/>
<path d="M90.4844 180.503H88.1559V202.298H90.4844V180.503Z" fill="#1C1E28"/>
<path d="M100.357 180.41H98.0286V202.204H100.357V180.41Z" fill="#1C1E28"/>
<path d="M110.23 180.41H107.901V202.204H110.23V180.41Z" fill="#1C1E28"/>
<path d="M120.102 180.317H117.774V202.111H120.102V180.317Z" fill="#1C1E28"/>
<path d="M130.068 180.223H127.74V202.018H130.068V180.223Z" fill="#1C1E28"/>
<path d="M139.941 180.223H137.613V202.018H139.941V180.223Z" fill="#1C1E28"/>
<path d="M149.814 180.13H147.485V201.925H149.814V180.13Z" fill="#1C1E28"/>
<path d="M159.686 180.037H157.358V201.831H159.686V180.037Z" fill="#1C1E28"/>
<path d="M169.559 180.037H167.231V201.831H169.559V180.037Z" fill="#1C1E28"/>
<path d="M179.432 179.945H177.103V201.739H179.432V179.945Z" fill="#1C1E28"/>
<path d="M189.305 179.852H186.976V201.646H189.305V179.852Z" fill="#1C1E28"/>
<path d="M199.177 179.852H196.849V201.646H199.177V179.852Z" fill="#1C1E28"/>
<path d="M209.05 179.758H206.722V201.553H209.05V179.758Z" fill="#1C1E28"/>
<path d="M218.923 179.665H216.594V201.459H218.923V179.665Z" fill="#1C1E28"/>
<path d="M228.795 179.665H226.467V201.459H228.795V179.665Z" fill="#1C1E28"/>
<path d="M238.668 179.572H236.34V201.366H238.668V179.572Z" fill="#1C1E28"/>
<path d="M248.634 179.479H246.306V201.273H248.634V179.479Z" fill="#1C1E28"/>
<path d="M258.507 179.479H256.178V201.273H258.507V179.479Z" fill="#1C1E28"/>
<path d="M268.379 179.385H266.051V201.18H268.379V179.385Z" fill="#1C1E28"/>
<path d="M57.1407 108.785H54.8122V201.179H57.1407V108.785Z" fill="#1C1E28"/>
<path d="M161.829 108.785H159.5V201.179H161.829V108.785Z" fill="#1C1E28"/>
<path d="M194.8 108.785H192.471V201.179H194.8V108.785Z" fill="#1C1E28"/>
<path d="M262.232 108.785H259.904V201.179H262.232V108.785Z" fill="#1C1E28"/>
</g>
<defs>
<clipPath id="clip0_25_729">
<rect width="300" height="300" fill="white"/>
</clipPath>
</defs>
</svg>
