<svg width="300" height="300" viewBox="0 0 300 300" fill="none" xmlns="http://www.w3.org/2000/svg">
<g clip-path="url(#clip0_25_777)">
<path d="M150.047 300C67.2688 300 0 232.731 0 149.953C0 67.1753 67.2688 0 150.047 0C232.825 0 300 67.2688 300 149.953C300 232.638 232.731 300 150.047 300ZM150.047 7.00716C71.1928 7.00716 7.00716 71.1928 7.00716 149.953C7.00716 228.714 71.1928 292.993 150.047 292.993C228.901 292.993 292.993 228.807 292.993 149.953C292.993 71.0993 228.807 7.00716 150.047 7.00716Z" fill="#1C1E28"/>
<path d="M204.609 234.039H95.7648V218.624H87.8234V122.112C87.8234 69.1376 127.063 55.1233 147.898 55.1233C166.49 55.1233 181.439 60.9159 192.37 72.2208C213.205 93.8028 212.084 128.745 212.084 129.119V218.624H204.516V234.039H204.609ZM98.1005 231.704H202.274V216.288H209.841V129.025C209.841 129.025 210.869 94.6437 190.782 73.8091C180.318 62.9713 165.93 57.459 147.992 57.459C145.656 57.459 90.2525 58.2064 90.2525 122.112V216.288H98.194V231.704H98.1005Z" fill="#1C1E28"/>
<path d="M150.047 160.697C125.942 160.697 106.322 141.077 106.322 116.973C106.322 92.8681 125.942 73.3414 150.047 73.3414C174.151 73.3414 193.678 92.9615 193.678 116.973C193.678 140.984 174.058 160.697 150.047 160.697ZM150.047 75.6772C127.25 75.6772 108.658 94.1761 108.658 116.973C108.658 139.769 127.25 158.362 150.047 158.362C172.843 158.362 191.342 139.769 191.342 116.973C191.342 94.1761 172.75 75.6772 150.047 75.6772Z" fill="#1C1E28"/>
<path d="M147.805 142.292C138.368 142.292 129.212 137.34 124.261 128.745C120.617 122.485 119.683 115.198 121.551 108.097C123.42 101.09 127.904 95.204 134.164 91.5602C138.649 88.9442 143.601 87.8231 148.926 87.9165L154.158 88.1034L149.3 90.1588C148.085 90.6259 147.151 91.0931 146.31 91.5602C140.611 94.8302 136.5 100.249 134.725 106.602C133.043 113.049 133.884 119.682 137.247 125.475C141.545 132.856 149.113 137.434 157.708 137.808L163.034 137.994L158.175 140.05C154.812 141.451 151.355 142.105 147.898 142.105L147.805 142.292ZM143.507 90.7194C140.611 91.1865 137.901 92.2142 135.285 93.7091C129.586 96.9791 125.475 102.398 123.7 108.751C122.018 115.198 122.859 121.831 126.223 127.624C131.548 136.78 142.012 141.451 152.103 139.583C145.002 137.807 138.836 133.323 135.098 126.876C131.455 120.617 130.52 113.329 132.389 106.229C134.071 99.8754 137.995 94.3631 143.414 90.7194H143.507Z" fill="#1C1E28"/>
<path d="M203.395 218.624H96.8857C96.2317 218.624 95.7645 218.063 95.7645 217.503C95.7645 216.942 96.3251 216.381 96.8857 216.381H203.395C204.049 216.381 204.516 216.942 204.516 217.503C204.516 218.063 203.955 218.624 203.395 218.624Z" fill="#1C1E28"/>
</g>
<defs>
<clipPath id="clip0_25_777">
<rect width="300" height="300" fill="white"/>
</clipPath>
</defs>
</svg>
