<svg width="300" height="300" viewBox="0 0 300 300" fill="none" xmlns="http://www.w3.org/2000/svg">
<g clip-path="url(#clip0_25_776)">
<path d="M149.92 300C77.7127 300 13.8907 247.545 1.9648 174.033C-4.46399 134.435 4.94627 94.8378 28.3321 62.3212C51.718 29.8046 86.4708 8.37527 125.975 1.94648C207.5 -11.2838 284.831 44.3392 298.062 125.957C311.292 207.575 255.669 284.813 174.051 298.043C165.945 299.348 157.933 300 149.92 300ZM150.106 6.97771C142.56 6.97771 134.826 7.6299 127.093 8.84113C89.359 14.9904 56.2834 35.3948 34.0156 66.4207C11.7477 97.4466 2.80334 135.181 8.85944 172.915C21.5307 250.713 95.0425 303.82 172.933 291.149C250.731 278.478 303.838 204.873 291.167 127.075C279.8 57.0105 218.96 6.97771 150.106 6.97771Z" fill="white"/>
<path d="M97.558 237.203C96.1604 237.203 95.2287 237.203 95.1355 237.203C85.5389 237.203 77.1536 233.662 70.3521 226.581C48.3638 203.661 50.134 152.231 50.2272 150.088C50.2272 148.038 48.3638 96.5147 70.3521 73.5946C77.1536 66.6068 85.4458 62.9732 95.2287 62.9732C96.4399 62.9732 112.093 61.8551 119.174 71.1722C123.366 76.6693 123.646 84.5888 120.012 94.6512C120.012 95.2103 116.751 111.795 106.968 116.733C102.962 118.689 98.3965 118.503 93.5516 115.987C93.5516 115.987 91.3155 115.056 88.7999 116.64C85.7253 118.596 80.6009 125.584 80.6009 150.181C80.6009 174.778 85.7253 181.766 88.7999 183.723C91.3155 185.4 93.5516 184.375 93.6448 184.375C98.4897 181.859 103.055 181.673 107.061 183.629C116.938 188.474 120.105 205.152 120.198 205.897C123.832 215.773 123.553 223.693 119.36 229.19C113.677 236.55 102.682 237.482 97.8375 237.482L97.558 237.203ZM97.3716 65.2093C96.1604 65.2093 95.3219 65.2093 95.3219 65.2093H95.2287C86.1911 65.2093 78.3648 68.5634 72.0292 75.0854C50.6931 97.26 52.5565 149.436 52.5565 149.902C52.5565 150.554 50.6931 202.636 72.0292 224.811C78.3648 231.333 86.098 234.687 95.2287 234.687C95.5082 234.687 110.788 235.898 117.31 227.42C121.037 222.575 121.13 215.401 117.776 206.177C117.776 205.804 114.701 189.779 105.85 185.4C102.496 183.723 98.676 184.002 94.4833 186.145C94.297 186.145 91.1292 187.729 87.4955 185.4C81.3463 181.486 78.1785 169.561 78.1785 149.902C78.1785 130.243 81.2531 118.317 87.4955 114.403C91.1292 112.074 94.3902 113.565 94.4833 113.658C98.7692 115.801 102.589 116.081 105.85 114.403C114.701 110.024 117.683 93.999 117.683 93.8127C121.13 84.4024 120.944 77.2283 117.217 72.3834C112.186 65.7683 101.751 65.0229 97.2785 65.0229L97.3716 65.2093Z" fill="white"/>
<path d="M208.525 237.203C203.587 237.203 192.593 236.364 187.003 228.911C182.81 223.414 182.53 215.494 186.164 205.432C186.164 204.873 189.425 188.288 199.301 183.35C203.307 181.393 207.873 181.58 212.718 184.095C212.718 184.095 214.954 185.027 217.469 183.443C220.544 181.487 225.575 174.499 225.575 149.902C225.575 125.305 220.451 118.317 217.469 116.36C214.954 114.683 212.718 115.708 212.625 115.708C207.78 118.224 203.214 118.41 199.208 116.453C189.332 111.608 186.164 94.9309 186.071 94.1856C182.437 84.3094 182.717 76.3899 186.909 70.8928C194.177 61.3894 210.202 62.6938 210.947 62.6938C220.544 62.6938 228.929 66.2343 235.731 73.3153C257.719 96.2353 255.949 147.666 255.856 149.809C255.856 151.858 257.719 203.382 235.731 226.209C228.929 233.196 220.637 236.83 210.854 236.83C210.575 236.83 209.736 236.83 208.432 236.83L208.525 237.203ZM204.798 184.468C203.214 184.468 201.63 184.841 200.233 185.493C191.382 189.872 188.4 205.897 188.307 206.084C184.86 215.494 185.046 222.668 188.773 227.513C195.295 235.992 210.575 234.78 210.761 234.78H210.854C219.892 234.78 227.718 231.426 234.054 224.904C255.39 202.73 253.527 150.554 253.527 150.088C253.527 149.436 255.39 97.3534 234.054 75.1787C227.718 68.5636 219.892 65.3026 210.854 65.3026C210.575 65.3026 195.295 64.0914 188.773 72.5699C185.046 77.4148 184.953 84.589 188.307 93.8129C188.307 94.1856 191.475 110.211 200.233 114.59C203.587 116.267 207.407 115.988 211.6 113.845C211.786 113.845 215.047 112.261 218.587 114.59C224.737 118.503 227.905 130.429 227.905 150.088C227.905 169.747 224.83 181.766 218.587 185.586C214.954 187.915 211.786 186.425 211.6 186.332C209.177 185.12 206.941 184.468 204.798 184.468Z" fill="white"/>
<path d="M195.294 144.405H104.732V146.734H195.294V144.405Z" fill="white"/>
<path d="M174.938 122.608L173.259 124.222L194.506 146.317L196.185 144.702L174.938 122.608Z" fill="white"/>
<path d="M195.387 153.349H104.825V155.678H195.387V153.349Z" fill="white"/>
<path d="M105.576 153.702L103.897 155.316L125.144 177.411L126.823 175.796L105.576 153.702Z" fill="white"/>
</g>
<defs>
<clipPath id="clip0_25_776">
<rect width="300" height="300" fill="white"/>
</clipPath>
</defs>
</svg>
