<svg width="300" height="300" viewBox="0 0 300 300" fill="none" xmlns="http://www.w3.org/2000/svg">
<g clip-path="url(#clip0_38_13)">
<path d="M179.897 198.765H121.959V177.734H179.897V198.765ZM124.639 196.188H177.423V180.312H124.639V196.188Z" fill="white"/>
<path d="M189.175 180.309H112.784V113.196H189.175V180.309ZM115.361 177.732H186.598V115.773H115.361V177.732Z" fill="white"/>
<path d="M133.815 115.771H121.959V67.1108H133.815V115.771ZM124.639 113.193H131.34V69.6882H124.639V113.193Z" fill="white"/>
<path d="M179.897 115.771H168.041V67.1108H179.897V115.771ZM170.722 113.193H177.423V69.6882H170.722V113.193Z" fill="white"/>
<path d="M155.67 119.896L138.35 150.102H150.412L145.361 171.442L165.773 141.545H154.639L155.67 119.896Z" fill="white"/>
<path d="M156.907 244.843H145.052V196.184H156.907V244.843ZM147.629 242.266H154.33V198.761H147.629V242.266Z" fill="white"/>
<path d="M150 300C67.3196 300 0 232.68 0 150C0 67.3196 67.3196 0 150 0C232.68 0 300 67.3196 300 150C300 232.68 232.68 300 150 300ZM150 7.73196C71.5464 7.73196 7.73196 71.5464 7.73196 150C7.73196 228.454 71.5464 292.268 150 292.268C228.454 292.268 292.268 228.454 292.268 150C292.268 71.5464 228.454 7.73196 150 7.73196Z" fill="white"/>
</g>
<defs>
<clipPath id="clip0_38_13">
<rect width="300" height="300" fill="white"/>
</clipPath>
</defs>
</svg>
