<svg width="300" height="300" viewBox="0 0 300 300" fill="none" xmlns="http://www.w3.org/2000/svg">
<g clip-path="url(#clip0_1255_2)">
<path d="M150 300C67.2757 300 0 232.724 0 150C0 67.2757 67.2757 0 150 0C232.724 0 300 67.2757 300 150C300 232.724 232.724 300 150 300ZM150 7.47508C71.3621 7.47508 7.47508 71.3621 7.47508 150C7.47508 228.638 71.3621 292.525 150 292.525C228.638 292.525 292.525 228.638 292.525 150C292.525 71.3621 228.538 7.47508 150 7.47508Z" fill="white"/>
<path d="M213.189 226.844H84.5182C78.6378 226.844 75.8471 224.053 75.8471 217.973V134.452H61.495C59.6013 134.452 58.0066 133.455 57.5083 131.96C56.9102 130.166 57.7076 128.073 59.6013 126.578L94.784 98.7705C117.409 80.8303 142.824 60.7971 143.92 59.9998C145.814 58.5047 147.209 57.9067 148.904 57.9067C150.598 57.9067 151.993 58.5047 153.887 59.9998C154.385 60.3984 161.561 66.0795 171.528 73.9533L199.036 95.6808V84.1194C199.036 80.7307 201.13 80.2323 203.023 80.2323H218.372C220.664 80.2323 221.86 81.528 221.86 84.1194V113.621L231.528 121.295C235.316 124.285 237.708 126.179 238.206 126.578C240.1 128.073 240.897 130.166 240.299 131.96C239.801 133.555 238.206 134.452 236.312 134.452H221.96V217.973C221.96 224.153 219.269 226.844 213.289 226.844H213.189ZM148.904 60.3984C147.907 60.3984 147.11 60.6974 145.415 61.8935C144.419 62.6908 119.003 82.724 96.279 100.664L61.0963 128.472C59.8006 129.468 59.6013 130.465 59.8006 131.063C59.9999 131.561 60.598 131.96 61.495 131.96H77.1428C77.8405 131.96 78.3388 132.558 78.3388 133.156V217.973C78.3388 222.757 79.9335 224.352 84.5182 224.352H213.189C217.774 224.352 219.369 222.658 219.369 217.973V133.156C219.369 132.458 219.967 131.96 220.565 131.96H236.213C237.11 131.96 237.708 131.661 237.907 131.063C238.106 130.465 237.907 129.468 236.611 128.472C236.213 128.073 233.721 126.179 229.934 123.189L219.767 115.216C219.767 115.216 219.269 114.618 219.269 114.219V84.1194C219.269 82.724 218.97 82.724 218.272 82.724H202.924C201.728 82.724 201.429 82.724 201.429 84.1194V98.1725C201.429 98.1725 201.13 99.0695 200.731 99.2689C200.332 99.4682 199.734 99.3685 199.435 99.1692L169.934 75.8469C159.967 67.9732 152.791 62.2921 152.292 61.8935C150.698 60.5978 149.801 60.3984 148.804 60.3984H148.904Z" fill="white"/>
<path d="M201.528 213.788H96.1795C91.7941 213.788 89.0034 210.897 89.0034 206.113V126.877C89.0034 121.495 91.5948 118.306 93.7875 116.512C96.6778 114.219 143.223 77.5417 144.419 76.545C147.508 74.153 150.199 74.153 153.189 76.545C154.485 77.6413 201.528 114.718 203.821 116.512C206.013 118.206 208.605 121.395 208.605 126.877V206.113C208.605 210.797 205.914 213.788 201.429 213.788H201.528ZM148.904 77.2427C148.007 77.2427 147.11 77.6413 146.013 78.4387C144.618 79.535 95.7808 118.106 95.3821 118.405C92.8905 120.399 91.5948 123.19 91.5948 126.778V206.013C91.5948 208.405 92.3921 211.196 96.2792 211.196H201.628C205.714 211.196 206.312 207.907 206.312 206.013V126.778C206.312 123.19 205.017 120.399 202.525 118.405C200.233 116.611 153.189 79.4354 151.894 78.4387C150.897 77.6413 149.9 77.2427 149.103 77.2427H148.904Z" fill="white"/>
<path d="M189.369 200.631H108.339C104.452 200.631 102.16 198.239 102.16 194.252V132.359C102.16 128.472 103.156 126.179 105.847 124.086C107.243 122.99 144.12 93.887 145.017 93.0897C147.309 91.196 150.2 91.196 152.492 93.0897C153.489 93.887 190.366 122.99 191.661 124.086C194.352 126.279 195.349 128.472 195.349 132.359V194.252C195.349 198.239 193.057 200.631 189.17 200.631H189.369ZM148.904 94.0864C148.206 94.0864 147.409 94.3854 146.711 94.9834C145.714 95.7807 108.837 124.884 107.542 125.98C105.449 127.674 104.751 129.169 104.751 132.359V194.252C104.751 196.844 105.947 198.14 108.439 198.14H189.469C191.96 198.14 193.156 196.844 193.156 194.252V132.359C193.156 129.269 192.459 127.674 190.366 125.98C188.97 124.884 152.193 95.7807 151.196 94.9834C150.499 94.3854 149.701 94.0864 149.004 94.0864H148.904Z" fill="white"/>
<path d="M142.126 132.259C142.126 132.259 141.428 132.06 141.129 131.761C140.731 131.263 140.83 130.465 141.329 129.967L143.721 128.073C144.219 127.674 145.016 127.774 145.515 128.272C145.913 128.771 145.814 129.568 145.315 130.067L142.923 131.96C142.923 131.96 142.425 132.259 142.126 132.259Z" fill="white"/>
<path d="M134.252 138.438C134.252 138.438 133.555 138.239 133.256 137.94C132.857 137.442 132.957 136.644 133.455 136.146L135.847 134.252C136.345 133.854 137.143 133.953 137.641 134.452C138.04 134.95 137.94 135.747 137.442 136.246L134.95 138.139C134.95 138.139 134.452 138.438 134.153 138.438H134.252Z" fill="white"/>
<path d="M144.618 130.365C144.618 130.365 143.92 130.166 143.621 129.867C143.222 129.369 143.322 128.571 143.82 128.073L145.614 126.678C146.113 126.279 146.91 126.379 147.408 126.877C147.807 127.375 147.707 128.173 147.209 128.671L145.415 130.066C145.415 130.066 144.917 130.365 144.618 130.365Z" fill="white"/>
<path d="M177.409 187.475H120.299C117.21 187.475 115.316 185.581 115.316 182.292V137.741C115.316 135.648 115.316 133.555 117.907 131.462C119.303 130.365 144.917 110.133 145.715 109.535C147.708 107.94 150 107.94 151.994 109.535C152.791 110.133 178.306 130.266 179.801 131.462C182.392 133.555 182.392 135.648 182.392 137.741V182.292C182.392 185.581 180.499 187.475 177.409 187.475ZM148.904 110.831C148.406 110.831 147.907 111.03 147.309 111.528C146.512 112.126 120.997 132.259 119.602 133.455C117.907 134.85 117.907 135.847 117.907 137.741V182.292C117.907 184.186 118.605 184.983 120.399 184.983H177.509C179.203 184.983 180 184.186 180 182.292V137.741C180 135.847 180 134.751 178.306 133.455C176.911 132.359 151.296 112.126 150.598 111.528C150.1 111.13 149.502 110.831 149.004 110.831H148.904Z" fill="white"/>
<path d="M134.252 138.438C134.252 138.438 133.555 138.239 133.256 137.94C132.857 137.442 132.957 136.644 133.455 136.146L135.847 134.252C136.345 133.854 137.143 133.953 137.641 134.452C138.04 134.95 137.94 135.747 137.442 136.246L134.95 138.139C134.95 138.139 134.452 138.438 134.153 138.438H134.252Z" fill="white"/>
<path d="M142.126 132.259C142.126 132.259 141.428 132.06 141.129 131.761C140.731 131.263 140.83 130.465 141.329 129.967L143.721 128.073C144.219 127.674 145.016 127.774 145.515 128.272C145.913 128.771 145.814 129.568 145.315 130.067L142.923 131.96C142.923 131.96 142.425 132.259 142.126 132.259Z" fill="white"/>
<path d="M144.518 130.365C144.518 130.365 143.82 130.166 143.521 129.867C143.123 129.369 143.222 128.571 143.721 128.073L145.515 126.678C146.013 126.279 146.81 126.379 147.309 126.877C147.707 127.375 147.608 128.173 147.109 128.671L145.315 130.066C145.315 130.066 144.817 130.365 144.518 130.365Z" fill="white"/>
<path d="M165.349 174.319H132.359C129.169 174.319 128.472 172.226 128.472 170.432V143.323C128.472 141.429 129.269 139.635 130.764 138.439C130.963 138.339 131.96 137.442 133.455 136.346C133.953 135.947 134.751 136.047 135.249 136.545C135.648 137.043 135.548 137.841 135.05 138.339C133.654 139.435 132.558 140.233 132.458 140.432C131.561 141.13 131.063 142.226 131.063 143.422V170.532C131.063 171.828 131.362 171.927 132.458 171.927H165.448C166.445 171.927 166.844 171.828 166.844 170.532V143.422C166.844 142.226 166.345 141.13 165.448 140.432C164.95 140.033 150.698 128.871 149.9 128.273C149.601 128.073 149.103 127.874 148.904 127.874C148.704 127.874 148.206 127.974 147.907 128.273C147.708 128.372 147.508 128.572 147.11 128.871C146.611 129.269 145.814 129.17 145.316 128.671C144.917 128.173 145.017 127.376 145.515 126.877C146.013 126.479 146.312 126.279 146.412 126.18C147.11 125.582 148.206 125.382 148.804 125.382C149.402 125.382 150.498 125.681 151.296 126.279C151.296 126.279 166.046 137.841 166.844 138.439C168.339 139.635 169.136 141.429 169.136 143.323V170.432C169.136 172.226 168.438 174.319 165.249 174.319H165.349Z" fill="white"/>
<path d="M136.645 136.545C136.645 136.545 135.947 136.345 135.648 136.046C135.249 135.548 135.349 134.751 135.847 134.252L141.329 129.967C141.827 129.568 142.625 129.668 143.123 130.166C143.522 130.664 143.422 131.462 142.924 131.96L137.442 136.246C137.442 136.246 136.944 136.545 136.645 136.545Z" fill="white"/>
</g>
<defs>
<clipPath id="clip0_1255_2">
<rect width="300" height="300" fill="white"/>
</clipPath>
</defs>
</svg>
