<svg width="300" height="300" viewBox="0 0 300 300" fill="none" xmlns="http://www.w3.org/2000/svg">
<g clip-path="url(#clip0_1255_20)">
<path d="M149.948 0C232.696 0 300 67.3041 300 150.052C300 232.8 232.696 300.104 149.948 300.104V300C67.2004 300 -0.103516 232.695 -0.103516 150.052C-0.103294 67.4085 67.2006 2.32157e-05 149.948 0ZM149.948 7.82617C71.4788 7.8262 7.72288 71.5824 7.72266 150.052C7.72266 228.521 71.4787 292.174 149.948 292.174C228.418 292.174 292.175 228.417 292.175 150.052C292.175 71.6867 228.313 7.82617 149.948 7.82617ZM233.635 69.9102L73.252 230.293L71.374 228.415L231.757 68.1367L233.635 69.9102ZM96.9395 58.7461C121.879 58.7462 142.122 78.9896 142.122 103.929C142.122 125.633 126.679 143.893 106.227 148.172V103.929H111.235C119.374 103.929 126.053 97.2503 126.053 89.1113C126.053 80.9723 119.374 74.2941 111.235 74.2939C103.096 74.2939 96.418 80.9722 96.418 89.1113V94.1201H81.6006C71.7919 94.1201 63.7568 102.155 63.7568 111.964C63.757 121.772 71.792 129.807 81.6006 129.807V119.894C77.2181 119.894 73.6701 116.451 73.6699 111.964C73.6699 107.477 77.218 103.929 81.6006 103.929H96.418V149.111C71.7919 148.903 51.7568 128.868 51.7568 103.929C51.7568 78.9896 72.0003 58.7461 96.9395 58.7461ZM111.234 84.2061C114.052 84.2061 116.243 86.5018 116.243 89.2148C116.243 92.0322 113.947 94.2236 111.234 94.2236H106.226V89.2148C106.226 86.3975 108.417 84.2062 111.234 84.2061Z" fill="white"/>
<path d="M229.98 184.872C221.048 187.298 212.998 193.143 208.036 201.855C203.073 210.566 201.971 220.38 204.397 229.313L213.108 224.24C212.447 219.829 212.777 215.308 214.321 211.007L234.832 222.806L239.684 220.05V214.536L219.173 202.737C222.151 199.208 225.9 196.672 229.98 195.018V184.872ZM191.715 229.313C194.031 220.38 193.038 210.456 187.966 201.855C183.004 193.143 174.954 187.298 166.021 184.872V195.018C170.102 196.561 173.961 199.208 176.828 202.737L156.317 214.536V220.05L161.169 222.806L181.68 211.007C183.224 215.308 183.555 219.829 182.893 224.24L191.715 229.313ZM181.129 168.883C184.547 171.64 188.738 173.624 193.259 174.396V150.798L198.111 148.041L202.963 150.798V174.396C207.484 173.624 211.564 171.64 215.093 168.883L223.915 173.955C217.299 180.461 208.256 184.542 198.221 184.542C188.186 184.542 179.144 180.461 172.528 173.955L181.239 168.883H181.129Z" fill="white"/>
</g>
<defs>
<clipPath id="clip0_1255_20">
<rect width="300" height="300" fill="white"/>
</clipPath>
</defs>
</svg>
