<svg width="300" height="300" viewBox="0 0 300 300" fill="none" xmlns="http://www.w3.org/2000/svg">
<g clip-path="url(#clip0_1256_68)">
<path d="M149.95 0C232.62 0 300 67.31 300 150C300 232.69 232.71 300 149.95 300C67.19 300 0 232.69 0 150C0 67.31 67.29 0 149.95 0ZM149.95 7.12C71.23 7.12 7.21 71.15 7.21 149.9C7.21 228.65 71.23 292.69 149.95 292.69C228.67 292.69 292.79 228.65 292.79 149.9C292.79 71.15 228.77 7.12 149.95 7.12ZM205.17 136.79H189.29L188.54 144.89C190.06 144.25 191.36 143.93 193 143.9L193.4 143.96C200.87 143.96 207.16 147.82 207.16 157.41C207.16 167 199.75 172.55 191.28 172.55C184.24 172.55 179.45 169.81 176.02 166.44L180.5 160.09C183.05 162.46 186.17 164.39 189.84 164.39C194.26 164.39 197.13 161.9 197.13 157.6C197.13 153.3 194.33 150.94 190.34 150.94C187.85 150.94 186.54 151.5 183.93 153.12L179.45 150.25L180.63 128.39H205.16V136.8L205.17 136.79ZM162.14 127.51C167.87 127.51 172.04 129.94 174.78 132.74L169.49 138.72C168 137.04 165.32 135.61 162.76 135.61C158.03 135.61 154.29 139.16 153.86 149.25C156.16 146.32 159.84 144.58 162.52 144.58C169.93 144.58 175.41 148.94 175.41 157.97C175.41 167 168.87 172.48 161.02 172.48C152.61 172.48 144.64 166.19 144.64 150.99C144.64 134.79 153.05 127.51 162.14 127.51ZM102.86 171.67H92.83V127.26H102.86V171.67ZM125.09 127.26C134.87 127.26 142.78 131.06 142.78 141.52C142.78 151.98 134.81 156.59 125.41 156.59H119.93V171.66H109.91V127.25H125.1L125.09 127.26ZM160.59 151.68C158.41 151.68 156.04 152.86 154.11 155.98C155.01 162.5 157.67 164.81 160.56 164.94H160.78C163.77 164.94 166.26 162.83 166.26 157.97C166.26 153.42 163.83 151.68 160.59 151.68ZM119.92 148.63H124.78C130.32 148.63 132.94 146.14 132.94 141.53C132.94 136.92 129.95 135.24 124.53 135.24H119.92V148.63Z" fill="white"/>
<path d="M234.98 145.14C235.1 200.33 199.69 231.16 149.66 247.41C103.19 232.71 65.5198 199.3 65.2998 148.79L65.0098 80.7199L149.84 54.6899L234.84 80.6699L234.98 145.13V145.14ZM170.93 223.87C199.71 207.23 219.68 182.56 219.74 148.09L219.85 90.3899C131.64 64.4499 169.07 64.0099 81.4298 90.2199L80.1398 137.65C79.0698 176.68 96.3598 205.31 129.96 224.4C144.13 232.46 154.68 233.27 170.93 223.88V223.87Z" fill="white"/>
</g>
<defs>
<clipPath id="clip0_1256_68">
<rect width="300" height="300" fill="white"/>
</clipPath>
</defs>
</svg>
