<svg width="309" height="309" viewBox="0 0 309 309" fill="none" xmlns="http://www.w3.org/2000/svg">
<g clip-path="url(#clip0_1256_85)">
<path d="M221.16 176.78H215.16C215.16 162.62 206.02 156.17 197.52 156.17C189.02 156.17 179.88 162.62 179.88 176.78H173.88C173.88 168.68 176.41 161.83 181.19 156.97C185.5 152.59 191.3 150.17 197.52 150.17C203.74 150.17 209.54 152.58 213.85 156.97C218.63 161.83 221.16 168.68 221.16 176.78Z" fill="#FBFBFB"/>
<path d="M222.93 228.96H172.12C167.48 228.96 163.71 225.19 163.71 220.55V184.25C163.71 179.61 167.48 175.84 172.12 175.84H222.93C227.57 175.84 231.34 179.61 231.34 184.25V220.55C231.34 225.19 227.57 228.96 222.93 228.96ZM172.12 181.85C170.79 181.85 169.71 182.93 169.71 184.26V220.56C169.71 221.89 170.79 222.97 172.12 222.97H222.93C224.26 222.97 225.34 221.89 225.34 220.56V184.26C225.34 182.93 224.26 181.85 222.93 181.85H172.12Z" fill="#FBFBFB"/>
<path d="M206.82 100.02C219.42 112.15 227.47 129.02 227.13 146.67" stroke="#FBFBFB" stroke-width="9" stroke-miterlimit="10" stroke-linecap="round"/>
<path d="M174.06 82.2803C181.53 83.8803 188.68 86.8903 195.16 90.9303" stroke="#FBFBFB" stroke-width="9" stroke-miterlimit="10" stroke-linecap="round"/>
<path d="M108.81 92.4402C124.5 83.6202 140.89 79.1702 158.97 80.1702" stroke="#FBFBFB" stroke-width="9" stroke-miterlimit="10" stroke-linecap="round"/>
<path d="M77.7801 152.96C76.7301 134.43 82.7301 114.43 97.5801 101.11" stroke="#FBFBFB" stroke-width="9" stroke-miterlimit="10" stroke-linecap="round"/>
<path d="M153.81 99.3902C177.73 98.4302 201.73 116.43 206.6 140.38" stroke="#FBFBFB" stroke-width="9" stroke-miterlimit="10" stroke-linecap="round"/>
<path d="M109.62 117.26C117.48 108.59 128.35 103.11 139.73 100.75" stroke="#FBFBFB" stroke-width="9" stroke-miterlimit="10" stroke-linecap="round"/>
<path d="M143.38 121.71C156.28 118.88 171.2 121.89 180.57 131.63" stroke="#FBFBFB" stroke-width="9" stroke-miterlimit="10" stroke-linecap="round"/>
<path d="M115.44 156.73C114.95 144.83 120.12 133.7 130.18 127.15" stroke="#FBFBFB" stroke-width="9" stroke-miterlimit="10" stroke-linecap="round"/>
<path d="M151.01 156.63C148.3 198.53 142.46 201.4 122.8 225.28" stroke="#FBFBFB" stroke-width="9" stroke-miterlimit="10" stroke-linecap="round"/>
<path d="M105.68 217.66C115.05 206.91 124.25 197.23 127.88 183.02C129.05 178.46 129.79 173.79 130.35 169.12C130.97 163.95 130.75 158.43 132.08 153.39C134.05 145.92 140.73 140.86 148.07 139.29C156.47 137.49 165.86 140.19 170.57 147.72" stroke="#FBFBFB" stroke-width="9" stroke-miterlimit="10" stroke-linecap="round"/>
<path d="M115.41 156.63C114.73 174.43 106.73 192.43 90.3999 202.64" stroke="#FBFBFB" stroke-width="9" stroke-miterlimit="10" stroke-linecap="round"/>
<path d="M81.5801 185.02C97.3001 181.77 97.5301 165.53 97.4201 151.36C97.3601 143.81 98.6001 136.26 101.71 129.34" stroke="#FBFBFB" stroke-width="9" stroke-miterlimit="10" stroke-linecap="round"/>
<path d="M150 300C67.3196 300 0 232.68 0 150C0 67.3196 67.3196 0 150 0C232.68 0 300 67.3196 300 150C300 232.68 232.68 300 150 300ZM150 7.73196C71.5464 7.73196 7.73196 71.5464 7.73196 150C7.73196 228.454 71.5464 292.268 150 292.268C228.454 292.268 292.268 228.454 292.268 150C292.268 71.5464 228.454 7.73196 150 7.73196Z" fill="white"/>
</g>
<defs>
<clipPath id="clip0_1256_85">
<rect width="309" height="309" fill="white"/>
</clipPath>
</defs>
</svg>
