<svg width="300" height="300" viewBox="0 0 300 300" fill="none" xmlns="http://www.w3.org/2000/svg">
<g clip-path="url(#clip0_1256_72)">
<mask id="mask0_1256_72" style="mask-type:luminance" maskUnits="userSpaceOnUse" x="0" y="0" width="300" height="300">
<path d="M300 0H0V300H300V0Z" fill="white"/>
</mask>
<g mask="url(#mask0_1256_72)">
<path d="M150 299.9C67.3 299.9 0 232.61 0 150C0 67.39 67.3 0 150 0C232.7 0 300 67.3 300 150C300 232.7 232.71 300 150 300V299.9ZM150 7.31C71.29 7.31 7.31 71.29 7.31 150C7.31 228.71 71.29 292.59 150 292.59C228.71 292.59 292.59 228.61 292.59 150C292.59 71.39 228.61 7.31 150 7.31Z" fill="white"/>
<path d="M149.85 240.44C146.24 240.44 142.63 239.27 139.61 236.93C124.01 224.93 85.29 202.79 79.54 178.6C76.03 163.68 75.5 120.38 77.16 90.25C77.65 81.57 92.7799 84.92 101.56 84.73C118.82 84.34 133.13 71.38 141.23 66.5C146.59 63.28 153.23 63.28 158.69 66.5C166.79 71.38 180.3 84.44 197.56 84.73C206.34 84.93 220.9 82.58 221.39 91.36C223.05 121.59 222.49 162.84 218.88 177.76C213.22 201.85 175.8 224.95 160.3 236.94C157.28 239.28 153.67 240.45 150.06 240.45H149.86L149.85 240.44ZM149.81 68.94C147.66 68.94 145.52 69.53 143.66 70.7C135.08 75.87 119.89 89.32 101.65 89.71C95.41 89.81 82.4199 84.41 82.0299 90.55C80.3699 120.1 80.81 162.91 84.22 177.54C89.78 201.04 130.34 223.78 142.44 233.14C146.73 236.46 152.78 236.46 157.07 233.14C172.09 221.53 208.53 199.31 213.9 176.69C217.31 162.06 217.87 121.21 216.22 91.66C215.83 85.42 203.51 89.81 197.17 89.72C178.83 89.33 164.44 75.98 155.96 70.71C154.01 69.54 151.86 68.95 149.82 68.95L149.81 68.94Z" fill="white"/>
<path d="M173.64 133.71H167.64C167.64 119.55 158.5 113.1 150 113.1C141.5 113.1 132.36 119.55 132.36 133.71H126.36C126.36 125.61 128.89 118.76 133.67 113.9C137.98 109.52 143.78 107.1 150 107.1C156.22 107.1 162.02 109.51 166.33 113.9C171.11 118.76 173.64 125.61 173.64 133.71Z" fill="#FBFBFB"/>
<path d="M175.4 185.89H124.59C119.95 185.89 116.18 182.12 116.18 177.48V141.18C116.18 136.54 119.95 132.77 124.59 132.77H175.4C180.04 132.77 183.81 136.54 183.81 141.18V177.48C183.81 182.12 180.04 185.89 175.4 185.89ZM124.6 138.78C123.27 138.78 122.19 139.86 122.19 141.19V177.49C122.19 178.82 123.27 179.9 124.6 179.9H175.41C176.74 179.9 177.82 178.82 177.82 177.49V141.19C177.82 139.86 176.74 138.78 175.41 138.78H124.6Z" fill="#FBFBFB"/>
<path d="M150 168.65C152.469 168.65 154.47 164.482 154.47 159.34C154.47 154.199 152.469 150.03 150 150.03C147.532 150.03 145.53 154.199 145.53 159.34C145.53 164.482 147.532 168.65 150 168.65Z" fill="#FBFBFB"/>
</g>
</g>
<defs>
<clipPath id="clip0_1256_72">
<rect width="300" height="300" fill="white"/>
</clipPath>
</defs>
</svg>
