<svg width="300" height="300" viewBox="0 0 300 300" fill="none" xmlns="http://www.w3.org/2000/svg">
<g clip-path="url(#clip0_38_322)">
<path d="M150 300C67.284 300 0 232.636 0 149.949C0 67.2609 67.284 0 150 0C232.716 0 300 67.2609 300 149.949C300 232.636 232.716 299.897 150 299.897V300ZM150 7.7134C71.6049 7.7134 7.71605 71.5804 7.71605 149.949C7.71605 228.317 71.6049 292.184 150 292.184C228.395 292.184 292.284 228.317 292.284 149.949C292.284 71.5804 228.498 7.7134 150 7.7134Z" fill="white"/>
<path d="M59.5678 178.231H23.6624V175.66H59.5678C80.5554 175.66 100.206 165.17 112.243 147.686C124.485 129.894 137.243 120.843 150 120.843V123.414C135.288 123.414 122.531 137.401 114.403 149.126C101.852 167.329 81.3785 178.231 59.5678 178.231Z" fill="white"/>
<path d="M276.338 178.231H240.432C218.622 178.231 198.148 167.329 185.597 149.126C177.469 137.401 164.712 123.414 150 123.414V120.843C162.757 120.843 175.412 129.894 187.757 147.686C199.794 165.17 219.547 175.66 240.432 175.66H276.338V178.231Z" fill="white"/>
</g>
<defs>
<clipPath id="clip0_38_322">
<rect width="300" height="300" fill="white"/>
</clipPath>
</defs>
</svg>
