<svg width="300" height="300" viewBox="0 0 300 300" fill="none" xmlns="http://www.w3.org/2000/svg">
<g clip-path="url(#clip0_25_1009)">
<path d="M150 300C67.3196 300 0 232.68 0 150C0 67.3196 67.3196 0 150 0C232.68 0 300 67.3196 300 150C300 232.68 232.68 300 150 300ZM150 7.73196C71.5464 7.73196 7.73196 71.5464 7.73196 150C7.73196 228.454 71.5464 292.268 150 292.268C228.454 292.268 292.268 228.454 292.268 150C292.268 71.5464 228.454 7.73196 150 7.73196Z" fill="white"/>
<path d="M187.217 216.599H110.412C95.5671 216.599 83.5052 204.537 83.5052 189.692V112.887C83.5052 98.0421 95.5671 85.9802 110.412 85.9802H178.454V88.5575H110.412C97.0104 88.5575 86.0825 99.4854 86.0825 112.887V189.692C86.0825 203.094 97.0104 214.021 110.412 214.021H187.217C200.619 214.021 211.546 203.094 211.546 189.692V121.135H214.124V189.692C214.124 204.537 202.062 216.599 187.217 216.599Z" fill="white"/>
<path d="M149.691 152.269L147.835 150.517L214.227 83.7126L216.082 85.5683L149.691 152.269Z" fill="white"/>
<path d="M161.237 203.814C155.052 203.814 151.134 193.299 146.495 181.237C142.165 170 137.32 157.216 131.34 157.216C126.186 157.216 117.938 163.608 108.144 194.33C107.629 196.082 107.423 196.495 107.32 196.804L105.052 195.567C105.052 195.567 105.361 194.639 105.773 193.505C108.866 183.918 118.247 154.639 131.443 154.639C139.278 154.639 144.227 167.732 148.969 180.412C152.68 190.206 156.907 201.34 161.34 201.34C166.186 201.34 169.175 192.062 171.753 183.918C174.433 175.464 176.804 168.041 181.65 168.041C188.247 168.144 192.68 179.381 196.392 189.794C196.907 191.34 197.423 192.68 197.732 193.299L195.361 194.33C195.052 193.608 194.536 192.268 194.021 190.619C191.959 184.639 187.113 170.619 181.753 170.515C178.763 170.515 176.392 177.938 174.33 184.536C171.34 194.021 168.247 203.711 161.443 203.711L161.237 203.814Z" fill="white"/>
<path d="M214.227 184.535H86.2886V187.112H214.227V184.535Z" fill="white"/>
</g>
<defs>
<clipPath id="clip0_25_1009">
<rect width="300" height="300" fill="white"/>
</clipPath>
</defs>
</svg>
