<svg width="300" height="300" viewBox="0 0 300 300" fill="none" xmlns="http://www.w3.org/2000/svg">
<g clip-path="url(#clip0_25_1030)">
<path d="M150 300C67.3196 300 0 232.68 0 150C0 67.3196 67.3196 0 150 0C232.68 0 300 67.3196 300 150C300 232.68 232.68 300 150 300ZM150 7.73196C71.5464 7.73196 7.73196 71.5464 7.73196 150C7.73196 228.454 71.5464 292.268 150 292.268C228.454 292.268 292.268 228.454 292.268 150C292.268 71.5464 228.454 7.73196 150 7.73196Z" fill="white"/>
<path d="M200.825 235.98C193.608 235.98 184.021 233.815 175.361 225.464C175.258 225.361 159.278 210.619 167.732 187.423L112.371 131.959C108.247 133.712 90.1032 139.897 73.8145 123.918C73.7114 123.815 59.5877 110.103 65.464 89.1757C65.5671 88.8664 66.1856 87.4231 67.6289 87.0107C68.2475 86.8045 69.3815 86.8045 70.6186 87.7324L91.5465 108.66L108.351 91.4437L87.4228 70.4128C87.4228 70.4128 86.598 68.8664 87.2166 67.4231C87.732 66.3922 88.763 65.6705 90.3094 65.2581C96.8042 63.7117 113.299 61.8561 126.598 77.1138C139.382 91.6499 133.608 108.557 132.062 112.475L187.217 167.835C191.443 166.186 210.103 160.31 225.876 176.083C226.083 176.289 241.959 192.578 233.608 211.959C233.299 212.372 232.68 213.196 231.546 213.299C231.031 213.299 230.103 213.299 229.072 212.475C227.732 211.341 212.165 195.567 208.248 191.547L191.134 208.145L211.753 229.073C211.753 229.073 213.196 230.619 212.887 232.268C212.68 232.99 212.165 234.124 210.412 234.743C208.557 235.464 205.155 236.186 200.928 236.186L200.825 235.98ZM112.887 128.763L170.722 186.701L170.412 187.526C161.856 209.485 176.495 222.99 177.113 223.506C189.794 235.774 204.949 233.712 209.278 232.062C210 231.753 210.206 231.547 210.206 231.444C210.206 231.238 210 230.825 209.794 230.516L187.32 207.732L208.144 187.526L209.072 188.454C216.083 195.567 229.485 209.176 230.619 210.207C230.928 210.413 231.031 210.516 231.134 210.413C238.557 192.784 224.021 177.732 223.918 177.629C207.423 161.134 188.144 169.897 187.32 170.207L186.495 170.619L128.866 112.784L129.278 111.959C129.691 111.238 137.938 93.7117 124.639 78.5571C112.268 64.4334 96.9073 66.186 90.9279 67.5262C90.2063 67.7324 89.7939 67.9385 89.6908 68.2478C89.6908 68.454 89.6908 68.6602 89.6908 68.8664L112.062 91.2375L91.7526 112.165L69.0722 89.4849C69.0722 89.4849 68.5568 89.2788 68.4537 89.2788C68.2475 89.2788 68.0413 89.588 67.9382 89.7942C62.4743 108.969 75.464 121.65 75.6702 121.856C92.7836 138.66 111.856 129.176 112.062 129.073L112.887 128.66V128.763Z" fill="white"/>
<path d="M251.466 46.5709L45.6757 252.361L47.4981 254.183L253.288 48.3933L251.466 46.5709Z" fill="white"/>
</g>
<defs>
<clipPath id="clip0_25_1030">
<rect width="300" height="300" fill="white"/>
</clipPath>
</defs>
</svg>
