<svg width="300" height="300" viewBox="0 0 300 300" fill="none" xmlns="http://www.w3.org/2000/svg">
<g clip-path="url(#clip0_24_270)">
<path d="M150 299.898C67.3156 299.898 0 232.684 0 150C0 67.3156 67.3156 0 150 0C232.684 0 300 67.3156 300 150C300 232.684 232.684 300 150 300V299.898ZM150 7.68443C71.5164 7.68443 7.68443 71.5164 7.68443 150C7.68443 228.484 71.5164 292.316 150 292.316C228.484 292.316 292.316 228.484 292.316 150C292.316 71.5164 228.381 7.68443 150 7.68443Z" fill="#1C1E28"/>
<path d="M239.754 153.279C239.037 153.279 238.525 152.766 238.525 152.049C237.602 107.172 204.816 69.9794 160.553 63.4221C159.836 63.4221 159.324 62.7049 159.426 61.9876C159.426 61.2704 160.143 60.7581 160.861 60.8606C206.352 67.5204 240.164 105.84 241.086 151.947C241.086 152.664 240.574 153.279 239.857 153.279H239.754Z" fill="#1C1E28"/>
<path d="M63.627 114.754C63.627 114.754 63.2172 114.754 63.1147 114.652C62.4999 114.344 62.1926 113.627 62.4999 112.91C78.0737 80.7378 111.373 59.9386 147.131 59.9386C147.848 59.9386 148.361 60.5534 148.361 61.1681C148.361 61.7829 147.746 62.3976 147.131 62.3976C112.295 62.3976 80.0204 82.6845 64.8565 113.934C64.6516 114.344 64.1393 114.652 63.7295 114.652L63.627 114.754Z" fill="#1C1E28"/>
<path d="M59.2212 184.836C58.7089 184.836 58.1967 184.529 57.9917 184.016C54.713 174.385 53.0737 164.242 53.0737 153.894C53.0737 144.57 54.4057 135.348 57.0696 126.639C57.2745 125.922 57.9917 125.615 58.7089 125.82C59.4262 126.025 59.7335 126.742 59.5286 127.459C56.9671 136.066 55.6352 144.98 55.6352 153.996C55.6352 164.037 57.2745 173.873 60.4508 183.299C60.6557 184.016 60.3483 184.734 59.6311 184.939C59.5286 184.939 59.3237 184.939 59.2212 184.939V184.836Z" fill="#1C1E28"/>
<path d="M69.5697 205.02C69.5697 205.02 69.2623 205.02 69.0574 204.918C68.4426 204.611 68.1353 203.893 68.4426 203.176C74.6926 188.934 70.3894 172.029 70.2869 171.824C68.9549 165.984 68.2377 159.938 68.2377 153.791C68.2377 127.356 81.3525 102.869 103.381 88.2171C103.996 87.8073 104.713 88.0122 105.123 88.5245C105.533 89.0368 105.328 89.8565 104.816 90.2663C83.5041 104.508 70.7992 128.176 70.7992 153.791C70.7992 159.734 71.5164 165.574 72.8484 171.209C73.0533 171.926 77.459 189.242 70.9017 204.201C70.6968 204.713 70.1845 204.918 69.7746 204.918L69.5697 205.02Z" fill="#1C1E28"/>
<path d="M226.434 167.111C225.82 167.111 225.205 166.598 225.205 165.984C225.205 165.574 223.975 156.865 223.771 153.791C220.492 109.631 188.217 77.4591 147.131 77.4591C136.578 77.4591 126.332 79.6107 116.701 83.8115C116.086 84.1189 115.266 83.8115 115.062 83.1968C114.754 82.582 115.062 81.7624 115.676 81.5574C125.615 77.2542 136.168 75.0001 147.131 75.0001C189.652 75.0001 222.848 108.094 226.332 153.689C226.537 156.66 227.766 165.676 227.766 165.676C227.766 166.394 227.357 167.008 226.639 167.111C226.639 167.111 226.537 167.111 226.434 167.111Z" fill="#1C1E28"/>
<path d="M208.504 223.361C208.504 223.361 208.402 223.361 208.299 223.361C207.582 223.258 207.172 222.541 207.275 221.824C212.807 191.803 210.861 176.127 209.324 162.295C209.016 159.529 208.709 156.762 208.402 153.894C206.045 128.176 194.877 110.041 175.41 99.7952C174.795 99.4878 174.59 98.6681 174.898 98.0533C175.205 97.4386 176.025 97.2337 176.639 97.5411C196.721 108.094 208.607 127.459 211.066 153.689C211.373 156.455 211.68 159.221 211.988 161.988C213.627 176.025 215.471 191.906 209.938 222.234C209.836 222.848 209.324 223.258 208.709 223.258L208.504 223.361Z" fill="#1C1E28"/>
<path d="M80.9426 218.545C80.9426 218.545 80.5327 218.545 80.4303 218.443C79.8155 218.135 79.5082 217.418 79.8155 216.701C92.3155 190.266 85.4508 168.955 85.4508 168.75C84.2213 163.832 83.709 158.812 83.709 153.791C83.709 118.75 112.193 90.3689 147.131 90.3689C152.254 90.3689 157.479 90.9837 162.5 92.2132C163.217 92.4181 163.627 93.0329 163.422 93.7501C163.217 94.4673 162.602 94.8771 161.885 94.6722C157.07 93.4427 152.049 92.828 147.131 92.828C113.525 92.828 86.2705 120.185 86.2705 153.689C86.2705 158.504 86.7827 163.32 87.9098 167.93C88.2172 168.75 95.0819 190.266 82.1721 217.623C81.9672 218.135 81.4549 218.34 81.045 218.34L80.9426 218.545Z" fill="#1C1E28"/>
<path d="M189.549 236.68C189.549 236.68 189.344 236.68 189.242 236.68C188.525 236.475 188.115 235.861 188.32 235.143C200.82 186.065 192.111 144.57 189.856 138.32C189.652 137.705 189.959 136.885 190.574 136.68C191.291 136.475 192.008 136.68 192.213 137.397C194.467 143.647 203.484 185.963 190.779 235.656C190.676 236.27 190.061 236.578 189.549 236.578V236.68Z" fill="#1C1E28"/>
<path d="M92.623 229.303C92.623 229.303 92.2131 229.303 91.9058 229.098C91.291 228.689 91.0861 227.971 91.4959 227.357C94.7746 221.926 97.4386 215.266 99.3853 207.582C99.5902 206.865 100.307 206.455 100.922 206.66C101.639 206.865 102.049 207.48 101.844 208.197C99.8976 216.189 97.1312 223.053 93.6476 228.689C93.4427 229.098 93.0328 229.303 92.5205 229.303H92.623Z" fill="#1C1E28"/>
<path d="M103.176 194.672C103.176 194.672 103.176 194.672 103.074 194.672C102.357 194.672 101.844 193.955 101.947 193.238C103.484 179.201 101.947 169.57 100.717 160.963C100.307 158.504 100 156.25 99.795 153.996C98.7705 143.135 102.971 131.557 111.475 122.234C121.004 111.783 134.016 105.738 147.131 105.738C161.783 105.738 175.41 112.295 184.529 123.668C184.938 124.18 184.938 125 184.324 125.512C183.811 125.922 182.992 125.82 182.479 125.307C173.77 114.549 160.861 108.402 147.029 108.402C134.529 108.402 122.234 114.139 113.217 124.078C105.225 132.889 101.229 143.75 102.152 153.894C102.357 156.045 102.766 158.299 103.074 160.758C104.303 168.955 105.84 179.201 104.303 193.648C104.303 194.262 103.688 194.775 103.074 194.775L103.176 194.672Z" fill="#1C1E28"/>
<path d="M105.738 238.115C105.738 238.115 105.328 238.115 105.123 237.91C104.508 237.602 104.303 236.783 104.611 236.168C111.373 223.975 115.676 209.221 117.418 192.213C118.852 178.176 117.418 168.955 116.291 160.86C115.984 158.709 115.676 156.66 115.471 154.713C114.549 146.516 117.623 137.602 123.361 131.455C123.873 130.942 124.693 130.942 125.205 131.455C125.717 131.967 125.717 132.787 125.205 133.299C119.877 138.934 117.111 147.028 117.93 154.508C118.135 156.455 118.443 158.504 118.75 160.656C119.979 168.852 121.311 178.278 119.877 192.623C118.135 209.938 113.729 225.102 106.762 237.5C106.557 237.91 106.045 238.115 105.635 238.115H105.738Z" fill="#1C1E28"/>
<path d="M171.106 243.442C171.106 243.442 170.902 243.442 170.697 243.442C169.979 243.237 169.672 242.52 169.877 241.803C182.582 199.385 180.123 177.868 177.664 156.967L177.152 152.254C175.307 135.246 163.217 123.873 147.029 123.873C143.75 123.873 140.471 124.385 137.397 125.512C136.68 125.717 135.963 125.409 135.758 124.692C135.553 123.975 135.861 123.258 136.578 123.053C139.959 121.926 143.443 121.311 147.131 121.311C164.652 121.311 177.766 133.606 179.815 152.049L180.328 156.762C182.787 177.869 185.348 199.795 172.438 242.623C172.234 243.135 171.721 243.545 171.209 243.545L171.106 243.442Z" fill="#1C1E28"/>
<path d="M120.287 243.647C120.287 243.647 119.979 243.647 119.775 243.545C119.16 243.237 118.852 242.52 119.16 241.905C137.602 199.487 134.529 180.328 131.25 160.041L130.533 155.43C129.816 151.024 131.25 146.414 134.426 142.725C137.705 138.832 142.316 136.68 147.131 136.68C156.25 136.68 163.525 143.955 164.447 153.893C164.652 155.942 164.857 157.787 165.164 159.733C165.984 165.471 166.906 171.926 166.598 185.655C166.598 186.373 165.881 186.987 165.266 186.885C164.549 186.885 164.037 186.27 164.037 185.553C164.344 172.028 163.422 165.676 162.602 160.041C162.295 158.094 162.09 156.147 161.885 154.098C161.066 145.491 154.816 139.241 147.131 139.241C143.238 139.241 139.139 141.188 136.373 144.467C133.709 147.541 132.479 151.537 133.094 155.123L133.811 159.733C137.09 180.43 140.266 199.897 121.619 243.032C121.414 243.545 120.902 243.852 120.492 243.852L120.287 243.647Z" fill="#1C1E28"/>
<path d="M226.639 201.639C226.639 201.639 226.639 201.639 226.537 201.639C225.82 201.639 225.307 200.922 225.41 200.307C225.922 193.648 225.615 180.84 225.615 180.738C225.615 180.021 226.127 179.406 226.844 179.406C227.561 179.406 228.074 179.918 228.074 180.635C228.074 181.148 228.484 193.75 227.869 200.512C227.869 201.23 227.254 201.639 226.639 201.639Z" fill="#1C1E28"/>
<path d="M152.869 247.131C152.869 247.131 152.561 247.131 152.356 247.131C151.742 246.824 151.434 246.107 151.639 245.492C161.783 220.902 163.627 198.976 163.627 198.771C163.627 198.054 164.242 197.541 164.856 197.541C165.574 197.541 166.086 198.258 165.984 198.873C165.984 199.078 164.139 221.414 153.791 246.414C153.586 246.926 153.074 247.234 152.561 247.234L152.869 247.131Z" fill="#1C1E28"/>
<path d="M146.209 218.852C146.209 218.852 146.004 218.852 145.902 218.852C145.184 218.647 144.775 218.033 144.98 217.315C153.893 181.865 145.389 152.766 145.389 152.459C145.184 151.742 145.594 151.024 146.209 150.82C146.926 150.615 147.643 151.024 147.848 151.639C147.848 151.947 156.557 181.66 147.541 217.828C147.439 218.442 146.926 218.75 146.311 218.75L146.209 218.852Z" fill="#1C1E28"/>
<path d="M136.066 246.721C136.066 246.721 135.656 246.721 135.553 246.619C134.939 246.312 134.631 245.594 134.939 244.877C137.193 240.266 140.881 231.353 140.881 231.25C141.189 230.635 141.906 230.225 142.521 230.533C143.135 230.84 143.443 231.557 143.238 232.172C143.135 232.582 139.549 241.291 137.193 246.004C136.988 246.414 136.475 246.721 136.066 246.721Z" fill="#1C1E28"/>
</g>
<defs>
<clipPath id="clip0_24_270">
<rect width="300" height="300" fill="white"/>
</clipPath>
</defs>
</svg>
