<svg width="300" height="300" viewBox="0 0 300 300" fill="none" xmlns="http://www.w3.org/2000/svg">
<g clip-path="url(#clip0_25_909)">
<path d="M150.048 300C67.2861 300 0 232.714 0 149.952C0 67.19 67.2861 0 150.048 0C232.81 0 300 67.2861 300 149.952C300 232.618 232.714 299.904 150.048 299.904V300ZM150.048 7.20923C71.2272 7.20923 7.20923 71.2272 7.20923 149.952C7.20923 228.677 71.2272 292.695 150.048 292.695C228.869 292.695 292.791 228.677 292.791 149.952C292.791 71.2272 228.773 7.20923 150.048 7.20923Z" fill="#1C1E28"/>
<path d="M93.1433 214.835L91.4131 213.104L218.295 86.222L220.026 87.9523L93.1433 214.835Z" fill="#1C1E28"/>
<path d="M170.811 194.264C173.465 194.264 175.617 192.112 175.617 189.458C175.617 186.804 173.465 184.652 170.811 184.652C168.156 184.652 166.005 186.804 166.005 189.458C166.005 192.112 168.156 194.264 170.811 194.264Z" fill="#1C1E28"/>
<path d="M190.035 194.264C192.69 194.264 194.842 192.112 194.842 189.458C194.842 186.804 192.69 184.652 190.035 184.652C187.381 184.652 185.229 186.804 185.229 189.458C185.229 192.112 187.381 194.264 190.035 194.264Z" fill="#1C1E28"/>
<path d="M209.26 194.264C211.914 194.264 214.066 192.112 214.066 189.458C214.066 186.804 211.914 184.652 209.26 184.652C206.606 184.652 204.454 186.804 204.454 189.458C204.454 192.112 206.606 194.264 209.26 194.264Z" fill="#1C1E28"/>
<path d="M110.157 85.7417C114.29 84.9727 117.847 83.4347 121.115 81.0317C121.98 80.3588 122.557 80.4549 123.422 81.0317C125.825 82.4735 128.324 83.9154 130.824 85.3572C118.328 98.8144 94.1046 99.9679 79.9745 85.3572C82.7621 83.7231 85.4535 82.1851 88.2411 80.6472C88.5294 80.551 89.1062 80.7433 89.3945 81.0317C92.4705 83.3386 95.9309 84.8766 99.6797 85.7417C99.872 85.7417 100.16 85.7417 100.545 85.8378V84.2998C100.545 77.4751 100.545 70.5543 100.545 63.7295C100.545 62.8644 100.833 62.2877 101.602 61.9032C102.852 61.2303 104.101 59.9807 105.351 59.9807C106.601 59.9807 107.85 61.2303 109.196 61.9032C109.965 62.2877 110.253 62.7683 110.253 63.6334C110.253 70.5542 110.253 77.4751 110.253 84.2998C110.253 84.7805 110.253 85.2611 110.253 85.8378L110.157 85.7417Z" fill="#1C1E28"/>
<path d="M137.168 96.2192C137.168 99.3913 137.168 102.467 137.168 105.639C137.168 105.928 136.687 106.408 136.303 106.601C133.131 108.042 130.247 109.869 127.844 112.368C127.363 112.849 126.979 113.329 126.498 113.81C128.709 115.059 130.824 116.309 132.939 117.559C137.264 120.058 141.59 122.557 145.915 124.96C146.588 125.345 146.876 125.729 146.78 126.498C146.78 127.075 146.684 127.651 146.78 128.228C147.165 130.343 146.203 131.4 144.377 132.458C142.551 133.515 141.301 133.515 139.571 132.458C134.188 129.189 128.613 126.114 123.134 122.941C122.653 122.653 122.173 122.461 121.404 121.98C120.923 124.383 120.443 126.594 120.154 128.805C119.962 130.631 120.154 132.554 120.154 134.476C120.154 134.861 120.058 135.341 119.77 135.534C117.078 137.168 114.387 138.706 111.599 140.244C106.312 122.365 117.463 101.122 137.072 96.2192H137.168Z" fill="#1C1E28"/>
<path d="M84.3 113.714C81.6086 110.542 78.3404 108.138 74.6877 106.601C73.8226 106.216 73.5343 105.735 73.5343 104.87C73.5343 101.987 73.5343 99.1029 73.5343 96.2192C91.7976 100.545 104.486 120.731 99.0069 140.147C96.2193 138.513 93.4317 136.975 90.7403 135.341C90.4519 135.149 90.4519 134.38 90.4519 133.899C90.8364 130.247 90.4519 126.69 89.4907 123.23C89.3946 122.845 89.2023 122.557 89.1062 122.076C87.1837 123.134 85.4535 124.191 83.6272 125.248C79.0133 127.94 74.3994 130.535 69.7855 133.227C69.1126 133.611 68.5359 133.707 67.863 133.227C66.6134 132.458 64.8832 131.977 64.2103 130.92C63.5375 129.862 64.0181 128.036 63.922 126.594C63.922 125.729 64.2103 125.248 64.9793 124.864C70.9389 121.5 76.8986 118.039 82.8582 114.579C83.2427 114.29 83.7233 114.098 84.3 113.714Z" fill="#1C1E28"/>
</g>
<defs>
<clipPath id="clip0_25_909">
<rect width="300" height="300" fill="white"/>
</clipPath>
</defs>
</svg>
