<svg width="300" height="300" viewBox="0 0 300 300" fill="none" xmlns="http://www.w3.org/2000/svg">
<g clip-path="url(#clip0_33_1403)">
<path d="M150 300C67.2557 300 0 232.744 0 150C0 67.2557 67.2557 0 150 0C232.744 0 300 67.2557 300 150C300 232.744 232.744 300 150 300ZM150 7.79626C71.6216 7.79626 7.79626 71.6216 7.79626 150C7.79626 228.378 71.6216 292.204 150 292.204C228.378 292.204 292.204 228.378 292.204 150C292.204 71.6216 228.482 7.79626 150 7.79626Z" fill="#1C1E28"/>
<path d="M94.6985 162.683V158.005C96.8815 158.005 98.4408 157.797 99.2724 157.589C100.624 157.277 101.767 156.654 102.703 155.718C103.326 155.094 103.742 154.263 104.054 153.223C104.262 152.6 104.366 152.08 104.366 151.768H110.187V187.111H103.119V162.787H94.8025L94.6985 162.683Z" fill="#1C1E28"/>
<path d="M117.152 180.042C118.191 177.652 120.478 175.157 124.116 172.558C127.339 170.271 129.418 168.608 130.353 167.672C131.809 166.113 132.536 164.45 132.536 162.579C132.536 161.123 132.121 159.876 131.289 158.837C130.457 157.797 129.314 157.381 127.755 157.381C125.676 157.381 124.22 158.213 123.493 159.772C123.077 160.708 122.765 162.163 122.765 164.138H116.008C116.112 161.123 116.632 158.733 117.671 156.862C119.543 153.327 122.765 151.56 127.547 151.56C131.289 151.56 134.303 152.6 136.486 154.679C138.669 156.758 139.813 159.46 139.813 162.891C139.813 165.489 139.085 167.776 137.422 169.855C136.382 171.207 134.719 172.662 132.328 174.325L129.522 176.3C127.755 177.548 126.611 178.483 125.987 179.003C125.364 179.523 124.844 180.146 124.324 180.874H139.709V187.007H115.592C115.592 184.512 116.216 182.121 117.256 180.042" fill="#1C1E28"/>
<path d="M148.753 151.248H155.613V170.583L164.345 160.603H172.973L163.513 170.479L173.389 187.007H164.865L158.42 175.676L155.613 178.587V187.007H148.753V151.248Z" fill="#1C1E28"/>
<path d="M184.719 160.396C186.383 161.124 187.734 162.371 188.773 164.242V160.396H195.53V185.552C195.53 188.982 194.906 191.581 193.763 193.244C191.788 196.259 188.046 197.714 182.329 197.714C178.898 197.714 176.195 197.09 174.013 195.739C171.83 194.388 170.686 192.413 170.478 189.814H178.067C178.274 190.646 178.586 191.269 179.002 191.581C179.73 192.205 180.977 192.517 182.744 192.517C185.239 192.517 186.902 191.685 187.734 190.022C188.254 188.982 188.566 187.111 188.566 184.616V182.953C187.942 184.097 187.214 184.928 186.383 185.552C185.031 186.592 183.264 187.111 180.977 187.111C177.547 187.111 174.844 185.864 172.765 183.473C170.686 181.082 169.751 177.86 169.751 173.702C169.751 169.544 170.686 166.425 172.661 163.723C174.636 161.02 177.443 159.668 180.977 159.668C182.329 159.668 183.472 159.876 184.408 160.292M187.11 179.419C188.254 178.172 188.773 176.197 188.773 173.598C188.773 171.103 188.254 169.128 187.214 167.881C186.175 166.529 184.719 165.905 182.952 165.905C180.561 165.905 178.898 167.049 177.963 169.336C177.443 170.583 177.235 172.039 177.235 173.806C177.235 175.365 177.443 176.716 177.963 177.964C178.898 180.147 180.561 181.29 183.056 181.29C184.615 181.29 186.071 180.666 187.11 179.419Z" fill="#1C1E28"/>
<path d="M153.534 237.423C148.025 237.423 142.62 237.423 137.214 237.111L129.314 236.8C110.707 236.176 91.4762 235.552 72.7651 231.498C71.1019 231.082 69.0229 230.563 67.0479 229.523C63.6175 227.652 62.2662 224.118 63.3057 220.271L89.0853 123.806C90.7485 117.465 93.0354 115.698 99.6882 115.698H120.998C111.123 95.3234 115.177 79.1072 133.16 67.5688C144.907 59.9804 160.083 61.0199 170.998 69.9596C185.655 82.0178 188.358 97.4024 179.314 115.698H201.144C207.277 115.698 209.563 117.465 211.123 123.39C212.474 128.587 213.929 133.785 215.281 138.982L236.694 218.92C237.63 222.246 237.318 225.053 235.967 227.236C234.615 229.315 232.329 230.563 229.21 231.082L227.027 231.394C217.152 232.953 206.965 234.721 196.778 235.448C181.601 236.696 167.256 237.319 153.43 237.319L153.534 237.423ZM115.073 118.4H99.5843C94.0749 118.4 92.9315 119.336 91.4762 124.533L65.6965 220.999C64.9689 223.702 65.9044 226.093 68.1913 227.34C69.8545 228.172 71.7256 228.691 73.1809 229.003C91.5801 233.057 110.707 233.681 129.21 234.201L137.11 234.513C155.821 235.136 175.26 234.721 196.466 232.953C206.549 232.122 216.632 230.459 226.507 228.899L228.69 228.587C231.081 228.172 232.744 227.34 233.68 225.885C234.615 224.429 234.823 222.246 234.096 219.648L212.682 139.71C211.331 134.513 209.875 129.315 208.524 124.118C207.277 119.44 205.925 118.4 201.04 118.4H174.844L175.884 116.529C185.655 98.4419 183.472 83.8889 169.231 72.1426C159.252 63.8266 145.218 62.9949 134.511 69.8557C117.048 81.0823 113.721 96.3629 124.22 116.529L125.26 118.4H115.177H115.073ZM150 111.748C146.154 111.748 142.516 110.188 139.813 107.486C137.11 104.783 135.551 101.041 135.551 97.1945C135.551 89.2943 142.204 82.6415 150.104 82.6415C153.846 82.6415 157.484 84.0968 160.187 86.9035C162.994 89.7101 164.553 93.3484 164.553 97.2985C164.553 105.303 158.004 111.748 150 111.748ZM150.104 85.3442C143.659 85.3442 138.15 90.8536 138.15 97.2985C138.15 100.417 139.397 103.432 141.684 105.718C143.971 108.005 146.882 109.253 150.104 109.253C156.653 109.253 162.058 103.951 162.058 97.4024C162.058 94.18 160.811 91.1654 158.524 88.8785C156.237 86.5916 153.326 85.4482 150.312 85.4482L150.104 85.3442Z" fill="#1C1E28"/>
</g>
<defs>
<clipPath id="clip0_33_1403">
<rect width="300" height="300" fill="white"/>
</clipPath>
</defs>
</svg>
