<svg width="300" height="300" viewBox="0 0 300 300" fill="none" xmlns="http://www.w3.org/2000/svg">
<g clip-path="url(#clip0_649_396)">
<path d="M150.409 0C233.129 0.204499 300.205 67.6893 300.001 150.409C299.796 232.924 232.516 300 150.001 300H149.592C109.612 299.898 72.0868 284.151 43.7637 255.726C15.4406 227.198 -0.101288 189.468 0.000961304 149.591C0.20556 66.9733 67.4857 0 150.001 0H150.409ZM150.001 7.66895C71.6779 7.66895 7.87353 71.2678 7.66893 149.591C7.56668 187.525 22.291 223.211 49.1826 250.307C76.0742 277.403 111.759 292.229 149.592 292.331H150.001C228.324 292.331 292.127 228.732 292.332 150.409C292.537 71.9838 228.937 7.87344 150.409 7.66895H150.001ZM149.796 41.5137C178.63 41.5139 202.147 65.0311 202.147 93.8652V155.624H212.577V239.979H87.3213V155.624H199.796V93.8652C199.796 66.3602 177.402 43.9678 149.897 43.9678C122.393 43.9679 100 66.3603 100 93.8652V127.914H97.4433V93.8652C97.4434 64.9287 120.962 41.5137 149.796 41.5137ZM89.8769 237.424H210.02V158.181H89.8769V237.424Z" fill="white"/>
</g>
<defs>
<clipPath id="clip0_649_396">
<rect width="300" height="300" fill="white"/>
</clipPath>
</defs>
</svg>
