<svg width="300" height="300" viewBox="0 0 300 300" fill="none" xmlns="http://www.w3.org/2000/svg">
<g clip-path="url(#clip0_649_429)">
<path d="M150 -0.0507812C232.712 -0.0507812 300.051 67.2875 300.051 150C300.051 232.713 232.712 300.052 150 300.052V299.949C67.2871 299.949 -0.0512695 232.713 -0.0512695 150C-0.0510154 67.2877 67.2872 -0.0505271 150 -0.0507812ZM150 7.63672C71.4895 7.63697 7.63648 71.49 7.63623 150C7.63623 228.51 71.4893 292.364 150 292.364C228.51 292.364 292.364 228.51 292.364 150C292.364 71.4898 228.407 7.63672 150 7.63672ZM58.063 73.8477C58.5755 73.3352 59.3952 73.3352 59.9077 73.8477L98.6606 112.601L139.033 83.4824C141.39 81.8425 144.465 81.5348 147.028 82.8672C149.59 84.1996 151.23 86.7621 151.23 89.7344V165.169L220.824 234.763C220.824 234.763 221.336 236.095 220.824 236.607C220.619 236.812 220.208 237.018 219.901 237.018C219.895 237.017 219.284 236.913 218.978 236.607L151.23 168.859V216.212C151.23 219.902 149.18 223.181 145.9 224.821C144.568 225.436 143.133 225.847 141.698 225.847L141.595 225.744C139.545 225.744 137.393 225.026 135.651 223.693L90.1431 188.23C88.2982 186.796 85.9407 185.976 83.5835 185.976H65.647C61.3424 185.975 57.7554 182.491 57.7554 178.084V129.399C57.7554 124.07 62.0604 119.765 67.3901 119.765H86.4536C88.0935 119.765 89.6309 119.15 90.8608 118.228L96.5171 114.146L58.063 75.6924C58.063 75.6924 57.5507 74.3602 58.063 73.8477ZM92.2954 120.277C90.5531 121.507 88.5033 122.225 86.3511 122.225H67.2876C63.3928 122.327 60.2153 125.505 60.2153 129.399V178.084C60.2153 181.056 62.5723 183.414 65.5444 183.414H83.481C86.4533 183.414 89.3238 184.438 91.6812 186.181L137.188 221.644C139.34 223.283 142.108 223.591 144.568 222.464C147.028 221.234 148.462 218.877 148.462 216.109V166.092L98.3091 115.938L92.2954 120.277ZM215.904 90.8613C232.508 107.465 242.04 130.424 242.04 153.896C242.039 177.366 232.508 200.325 215.904 216.929L214.059 215.084C230.15 198.993 239.477 176.649 239.477 153.896C239.477 131.142 230.253 108.798 214.059 92.7061L215.904 90.8613ZM198.275 108.49C210.267 120.482 217.031 136.984 217.031 153.896C217.031 170.807 210.164 187.308 198.275 199.3L196.43 197.455C207.909 185.976 214.469 170.089 214.469 153.896C214.469 137.701 207.909 121.814 196.43 110.335L198.275 108.49ZM179.826 126.837C186.898 133.909 190.998 143.749 190.998 153.793C190.998 163.837 186.898 173.677 179.826 180.749L177.981 178.904C184.643 172.242 188.435 163.12 188.435 153.793C188.435 144.466 184.643 135.241 177.981 128.682L179.826 126.837ZM143.393 84.5078C142.384 84.5172 141.377 84.8258 140.468 85.5322L100.453 114.393L148.462 162.401V89.6318C148.462 87.6844 147.437 85.942 145.695 85.1221C144.994 84.7214 144.194 84.5168 143.393 84.5078Z" fill="white"/>
</g>
<defs>
<clipPath id="clip0_649_429">
<rect width="300" height="300" fill="white"/>
</clipPath>
</defs>
</svg>
