<svg width="300" height="300" viewBox="0 0 300 300" fill="none" xmlns="http://www.w3.org/2000/svg">
<g clip-path="url(#clip0_23_81)">
<path d="M150 300H149.591C109.611 299.898 72.0859 284.151 43.7628 255.726C15.4397 227.301 -0.102236 189.468 1.30416e-05 149.591C0.204512 66.9734 67.4847 0 150 0H150.409C233.129 0.204499 300.205 67.6892 300 150.409C299.898 190.389 284.151 227.914 255.726 256.237C227.403 284.458 189.877 299.898 150.102 299.898L150 300ZM150 7.66871C71.6769 7.66871 7.87322 71.2679 7.66872 149.591C7.56648 187.526 22.2904 223.211 49.182 250.307C76.0736 277.403 111.656 292.229 149.591 292.331H150C187.73 292.331 223.313 277.607 250.205 250.818C277.198 223.926 292.127 188.344 292.229 150.409C292.434 71.9836 228.834 7.87321 150.307 7.66871H149.898H150Z" fill="#1C1E28"/>
<path d="M195.091 244.683L104.498 244.479C99.9993 244.479 96.3184 240.798 96.3184 236.299L96.8296 63.5992C96.8296 61.4519 97.6476 59.4069 99.2836 57.7709C100.817 56.2372 102.862 55.4192 105.01 55.4192L195.603 55.726C197.75 55.726 199.897 56.6462 201.431 58.1799C202.965 59.7137 203.783 61.7587 203.783 64.0082L203.271 236.708C203.271 238.855 202.453 240.9 200.817 242.536C199.284 244.07 197.239 244.888 195.091 244.888V244.683ZM104.907 57.8732C103.374 57.8732 102.044 58.4867 100.92 59.5092C99.8971 60.5317 99.2836 61.9632 99.2836 63.4969L98.7723 236.196C98.7723 239.264 101.329 241.82 104.396 241.82L194.989 242.025C196.523 242.025 197.852 241.411 198.977 240.389C200.102 239.366 200.613 237.935 200.613 236.401L201.124 63.7014C201.124 60.6339 198.568 58.0777 195.5 58.0777L104.907 57.7709V57.8732Z" fill="#1C1E28"/>
<path d="M194.376 221.575L105.214 221.268V220.041L105.623 71.3701L194.785 71.6769V72.9038L194.376 221.575ZM107.77 218.814L191.819 219.018L192.228 74.1308L108.179 73.9263L107.77 218.814Z" fill="#1C1E28"/>
<path d="M149.999 195.092C145.5 195.092 141.819 191.411 141.819 186.912C141.819 182.413 145.5 178.732 149.999 178.732C154.498 178.732 158.179 182.413 158.179 186.912C158.179 191.411 154.498 195.092 149.999 195.092ZM149.999 181.391C146.932 181.391 144.376 183.947 144.376 187.014C144.376 190.082 146.932 192.638 149.999 192.638C153.067 192.638 155.623 190.082 155.623 187.014C155.623 183.947 153.067 181.391 149.999 181.391Z" fill="#1C1E28"/>
<path d="M149.999 180.573L139.57 118.916C139.263 117.894 139.059 116.871 139.059 115.849C139.059 109.816 143.967 104.908 149.999 104.908C156.032 104.908 160.94 109.816 160.94 115.849C160.94 116.871 160.735 117.894 160.429 119.018L149.999 180.573ZM149.999 107.464C145.398 107.464 141.615 111.247 141.615 115.849C141.615 116.667 141.717 117.382 142.024 118.303L149.999 165.235L157.975 118.303C158.281 117.382 158.384 116.564 158.384 115.849C158.384 111.247 154.601 107.464 149.999 107.464Z" fill="#1C1E28"/>
</g>
<defs>
<clipPath id="clip0_23_81">
<rect width="300" height="300" fill="white"/>
</clipPath>
</defs>
</svg>
