<svg width="300" height="300" viewBox="0 0 300 300" fill="none" xmlns="http://www.w3.org/2000/svg">
<g clip-path="url(#clip0_25_1032)">
<path d="M150 300C67.3196 300 0 232.68 0 150C0 67.3196 67.3196 0 150 0C232.68 0 300 67.3196 300 150C300 232.68 232.68 300 150 300ZM150 7.73196C71.5464 7.73196 7.73196 71.5464 7.73196 150C7.73196 228.454 71.5464 292.268 150 292.268C228.454 292.268 292.268 228.454 292.268 150C292.268 71.5464 228.454 7.73196 150 7.73196Z" fill="white"/>
<path d="M150.516 175.464C138.248 175.464 128.351 165.464 128.351 153.299C128.351 141.134 138.351 131.134 150.516 131.134C162.681 131.134 172.681 141.134 172.681 153.299C172.681 165.464 162.681 175.464 150.516 175.464ZM150.516 133.711C139.691 133.711 130.928 142.474 130.928 153.299C130.928 164.123 139.691 172.886 150.516 172.886C161.34 172.886 170.103 164.123 170.103 153.299C170.103 142.474 161.34 133.711 150.516 133.711Z" fill="white"/>
<path d="M151.753 53.0918H149.175V84.9475H151.753V53.0918Z" fill="white"/>
<path d="M151.753 221.649H149.175V253.505H151.753V221.649Z" fill="white"/>
<path d="M250.619 151.959H218.763V154.536H250.619V151.959Z" fill="white"/>
<path d="M82.165 151.959H50.3093V154.536H82.165V151.959Z" fill="white"/>
<path d="M220.365 81.5037L197.84 104.029L199.663 105.851L222.188 83.3261L220.365 81.5037Z" fill="white"/>
<path d="M101.19 200.662L78.6649 223.187L80.4873 225.01L103.013 202.484L101.19 200.662Z" fill="white"/>
<path d="M80.5477 81.5479L78.7253 83.3704L101.251 105.896L103.073 104.073L80.5477 81.5479Z" fill="white"/>
<path d="M178.144 224.33L177.113 221.959C197.938 213.093 213.299 194.846 218.35 173.196L220.825 173.815C215.567 196.186 199.588 215.155 178.041 224.33H178.144Z" fill="white"/>
<path d="M180.722 245.155L179.794 242.784C210.412 231.65 232.474 205.052 237.423 173.403L240 173.815C234.948 206.393 212.268 233.712 180.722 245.259V245.155Z" fill="white"/>
</g>
<defs>
<clipPath id="clip0_25_1032">
<rect width="300" height="300" fill="white"/>
</clipPath>
</defs>
</svg>
