<svg width="300" height="300" viewBox="0 0 300 300" fill="none" xmlns="http://www.w3.org/2000/svg">
<g clip-path="url(#clip0_25_1035)">
<path d="M150 165.422C141.467 165.422 134.578 158.534 134.578 150.001C134.578 141.468 141.467 134.579 150 134.579C158.533 134.579 165.421 141.468 165.421 150.001C165.421 158.534 158.533 165.422 150 165.422ZM150 137.15C142.906 137.15 137.149 142.907 137.149 150.001C137.149 157.095 142.906 162.852 150 162.852C157.094 162.852 162.851 157.095 162.851 150.001C162.851 142.907 157.094 137.15 150 137.15Z" fill="#1C1E28"/>
<path d="M151.234 23.3381H148.664V134.476H151.234V23.3381Z" fill="#1C1E28"/>
<path d="M137.285 155.326L55.5963 195.628L56.7335 197.933L138.422 157.631L137.285 155.326Z" fill="#1C1E28"/>
<path d="M150 299.897C67.2378 299.897 0 232.659 0 150C0 67.3406 67.2378 0 150 0C232.762 0 300 67.2378 300 150C300 232.762 232.762 300 150 300V299.897ZM150 7.71076C71.5559 7.71076 7.71076 71.5559 7.71076 150C7.71076 228.444 71.5559 292.289 150 292.289C228.444 292.289 292.289 228.444 292.289 150C292.289 71.5559 228.444 7.71076 150 7.71076Z" fill="#1C1E28"/>
</g>
<defs>
<clipPath id="clip0_25_1035">
<rect width="300" height="300" fill="white"/>
</clipPath>
</defs>
</svg>
