<svg width="300" height="300" viewBox="0 0 300 300" fill="none" xmlns="http://www.w3.org/2000/svg">
<g clip-path="url(#clip0_30_1093)">
<path d="M215.959 87.8799C211.515 87.8799 207.878 84.2435 207.878 79.7991C207.878 75.3546 211.515 71.7183 215.959 71.7183C220.404 71.7183 224.04 75.3546 224.04 79.7991C224.04 84.2435 220.404 87.8799 215.959 87.8799ZM215.959 74.2435C212.929 74.2435 210.404 76.7688 210.404 79.7991C210.404 82.8294 212.929 85.3546 215.959 85.3546C218.989 85.3546 221.515 82.8294 221.515 79.7991C221.515 76.7688 218.989 74.2435 215.959 74.2435Z" fill="white"/>
<path d="M150 300C67.2727 300 0 232.727 0 150C0 67.2727 67.2727 0 150 0C232.727 0 300 67.2727 300 150C300 232.727 232.727 300 150 300ZM150 7.57576C71.5152 7.57576 7.57576 71.5152 7.57576 150C7.57576 228.485 71.5152 292.424 150 292.424C228.485 292.424 292.424 228.485 292.424 150C292.424 71.5152 228.586 7.57576 150 7.57576Z" fill="white"/>
<path d="M146.969 179.293C146.969 179.293 146.565 179.293 146.363 179.192L59.6968 132.829C59.0907 132.526 58.8887 131.718 59.1917 131.112C59.4947 130.505 60.3028 130.303 60.9089 130.607L147.071 176.667L233.535 130.91C234.141 130.607 234.949 130.91 235.252 131.415C235.555 131.92 235.252 132.829 234.747 133.132L147.677 179.192C147.677 179.192 147.273 179.293 147.071 179.293H146.969Z" fill="white"/>
<path d="M197.879 215.05H96.1619V181.515H197.879V215.05ZM98.6871 212.525H195.354V184.04H98.6871V212.525Z" fill="white"/>
<path d="M106.162 98.8891H93.3333V95.9598C95.2524 95.8588 96.8686 95.6568 98.4848 95.3538C99.9999 95.1518 101.414 94.6467 102.525 94.0407C103.636 93.3336 104.646 92.4245 105.454 91.2124C106.263 90.0002 106.768 88.2831 107.172 86.1619H110.808V135.96H106.263V98.8891H106.162Z" fill="white"/>
<path d="M128.687 86.566H160.404V90.8085C156.768 94.8489 153.737 98.9903 151.313 103.233C148.788 107.475 146.768 111.617 145.151 115.657C143.535 119.697 142.323 123.435 141.616 126.97C140.909 130.505 140.404 133.435 140.202 135.859H135.252C135.454 132.324 136.161 128.485 137.374 124.445C138.586 120.404 140.101 116.465 141.818 112.425C143.636 108.485 145.656 104.647 147.879 100.909C150.101 97.1721 152.424 93.8388 154.848 90.9095H128.586V86.364L128.687 86.566Z" fill="white"/>
<path d="M183.839 86.0608C186.263 86.0608 188.384 86.4648 190.202 87.1719C192.02 87.879 193.536 88.8891 194.748 90.2022C195.96 91.5153 197.071 92.9295 197.778 94.6466C198.586 96.3638 199.192 98.182 199.596 100.101C200 102.02 200.303 103.94 200.404 105.96C200.505 107.98 200.606 110 200.606 111.919C200.606 115.253 200.404 118.384 199.899 121.414C199.394 124.445 198.586 127.071 197.273 129.394C196.061 131.717 194.344 133.536 192.121 134.95C190 136.364 187.172 136.97 183.738 136.97C180.303 136.97 177.475 136.263 175.253 134.95C173.03 133.536 171.313 131.717 170.101 129.394C168.889 127.071 167.98 124.344 167.475 121.313C166.97 118.283 166.768 114.95 166.768 111.515C166.768 108.384 166.97 105.253 167.374 102.222C167.778 99.1921 168.586 96.4648 169.798 94.1416C171.01 91.7173 172.727 89.7982 174.95 88.384C177.172 86.9699 180.101 86.1618 183.637 86.1618M196.162 111.414C196.162 108.687 195.96 106.061 195.657 103.536C195.354 101.01 194.748 98.687 193.839 96.6668C192.929 94.6466 191.717 93.0305 190 91.8184C188.384 90.6062 186.263 90.0002 183.637 90.0002C181.111 90.0002 179.091 90.6062 177.475 91.9194C175.859 93.1315 174.647 94.8487 173.738 96.8689C172.828 98.9901 172.222 101.313 171.818 103.94C171.414 106.566 171.313 109.293 171.313 112.02C171.313 115.253 171.515 118.081 171.919 120.707C172.323 123.334 173.03 125.556 173.94 127.374C174.849 129.192 176.162 130.606 177.677 131.616C179.293 132.626 181.212 133.131 183.637 133.131C186.364 133.131 188.485 132.424 190.101 131.111C191.717 129.798 192.929 128.081 193.839 125.96C194.647 123.94 195.253 121.616 195.556 118.99C195.859 116.364 195.96 113.839 195.96 111.313" fill="white"/>
</g>
<defs>
<clipPath id="clip0_30_1093">
<rect width="300" height="300" fill="white"/>
</clipPath>
</defs>
</svg>
