<svg width="300" height="300" viewBox="0 0 300 300" fill="none" xmlns="http://www.w3.org/2000/svg">
<g clip-path="url(#clip0_24_371)">
<path d="M150 300C67.2888 300 0 232.711 0 150C0 67.2888 67.2888 0 150 0C232.711 0 300 67.2888 300 150C300 232.711 232.711 300 150 300ZM150 7.36739C71.3163 7.36739 7.36739 71.3163 7.36739 150C7.36739 228.684 71.3163 292.633 150 292.633C228.684 292.633 292.633 228.684 292.633 150C292.633 71.3163 228.684 7.36739 150 7.36739Z" fill="#1C1E28"/>
<path d="M149.607 172.888C136.935 172.888 126.719 162.574 126.719 150C126.719 137.426 137.033 127.112 149.607 127.112C162.181 127.112 172.495 137.426 172.495 150C172.495 162.574 162.181 172.888 149.607 172.888ZM149.607 129.666C138.409 129.666 129.273 138.802 129.273 150C129.273 161.198 138.409 170.334 149.607 170.334C160.805 170.334 169.941 161.198 169.941 150C169.941 138.802 160.805 129.666 149.607 129.666Z" fill="#1C1E28"/>
<path d="M149.607 174.067C136.346 174.067 125.442 163.261 125.442 149.902C125.442 136.542 136.248 125.737 149.607 125.737C162.967 125.737 173.772 136.542 173.772 149.902C173.772 163.261 162.967 174.067 149.607 174.067ZM149.607 128.291C137.623 128.291 127.898 138.016 127.898 150C127.898 161.984 137.623 171.709 149.607 171.709C161.592 171.709 171.316 161.984 171.316 150C171.316 138.016 161.592 128.291 149.607 128.291ZM149.607 171.513C137.721 171.513 128.094 161.886 128.094 150C128.094 138.114 137.721 128.487 149.607 128.487C161.493 128.487 171.12 138.114 171.12 150C171.12 161.886 161.493 171.513 149.607 171.513ZM149.607 130.845C139.096 130.845 130.55 139.391 130.55 149.902C130.55 160.412 139.096 168.959 149.607 168.959C160.118 168.959 168.664 160.412 168.664 149.902C168.664 139.391 160.118 130.845 149.607 130.845Z" fill="#1C1E28"/>
<path d="M154.126 83.1041C154.126 83.1041 153.143 83.1041 152.75 83.0059C150.982 82.6129 149.509 81.6306 148.526 80.0589C146.463 76.9155 147.348 72.7898 150.491 70.7269C153.634 68.664 157.76 69.5481 159.823 72.6915C161.886 75.8349 161.002 79.9607 157.858 82.0235C156.778 82.7112 155.501 83.1041 154.224 83.1041M154.126 72.2004C153.34 72.2004 152.554 72.3968 151.866 72.888C149.902 74.165 149.41 76.719 150.687 78.6837C151.277 79.666 152.259 80.2554 153.34 80.4518C154.518 80.6483 155.599 80.4518 156.483 79.8624C158.448 78.5854 158.939 76.0314 157.662 74.0668C156.876 72.888 155.501 72.2004 154.126 72.2004Z" fill="#1C1E28"/>
<path d="M154.126 84.2832C153.635 84.2832 153.045 84.2832 152.456 84.0867C150.295 83.5956 148.527 82.4168 147.348 80.6486C146.169 78.8805 145.776 76.7194 146.267 74.6565C146.66 72.5936 147.937 70.8254 149.705 69.6467C153.438 67.2891 158.35 68.2714 160.707 72.0042C163.065 75.737 162.083 80.6486 158.35 83.0062C157.073 83.8903 155.501 84.2832 154.028 84.2832H154.126ZM154.126 70.8254C153.144 70.8254 152.063 71.1201 151.081 71.7095C149.902 72.4954 149.018 73.7724 148.723 75.1476C148.428 76.6211 148.723 78.0946 149.509 79.2734C150.295 80.5504 151.572 81.3363 152.947 81.631C154.322 81.8274 155.894 81.6309 157.073 80.8451C159.627 79.1751 160.314 75.737 158.644 73.183C157.564 71.5131 155.796 70.7272 154.028 70.7272L154.126 70.8254ZM154.126 81.7292C154.126 81.7292 153.34 81.7292 152.947 81.631C151.474 81.3363 150.295 80.4522 149.509 79.2734C148.723 78.0946 148.428 76.6211 148.723 75.2459C149.018 73.8706 149.804 72.5936 151.081 71.8078C153.536 70.2361 156.975 70.9237 158.546 73.3795C160.118 75.9335 159.43 79.2734 156.975 80.8451C156.09 81.4345 155.108 81.7292 154.028 81.7292H154.126ZM154.126 73.3795C153.536 73.3795 153.045 73.5759 152.554 73.8706C151.867 74.2636 151.474 74.9512 151.277 75.737C151.081 76.5229 151.277 77.3087 151.67 77.9964C152.063 78.684 152.751 79.0769 153.536 79.2734C154.322 79.4698 155.108 79.2734 155.698 78.8805C157.073 77.9964 157.466 76.13 156.582 74.8529C155.992 74.0671 155.108 73.4777 154.126 73.4777V73.3795Z" fill="#1C1E28"/>
<path d="M196.071 99.4103H195.776C194.008 99.4103 192.338 98.5262 191.061 97.2492C189.882 95.8739 189.194 94.204 189.293 92.4358C189.293 90.6676 190.177 88.9977 191.454 87.7207C192.829 86.5419 194.499 85.8543 196.267 85.9525C200 86.149 202.849 89.2924 202.75 92.927C202.554 96.5616 199.607 99.4103 196.071 99.4103ZM196.071 88.5065C194.99 88.5065 194.008 88.8995 193.222 89.5871C192.436 90.373 191.945 91.3553 191.847 92.4358C191.847 93.5164 192.24 94.5969 192.927 95.481C193.713 96.2669 194.695 96.758 195.776 96.8562C198.035 97.0527 200 95.1863 200.098 92.927C200.098 90.6676 198.428 88.703 196.071 88.6048H195.874" fill="#1C1E28"/>
<path d="M196.071 100.589H195.776C193.615 100.589 191.65 99.6067 190.177 98.035C188.703 96.4633 188.016 94.4005 188.114 92.3376C188.114 90.2747 189.096 88.2119 190.668 86.8366C192.338 85.3631 194.204 84.6755 196.365 84.7737C200.786 84.9702 204.126 88.703 204.027 93.1234C203.831 97.4456 200.393 100.786 196.071 100.786V100.589ZM195.972 87.1313C194.597 87.1313 193.32 87.6225 192.338 88.6048C191.257 89.5871 190.668 90.9623 190.57 92.4358C190.57 93.9093 191.061 95.2845 192.043 96.3651C193.025 97.4456 194.401 98.035 195.874 98.1333L196.071 99.312V98.1333C198.821 98.1333 201.179 96.0704 201.572 93.3199V91.7482C201.179 89.1942 199.018 87.1313 196.365 87.0331C196.267 87.0331 196.169 87.0331 196.071 87.0331L195.972 87.1313ZM201.473 92.0429V93.3199C201.473 93.3199 201.473 93.0252 201.473 92.927C201.473 92.6323 201.473 92.3376 201.473 92.0429ZM196.169 98.035C196.169 98.035 195.874 98.035 195.776 98.035C194.401 98.035 193.025 97.3474 192.043 96.2669C191.061 95.1863 190.57 93.8111 190.668 92.3376C190.668 90.8641 191.355 89.5871 192.436 88.6048C193.418 87.7207 194.695 87.2295 196.071 87.2295H196.267C199.312 87.3278 201.572 89.8818 201.473 92.8287C201.473 94.3022 200.687 95.6775 199.607 96.6598C198.625 97.5439 197.446 97.9368 196.267 97.9368L196.169 98.035ZM196.071 88.5065V89.6853C195.285 89.6853 194.597 89.98 194.106 90.4712C193.517 90.9623 193.222 91.7482 193.124 92.5341C193.124 93.3199 193.32 94.1058 193.909 94.6952C194.401 95.2845 195.186 95.5792 195.972 95.5792C196.758 95.6775 197.446 95.3828 198.035 94.8916C198.625 94.3022 199.018 93.6146 199.116 92.7305C199.116 91.1588 197.937 89.7836 196.267 89.6853V88.5065H196.071Z" fill="#1C1E28"/>
<path d="M220.727 137.033C219.254 137.033 217.78 136.542 216.601 135.56C215.128 134.479 214.244 132.908 214.047 131.041C213.851 129.273 214.342 127.505 215.423 126.032C217.682 123.085 222.004 122.593 224.853 124.853C226.228 125.933 227.21 127.603 227.407 129.371C227.603 131.14 227.112 132.908 226.032 134.283C224.951 135.658 223.379 136.641 221.513 136.837C221.218 136.837 220.924 136.837 220.629 136.837M220.727 126.032C219.45 126.032 218.271 126.621 217.387 127.603C216.7 128.487 216.405 129.568 216.503 130.648C216.601 131.729 217.191 132.711 218.075 133.399C218.959 134.087 220.138 134.381 221.12 134.283C222.201 134.185 223.183 133.595 223.871 132.711C224.558 131.827 224.853 130.747 224.755 129.666C224.656 128.586 224.067 127.603 223.183 126.916C222.397 126.326 221.513 126.032 220.629 126.032" fill="#1C1E28"/>
<path d="M220.727 138.213C218.959 138.213 217.289 137.623 215.815 136.543C214.145 135.266 213.065 133.399 212.77 131.238C212.476 129.077 213.065 127.014 214.44 125.344C217.191 121.906 222.201 121.218 225.639 123.969C227.309 125.344 228.389 127.211 228.684 129.273C228.979 131.336 228.389 133.497 227.014 135.167C225.737 136.837 223.87 137.918 221.709 138.213C221.415 138.213 221.022 138.213 220.727 138.213ZM220.727 124.755C219.057 124.755 217.485 125.442 216.405 126.916C215.521 128.095 215.128 129.47 215.324 130.943C215.521 132.417 216.208 133.694 217.387 134.578C218.566 135.462 220.039 135.855 221.415 135.757C222.888 135.56 224.165 134.873 225.049 133.694C225.933 132.515 226.326 131.14 226.13 129.666C225.933 128.193 225.246 126.916 224.067 125.934C223.085 125.148 221.906 124.755 220.727 124.755ZM220.727 135.658C219.548 135.658 218.369 135.266 217.387 134.48C216.208 133.596 215.521 132.319 215.324 130.943C215.128 129.47 215.521 128.095 216.405 127.014C218.173 124.755 221.709 124.362 223.969 126.032C225.147 126.916 225.835 128.193 226.032 129.666C226.228 131.14 225.835 132.515 224.951 133.596C224.067 134.676 222.79 135.462 221.415 135.658C221.218 135.658 220.923 135.658 220.727 135.658ZM220.727 127.309C219.843 127.309 218.959 127.702 218.369 128.389C217.878 128.979 217.682 129.765 217.78 130.55C217.878 131.336 218.271 132.024 218.861 132.515C219.45 133.006 220.334 133.203 221.022 133.104C221.808 133.006 222.495 132.613 222.986 132.024C223.478 131.435 223.674 130.649 223.576 129.863C223.478 129.077 223.085 128.389 222.495 127.898C222.004 127.505 221.316 127.309 220.727 127.309Z" fill="#1C1E28"/>
<path d="M218.959 181.926C216.012 181.926 213.359 180.059 212.475 177.112C211.395 173.576 213.458 169.745 216.994 168.664C218.762 168.173 220.53 168.37 222.102 169.155C223.674 170.04 224.853 171.415 225.344 173.183C226.424 176.719 224.361 180.55 220.825 181.533C220.137 181.729 219.548 181.827 218.86 181.827M218.959 171.022C218.959 171.022 218.173 171.022 217.78 171.218C215.619 171.906 214.342 174.165 214.931 176.425C215.619 178.586 217.878 179.863 220.137 179.273C222.299 178.586 223.576 176.326 222.986 174.067C222.692 172.986 222.004 172.102 221.022 171.611C220.432 171.317 219.745 171.12 219.057 171.12" fill="#1C1E28"/>
<path d="M218.959 183.104C215.423 183.104 212.279 180.746 211.297 177.407C210.02 173.183 212.476 168.762 216.7 167.485C218.762 166.896 220.825 167.092 222.79 168.074C224.656 169.057 226.032 170.825 226.621 172.79C227.898 177.014 225.442 181.434 221.218 182.711C220.432 182.907 219.745 183.006 218.959 183.006V183.104ZM218.959 169.646C218.468 169.646 217.878 169.646 217.387 169.843C214.44 170.727 212.77 173.772 213.654 176.719C214.538 179.568 217.78 181.238 220.531 180.452C223.478 179.568 225.148 176.522 224.263 173.575C223.87 172.2 222.888 171.021 221.611 170.334C220.825 169.941 219.941 169.646 218.959 169.646ZM218.959 180.55C218.075 180.55 217.191 180.353 216.405 179.862C215.128 179.175 214.244 177.996 213.753 176.621C213.36 175.245 213.458 173.772 214.146 172.495C214.833 171.218 216.012 170.334 217.387 169.843C218.762 169.45 220.236 169.548 221.513 170.236C222.79 170.923 223.772 172.102 224.067 173.477C224.951 176.326 223.281 179.371 220.432 180.157C219.941 180.353 219.45 180.353 218.861 180.353L218.959 180.55ZM218.959 172.2C218.959 172.2 218.37 172.2 218.173 172.298C217.387 172.495 216.798 172.986 216.405 173.772C216.012 174.46 215.914 175.245 216.208 176.031C216.405 176.817 216.896 177.407 217.584 177.799C218.271 178.192 219.057 178.291 219.843 177.996C221.415 177.505 222.299 175.933 221.808 174.361C221.611 173.575 221.12 172.986 220.334 172.593C219.941 172.397 219.45 172.2 218.959 172.2Z" fill="#1C1E28"/>
<path d="M191.356 217.485C190.668 217.485 189.882 217.387 189.194 217.092C185.658 215.914 183.792 212.082 184.97 208.546C185.56 206.876 186.739 205.501 188.409 204.715C189.98 203.929 191.847 203.831 193.517 204.42C195.187 205.01 196.562 206.189 197.348 207.859C198.134 209.528 198.232 211.297 197.642 213.065C197.053 214.735 195.874 216.11 194.204 216.896C193.222 217.387 192.24 217.583 191.257 217.583M190.079 214.637C191.159 215.029 192.24 214.931 193.222 214.44C194.204 213.949 194.99 213.065 195.285 212.082C195.678 211.002 195.58 209.921 195.088 208.841C194.597 207.859 193.713 207.073 192.731 206.778C191.65 206.385 190.57 206.483 189.587 206.974C188.605 207.466 187.819 208.35 187.426 209.332C186.64 211.493 187.819 213.851 189.98 214.637" fill="#1C1E28"/>
<path d="M191.356 218.664C190.57 218.664 189.784 218.566 188.998 218.271H188.802C184.676 216.798 182.416 212.181 183.89 208.055C184.578 206.091 185.953 204.421 187.917 203.537C189.784 202.554 191.945 202.456 194.008 203.144C195.972 203.831 197.642 205.206 198.625 207.171C199.607 209.038 199.705 211.199 199.018 213.261C198.33 215.226 196.955 216.896 194.99 217.878C193.91 218.37 192.731 218.664 191.454 218.664H191.356ZM189.489 215.914H189.587C190.963 216.405 192.534 216.307 193.811 215.717C195.187 215.03 196.169 213.949 196.562 212.574C197.053 211.199 196.955 209.627 196.267 208.35C195.58 206.975 194.499 205.992 193.124 205.599C191.749 205.108 190.177 205.206 188.9 205.894C187.525 206.582 186.542 207.662 186.149 209.038C185.167 211.886 186.64 215.03 189.489 216.012V215.914ZM191.356 216.11C190.766 216.11 190.177 216.11 189.587 215.816C186.739 214.833 185.265 211.788 186.248 208.939C186.739 207.564 187.721 206.483 188.998 205.894C190.275 205.305 191.749 205.206 193.124 205.599C194.499 206.091 195.58 207.073 196.169 208.35C196.758 209.627 196.857 211.1 196.464 212.476C195.972 213.851 194.99 214.931 193.713 215.521C192.927 215.914 192.141 216.11 191.356 216.11ZM190.472 213.556C191.257 213.851 192.043 213.753 192.731 213.458C193.418 213.065 193.91 212.476 194.204 211.788C194.499 211.002 194.401 210.216 194.106 209.529C193.811 208.841 193.124 208.252 192.436 208.055C191.65 207.761 190.864 207.859 190.177 208.153C189.489 208.448 188.998 209.038 188.703 209.823C188.212 211.395 188.998 213.065 190.57 213.556H190.472Z" fill="#1C1E28"/>
<path d="M148.33 230.452C148.33 230.452 147.642 230.452 147.25 230.452C145.481 230.157 143.91 229.175 142.829 227.701C140.668 224.656 141.356 220.432 144.401 218.271C145.874 217.19 147.642 216.797 149.411 217.092C151.179 217.387 152.75 218.369 153.831 219.843C154.912 221.316 155.305 223.084 155.01 224.852C154.715 226.621 153.733 228.192 152.259 229.273C151.081 230.059 149.804 230.55 148.33 230.55M144.892 226.129C145.58 227.014 146.464 227.603 147.544 227.799C148.625 227.996 149.705 227.799 150.688 227.112C151.572 226.424 152.161 225.54 152.358 224.361C152.554 223.281 152.358 222.2 151.67 221.218C150.982 220.334 150.098 219.744 148.919 219.548C147.839 219.351 146.758 219.548 145.776 220.236C143.91 221.611 143.517 224.165 144.794 226.031" fill="#1C1E28"/>
<path d="M148.33 231.631C148.33 231.631 147.446 231.631 147.053 231.532C144.892 231.139 143.124 230.059 141.847 228.291L141.65 227.996C140.57 226.326 140.177 224.361 140.471 222.397C140.864 220.334 141.945 218.467 143.713 217.19C145.481 215.913 147.544 215.422 149.705 215.815C151.768 216.208 153.634 217.289 154.911 219.057C156.188 220.825 156.68 222.888 156.287 225.049C155.894 227.112 154.813 228.978 153.045 230.255C151.67 231.238 150.098 231.729 148.428 231.729L148.33 231.631ZM144.008 227.112C144.892 228.192 146.071 228.88 147.446 229.076C148.919 229.273 150.393 228.978 151.572 228.094C152.75 227.21 153.536 225.933 153.831 224.558C154.126 223.084 153.831 221.611 152.849 220.432C151.965 219.253 150.687 218.467 149.312 218.173C147.839 217.878 146.365 218.173 145.187 219.155C144.008 220.039 143.222 221.316 142.927 222.691C142.731 224.165 142.927 225.638 143.909 226.817L144.106 227.112H144.008ZM148.33 229.076C148.33 229.076 147.741 229.076 147.446 229.076C146.071 228.88 144.794 228.094 143.909 226.915C142.141 224.46 142.731 221.12 145.187 219.352C146.365 218.566 147.839 218.173 149.214 218.467C150.589 218.664 151.866 219.45 152.75 220.629C153.536 221.807 153.929 223.183 153.634 224.656C153.34 226.13 152.554 227.308 151.375 228.192C150.491 228.88 149.41 229.175 148.232 229.175L148.33 229.076ZM145.972 225.344C146.464 226.031 147.053 226.424 147.839 226.522C148.625 226.621 149.41 226.522 150 226.031C150.687 225.54 151.08 224.951 151.179 224.067C151.277 223.281 151.179 222.495 150.687 221.906C150.196 221.218 149.509 220.825 148.821 220.727C148.035 220.629 147.249 220.727 146.562 221.218C145.285 222.2 144.99 223.968 145.874 225.344H145.972Z" fill="#1C1E28"/>
<path d="M105.796 215.913C102.063 215.913 99.0179 212.868 99.0179 209.135C99.0179 207.367 99.7055 205.599 100.982 204.322C102.26 203.045 103.929 202.357 105.796 202.357C109.529 202.357 112.574 205.402 112.574 209.135C112.574 212.868 109.529 215.913 105.796 215.913ZM105.796 205.01C104.715 205.01 103.635 205.402 102.849 206.188C102.063 206.974 101.67 208.055 101.67 209.135C101.67 211.395 103.537 213.261 105.796 213.261C108.055 213.261 109.922 211.395 109.922 209.135C109.922 206.876 108.055 205.01 105.796 205.01Z" fill="#1C1E28"/>
<path d="M105.796 217.19C101.375 217.19 97.8391 213.654 97.8391 209.234C97.8391 207.073 98.625 205.108 100.197 203.634C101.67 202.161 103.733 201.277 105.796 201.277C110.216 201.277 113.753 204.813 113.753 209.234C113.753 213.654 110.216 217.19 105.796 217.19ZM105.796 203.634C104.322 203.634 102.947 204.224 101.867 205.304C100.786 206.385 100.295 207.76 100.295 209.234C100.295 212.279 102.751 214.735 105.796 214.735C108.841 214.735 111.297 212.279 111.297 209.234C111.297 206.189 108.841 203.733 105.796 203.733V203.634ZM105.796 214.538C102.849 214.538 100.393 212.082 100.393 209.135C100.393 207.662 100.983 206.287 101.965 205.304C102.947 204.322 104.322 203.733 105.796 203.733C108.743 203.733 111.199 206.189 111.199 209.135C111.199 212.082 108.743 214.538 105.796 214.538ZM105.698 206.287C104.912 206.287 104.126 206.581 103.635 207.171C103.045 207.76 102.751 208.448 102.751 209.234C102.751 210.904 104.028 212.181 105.698 212.181C107.269 212.181 108.645 210.805 108.645 209.234C108.645 207.662 107.368 206.287 105.698 206.287Z" fill="#1C1E28"/>
<path d="M79.4696 179.47C78.0943 179.47 76.7191 179.077 75.5403 178.193C74.0668 177.112 73.0845 175.639 72.7898 173.772C72.4951 172.004 72.888 170.236 73.9686 168.763C75.0491 167.289 76.5226 166.307 78.389 166.012C80.1572 165.717 81.9254 166.11 83.3988 167.191C84.8723 168.271 85.8546 169.745 86.1493 171.611C86.444 173.379 86.0511 175.148 84.9706 176.621C83.89 178.095 82.4165 179.077 80.6484 179.372C80.2554 179.372 79.8625 179.47 79.4696 179.47ZM79.4696 168.468C79.4696 168.468 78.9784 168.468 78.782 168.468C77.7014 168.664 76.7191 169.254 76.0315 170.138C75.3438 171.022 75.1474 172.201 75.3438 173.281C75.5403 174.362 76.1297 175.344 77.0138 175.933C77.8979 176.621 78.9784 176.818 80.1572 176.621C81.2377 176.425 82.2201 175.835 82.9077 174.951C83.5953 174.067 83.7918 172.986 83.5953 171.808C83.3988 170.727 82.8095 169.745 81.9254 169.155C81.2377 168.664 80.3537 168.37 79.4696 168.37" fill="#1C1E28"/>
<path d="M79.4695 180.649C77.7996 180.649 76.2279 180.157 74.8526 179.175C73.0844 177.898 72.0039 176.13 71.611 173.969C71.218 171.906 71.7092 169.745 72.9862 167.977C74.165 166.209 76.0314 165.128 78.1925 164.735C80.2554 164.342 82.4165 164.833 84.1846 166.11C85.9528 167.289 87.0333 169.156 87.4263 171.317C87.8192 173.38 87.328 175.541 86.051 177.309C84.8723 179.077 83.0058 180.157 80.8447 180.55C80.4518 180.55 79.9607 180.649 79.4695 180.649ZM75.0491 169.352C74.165 170.531 73.8703 172.004 74.0668 173.478C74.2632 174.951 75.1473 176.228 76.3261 177.014C77.5049 177.898 78.9783 178.193 80.4518 177.996C81.9253 177.8 83.2023 176.916 83.9882 175.737C84.8723 174.558 85.1669 173.085 84.9705 171.611C84.6758 170.138 83.8899 168.861 82.7112 168.075C81.5324 167.191 80.0589 166.896 78.5854 167.093C77.2102 167.289 75.9332 168.075 75.0491 169.254V169.45C75.8349 168.271 77.1119 167.486 78.5854 167.289C79.9607 166.994 81.4341 167.289 82.6129 168.173C83.7917 169.057 84.5776 170.236 84.774 171.71C84.9705 173.085 84.774 174.558 83.8899 175.737C83.0058 176.916 81.7288 177.702 80.3536 177.898C78.9783 178.095 77.5049 177.898 76.3261 177.014C75.1473 176.13 74.3614 174.951 74.165 173.478C73.9685 172.102 74.165 170.727 75.0491 169.548V169.352ZM79.4695 169.745C79.4695 169.745 79.1748 169.745 78.9783 169.745C78.1925 169.843 77.5049 170.334 77.1119 170.924C76.6208 171.611 76.5225 172.299 76.6208 173.085C76.719 173.871 77.2102 174.558 77.7996 174.951C78.4872 175.442 79.1748 175.541 79.9607 175.442C80.7465 175.344 81.4341 174.853 81.9253 174.264C82.3182 173.674 82.5147 172.888 82.4165 172.102C82.3182 171.317 81.8271 170.629 81.2377 170.236C80.7465 169.843 80.1571 169.745 79.5677 169.745H79.4695Z" fill="#1C1E28"/>
<path d="M79.3712 134.479C76.5225 134.479 73.9685 132.711 72.9861 129.961C72.3968 128.291 72.495 126.424 73.2808 124.852C74.0667 123.183 75.4419 122.004 77.1119 121.414C78.7818 120.825 80.6482 120.923 82.2199 121.709C83.8899 122.495 85.0687 123.87 85.6581 125.54C86.2474 127.21 86.1492 129.076 85.3634 130.648C84.5775 132.22 83.2023 133.497 81.5323 134.086C80.8447 134.381 80.0588 134.479 79.3712 134.479ZM77.996 123.772C76.9154 124.165 76.1296 124.852 75.6384 125.933C75.1472 127.014 75.049 128.094 75.4419 129.076C76.2278 131.238 78.5854 132.318 80.7465 131.63C81.827 131.238 82.6129 130.55 83.104 129.568C83.5952 128.585 83.6934 127.406 83.3005 126.424C82.9076 125.344 82.2199 124.558 81.2376 124.067C80.2553 123.575 79.0765 123.477 78.0942 123.87" fill="#1C1E28"/>
<path d="M79.3713 135.658C75.9332 135.658 72.888 133.497 71.8074 130.256C71.1198 128.193 71.218 126.13 72.2003 124.165C73.0844 122.2 74.7544 120.825 76.8172 120.138C78.7819 119.45 80.943 119.548 82.9076 120.531C84.8722 121.513 86.2475 123.085 86.9351 125.147C87.6227 127.112 87.5245 129.273 86.5422 131.238C85.6581 133.104 83.9882 134.578 82.0235 135.265C81.1394 135.56 80.3536 135.658 79.4695 135.658H79.3713ZM79.3713 122.2C78.7819 122.2 78.1925 122.299 77.6031 122.495C76.2279 122.986 75.0491 123.969 74.4597 125.344C73.7721 126.621 73.7721 128.193 74.165 129.568C75.1473 132.318 78.2907 133.988 81.1394 133.006C82.5147 132.515 83.6935 131.533 84.2829 130.256C84.9705 128.88 85.0687 127.407 84.5776 126.032C84.0864 124.656 83.1041 123.478 81.8271 122.888C81.0412 122.495 80.2554 122.299 79.4695 122.299L79.3713 122.2ZM79.3713 133.104C77.1119 133.104 74.9508 131.729 74.2632 129.47C73.7721 128.094 73.8703 126.621 74.4597 125.344C75.1473 124.067 76.2279 123.085 77.6031 122.593C78.9783 122.102 80.4518 122.2 81.7288 122.888C83.0058 123.478 83.9882 124.558 84.4793 125.933C84.9705 127.309 84.8723 128.782 84.2829 130.059C83.6935 131.336 82.5147 132.318 81.2377 132.81C80.6483 133.006 80.0589 133.104 79.5677 133.104H79.3713ZM78.389 124.951C77.6031 125.246 77.0137 125.737 76.719 126.424C76.3261 127.112 76.3261 127.898 76.6208 128.684C77.1119 130.157 78.8801 131.041 80.3536 130.55C81.0412 130.256 81.6306 129.764 82.0235 129.077C82.3182 128.389 82.4165 127.603 82.1218 126.817C81.8271 126.032 81.3359 125.442 80.6483 125.147C79.9607 124.755 79.1748 124.755 78.389 125.049V124.951Z" fill="#1C1E28"/>
<path d="M105.305 97.741C104.617 97.741 104.028 97.741 103.438 97.4463C101.67 96.9551 100.295 95.7763 99.4106 94.2046C98.5265 92.6329 98.3301 90.7665 98.9195 89.0966C99.5089 87.4266 100.589 85.9531 102.161 85.0691C103.733 84.185 105.599 83.9885 107.269 84.4797C110.806 85.5602 112.868 89.293 111.788 92.8294C110.904 95.7763 108.251 97.6427 105.305 97.6427M105.305 86.8372C103.536 86.8372 101.866 88.016 101.277 89.7842C100.982 90.8647 101.081 91.9453 101.572 92.9276C102.161 93.9099 102.947 94.5975 104.028 94.8922C106.189 95.5799 108.546 94.3029 109.234 92.0435C109.921 89.8824 108.644 87.5249 106.385 86.8372C105.992 86.739 105.599 86.6408 105.206 86.6408" fill="#1C1E28"/>
<path d="M105.304 99.0177C104.519 99.0177 103.831 98.9195 103.045 98.723C100.982 98.1336 99.3123 96.7584 98.33 94.892C97.3477 93.0256 97.053 90.8645 97.6424 88.8016C98.2318 86.7387 99.607 85.0688 101.473 84.0865C103.34 83.1041 105.501 82.8094 107.564 83.4971C111.788 84.7741 114.145 89.1945 112.967 93.4185C111.984 96.7584 108.841 99.1159 105.304 99.1159V99.0177ZM105.304 85.4617C104.42 85.4617 103.536 85.6582 102.652 86.1493C101.375 86.837 100.393 88.0157 100 89.391C99.607 90.7662 99.7053 92.3379 100.491 93.6149C101.179 94.892 102.358 95.8743 103.831 96.2672C106.68 97.0531 109.823 95.3831 110.707 92.5344C111.591 89.5874 109.921 86.5423 106.974 85.6582C106.483 85.4617 105.894 85.4617 105.403 85.4617H105.304ZM105.304 96.3654C104.813 96.3654 104.224 96.3654 103.733 96.169C102.358 95.776 101.179 94.892 100.491 93.6149C99.8035 92.3379 99.607 90.8644 100.098 89.4892C100.884 86.7387 103.831 84.9705 106.778 85.8546C109.627 86.7387 111.297 89.6857 110.413 92.5344C110.02 93.9096 109.037 95.0884 107.76 95.776C106.974 96.169 106.09 96.4637 105.206 96.4637L105.304 96.3654ZM105.304 88.114C104.027 88.114 102.849 88.998 102.456 90.1768C102.259 90.9627 102.358 91.7485 102.652 92.4362C103.045 93.1238 103.635 93.6149 104.42 93.8114C105.206 94.0079 105.992 93.9096 106.68 93.6149C107.367 93.222 107.859 92.6326 108.055 91.8468C108.546 90.2751 107.662 88.6051 106.09 88.2122C105.796 88.2122 105.501 88.114 105.304 88.114Z" fill="#1C1E28"/>
</g>
<defs>
<clipPath id="clip0_24_371">
<rect width="300" height="300" fill="white"/>
</clipPath>
</defs>
</svg>
