<svg width="300" height="300" viewBox="0 0 300 300" fill="none" xmlns="http://www.w3.org/2000/svg">
<g clip-path="url(#clip0_24_373)">
<path d="M191.157 233.29H108.745C102.893 233.29 98.212 228.511 98.212 222.757V140.345C98.212 134.493 102.893 129.811 108.745 129.811H191.157C197.009 129.811 201.691 134.59 201.691 140.345V222.757C201.691 228.609 196.912 233.29 191.157 233.29ZM108.745 134.59C105.624 134.59 103.088 137.126 103.088 140.247V222.659C103.088 225.78 105.624 228.316 108.745 228.316H191.157C194.278 228.316 196.814 225.78 196.814 222.659V140.247C196.814 137.126 194.278 134.59 191.157 134.59H108.745Z" fill="#1C1E28"/>
<path d="M114.109 133.615H109.233V95.2857C109.233 72.854 127.568 54.5185 150 54.5185C172.432 54.5185 190.767 72.854 190.767 95.2857H185.891C185.891 75.4873 169.798 59.395 150 59.395C130.202 59.395 114.109 75.4873 114.109 95.2857V133.615Z" fill="#1C1E28"/>
<path d="M190.67 95.2863H185.793V121.132H190.67V95.2863Z" fill="#1C1E28"/>
<path d="M120.546 170.676H126.398L133.225 192.328H128.056L125.228 181.307C124.642 179.161 124.057 176.528 123.472 174.285H123.375C122.887 176.626 122.302 179.064 121.619 181.307L118.791 192.328H113.817L120.644 170.676H120.546ZM118.303 183.355H128.739V187.159H118.303V183.355Z" fill="#1C1E28"/>
<path d="M132.64 182.282V170.676H137.516V182.77C137.516 187.061 138.882 188.524 141.32 188.524C143.758 188.524 145.124 187.061 145.124 182.77V170.676H149.903V182.282C149.903 189.597 146.977 192.718 141.32 192.718C135.663 192.718 132.64 189.597 132.64 182.282Z" fill="#1C1E28"/>
<path d="M156.632 174.772H150.683V170.676H167.555V174.772H161.508V192.425H156.632V174.772Z" fill="#1C1E28"/>
<path d="M166.483 181.404C166.483 174.284 170.481 170.286 176.333 170.286C182.185 170.286 186.183 174.382 186.183 181.404C186.183 188.426 182.185 192.717 176.333 192.717C170.481 192.717 166.483 188.426 166.483 181.404ZM181.112 181.404C181.112 177.015 179.259 174.479 176.333 174.479C173.407 174.479 171.554 177.015 171.554 181.404C171.554 185.793 173.407 188.524 176.333 188.524C179.259 188.524 181.112 185.793 181.112 181.404Z" fill="#1C1E28"/>
<path d="M150 299.902C67.2952 299.902 0 232.607 0 150C0 67.3927 67.2952 0 150 0C232.705 0 300 67.2952 300 150C300 232.705 232.705 300 150 300V299.902ZM150 7.31469C71.2939 7.31469 7.31469 71.2939 7.31469 150C7.31469 228.706 71.2939 292.588 150 292.588C228.706 292.588 292.588 228.609 292.588 150C292.588 71.3914 228.609 7.31469 150 7.31469Z" fill="#1C1E28"/>
</g>
<defs>
<clipPath id="clip0_24_373">
<rect width="300" height="300" fill="white"/>
</clipPath>
</defs>
</svg>
