<svg width="300" height="300" viewBox="0 0 300 300" fill="none" xmlns="http://www.w3.org/2000/svg">
<g clip-path="url(#clip0_613_370)">
<path d="M149.951 0C232.617 0 299.903 67.2863 299.903 149.952C299.903 232.618 232.617 299.904 149.951 299.904V300C67.2856 300 0.000111967 232.714 0 149.952C0 67.1903 67.2855 0.000177319 149.951 0ZM149.951 7.20898C71.2266 7.20916 7.20898 71.2275 7.20898 149.952C7.2091 228.677 71.2266 292.694 149.951 292.694C228.676 292.694 292.694 228.677 292.694 149.952C292.694 71.2274 228.772 7.20898 149.951 7.20898ZM81.7041 182.437C88.6249 182.437 94.2002 188.012 94.2002 194.933C94.2001 201.853 88.6249 207.429 81.7041 207.429H56.5195C49.5988 207.429 44.0235 201.853 44.0234 194.933C44.0234 188.012 49.5988 182.437 56.5195 182.437H81.7041ZM162.64 182.437C169.561 182.437 175.136 188.012 175.136 194.933C175.136 201.853 169.56 207.429 162.64 207.429H137.455C130.534 207.429 124.96 201.853 124.96 194.933C124.96 188.012 130.534 182.437 137.455 182.437H162.64ZM243.479 182.437C250.399 182.437 255.975 188.012 255.975 194.933C255.975 201.853 250.399 207.429 243.479 207.429H218.295C211.374 207.429 205.799 201.853 205.799 194.933C205.799 188.012 211.374 182.437 218.295 182.437H243.479ZM56.5195 187.243C52.2902 187.243 48.8301 190.703 48.8301 194.933C48.8301 199.162 52.2902 202.622 56.5195 202.622H81.7041C85.9334 202.622 89.3935 199.162 89.3936 194.933C89.3936 190.703 85.9335 187.243 81.7041 187.243H56.5195ZM137.359 187.243C133.13 187.243 129.67 190.703 129.67 194.933C129.67 199.162 133.13 202.622 137.359 202.622H162.544C166.773 202.622 170.233 199.162 170.233 194.933C170.233 190.703 166.773 187.243 162.544 187.243H137.359ZM218.295 187.243C214.066 187.243 210.604 190.703 210.604 194.933C210.605 199.162 214.066 202.622 218.295 202.622H243.479C247.708 202.622 251.169 199.162 251.169 194.933C251.169 190.703 247.708 187.243 243.479 187.243H218.295ZM231.271 150.436V151.3H233.674V181.002H228.868V155.241H152.643V181.003H147.837V155.241H71.5146V181.002H66.709V151.3H68.7275V150.436H231.271ZM210.124 86.125C212.046 86.125 213.585 87.6627 213.585 89.585V141.876C213.585 143.798 212.046 145.337 210.124 145.337H89.874C87.9518 145.337 86.4141 143.798 86.4141 141.876V89.585C86.4143 87.6629 87.9519 86.1253 89.874 86.125H210.124ZM91.2197 140.53H208.778V90.9307H91.2197V140.53Z" fill="white"/>
</g>
<defs>
<clipPath id="clip0_613_370">
<rect width="300" height="300" fill="white"/>
</clipPath>
</defs>
</svg>
