<svg width="300" height="300" viewBox="0 0 300 300" fill="none" xmlns="http://www.w3.org/2000/svg">
<g clip-path="url(#clip0_25_904)">
<path d="M150.048 300C67.2861 300 0 232.714 0 149.952C0 67.19 67.2861 0 150.048 0C232.81 0 300 67.2861 300 149.952C300 232.618 232.714 299.904 150.048 299.904V300ZM150.048 7.20923C71.2272 7.20923 7.20923 71.2272 7.20923 149.952C7.20923 228.677 71.2272 292.695 150.048 292.695C228.869 292.695 292.791 228.677 292.791 149.952C292.791 71.2272 228.773 7.20923 150.048 7.20923Z" fill="white"/>
<path d="M240.019 96.2192C189.555 55.1747 141.781 57.3855 110.542 66.421C76.6101 76.2256 54.4057 95.9308 54.2134 96.1231L52.5793 94.2967C53.4444 93.5277 143.608 14.5146 241.653 94.2967L240.115 96.1231L240.019 96.2192Z" fill="white"/>
<path d="M223.102 116.405C138.513 52.9638 71.804 115.636 71.1312 116.309L69.4971 114.579C70.1699 113.906 138.417 49.7917 224.64 114.483L223.198 116.405H223.102Z" fill="white"/>
<path d="M205.031 137.936C147.068 89.7787 89.683 137.456 89.1062 137.936L87.5682 136.11C88.145 135.629 147.068 86.7028 206.569 136.11L205.031 137.936Z" fill="white"/>
<path d="M111.983 230.119V161.487H118.424V230.119H111.983Z" fill="white"/>
<path d="M142.646 198.879V230.023H136.206V161.391H163.121C170.714 161.391 176.482 162.833 180.423 165.62C184.46 168.408 186.382 173.022 186.382 179.366C186.382 183.692 185.517 187.152 183.787 189.651C182.057 192.15 179.173 194.361 175.232 196.091C177.251 196.764 178.885 197.822 180.038 199.167C181.192 200.513 182.057 202.051 182.634 203.781C183.21 205.511 183.595 207.338 183.691 209.26C183.883 211.183 183.979 213.009 184.075 214.835C184.075 217.431 184.268 219.642 184.46 221.276C184.652 223.006 184.844 224.352 185.037 225.505C185.229 226.659 185.517 227.428 185.806 228.004C186.094 228.581 186.479 229.062 186.959 229.35V229.927H179.846C179.173 228.869 178.693 227.331 178.404 225.217C178.116 223.198 177.924 221.083 177.731 218.873C177.539 216.662 177.443 214.451 177.347 212.432C177.251 210.414 177.058 208.587 176.866 207.242C176.482 205.415 175.905 203.877 175.04 202.82C174.175 201.667 173.117 200.898 171.964 200.321C170.714 199.744 169.369 199.36 167.927 199.167C166.485 198.975 164.851 198.879 163.313 198.879H142.935H142.646ZM162.832 193.4C165.235 193.4 167.446 193.112 169.561 192.631C171.579 192.15 173.406 191.285 174.944 190.228C176.482 189.074 177.635 187.729 178.596 185.998C179.462 184.268 179.942 182.25 179.942 179.75C179.942 177.251 179.462 175.137 178.596 173.502C177.731 171.868 176.482 170.523 174.848 169.561C173.214 168.6 171.483 167.927 169.465 167.543C167.446 167.158 165.428 166.966 163.217 166.966H142.646V193.4H162.832Z" fill="white"/>
</g>
<defs>
<clipPath id="clip0_25_904">
<rect width="300" height="300" fill="white"/>
</clipPath>
</defs>
</svg>
