<svg width="300" height="300" viewBox="0 0 300 300" fill="none" xmlns="http://www.w3.org/2000/svg">
<g clip-path="url(#clip0_25_907)">
<path d="M149.952 300C67.2861 300 0 232.714 0 149.952C0 67.19 67.2861 0 149.952 0C232.618 0 300 67.2861 300 149.952C300 232.618 232.714 299.904 149.952 299.904V300ZM149.952 7.20923C71.2272 7.20923 7.20923 71.2272 7.20923 149.952C7.20923 228.677 71.2272 292.695 149.952 292.695C228.677 292.695 292.791 228.677 292.791 149.952C292.791 71.2272 228.773 7.20923 149.952 7.20923Z" fill="#1C1E28"/>
<path d="M91.7014 214.835L90.0673 213.104L216.854 86.222L218.584 87.9523L91.7014 214.835Z" fill="#1C1E28"/>
<path d="M209.644 160.717C186.767 160.717 168.119 179.365 168.119 202.243C168.119 225.12 186.479 243.479 209.164 243.768V202.339H195.61C191.573 202.339 188.305 205.607 188.305 209.644C188.305 213.681 191.573 216.949 195.61 216.949V225.985C186.575 225.985 179.27 218.68 179.27 209.644C179.27 200.608 186.575 193.303 195.61 193.303H209.164V188.689C209.164 181.192 215.316 175.04 222.813 175.04C230.311 175.04 236.463 181.192 236.463 188.689C236.463 196.187 230.311 202.339 222.813 202.339H218.199V242.903C236.943 238.962 251.17 222.236 251.17 202.243C251.17 179.365 232.522 160.717 209.644 160.717Z" fill="#1C1E28"/>
<path d="M227.331 188.594C227.331 186.094 225.312 183.98 222.717 183.98C220.122 183.98 218.103 185.998 218.103 188.594V193.207H222.717C225.216 193.207 227.331 191.189 227.331 188.594Z" fill="#1C1E28"/>
<path d="M114.483 71.8035C128.132 73.8221 127.363 84.1073 127.363 84.1073L84.0116 128.612C92.2781 129.381 109.004 129.862 133.996 126.305C138.321 119.577 140.82 111.502 140.82 102.947C140.82 79.0127 121.5 59.692 97.5649 59.692C85.2612 59.692 74.207 64.7865 66.4211 72.957C91.7975 69.7849 107.658 70.9384 114.483 71.8035Z" fill="#1C1E28"/>
<path d="M80.6472 132.553C66.9977 130.535 67.7667 120.25 67.7667 120.25L111.118 75.7448C102.948 74.9758 86.703 74.4952 62.48 77.8595C57.3854 84.9726 54.5017 93.6237 54.5017 102.948C54.5017 126.882 73.8225 146.203 97.7571 146.203C110.83 146.203 122.557 140.339 130.535 131.112C104.197 134.572 87.7603 133.419 80.7433 132.553H80.6472Z" fill="#1C1E28"/>
</g>
<defs>
<clipPath id="clip0_25_907">
<rect width="300" height="300" fill="white"/>
</clipPath>
</defs>
</svg>
