<svg width="300" height="300" viewBox="0 0 300 300" fill="none" xmlns="http://www.w3.org/2000/svg">
<g clip-path="url(#clip0_25_780)">
<path d="M149.946 300C77.6696 300 13.9337 247.569 1.99474 174.019C-11.3218 92.3891 44.3322 15.2581 125.977 1.94378C207.621 -11.2787 284.857 44.3658 298.082 125.996C311.307 207.626 255.652 284.849 174.008 298.072C165.926 299.357 157.845 300 149.855 300H149.946ZM150.13 6.9022C142.508 6.9022 134.885 7.54496 127.171 8.73866C89.4249 14.8908 56.3631 35.2754 33.9545 66.3114C11.5459 97.3475 2.63761 135.178 8.69894 172.918C21.3726 250.783 94.9352 303.857 172.906 291.277C250.785 278.605 303.868 204.964 291.286 127.098C279.898 56.9455 219.009 6.9022 150.13 6.9022Z" fill="#1C1E28"/>
<path d="M151.757 249.773C147.625 249.773 143.401 248.396 139.912 245.733C120.446 230.674 86.6549 201.015 79.5845 171.081C75.177 152.258 70.8614 128.016 73.0651 90.0937C73.6161 79.9014 81.7883 72.0965 92.0724 71.821C114.293 71.3619 131.372 63.7406 141.748 57.4048C147.901 53.6401 155.614 53.6401 161.766 57.4048C172.142 63.7406 189.221 71.2701 211.442 71.821C221.726 72.0046 229.898 79.9014 230.449 90.0937C232.561 127.925 228.337 152.258 223.838 171.081C216.767 201.015 182.977 230.674 163.51 245.733C160.021 248.396 155.889 249.773 151.665 249.773H151.757ZM151.757 57.0376C148.727 57.0376 145.697 57.864 142.942 59.5168C132.291 65.9443 114.936 73.7493 92.1642 74.2084C83.0738 74.392 75.8198 81.2787 75.3607 90.2773C73.2488 127.925 77.4726 151.982 81.8801 170.622C88.7668 199.822 122.098 229.113 141.381 243.988C147.533 248.763 156.073 248.763 162.225 243.988C181.416 229.113 214.747 199.914 221.634 170.622C226.042 151.982 230.265 127.833 228.154 90.2773C227.603 81.2787 220.44 74.392 211.35 74.2084C188.67 73.7493 171.223 65.9443 160.572 59.5168C157.817 57.864 154.787 57.0376 151.757 57.0376Z" fill="#1C1E28"/>
</g>
<defs>
<clipPath id="clip0_25_780">
<rect width="300" height="300" fill="white"/>
</clipPath>
</defs>
</svg>
