<svg width="300" height="300" viewBox="0 0 300 300" fill="none" xmlns="http://www.w3.org/2000/svg">
<g clip-path="url(#clip0_33_1246)">
<path d="M150 300C67.3342 300 0.0480347 232.714 0.0480347 149.952C0.0480347 67.19 67.3342 0 150 0C232.666 0 299.952 67.2861 299.952 149.952C299.952 232.618 232.666 299.904 150 299.904V300ZM150 7.20923C71.2752 7.20923 7.25726 71.2272 7.25726 149.952C7.25726 228.677 71.2752 292.695 150 292.695C228.725 292.695 292.743 228.677 292.743 149.952C292.743 71.2272 228.821 7.20923 150 7.20923Z" fill="white"/>
<path d="M264.963 58.0586H35.2291V60.4617H264.963V58.0586Z" fill="white"/>
<path d="M224.015 216.469H65.604V58.0586H224.015V216.469ZM68.0071 214.066H221.612V60.4617H68.0071V214.066Z" fill="white"/>
<path d="M120.586 149.857H95.4022C92.3262 149.857 89.9232 147.358 89.9232 144.282V126.787C89.9232 123.711 92.4224 121.308 95.4022 121.308H120.586C123.662 121.308 126.162 123.808 126.162 126.787V144.282C126.162 147.358 123.662 149.857 120.586 149.857ZM95.4022 123.808C93.672 123.808 92.3262 125.249 92.3262 126.883V144.378C92.3262 146.108 93.7681 147.55 95.4022 147.55H120.586C122.317 147.55 123.758 146.108 123.758 144.378V126.883C123.758 125.153 122.317 123.808 120.586 123.808H95.4022Z" fill="white"/>
<path d="M197.293 149.855H174.511C170.763 149.855 167.783 146.875 167.783 143.126V128.131C167.783 124.382 170.763 121.402 174.511 121.402H197.293C201.041 121.402 204.021 124.382 204.021 128.131V143.126C204.021 146.875 201.041 149.855 197.293 149.855ZM174.511 123.805C172.108 123.805 170.186 125.728 170.186 128.131V143.126C170.186 145.529 172.108 147.452 174.511 147.452H197.293C199.696 147.452 201.618 145.529 201.618 143.126V128.131C201.618 125.728 199.696 123.805 197.293 123.805H174.511Z" fill="white"/>
</g>
<defs>
<clipPath id="clip0_33_1246">
<rect width="300" height="300" fill="white"/>
</clipPath>
</defs>
</svg>
