<svg width="300" height="300" viewBox="0 0 300 300" fill="none" xmlns="http://www.w3.org/2000/svg">
<g clip-path="url(#clip0_33_1284)">
<path d="M150 300C67.3342 300 0.0480499 232.714 0.0480499 149.952C0.0480499 67.19 67.3342 0 150 0C232.666 0 299.952 67.2861 299.952 149.952C299.952 232.618 232.666 299.904 150 299.904V300ZM150 7.20923C71.2752 7.20923 7.25728 71.2272 7.25728 149.952C7.25728 228.677 71.2752 292.695 150 292.695C228.725 292.695 292.743 228.677 292.743 149.952C292.743 71.2272 228.821 7.20923 150 7.20923Z" fill="white"/>
<path d="M153.364 233.771C134.044 233.771 115.876 226.274 102.227 212.624C88.5773 198.975 81.0797 180.807 81.0797 161.487C81.0797 142.166 88.5773 123.999 102.227 110.349L103.957 112.079C90.7881 125.248 83.4828 142.839 83.4828 161.487C83.4828 180.134 90.7881 197.725 103.957 210.894C117.126 224.063 134.716 231.368 153.364 231.368C172.012 231.368 189.603 224.063 202.771 210.894C229.974 183.691 229.974 139.282 202.771 112.079L204.502 110.349C232.666 138.513 232.666 184.364 204.502 212.624C190.852 226.274 172.685 233.771 153.364 233.771Z" fill="white"/>
<path d="M74.8425 58.4478L72.984 59.9712L152.442 156.912L154.301 155.389L74.8425 58.4478Z" fill="white"/>
<path d="M230.083 61.0415L152.438 155.367L154.293 156.894L231.939 62.5688L230.083 61.0415Z" fill="white"/>
<path d="M102.93 110.086L87.133 112.334L87.4716 114.714L103.269 112.465L102.93 110.086Z" fill="white"/>
<path d="M104.342 111.215H101.939V127.844H104.342V111.215Z" fill="white"/>
</g>
<defs>
<clipPath id="clip0_33_1284">
<rect width="300" height="300" fill="white"/>
</clipPath>
</defs>
</svg>
