<svg width="300" height="300" viewBox="0 0 300 300" fill="none" xmlns="http://www.w3.org/2000/svg">
<g clip-path="url(#clip0_25_633)">
<path d="M150 300C67.3101 300 0 232.69 0 150C0 67.3101 67.3101 0 150 0C232.69 0 300 67.3101 300 150C300 232.69 232.69 300 150 300ZM150 7.12025C71.2025 7.12025 7.12025 71.2025 7.12025 150C7.12025 228.797 71.2025 292.88 150 292.88C228.797 292.88 292.88 228.797 292.88 150C292.88 71.2025 228.797 7.12025 150 7.12025Z" fill="#1C1E28"/>
<path d="M250.253 118.196C196.424 64.3672 108.797 64.3672 54.9683 118.196L53.2594 116.487C108.038 61.7089 197.183 61.7089 251.962 116.487L250.253 118.196Z" fill="#1C1E28"/>
<path d="M80.7913 144.114L79.0824 142.406C98.7343 122.754 124.747 112.026 152.468 112.026C180.19 112.026 206.298 122.849 225.855 142.406L224.146 144.114C204.968 124.937 179.525 114.399 152.374 114.399C125.222 114.399 99.7786 124.937 80.6014 144.114H80.7913Z" fill="#1C1E28"/>
<path d="M197.658 170.696C172.785 145.823 132.342 145.823 107.468 170.696L105.76 168.987C131.582 143.165 173.544 143.165 199.272 168.987L197.563 170.696H197.658Z" fill="#1C1E28"/>
<path d="M152.563 240.759C135.759 240.759 122.089 227.088 122.089 210.284C122.089 193.48 135.759 179.81 152.563 179.81C169.367 179.81 183.038 193.48 183.038 210.284C183.038 227.088 169.367 240.759 152.563 240.759ZM152.563 182.278C137.089 182.278 124.462 194.904 124.462 210.379C124.462 225.854 137.089 238.48 152.563 238.48C168.038 238.48 180.664 225.854 180.664 210.379C180.664 194.904 168.038 182.278 152.563 182.278Z" fill="#1C1E28"/>
</g>
<defs>
<clipPath id="clip0_25_633">
<rect width="300" height="300" fill="white"/>
</clipPath>
</defs>
</svg>
