<svg width="300" height="300" viewBox="0 0 300 300" fill="none" xmlns="http://www.w3.org/2000/svg">
<g clip-path="url(#clip0_38_100)">
<path d="M150 299.897C67.2734 299.897 0 232.624 0 150C0 67.3764 67.2734 0 150 0C232.727 0 300 67.2734 300 150C300 232.727 232.727 300 150 300V299.897ZM150 7.72665C71.4973 7.72665 7.72665 71.4973 7.72665 150C7.72665 228.503 71.4973 292.273 150 292.273C228.503 292.273 292.273 228.503 292.273 150C292.273 71.4973 228.4 7.72665 150 7.72665Z" fill="white"/>
<path d="M150 175.342C118.372 175.342 92.6166 149.587 92.6166 117.959C92.6166 86.3312 118.372 60.5757 150 60.5757C181.628 60.5757 207.383 86.3312 207.383 117.959C207.383 149.587 181.628 175.342 150 175.342ZM150 63.1512C119.814 63.1512 95.1922 87.7735 95.1922 117.959C95.1922 148.144 119.814 172.767 150 172.767C180.185 172.767 204.808 148.144 204.808 117.959C204.808 87.7735 180.185 63.1512 150 63.1512Z" fill="white"/>
<path d="M116.106 239.318C84.4782 239.318 58.7227 213.563 58.7227 181.935C58.7227 150.307 84.4782 124.552 116.106 124.552C147.734 124.552 173.489 150.307 173.489 181.935C173.489 213.563 147.734 239.318 116.106 239.318ZM116.106 127.127C85.9205 127.127 61.2982 151.75 61.2982 181.935C61.2982 212.12 85.9205 236.743 116.106 236.743C146.291 236.743 170.914 212.12 170.914 181.935C170.914 151.75 146.291 127.127 116.106 127.127Z" fill="white"/>
<path d="M183.791 239.318C152.164 239.318 126.408 213.563 126.408 181.935C126.408 150.307 152.164 124.552 183.791 124.552C215.419 124.552 241.175 150.307 241.175 181.935C241.175 213.563 215.419 239.318 183.791 239.318ZM183.791 127.127C153.606 127.127 128.984 151.75 128.984 181.935C128.984 212.12 153.606 236.743 183.791 236.743C213.977 236.743 238.599 212.12 238.599 181.935C238.599 151.75 213.977 127.127 183.791 127.127Z" fill="white"/>
</g>
<defs>
<clipPath id="clip0_38_100">
<rect width="300" height="300" fill="white"/>
</clipPath>
</defs>
</svg>
