<svg width="300" height="300" viewBox="0 0 300 300" fill="none" xmlns="http://www.w3.org/2000/svg">
<g clip-path="url(#clip0_38_388)">
<path d="M150 229.486C142.577 229.486 136.598 223.507 136.598 216.084C136.598 208.662 142.577 202.682 150 202.682C157.423 202.682 163.402 208.662 163.402 216.084C163.402 223.507 157.423 229.486 150 229.486ZM150 205.259C144.021 205.259 139.175 210.105 139.175 216.084C139.175 222.064 144.021 226.909 150 226.909C155.979 226.909 160.825 222.064 160.825 216.084C160.825 210.105 155.979 205.259 150 205.259Z" fill="#1C1E28"/>
<path d="M150 198.969L132.577 95.9793C131.959 94.2268 131.753 92.3711 131.753 90.7216C131.753 80.6185 140 72.3711 150 72.3711C160 72.3711 168.247 80.6185 168.247 90.7216C168.247 92.3711 167.938 94.1237 167.32 96.0824L149.897 199.072L150 198.969ZM150 74.8453C141.34 74.8453 134.33 81.8556 134.33 90.6185C134.33 92.0618 134.536 93.6082 135.155 95.3608L150.103 183.505L165.052 95.3608C165.567 93.6082 165.876 92.1649 165.876 90.6185C165.876 81.9587 158.866 74.8453 150.206 74.8453H150Z" fill="#1C1E28"/>
<path d="M150 300C67.3196 300 0 232.68 0 150C0 67.3196 67.3196 0 150 0C232.68 0 300 67.3196 300 150C300 232.68 232.68 300 150 300ZM150 7.73196C71.5464 7.73196 7.73196 71.5464 7.73196 150C7.73196 228.454 71.5464 292.268 150 292.268C228.454 292.268 292.268 228.454 292.268 150C292.268 71.5464 228.454 7.73196 150 7.73196Z" fill="#1C1E28"/>
</g>
<defs>
<clipPath id="clip0_38_388">
<rect width="300" height="300" fill="white"/>
</clipPath>
</defs>
</svg>
