<svg width="300" height="300" viewBox="0 0 300 300" fill="none" xmlns="http://www.w3.org/2000/svg">
<g clip-path="url(#clip0_38_390)">
<path d="M186.484 191.905H183.878V159.382C183.878 140.723 168.659 125.504 150 125.504C131.341 125.504 116.122 140.723 116.122 159.382V191.905H113.516V159.382C113.516 139.264 129.882 122.898 150 122.898C170.118 122.898 186.484 139.264 186.484 159.382V191.905Z" fill="#1C1E28"/>
<path d="M195.448 211.499H104.448V190.547H195.448V211.499ZM107.054 208.893H192.842V193.153H107.054V208.893Z" fill="#1C1E28"/>
<path d="M151.251 74.6367H148.645V107.576H151.251V74.6367Z" fill="#1C1E28"/>
<path d="M104.618 86.4602L102.362 87.7632L118.831 116.29L121.088 114.987L104.618 86.4602Z" fill="#1C1E28"/>
<path d="M70.2057 119.898L68.9031 122.155L97.4324 138.62L98.735 136.363L70.2057 119.898Z" fill="#1C1E28"/>
<path d="M229.756 119.906L201.221 136.361L202.523 138.618L231.058 122.164L229.756 119.906Z" fill="#1C1E28"/>
<path d="M195.265 86.418L178.81 114.953L181.068 116.255L197.523 87.7198L195.265 86.418Z" fill="#1C1E28"/>
<path d="M150 300C67.2342 300 0 232.662 0 150C0 67.3384 67.2342 0 150 0C232.766 0 300 67.2342 300 150C300 232.766 232.766 300 150 300ZM150 7.81793C71.6122 7.81793 7.81793 71.6122 7.81793 150C7.81793 228.388 71.6122 292.182 150 292.182C228.388 292.182 292.182 228.388 292.182 150C292.182 71.6122 228.388 7.81793 150 7.81793Z" fill="#1C1E28"/>
</g>
<defs>
<clipPath id="clip0_38_390">
<rect width="300" height="300" fill="white"/>
</clipPath>
</defs>
</svg>
