<svg width="300" height="300" viewBox="0 0 300 300" fill="none" xmlns="http://www.w3.org/2000/svg">
<g clip-path="url(#clip0_38_392)">
<path d="M45.8655 125.087H43.2595V168.555H45.8655V125.087Z" fill="#1C1E28"/>
<path d="M254.344 125.087H251.738V168.555H254.344V125.087Z" fill="#1C1E28"/>
<path d="M253.093 149.793H44.6146V152.399H253.093V149.793Z" fill="#1C1E28"/>
<path d="M150.105 126.756H147.499V147.604H150.105V126.756Z" fill="#1C1E28"/>
<path d="M150 300C67.3384 300 0 232.662 0 150C0 67.3384 67.3384 0 150 0C232.662 0 300 67.2342 300 150C300 232.766 232.766 300 150 300ZM150 7.81793C71.6122 7.81793 7.81793 71.6122 7.81793 150C7.81793 228.388 71.6122 292.182 150 292.182C228.388 292.182 292.182 228.388 292.182 150C292.182 71.6122 228.388 7.81793 150 7.81793Z" fill="#1C1E28"/>
</g>
<defs>
<clipPath id="clip0_38_392">
<rect width="300" height="300" fill="white"/>
</clipPath>
</defs>
</svg>
