<svg width="300" height="300" viewBox="0 0 300 300" fill="none" xmlns="http://www.w3.org/2000/svg">
<g clip-path="url(#clip0_38_423)">
<path d="M87.6641 146.246V141.868L128.109 125.815V129.985L105.28 138.845L92.2506 143.848V144.265L105.28 149.373L128.109 158.129V162.403L87.6641 146.246Z" fill="white"/>
<path d="M162.926 106.845H166.678L136.553 192.53H132.801L162.926 106.845Z" fill="white"/>
<path d="M170.951 158.129L193.779 149.373L206.809 144.265V143.848L193.779 138.845L170.951 129.985V125.815L211.396 141.868V146.246L170.951 162.403V158.129Z" fill="white"/>
<path d="M150 300C67.3384 300 0 232.662 0 150C0 67.3384 67.3384 0 150 0C232.662 0 300 67.2342 300 150C300 232.766 232.766 300 150 300ZM150 7.81793C71.6122 7.81793 7.81793 71.6122 7.81793 150C7.81793 228.388 71.6122 292.182 150 292.182C228.388 292.182 292.182 228.388 292.182 150C292.182 71.6122 228.388 7.81793 150 7.81793Z" fill="white"/>
</g>
<defs>
<clipPath id="clip0_38_423">
<rect width="300" height="300" fill="white"/>
</clipPath>
</defs>
</svg>
