<?xml version="1.0" encoding="UTF-8" standalone="no"?>
<!DOCTYPE svg PUBLIC "-//W3C//DTD SVG 1.1//EN" "http://www.w3.org/Graphics/SVG/1.1/DTD/svg11.dtd">
<svg width="100%" height="100%" viewBox="0 0 79 79" version="1.1" xmlns="http://www.w3.org/2000/svg" xmlns:xlink="http://www.w3.org/1999/xlink" xml:space="preserve" xmlns:serif="http://www.serif.com/" style="fill-rule:evenodd;clip-rule:evenodd;stroke-miterlimit:10;">
    <g transform="matrix(1,0,0,1,-108.358393,-404.503593)">
        <g>
            <g transform="matrix(0,-2,-2,0,147.6458,412.041)">
                <circle cx="-15.875" cy="0" r="15.875" style="fill:none;stroke:white;stroke-width:0.75px;"/>
            </g>
            <g transform="matrix(2,0,0,2,161.191,455.934)">
                <path d="M0,-4.597L0.002,-4.597C1.364,-4.391 1.29,-3.37 1.29,-3.37L-3.044,1.082C-2.216,1.157 -0.548,1.211 1.951,0.855C2.385,0.18 2.638,-0.622 2.638,-1.483C2.638,-3.872 0.701,-5.808 -1.688,-5.808C-2.914,-5.808 -4.02,-5.297 -4.807,-4.478C-2.27,-4.794 -0.682,-4.682 0,-4.597" style="fill:white;fill-rule:nonzero;"/>
            </g>
            <g transform="matrix(2,0,0,2,154.415,450.0076)">
                <path d="M0,4.442L-0.002,4.442C-1.364,4.236 -1.29,3.215 -1.29,3.215L3.044,-1.237C2.231,-1.31 0.606,-1.364 -1.822,-1.028C-2.327,-0.32 -2.625,0.545 -2.625,1.48C-2.625,3.869 -0.688,5.806 1.7,5.806C3.011,5.806 4.185,5.222 4.978,4.301C2.341,4.644 0.697,4.529 0,4.442" style="fill:white;fill-rule:nonzero;"/>
            </g>
            <g transform="matrix(-1.414214,1.414214,1.414214,1.414214,148.1422,465.02662)">
                <path d="M-18.55,-7.684L3.183,-7.684" style="fill:none;fill-rule:nonzero;stroke:white;stroke-width:0.25px;"/>
            </g>
            <g transform="matrix(2,0,0,2,137.4928,443.2952)">
                <path d="M0,-8.666C-2.39,-8.666 -4.334,-6.722 -4.334,-4.333C-4.334,-1.959 -2.416,-0.026 -0.049,0L-0.049,-4.329L-1.467,-4.329C-1.888,-4.329 -2.231,-3.986 -2.231,-3.563C-2.231,-3.142 -1.888,-2.8 -1.467,-2.8L-1.467,-1.855C-2.409,-1.855 -3.176,-2.622 -3.176,-3.563C-3.176,-4.507 -2.409,-5.273 -1.467,-5.273L-0.049,-5.273L-0.049,-5.751C-0.049,-6.535 0.589,-7.174 1.373,-7.174C2.157,-7.174 2.796,-6.535 2.796,-5.751C2.796,-4.966 2.157,-4.329 1.373,-4.329L0.895,-4.329L0.895,-0.093C2.856,-0.506 4.334,-2.25 4.334,-4.333C4.334,-6.722 2.389,-8.666 0,-8.666" style="fill:white;fill-rule:nonzero;"/>
            </g>
            <g transform="matrix(2,0,0,2,141.1954,431.7938)">
                <path d="M0,0C0,-0.263 -0.214,-0.478 -0.478,-0.478C-0.742,-0.478 -0.956,-0.264 -0.956,0L-0.956,0.478L-0.478,0.478C-0.214,0.478 0,0.263 0,0" style="fill:white;fill-rule:nonzero;"/>
            </g>
        </g>
    </g>
</svg>
