<?xml version="1.0" encoding="UTF-8" standalone="no"?>
<!DOCTYPE svg PUBLIC "-//W3C//DTD SVG 1.1//EN" "http://www.w3.org/Graphics/SVG/1.1/DTD/svg11.dtd">
<svg width="100%" height="100%" viewBox="0 0 79 79" version="1.1" xmlns="http://www.w3.org/2000/svg" xmlns:xlink="http://www.w3.org/1999/xlink" xml:space="preserve" xmlns:serif="http://www.serif.com/" style="fill-rule:evenodd;clip-rule:evenodd;stroke-miterlimit:10;">
    <g transform="matrix(1,0,0,1,-755.092193,-404.374993)">
        <g>
            <g transform="matrix(0,-2,-2,0,794.3796,411.9124)">
                <circle cx="-15.875" cy="0" r="15.875" style="fill:none;stroke:white;stroke-width:0.75px;"/>
            </g>
            <g transform="matrix(2,0,0,2,782.6838,443.2648)">
                <path d="M0,7.943L-3.379,7.943C-3.544,7.943 -3.679,7.809 -3.679,7.643L-3.679,0.301C-3.679,0.135 -3.544,0 -3.379,0L0,0C0.166,0 0.3,0.135 0.3,0.301L0.3,7.643C0.3,7.809 0.166,7.943 0,7.943Z" style="fill:none;fill-rule:nonzero;stroke:white;stroke-width:0.25px;"/>
            </g>
            <g transform="matrix(2,0,0,2,792.137,434.0468)">
                <path d="M0,12.552L-3.361,12.552C-3.531,12.552 -3.67,12.414 -3.67,12.243L-3.67,0.309C-3.67,0.138 -3.531,0 -3.361,0L0,0C0.171,0 0.309,0.138 0.309,0.309L0.309,12.243C0.309,12.414 0.171,12.552 0,12.552Z" style="fill:none;fill-rule:nonzero;stroke:white;stroke-width:0.25px;"/>
            </g>
            <g transform="matrix(2,0,0,2,810.8132,434.0468)">
                <path d="M0,12.552L-3.361,12.552C-3.531,12.552 -3.67,12.414 -3.67,12.243L-3.67,0.309C-3.67,0.138 -3.531,0 -3.361,0L0,0C0.171,0 0.309,0.138 0.309,0.309L0.309,12.243C0.309,12.414 0.171,12.552 0,12.552Z" style="fill:none;fill-rule:nonzero;stroke:white;stroke-width:0.25px;"/>
            </g>
            <g transform="matrix(2,0,0,2,801.4732,424.8908)">
                <path d="M0,17.13L-3.355,17.13C-3.527,17.13 -3.667,16.99 -3.667,16.818L-3.667,0.312C-3.667,0.14 -3.527,0 -3.355,0L0,0C0.172,0 0.312,0.14 0.312,0.312L0.312,16.818C0.312,16.99 0.172,17.13 0,17.13Z" style="fill:none;fill-rule:nonzero;stroke:white;stroke-width:0.25px;"/>
            </g>
            <g transform="matrix(2,0,0,2,766.6624,459.1508)">
                <path d="M0,0L27.715,0" style="fill:none;fill-rule:nonzero;stroke:white;stroke-width:0.25px;"/>
            </g>
        </g>
    </g>
</svg>
