<svg width="300" height="301" viewBox="0 0 300 301" fill="none" xmlns="http://www.w3.org/2000/svg">
<g clip-path="url(#clip0_649_359)">
<path d="M150 0.893555C232.724 0.893558 300 68.1693 300 150.894C300 233.618 232.724 300.894 150 300.894C67.2758 300.894 3.54621e-06 233.618 0 150.894C0 68.1693 67.2758 0.893555 150 0.893555ZM150 8.36816C71.3621 8.36816 7.47461 72.2557 7.47461 150.894C7.47461 229.531 71.3621 293.419 150 293.419C228.638 293.419 292.525 229.531 292.525 150.894C292.525 72.2557 228.538 8.36817 150 8.36816ZM149.103 39.9629C175.813 39.9629 197.542 61.6904 197.542 88.4014V128.169H199.934C211.894 128.169 221.562 137.837 221.562 149.797V212.787C221.561 224.747 211.894 234.415 199.934 234.415H98.1729C86.2128 234.415 76.545 224.747 76.5449 212.787V149.797C76.5449 137.837 86.2127 128.169 98.1729 128.169H100.664V88.4014C100.664 61.6906 122.392 39.9631 149.103 39.9629ZM98.1729 133.152C89.0034 133.152 81.5283 140.627 81.5283 149.797V212.787C81.5284 221.956 89.0035 229.432 98.1729 229.432H199.934C209.103 229.432 216.578 221.956 216.578 212.787V149.797C216.578 140.627 209.103 133.152 199.934 133.152H98.1729ZM149.003 161.259C155.382 161.259 160.465 166.442 160.465 172.721H160.266C160.266 177.505 157.375 181.591 153.189 183.285V196.84C153.189 199.232 151.295 201.126 148.903 201.126C146.511 201.126 144.618 199.232 144.618 196.84V183.285C140.532 181.591 137.542 177.505 137.542 172.721C137.542 166.342 142.624 161.259 149.003 161.259ZM149.103 44.9463C125.182 44.9465 105.647 64.4813 105.647 88.4014V128.169H192.559V88.4014C192.559 64.4811 173.023 44.9463 149.103 44.9463Z" fill="white"/>
</g>
<defs>
<clipPath id="clip0_649_359">
<rect width="300" height="300" fill="white" transform="translate(0 0.893555)"/>
</clipPath>
</defs>
</svg>
