<svg width="300" height="300" viewBox="0 0 300 300" fill="none" xmlns="http://www.w3.org/2000/svg">
<g clip-path="url(#clip0_24_271)">
<path fill-rule="evenodd" clip-rule="evenodd" d="M0.000795971 149.581C0.210738 66.8643 67.8028 -0.312485 150.421 0.00109338C233.038 0.212352 300.209 67.8068 299.999 150.419C299.789 233.037 232.194 300.209 149.581 300C66.9628 299.79 -0.209148 232.195 0.000795971 149.581ZM150.395 7.67233C72.0194 7.37357 7.87125 71.1195 7.67206 149.601C7.47287 227.982 71.2242 292.129 149.601 292.328C227.982 292.527 292.129 228.776 292.328 150.4C292.527 72.0181 228.776 7.87153 150.399 7.67235L150.395 7.67233Z" fill="white"/>
<path d="M195.516 207.279C193.675 207.279 191.834 207.279 189.993 207.279C188.152 207.279 186.311 207.279 184.47 207.279H157.467C137.521 207.279 117.474 207.279 97.5285 207.279C80.4471 207.279 66.5365 197.767 61.2177 182.527C55.2853 165.445 63.0588 146.318 79.2197 138.033C80.5494 137.317 81.2653 136.704 81.5722 135.067C83.0042 126.987 88.3229 120.031 95.5851 116.451C102.745 112.871 111.235 112.974 119.008 116.451C125.452 105.916 134.044 98.9608 145.295 95.074C159.001 90.3689 174.037 92.0055 186.515 99.779C198.892 107.553 207.074 120.134 208.813 134.351V134.658C208.813 134.658 209.018 135.374 209.018 135.885C208.813 138.033 209.632 138.851 212.495 139.772C228.554 144.477 238.885 160.433 236.737 176.901C234.384 194.392 220.064 206.87 201.96 207.279C199.812 207.279 197.664 207.279 195.414 207.279H195.516ZM184.47 204.62C186.311 204.62 188.152 204.62 189.993 204.62C193.982 204.62 197.971 204.62 201.96 204.62C219.042 204.211 232.032 192.857 234.282 176.492C236.328 161.252 226.713 146.523 211.882 142.125C208.916 141.306 206.256 139.874 206.563 135.578C206.563 135.578 206.563 135.272 206.563 135.169C206.563 134.965 206.563 134.862 206.461 134.658C204.824 121.156 197.051 109.189 185.288 101.927C173.423 94.5626 159.206 92.926 146.216 97.4265C135.271 101.211 126.884 108.166 120.747 118.702L120.133 119.724L119.11 119.213C111.746 115.428 103.768 115.224 96.9148 118.599C90.3686 121.872 85.6635 128.112 84.3339 135.476C83.8224 138.135 82.595 139.261 80.6516 140.283C65.5136 147.955 58.3538 165.752 63.8771 181.606C68.7867 195.824 81.7768 204.62 97.733 204.722C117.678 204.722 137.726 204.722 157.671 204.722H184.674L184.47 204.62Z" fill="white"/>
<path d="M168.309 156.138H135.885V181.402H168.309V156.138Z" fill="white"/>
<path d="M142.942 156.547H140.385V145.295C140.385 138.442 145.602 132.817 152.046 132.817C158.489 132.817 163.706 138.442 163.706 145.295H161.149C161.149 139.772 157.058 135.374 152.046 135.374C147.034 135.374 142.942 139.874 142.942 145.295V156.547Z" fill="white"/>
<path d="M163.809 145.296H161.252V156.138H163.809V145.296Z" fill="white"/>
</g>
<defs>
<clipPath id="clip0_24_271">
<rect width="300" height="300" fill="white"/>
</clipPath>
</defs>
</svg>
