<svg width="300" height="300" viewBox="0 0 300 300" fill="none" xmlns="http://www.w3.org/2000/svg">
<g clip-path="url(#clip0_33_1286)">
<path d="M153.608 292.474C152.474 292.474 151.237 292.474 150.103 292.267C149.381 292.267 148.66 292.267 148.041 292.164H146.598C142.474 291.958 138.35 291.546 134.33 291.03L132.886 290.824L131.752 290.618C127.629 289.999 123.505 289.175 119.484 288.247L118.556 288.041C118.35 288.041 118.144 287.938 117.938 287.834C117.938 287.834 117.526 287.731 117.319 287.628H117.01C112.886 286.494 108.763 285.257 104.742 283.814L102.989 283.195L102.165 282.886C97.9379 281.34 93.8142 279.587 89.8967 277.628L88.041 276.7L87.4224 276.391C82.0616 273.711 77.4224 271.03 73.1956 268.247L72.5771 267.834V158.247H84.5358V135.979H100.515V110.206H207.113V135.979H223.093V158.247H235.051V267.834L234.433 268.247C230.206 271.03 225.464 273.711 220.206 276.391L217.629 277.628C213.711 279.484 209.587 281.236 205.361 282.886L204.536 283.195L202.886 283.814C198.866 285.257 194.742 286.494 190.618 287.525L190.103 287.628C189.897 287.628 189.794 287.628 189.587 287.731C189.587 287.731 189.278 287.731 189.072 287.834L187.938 288.144C183.917 289.072 179.794 289.896 175.67 290.515L174.536 290.721L173.093 290.927C169.072 291.443 164.948 291.752 160.825 291.958H159.381C158.66 291.958 157.938 291.958 157.319 292.061C156.185 292.061 154.948 292.267 153.814 292.267L153.608 292.474ZM149.175 289.69C149.175 289.69 149.897 289.69 150.309 289.69C152.474 289.793 154.742 289.793 157.01 289.69C157.422 289.69 157.732 289.69 158.144 289.69V191.649H160.721V289.484C164.948 289.278 168.969 288.865 172.989 288.35V191.546H175.567V287.938C179.69 287.319 183.814 286.494 187.835 285.566V191.546H190.412V284.948C194.536 283.917 198.66 282.577 202.68 281.133V191.546H205.257V280.102C209.484 278.453 213.608 276.7 217.526 274.742V191.443H220.103V273.401C224.639 271.03 228.66 268.762 232.371 266.391V160.824H220.412V138.556H204.433V112.783H102.989V138.556H87.0101V160.824H75.0513V266.391C78.7627 268.762 82.7833 271.133 87.3194 273.401V191.443H89.8967V274.742C93.8142 276.7 97.9379 278.453 102.165 280.102V191.546H104.742V281.133C108.763 282.577 112.886 283.917 117.01 284.948V191.546H119.587V285.566C123.608 286.494 127.732 287.319 131.855 287.938V191.546H134.433V288.35C138.453 288.865 142.577 289.278 146.701 289.484V191.649H149.278V289.69H149.175Z" fill="white"/>
<path d="M150 300C67.3196 300 0 232.68 0 150C0 67.3196 67.3196 0 150 0C232.68 0 300 67.3196 300 150C300 232.68 232.68 300 150 300ZM150 7.73196C71.5464 7.73196 7.73196 71.5464 7.73196 150C7.73196 228.454 71.5464 292.268 150 292.268C228.454 292.268 292.268 228.454 292.268 150C292.268 71.5464 228.454 7.73196 150 7.73196Z" fill="white"/>
</g>
<defs>
<clipPath id="clip0_33_1286">
<rect width="300" height="300" fill="white"/>
</clipPath>
</defs>
</svg>
