<svg width="300" height="300" viewBox="0 0 300 300" fill="none" xmlns="http://www.w3.org/2000/svg">
<g clip-path="url(#clip0_33_1322)">
<path d="M150 300C67.3196 300 0 232.68 0 150C0 67.3196 67.3196 0 150 0C232.68 0 300 67.3196 300 150C300 232.68 232.68 300 150 300ZM150 7.73196C71.5464 7.73196 7.73196 71.5464 7.73196 150C7.73196 228.454 71.5464 292.268 150 292.268C228.454 292.268 292.268 228.454 292.268 150C292.268 71.5464 228.454 7.73196 150 7.73196Z" fill="#1C1E28"/>
<path d="M99.4845 252.991V214.743C81.5463 211.238 68.5566 195.568 68.5566 177.218V103.816C68.5566 82.6815 85.7731 65.5681 106.804 65.5681H195.979C217.113 65.5681 234.227 82.7846 234.227 103.816V177.218C234.227 198.352 217.113 215.465 195.979 215.465H136.907L99.3814 252.991H99.4845ZM106.907 67.2176C86.701 67.2176 70.3092 83.6093 70.3092 103.816V177.218C70.3092 194.95 82.9896 210.104 100.515 213.197H101.237V248.867L136.392 213.712H196.082C216.289 213.712 232.68 197.321 232.68 177.115V103.712C232.68 83.5063 216.289 67.1145 196.082 67.1145H106.907V67.2176Z" fill="#1C1E28"/>
<path d="M212.165 133.815H93.6083V119.795H167.113V106.805L212.165 133.712V133.815ZM95.2578 132.063H206.186L168.866 109.692V121.341H95.3609V131.96L95.2578 132.063Z" fill="#1C1E28"/>
<path d="M136.495 173.092L91.4432 146.185H210V160.205H136.495V173.195V173.092ZM97.4226 147.731L134.742 170.102V158.453H208.247V147.834H97.3195L97.4226 147.731Z" fill="#1C1E28"/>
</g>
<defs>
<clipPath id="clip0_33_1322">
<rect width="300" height="300" fill="white"/>
</clipPath>
</defs>
</svg>
