<svg width="300" height="300" viewBox="0 0 300 300" fill="none" xmlns="http://www.w3.org/2000/svg">
<g clip-path="url(#clip0_660_17)">
<path d="M150 0C232.68 0 300 67.3196 300 150C300 232.68 232.68 300 150 300C67.3196 300 0 232.68 0 150C2.15448e-06 67.3196 67.3196 2.15503e-06 150 0ZM150 7.73242C71.5464 7.73242 7.73242 71.5464 7.73242 150C7.73242 228.454 71.5464 292.268 150 292.268C228.454 292.268 292.268 228.454 292.268 150C292.268 71.5464 228.454 7.73242 150 7.73242ZM69.8965 102.783C71.8552 102.783 74.1242 104.742 74.6396 110.412L82.165 197.01C82.4743 200.927 83.8146 202.268 84.3301 202.268C84.8457 202.267 86.1858 200.927 86.4951 197.113L94.5361 110.309C95.0517 104.845 97.3196 102.887 99.2783 102.887C101.237 102.887 103.505 104.846 104.021 110.516L111.547 197.113C111.856 201.03 113.195 202.37 113.711 202.371C114.226 202.371 115.567 201.03 115.876 197.216L123.918 110.412C124.433 104.948 126.701 102.989 128.66 102.989C130.619 102.989 132.887 104.948 133.402 110.618L140.928 197.216C141.237 201.133 142.577 202.474 143.093 202.474C143.608 202.474 144.949 201.134 145.258 197.319L153.299 110.516C153.814 105.052 156.082 103.093 158.041 103.093C160 103.093 162.268 105.052 162.783 110.722L170.31 197.319C170.619 201.237 171.959 202.577 172.475 202.577C172.99 202.577 174.33 201.236 174.64 197.423L182.681 110.618C183.196 105.154 185.464 103.195 187.423 103.195C189.382 103.195 191.65 105.154 192.165 110.824L199.69 197.423C200 201.339 201.34 202.679 201.855 202.68C202.371 202.68 203.711 201.34 204.021 197.525L212.062 110.722C212.577 105.258 214.845 103.299 216.804 103.299C218.762 103.299 221.031 105.258 221.547 110.928L229.072 197.525C229.382 201.443 230.722 202.783 231.237 202.783C231.753 202.783 233.093 201.443 233.402 197.629L241.443 110.824C241.959 105.36 244.227 103.401 246.186 103.401C248.144 103.401 250.412 105.36 250.928 111.03L251.547 118.144L248.969 118.351L248.351 111.236C248.041 107.319 246.701 105.979 246.186 105.979C245.67 105.98 244.33 107.319 244.021 111.134L235.979 197.938C235.464 203.401 233.196 205.36 231.237 205.36C229.279 205.36 227.011 203.402 226.495 197.731L218.969 111.134C218.659 107.216 217.319 105.876 216.804 105.876C216.288 105.877 214.949 107.217 214.64 111.03L206.598 197.835C206.082 203.299 203.814 205.258 201.855 205.258C199.897 205.258 197.629 203.299 197.113 197.629L189.588 111.03C189.279 107.113 187.938 105.773 187.423 105.772C186.907 105.772 185.567 107.113 185.258 110.928L177.217 197.731C176.701 203.195 174.433 205.154 172.475 205.154C170.516 205.154 168.248 203.195 167.732 197.525L160.206 110.928C159.897 107.01 158.556 105.67 158.041 105.67C157.525 105.67 156.185 107.011 155.876 110.824L147.835 197.629C147.319 203.093 145.051 205.051 143.093 205.051C141.134 205.051 138.866 203.093 138.351 197.423L130.825 110.824C130.516 106.908 129.176 105.567 128.66 105.566C128.145 105.566 126.804 106.907 126.495 110.722L118.454 197.525C117.939 202.989 115.67 204.948 113.711 204.948C111.752 204.948 109.484 202.989 108.969 197.319L101.443 110.722C101.134 106.804 99.7938 105.464 99.2783 105.464C98.7628 105.464 97.4226 106.804 97.1133 110.618L89.0723 197.423C88.5567 202.886 86.2887 204.845 84.3301 204.845C82.3713 204.845 80.1034 202.886 79.5879 197.216L72.0615 110.618C71.7522 106.701 70.4119 105.36 69.8965 105.36C69.3807 105.361 68.0416 106.702 67.7324 110.516L59.6904 197.319C59.175 202.783 56.907 204.742 54.9482 204.742C52.9895 204.742 50.7215 202.783 50.2061 197.113L42.6807 110.516L45.2578 110.309L52.7832 196.907C53.0925 200.824 54.4326 202.165 54.9482 202.165C55.4637 202.165 56.804 200.824 57.1133 197.01L65.1543 110.206C65.6697 104.743 67.9378 102.783 69.8965 102.783Z" fill="#1C1E28"/>
</g>
<defs>
<clipPath id="clip0_660_17">
<rect width="300" height="300" fill="white"/>
</clipPath>
</defs>
</svg>
