<svg width="300" height="300" viewBox="0 0 300 300" fill="none" xmlns="http://www.w3.org/2000/svg">
<path d="M150.041 3C231.102 3 297.177 68.9753 297.177 150.125C297.177 231.275 231.196 297.156 150.041 297.156C68.9799 297.156 3 231.181 3 150.125C3.00019 69.0696 68.9801 3.00016 150.041 3ZM150.041 10.0684C72.8446 10.0685 10.0695 72.8397 10.0693 150.125C10.0693 227.41 72.8445 290.088 150.041 290.088C227.238 290.088 290.107 227.316 290.107 150.125C290.107 72.9338 227.332 10.0684 150.041 10.0684ZM131.379 80.6621L176.904 209.126H145.705L137.505 183.019H92.4502L83.6846 209.126H53.4277L99.5195 79.9082H131.096L131.379 80.6621ZM216.87 209.126H188.216V79.9082H216.87V209.126ZM56.915 206.77H82.082L90.8477 180.662H139.296L147.496 206.77H173.7L129.588 82.2646H101.311L56.915 206.77ZM190.572 206.77H214.514V82.2646H190.572V206.77ZM132.604 161.152H97.1631L115.166 106.204L132.604 161.152ZM100.462 158.796H129.399L115.166 113.933L100.462 158.796Z" fill="white"/>
</svg>
