<svg width="300" height="300" viewBox="0 0 300 300" fill="none" xmlns="http://www.w3.org/2000/svg">
<g clip-path="url(#clip0_660_35)">
<path d="M153.415 3C236.096 3.20619 303.21 70.7327 303.004 153.414C302.798 235.992 235.478 303.004 153.002 303.004H152.589C112.589 302.901 75.0632 287.128 46.7124 258.674C18.3616 230.22 2.89747 192.487 3.00051 152.59C3.10361 112.589 18.8766 75.0628 47.3306 46.7119C75.6815 18.4641 113.208 3 153.002 3H153.415ZM153.002 10.7324C115.27 10.7324 79.702 25.4744 52.7945 52.1758C25.7838 78.9803 10.8351 114.651 10.732 152.59C10.6289 190.528 25.3719 226.199 52.1763 253.21C78.9806 280.22 114.651 295.168 152.589 295.271H153.002C231.251 295.271 295.066 231.766 295.272 153.414C295.478 74.9595 231.869 10.9386 153.415 10.7324H153.002ZM160.734 60.9404C161.352 60.9404 161.868 61.3523 161.971 61.9707L166.198 79.3936C174.548 81.2492 182.487 84.5483 189.704 89.1875L205.065 79.8066C205.089 79.8023 206.203 79.6049 206.611 80.0127L222.488 95.8887C222.488 95.8887 223.003 96.9201 222.694 97.4355L213.312 112.797C217.951 120.116 221.147 127.951 223.106 136.302L240.529 140.529C241.147 140.632 241.56 141.147 241.56 141.766V164.138C241.56 164.756 241.147 165.272 240.529 165.375L223.106 169.602C221.25 177.952 217.951 185.89 213.312 193.106L222.694 208.468C222.694 208.468 222.9 209.602 222.488 210.015L206.611 225.891C206.611 225.891 205.581 226.406 205.065 226.097L189.704 216.716C182.384 221.252 174.548 224.551 166.198 226.51L161.971 243.933C161.868 244.551 161.352 244.963 160.734 244.963H138.363C137.744 244.963 137.229 244.551 137.126 243.933L132.899 226.51C124.548 224.654 116.61 221.355 109.393 216.716L94.0318 226.097C93.5163 226.406 92.8982 226.303 92.4859 225.891L76.6089 210.015C76.6089 210.015 76.0936 208.983 76.4029 208.468L85.6812 193.106C81.1452 185.89 77.846 177.952 75.8872 169.602L58.4644 165.375C57.846 165.272 57.4342 164.756 57.4341 164.138V141.766C57.4343 141.147 57.8461 140.632 58.4644 140.529L75.8872 136.302C77.7429 127.951 81.0421 120.013 85.6812 112.797L76.4029 97.4355C76.4029 97.4355 76.1965 96.301 76.6089 95.8887L92.4859 80.0127C92.4975 80.0069 93.5192 79.4992 94.0318 79.8066L109.393 89.1875C116.61 84.6514 124.548 81.3523 132.899 79.3936L137.126 61.9707C137.229 61.3523 137.744 60.9404 138.363 60.9404H160.734ZM135.167 80.8369C135.167 80.8369 134.651 81.6625 134.239 81.7656C125.579 83.6213 117.538 87.0233 110.115 91.7656C109.703 92.0747 109.187 92.0746 108.775 91.7656L93.6197 82.4863L79.1861 96.9199L88.3618 112.075C88.3662 112.095 88.5658 113.007 88.3618 113.415C83.6195 120.838 80.2175 128.982 78.3618 137.539C78.3618 138.055 77.8465 138.364 77.4341 138.57L60.2173 142.797V163.21L77.4341 167.437C77.4485 167.446 78.2597 167.957 78.3618 168.468C80.2176 177.128 83.6196 185.169 88.3618 192.592C88.6709 193.004 88.6711 193.519 88.3618 193.932L79.1861 209.087L93.6197 223.52L108.775 214.241C108.795 214.237 109.707 214.037 110.115 214.241C117.538 218.984 125.682 222.386 134.239 224.241C134.754 224.241 135.063 224.757 135.167 225.169L139.393 242.386H159.703L163.93 225.169C163.941 225.152 164.45 224.343 164.858 224.241C173.415 222.386 181.559 218.984 188.982 214.241C189.394 213.932 189.909 213.932 190.322 214.241L205.477 223.52L219.91 209.087L210.735 193.932C210.735 193.932 210.529 193.004 210.735 192.592C215.477 185.169 218.879 177.024 220.735 168.468C220.735 167.952 221.25 167.643 221.663 167.437L238.879 163.21V142.797L221.663 138.57C221.663 138.57 220.838 138.055 220.735 137.539C218.879 128.982 215.477 120.838 210.735 113.415C210.426 113.003 210.426 112.488 210.735 112.075L219.91 96.9199L205.477 82.4863L190.322 91.7656C190.303 91.7697 189.39 91.9695 188.982 91.7656C181.559 86.9202 173.415 83.6213 164.858 81.7656C164.342 81.7656 164.033 81.2493 163.93 80.8369L159.703 63.6201H139.393L135.167 80.8369ZM149.497 96.5078C180.631 96.5078 205.993 121.869 205.993 153.003C205.993 184.137 180.631 209.499 149.497 209.499C118.362 209.499 93.0015 184.137 93.0015 153.003C93.0016 121.869 118.362 96.5079 149.497 96.5078ZM149.497 99.085C119.806 99.085 95.5788 123.312 95.5786 153.003C95.5786 182.694 119.702 206.922 149.497 206.922C179.291 206.922 203.415 182.694 203.415 153.003C203.414 123.312 179.291 99.085 149.497 99.085ZM184.342 127.646C184.359 127.64 185.685 127.135 186.198 127.646C186.713 128.162 186.713 128.987 186.198 129.503L139.909 175.792C139.902 175.797 139.289 176.204 138.981 176.204C138.981 176.204 138.26 176.101 138.053 175.792L117.64 155.379C117.632 155.356 117.129 154.035 117.64 153.523C118.156 153.008 118.98 153.008 119.496 153.523L138.981 173.008L184.342 127.646Z" fill="white"/>
</g>
<defs>
<clipPath id="clip0_660_35">
<rect width="300" height="300" fill="white"/>
</clipPath>
</defs>
</svg>
