<svg width="300" height="300" viewBox="0 0 300 300" fill="none" xmlns="http://www.w3.org/2000/svg">
<g clip-path="url(#clip0_660_52)">
<path d="M150 0C232.68 0 300 67.3196 300 150C300 232.68 232.68 300 150 300C67.3196 300 0 232.68 0 150C2.15448e-06 67.3196 67.3196 2.15503e-06 150 0ZM150 7.73242C71.5464 7.73242 7.73242 71.5464 7.73242 150C7.73242 228.454 71.5464 292.268 150 292.268C228.454 292.268 292.268 228.454 292.268 150C292.268 71.5464 228.454 7.73242 150 7.73242ZM109.382 225.773H80.9277V139.484H109.382V225.773ZM217.938 225.773H189.484V139.484H217.938V225.773ZM83.6084 223.195H106.907V142.062H83.6084V223.195ZM192.165 223.195H215.464V142.062H192.165V223.195ZM156.907 122.475L155.052 124.33L150.722 120V181.237H171.109L166.804 177.01L168.66 175.154L176.082 182.577L168.66 190L166.804 188.144L171.214 183.814H124.846L129.175 188.144L127.423 190L120 182.577L127.423 175.154L129.175 177.01L124.948 181.237H148.145V120.103L143.918 124.33L142.062 122.475L149.484 115.052L156.907 122.475ZM192.577 104.948H106.289V76.5977H192.577V104.948ZM108.866 102.371H190V79.1748H108.866V102.371Z" fill="white"/>
</g>
<defs>
<clipPath id="clip0_660_52">
<rect width="300" height="300" fill="white"/>
</clipPath>
</defs>
</svg>
