<svg width="300" height="300" viewBox="0 0 300 300" fill="none" xmlns="http://www.w3.org/2000/svg">
<g clip-path="url(#clip0_25_572)">
<path d="M226.063 223.985H205.314V221.627H223.705V203.236H226.063V223.985Z" fill="white"/>
<path d="M226.063 92.5124H223.705V74.1215H205.314V71.7637H226.063V92.5124Z" fill="white"/>
<path d="M76.2004 92.5124H73.8425V71.7637H94.5913V74.1215H76.2004V92.5124Z" fill="white"/>
<path d="M94.5913 223.985H73.8425V203.236H76.2004V221.627H94.5913V223.985Z" fill="white"/>
<path d="M231.062 140.612H68.9383C68.2781 140.612 67.8065 140.047 67.8065 139.481C67.8065 138.915 68.3724 138.349 68.9383 138.349H231.062C231.722 138.349 232.193 138.915 232.193 139.481C232.193 140.047 231.627 140.612 231.062 140.612Z" fill="white"/>
<path d="M160.327 184.279H140.71C140.05 184.279 139.578 183.713 139.578 183.147C139.578 182.582 140.144 182.016 140.71 182.016H160.327C160.987 182.016 161.459 182.582 161.459 183.147C161.459 183.713 160.893 184.279 160.327 184.279Z" fill="white"/>
<path d="M102.325 124.013L100.156 123.164C100.156 123.164 110.907 95.0593 138.541 98.9261C148.538 100.341 156.555 105.622 164.194 110.809C175.511 118.354 185.414 124.956 199.184 117.6L200.316 119.675C185.32 127.691 174.474 120.429 162.968 112.79C155.517 107.791 147.689 102.604 138.258 101.284C112.511 97.6057 102.514 123.825 102.419 124.013H102.325Z" fill="white"/>
<path fill-rule="evenodd" clip-rule="evenodd" d="M183.434 146.837C183.434 148.252 180.604 149.289 177.02 149.289C173.437 149.289 170.607 148.158 170.607 146.837C170.607 145.517 173.437 144.385 177.02 144.385C180.604 144.385 183.434 145.517 183.434 146.837Z" fill="white"/>
<path d="M177.02 154.099C170.419 154.099 165.892 151.176 165.892 146.932C165.892 142.687 170.324 139.764 177.02 139.764C183.717 139.764 188.149 142.687 188.149 146.932C188.149 151.176 183.717 154.099 177.02 154.099Z" fill="white"/>
<path fill-rule="evenodd" clip-rule="evenodd" d="M130.336 146.837C130.336 148.252 127.506 149.289 123.923 149.289C120.339 149.289 117.509 148.158 117.509 146.837C117.509 145.517 120.339 144.385 123.923 144.385C127.506 144.385 130.336 145.517 130.336 146.837Z" fill="white"/>
<path d="M123.923 154.099C117.321 154.099 112.794 151.176 112.794 146.932C112.794 142.687 117.226 139.764 123.923 139.764C130.619 139.764 135.051 142.687 135.051 146.932C135.051 151.176 130.619 154.099 123.923 154.099Z" fill="white"/>
<path d="M184.66 214.27H116.189C107.229 214.27 99.9672 207.008 99.9672 198.048V102.132C99.9672 93.1726 107.229 85.9105 116.189 85.9105H184.66C193.62 85.9105 200.882 93.1726 200.882 102.132V197.954C200.882 206.914 193.62 214.176 184.66 214.176V214.27ZM116.283 88.3627C108.644 88.3627 102.419 94.5873 102.419 102.227V198.142C102.419 205.782 108.644 212.006 116.283 212.006H184.754C192.393 212.006 198.618 205.782 198.618 198.142V102.321C198.618 94.6816 192.393 88.457 184.754 88.457H116.283V88.3627Z" fill="white"/>
<path d="M151.745 171.075H147.595C144.954 171.075 142.785 168.906 142.785 166.265V154.854C142.785 154.193 143.351 153.722 143.917 153.722C144.483 153.722 145.049 154.288 145.049 154.854V166.265C145.049 167.586 146.18 168.718 147.501 168.718H151.65C152.311 168.718 152.782 169.284 152.782 169.849C152.782 170.415 152.216 170.981 151.65 170.981L151.745 171.075Z" fill="white"/>
<path d="M149.67 300C118.452 300 88.1781 290.286 62.3365 271.706C29.7986 248.222 8.38967 213.515 1.97642 173.998C-4.43684 134.481 4.90011 94.7759 28.3839 62.3323C51.7735 29.7945 86.3862 8.38554 125.997 1.97228C165.514 -4.44097 205.22 4.89597 237.664 28.3798C270.107 51.7693 291.61 86.4763 298.024 125.993C304.437 165.51 295.1 205.216 271.616 237.659C248.227 270.103 213.52 291.606 174.003 298.019C165.892 299.34 157.686 300 149.67 300ZM150.047 7.06516C142.502 7.06516 134.769 7.63104 127.035 8.95141C89.4042 15.0817 56.3005 35.4533 34.0427 66.4821C11.7849 97.5109 2.82523 135.236 8.95555 172.867C15.0859 210.497 35.4574 243.601 66.4862 265.859C97.4207 288.211 135.24 297.076 172.871 290.946C250.679 278.308 303.588 204.839 291.044 127.031C279.633 57.0508 218.801 7.06516 150.047 7.06516Z" fill="white"/>
</g>
<defs>
<clipPath id="clip0_25_572">
<rect width="300" height="300" fill="white"/>
</clipPath>
</defs>
</svg>
