<svg width="300" height="300" viewBox="0 0 300 300" fill="none" xmlns="http://www.w3.org/2000/svg">
<g clip-path="url(#clip0_25_634)">
<path d="M150 300C67.2641 300 0 232.736 0 150C0 67.2641 67.2641 0 150 0C232.736 0 300 67.2641 300 150C300 232.736 232.736 300 150 300ZM150 7.07547C71.2264 7.07547 7.07547 71.2264 7.07547 150C7.07547 228.774 71.2264 292.925 150 292.925C228.774 292.925 292.925 228.774 292.925 150C292.925 71.2264 228.774 7.07547 150 7.07547Z" fill="white"/>
<path d="M179.623 129.245C171.792 121.415 161.038 116.981 150 116.981C138.962 116.981 128.208 121.415 120.377 129.245L118.679 127.547C126.887 119.34 138.302 114.623 150 114.623C161.698 114.623 173.019 119.34 181.321 127.547L179.623 129.245Z" fill="white"/>
<path d="M98.7736 107.642L97.0754 105.943C111.038 91.9812 130.283 84.0566 150 84.0566C169.717 84.0566 188.962 92.0755 202.925 105.943L201.226 107.642C187.736 94.151 169.057 86.4151 150 86.4151C130.943 86.4151 112.264 94.151 98.7736 107.642Z" fill="white"/>
<path d="M210 215.943H90.0943C82.2641 215.943 75.9434 209.623 75.9434 201.792V163.302C75.9434 155.472 82.2641 149.151 90.0943 149.151H210C217.83 149.151 224.151 155.472 224.151 163.302V201.792C224.151 209.623 217.83 215.943 210 215.943ZM90.0943 151.509C83.5849 151.509 78.3019 156.793 78.3019 163.302V201.792C78.3019 208.302 83.5849 213.585 90.0943 213.585H210C216.509 213.585 221.792 208.302 221.792 201.792V163.302C221.792 156.793 216.509 151.509 210 151.509H90.0943Z" fill="white"/>
<path d="M116.698 183.679C113.868 183.679 111.509 181.321 111.509 178.491C111.509 175.66 113.868 173.302 116.698 173.302C119.528 173.302 121.887 175.66 121.887 178.491C121.887 181.321 119.528 183.679 116.698 183.679ZM116.698 175.66C115.189 175.66 113.868 176.887 113.868 178.491C113.868 180.094 115.094 181.321 116.698 181.321C118.302 181.321 119.528 180.094 119.528 178.491C119.528 176.887 118.302 175.66 116.698 175.66Z" fill="white"/>
<path d="M149.811 183.679C146.981 183.679 144.623 181.321 144.623 178.491C144.623 175.66 146.981 173.302 149.811 173.302C152.642 173.302 155 175.66 155 178.491C155 181.321 152.642 183.679 149.811 183.679ZM149.811 175.66C148.302 175.66 146.981 176.887 146.981 178.491C146.981 180.094 148.208 181.321 149.811 181.321C151.415 181.321 152.642 180.094 152.642 178.491C152.642 176.887 151.415 175.66 149.811 175.66Z" fill="white"/>
<path d="M182.925 183.679C180.094 183.679 177.736 181.321 177.736 178.491C177.736 175.66 180.094 173.302 182.925 173.302C185.755 173.302 188.113 175.66 188.113 178.491C188.113 181.321 185.755 183.679 182.925 183.679ZM182.925 175.66C181.321 175.66 180.094 176.887 180.094 178.491C180.094 180.094 181.321 181.321 182.925 181.321C184.528 181.321 185.755 180.094 185.755 178.491C185.755 176.887 184.528 175.66 182.925 175.66Z" fill="white"/>
</g>
<defs>
<clipPath id="clip0_25_634">
<rect width="300" height="300" fill="white"/>
</clipPath>
</defs>
</svg>
