<svg width="300" height="300" viewBox="0 0 300 300" fill="none" xmlns="http://www.w3.org/2000/svg">
<g clip-path="url(#clip0_25_636)">
<path d="M150 300C67.2958 300 0 232.704 0 150C0 67.2958 67.2958 0 150 0C232.704 0 300 67.2958 300 150C300 232.704 232.704 300 150 300ZM150 6.96163C71.1015 6.96163 6.96163 71.1015 6.96163 150C6.96163 228.899 71.1015 293.038 150 293.038C228.899 293.038 293.038 228.899 293.038 150C293.038 71.1015 228.899 6.96163 150 6.96163Z" fill="white"/>
<path d="M86.8822 173.67C83.912 170.05 82.334 165.501 82.334 160.303H89.7597C90.0382 163.924 90.7808 166.615 91.8018 168.286C93.6582 171.256 96.9998 172.742 101.827 172.742C105.539 172.742 108.603 171.721 110.83 169.771C113.058 167.822 114.265 165.223 114.265 162.067C114.265 158.169 113.058 155.477 110.737 153.899C108.324 152.321 105.075 151.578 100.806 151.578C100.341 151.578 99.8773 151.578 99.4132 151.578C98.9491 151.578 98.3922 151.578 97.928 151.578V145.266C98.6706 145.266 99.3204 145.452 99.7845 145.452C100.249 145.452 100.806 145.452 101.362 145.452C104.054 145.452 106.189 144.988 107.86 144.152C110.83 142.667 112.408 140.068 112.408 136.263C112.408 133.478 111.387 131.25 109.438 129.765C107.489 128.187 105.075 127.445 102.476 127.445C97.7424 127.445 94.4936 129.023 92.6372 132.178C91.6162 133.942 91.0592 136.355 90.9664 139.604H83.912C83.912 135.427 84.7474 131.807 86.4181 128.837C89.2956 123.546 94.4008 120.947 101.734 120.947C107.489 120.947 111.944 122.247 115.1 124.753C118.256 127.352 119.834 131.065 119.834 135.891C119.834 139.326 118.906 142.203 117.049 144.338C115.935 145.73 114.358 146.751 112.594 147.494C115.564 148.329 117.885 149.907 119.556 152.228C121.226 154.549 122.062 157.426 122.062 160.768C122.062 166.151 120.298 170.514 116.771 173.948C113.244 177.29 108.231 179.053 101.641 179.053C95.0506 179.053 90.131 177.197 87.0679 173.577" fill="white"/>
<path d="M162.16 125.867C164.666 129.115 165.873 132.55 165.873 135.984H158.819C158.447 133.756 157.705 131.993 156.777 130.693C155.106 128.28 152.507 127.166 148.98 127.166C144.988 127.166 141.832 129.023 139.512 132.643C137.191 136.263 135.892 141.553 135.613 148.422C137.284 146.009 139.326 144.245 141.739 143.039C143.967 142.018 146.566 141.461 149.351 141.461C154.085 141.461 158.169 142.946 161.696 146.009C165.223 149.072 166.987 153.527 166.987 159.561C166.987 164.666 165.316 169.214 161.975 173.206C158.633 177.197 153.899 179.146 147.68 179.146C142.389 179.146 137.841 177.104 133.942 173.113C130.137 169.122 128.188 162.346 128.188 152.878C128.188 145.823 129.023 139.883 130.787 134.963C134.035 125.588 140.069 120.947 148.794 120.947C155.106 120.947 159.468 122.618 161.975 125.867M156.869 169.029C158.726 166.523 159.654 163.552 159.654 160.118C159.654 157.24 158.819 154.456 157.148 151.857C155.477 149.258 152.507 147.958 148.144 147.958C145.081 147.958 142.389 148.979 140.162 151.021C137.934 153.063 136.727 156.126 136.727 160.211C136.727 163.831 137.748 166.801 139.883 169.214C142.018 171.628 144.895 172.834 148.608 172.834C152.321 172.834 155.106 171.535 156.962 169.029" fill="white"/>
<path d="M208.015 130.23C210.521 134.871 211.82 141.275 211.82 149.351C211.82 157.055 210.706 163.367 208.386 168.379C205.044 175.619 199.661 179.239 192.142 179.239C185.366 179.239 180.354 176.269 177.012 170.421C174.228 165.502 172.835 158.911 172.835 150.65C172.835 144.246 173.671 138.676 175.341 134.128C178.404 125.588 184.067 121.226 192.142 121.226C199.475 121.226 204.766 124.196 208.015 130.23ZM200.867 167.822C203.095 164.574 204.116 158.447 204.116 149.629C204.116 143.225 203.374 137.934 201.703 133.757C200.125 129.58 197.062 127.538 192.513 127.538C188.336 127.538 185.273 129.487 183.324 133.478C181.375 137.377 180.447 143.225 180.447 150.836C180.447 156.591 181.096 161.232 182.303 164.759C184.159 170.143 187.408 172.742 192.049 172.742C195.762 172.742 198.64 171.071 200.867 167.822Z" fill="white"/>
<path d="M152.32 43.9974L157.239 49.4739L162.159 54.9504L155.012 56.5284L147.771 58.0135L149.999 50.9591L152.32 43.9974Z" fill="white"/>
<path d="M146.009 59.5916L151.856 41.7698L164.387 55.693L146.009 59.5916ZM152.785 46.2252L149.443 56.4356L159.932 54.2079L152.785 46.2252Z" fill="white"/>
<path d="M151.857 241.894L150.001 249.041L148.237 256.189L142.946 251.083L137.656 245.978L144.71 243.936L151.857 241.894Z" fill="white"/>
<path d="M148.887 258.416L135.335 245.421L153.435 240.223L148.887 258.416ZM139.883 246.535L147.587 253.96L150.186 243.564L139.883 246.535Z" fill="white"/>
<path d="M216.088 118.441C212.932 118.441 210.426 115.842 210.426 112.779C210.426 109.716 213.025 107.117 216.088 107.117C219.152 107.117 221.751 109.716 221.751 112.779C221.751 115.842 219.152 118.441 216.088 118.441ZM216.088 108.88C213.954 108.88 212.19 110.644 212.19 112.779C212.19 114.914 213.954 116.677 216.088 116.677C218.223 116.677 219.987 114.914 219.987 112.779C219.987 110.644 218.223 108.88 216.088 108.88Z" fill="white"/>
<path d="M86.3254 227.32C63.12 208.199 49.8464 179.981 49.8464 150C49.8464 94.771 94.7722 49.8452 150.001 49.8452V52.1658C96.0717 52.1658 52.167 96.0705 52.167 150C52.167 179.332 65.162 206.807 87.8105 225.557L86.3254 227.32Z" fill="white"/>
<path d="M149.999 250.155V247.834C203.929 247.834 247.833 203.929 247.833 150C247.833 120.111 234.374 92.1718 210.983 73.5146L212.468 71.6582C236.416 90.7795 250.154 119.369 250.154 150C250.154 205.229 205.228 250.155 149.999 250.155Z" fill="white"/>
</g>
<defs>
<clipPath id="clip0_25_636">
<rect width="300" height="300" fill="white"/>
</clipPath>
</defs>
</svg>
