<svg width="300" height="301" viewBox="0 0 300 301" fill="none" xmlns="http://www.w3.org/2000/svg">
<g clip-path="url(#clip0_610_206)">
<path d="M149.948 0.802734C232.696 0.802734 300 68.1069 300 150.854C300 233.602 232.696 300.907 149.948 300.907V300.803C67.2004 300.803 -0.103516 233.498 -0.103516 150.854C-0.103294 68.2112 67.2006 0.802758 149.948 0.802734ZM149.948 8.62891C71.4788 8.62893 7.72288 72.3851 7.72266 150.854C7.72266 229.324 71.4787 292.977 149.948 292.977C228.418 292.977 292.175 229.22 292.175 150.854C292.175 72.4895 228.313 8.62891 149.948 8.62891ZM166.122 174.332C191.478 170.784 208.487 171.411 216.939 172.142L171.757 218.576C171.754 218.624 171.058 229.225 185.217 231.411L185.113 231.515C192.418 232.454 209.531 233.602 237.078 230.055C228.73 239.654 216.522 245.706 202.853 245.706C178.018 245.706 157.773 225.463 157.773 200.523C157.774 190.715 160.905 181.741 166.122 174.332ZM233.635 70.7129L73.252 231.096L71.374 229.218L231.757 68.9395L233.635 70.7129ZM202.957 155.235C227.896 155.236 248.14 175.479 248.14 200.418C248.14 209.392 245.426 217.844 240.939 224.835C214.957 228.591 197.531 227.966 188.87 227.235L234.053 180.801C234.053 180.801 234.783 170.157 220.592 167.966V167.861C213.392 167.027 196.905 165.774 170.4 169.113C178.644 160.557 190.122 155.235 202.957 155.235ZM96.9395 59.5488C121.879 59.5489 142.122 79.7924 142.122 104.731C142.122 126.436 126.679 144.696 106.227 148.975V104.731H111.235C119.374 104.731 126.053 98.0531 126.053 89.9141C126.053 81.7751 119.374 75.0969 111.235 75.0967C103.096 75.0967 96.418 81.7749 96.418 89.9141V94.9229H81.6006C71.7919 94.9229 63.7568 102.958 63.7568 112.767C63.757 122.575 71.792 130.609 81.6006 130.609V120.696C77.2181 120.696 73.6701 117.253 73.6699 112.767C73.6699 108.28 77.218 104.731 81.6006 104.731H96.418V149.914C71.7919 149.705 51.7568 129.671 51.7568 104.731C51.7568 79.7923 72.0003 59.5488 96.9395 59.5488ZM111.234 85.0088C114.052 85.0088 116.243 87.3045 116.243 90.0176C116.243 92.8349 113.947 95.0264 111.234 95.0264H106.226V90.0176C106.226 87.2003 108.417 85.0089 111.234 85.0088Z" fill="white"/>
</g>
<defs>
<clipPath id="clip0_610_206">
<rect width="300" height="300" fill="white" transform="translate(0 0.802734)"/>
</clipPath>
</defs>
</svg>
