<svg width="300" height="300" viewBox="0 0 300 300" fill="none" xmlns="http://www.w3.org/2000/svg">
<g clip-path="url(#clip0_613_559)">
<path d="M150 0C232.68 0 300 67.3196 300 150C300 232.68 232.68 300 150 300C67.3196 300 0 232.68 0 150C2.15448e-06 67.3196 67.3196 2.15503e-06 150 0ZM150 7.73242C71.5464 7.73242 7.73242 71.5464 7.73242 150C7.73242 228.454 71.5464 292.268 150 292.268C228.454 292.268 292.268 228.454 292.268 150C292.268 71.5464 228.454 7.73242 150 7.73242ZM92.7832 156.703C95.9791 183.301 117.216 204.435 144.021 207.219V242.683C97.6288 239.796 60.5158 202.992 57.2168 156.703H92.7832ZM242.783 156.592C239.484 202.262 203.402 238.757 157.938 242.571V206.901C183.814 203.396 204.124 182.674 207.217 156.695V156.592H242.783ZM144.021 92.6787C117.423 95.3592 96.1857 116.287 92.8867 142.782H57.2168C60.825 96.8029 97.835 60.2046 144.021 57.2148V92.6787ZM157.938 57.3154C203.299 61.13 239.278 97.4186 242.783 142.779H207.113C203.917 117.006 183.608 96.5937 157.938 92.9854V57.3154Z" fill="#1C1E28"/>
</g>
<defs>
<clipPath id="clip0_613_559">
<rect width="300" height="300" fill="white"/>
</clipPath>
</defs>
</svg>
