<svg width="300" height="300" viewBox="0 0 300 300" fill="none" xmlns="http://www.w3.org/2000/svg">
<g clip-path="url(#clip0_610_246)">
<path d="M150 0C232.68 0 300 67.3196 300 150C300 232.68 232.68 300 150 300C67.3197 300 0 232.68 0 150C2.15447e-06 67.3196 67.3197 0.000101573 150 0ZM150 7.73242C71.5465 7.73252 7.73242 71.5465 7.73242 150C7.73242 228.454 71.5465 292.267 150 292.268C228.454 292.268 292.269 228.454 292.269 150C292.269 71.5464 228.454 7.73242 150 7.73242ZM133.814 199.069C136.701 191.234 148.35 193.296 148.351 201.646V250.822C148.35 255.255 144.433 258.657 140 258.244C133.918 257.626 128.042 256.595 122.269 255.049C117.939 253.915 115.464 249.378 117.011 245.151L133.814 198.966V199.069ZM151.547 201.445C151.547 193.095 163.196 191.033 166.083 198.868L182.887 245.054C184.433 249.281 181.959 253.816 177.629 254.95C171.959 256.497 165.98 257.631 159.897 258.146C155.464 258.559 151.547 255.157 151.547 250.724V201.445ZM118.042 190.52C123.403 184.128 133.711 190.107 130.825 197.941L114.021 244.127C112.475 248.354 107.629 250.21 103.608 248.354C98.1445 245.777 92.8869 242.787 87.9385 239.385C84.3304 236.807 83.506 231.653 86.3926 228.251L118.042 190.52ZM169.072 197.84C166.186 189.902 176.496 184.025 181.856 190.417L213.506 228.149C216.392 231.655 215.67 236.706 211.959 239.283C207.011 242.685 201.753 245.675 196.289 248.252C192.165 250.108 187.423 248.252 185.877 244.025L169.072 197.84ZM106.083 177.111C113.299 172.988 120.928 182.059 115.567 188.451L83.918 226.08C81.1345 229.585 75.877 229.688 72.7842 226.492C68.5574 222.265 64.7425 217.626 61.2373 212.678V212.575C58.6601 208.967 59.6909 203.916 63.5049 201.647L106.083 177.111ZM184.33 188.557C178.969 182.062 186.598 172.99 193.814 177.217L236.393 201.752C240.207 204.02 241.237 209.072 238.66 212.681C235.258 217.629 231.34 222.268 227.113 226.495C224.02 229.587 218.866 229.484 215.979 226.082L184.33 188.453V188.557ZM195.464 174.33C188.248 170.206 192.269 159.073 200.516 160.516L248.97 169.072C253.299 169.794 255.979 174.227 254.846 178.557C253.196 184.433 251.134 190.103 248.66 195.567C246.805 199.588 241.856 201.237 238.042 198.97L195.361 174.33H195.464ZM99.5879 160.515C107.835 158.968 111.856 170.102 104.64 174.329L61.959 198.968C58.1447 201.236 53.1967 199.587 51.3408 195.566C48.8666 190.103 46.7017 184.432 45.1553 178.556C43.9182 174.226 46.5983 169.896 51.0312 169.071L99.4854 160.515H99.5879ZM41.7529 140.726C42.1653 136.396 46.1858 133.303 50.5156 134.024V134.128L98.9697 142.685C107.217 144.128 107.217 155.983 98.9697 157.427L50.5156 165.983C46.1858 166.705 42.1653 163.612 41.7529 159.282C41.5467 156.189 41.3408 153.2 41.3408 150.004C41.3408 146.808 41.4437 143.715 41.7529 140.726ZM249.485 133.924C253.815 133.202 257.836 136.295 258.248 140.625C258.454 143.718 258.66 146.707 258.66 149.903C258.66 153.099 258.557 156.192 258.248 159.182C257.836 163.511 253.815 166.604 249.485 165.883V165.779L201.031 157.223C192.784 155.779 192.784 143.924 201.031 142.48L249.485 133.924ZM237.938 100.928C241.753 98.6598 246.701 100.309 248.557 104.329C251.031 109.793 253.196 115.464 254.742 121.34C255.979 125.67 253.299 129.999 248.866 130.824L200.413 139.381C192.166 140.927 188.145 129.793 195.361 125.566L238.041 100.928H237.938ZM51.2373 104.329C53.093 100.309 58.0421 98.6597 61.8564 100.928L104.536 125.566H104.434C111.65 129.69 107.629 140.824 99.3818 139.381L50.9287 130.824C46.5989 130.103 43.9179 125.67 45.0518 121.34C46.7012 115.464 48.7631 109.793 51.2373 104.329ZM215.979 73.9209C218.763 70.4158 224.02 70.3131 227.113 73.5088C231.34 77.7356 235.155 82.3748 238.66 87.3232V87.4258C241.237 91.034 240.207 96.0864 236.393 98.3545L193.814 122.89C186.598 127.013 178.969 117.942 184.33 111.55L215.979 73.9209ZM72.8867 73.5029C75.9794 70.4102 81.1339 70.5132 84.0205 73.915L115.671 111.544V111.44C121.032 117.935 113.402 127.008 106.186 122.781L63.6084 98.2451C59.794 95.9771 58.7635 90.9256 61.3408 87.3174C64.7428 82.369 68.66 77.7297 72.8867 73.5029ZM103.608 51.6514C107.732 49.7957 112.474 51.6511 114.021 55.8779L130.825 102.063C133.712 110.002 123.402 115.878 118.041 109.486L86.3916 71.7539C83.5053 68.2488 84.2272 63.1974 87.9385 60.6201C92.8869 57.2181 98.1446 54.2287 103.608 51.6514ZM185.877 55.8779C187.423 51.6511 192.268 49.7957 196.289 51.6514C201.753 54.2287 207.011 57.2181 211.959 60.6201C215.567 63.1974 216.392 68.3518 213.506 71.7539L181.856 109.486C176.496 115.878 166.186 109.898 169.072 102.063L185.877 55.8779ZM140 41.8545C144.433 41.4421 148.35 44.8436 148.351 49.2764V98.4521C148.35 106.803 136.701 108.864 133.814 101.029L117.011 54.8438C115.464 50.6169 117.939 46.0813 122.269 44.9473C127.939 43.4009 133.918 42.2664 140 41.751V41.8545ZM151.547 49.1777C151.547 44.7447 155.464 41.3425 159.897 41.7549C165.98 42.3734 171.856 43.4039 177.629 44.9502C181.959 46.0842 184.433 50.6209 182.887 54.8477L166.083 101.033V100.93C163.196 108.765 151.547 106.703 151.547 98.3525V49.1777Z" fill="white"/>
</g>
<defs>
<clipPath id="clip0_610_246">
<rect width="300" height="300" fill="white"/>
</clipPath>
</defs>
</svg>
