<svg width="300" height="300" viewBox="0 0 300 300" fill="none" xmlns="http://www.w3.org/2000/svg">
<g clip-path="url(#clip0_613_517)">
<path d="M150 0.00878906C232.7 0.00878906 300 67.3092 300 150.009C300 232.708 232.7 300.009 150 300.009C67.3004 300.009 0 232.708 0 150.009C2.40715e-06 67.3092 67.3004 0.00879147 150 0.00878906ZM150 7.73047C71.556 7.73047 7.72168 71.5648 7.72168 150.009C7.72168 228.453 71.556 292.287 150 292.287C228.444 292.287 292.278 228.453 292.278 150.009C292.278 71.5648 228.444 7.73047 150 7.73047ZM196.987 162.645C219.011 162.645 236.911 180.544 236.911 202.524C236.911 221.697 223.311 237.754 205.235 241.571V202.568H209.623C216.862 202.568 222.74 196.733 222.74 189.494C222.74 182.255 216.818 176.377 209.623 176.377C202.428 176.377 196.549 182.255 196.549 189.494V193.882H183.475C174.788 193.882 167.725 200.945 167.725 209.632C167.725 218.319 174.788 225.382 183.475 225.382V216.695C179.614 216.695 176.455 213.58 176.455 209.676C176.455 205.771 179.614 202.612 183.475 202.612H196.549V242.448C174.744 242.229 157.107 224.548 157.107 202.568C157.107 180.588 175.007 162.688 197.031 162.688L196.987 162.645ZM205.762 92.8857L83.8398 214.808L81.998 212.965L203.919 91.0869L205.762 92.8857ZM209.667 185.151C212.08 185.152 214.054 187.126 214.054 189.539C214.053 191.952 212.08 193.926 209.667 193.926H205.279V189.539C205.279 187.126 207.254 185.151 209.667 185.151ZM64.9316 100.696C82.4365 104.82 94.6766 124.256 89.4121 142.945C86.7359 141.41 84.1031 139.918 81.5146 138.339C81.2517 138.163 81.2081 137.417 81.252 136.935C81.6467 133.469 81.2961 130.047 80.2871 126.669C80.1994 126.318 80.0232 126.011 79.8916 125.572C78.0929 126.625 76.3379 127.591 74.627 128.6C70.1959 131.144 65.7651 133.689 61.3779 136.277C60.72 136.672 60.1931 136.76 59.5352 136.277C58.3506 135.488 56.6836 135.092 56.0693 134.039C55.4552 132.986 55.9374 131.319 55.8496 129.915C55.8058 129.082 56.1127 128.643 56.8145 128.204C62.5617 124.958 68.2654 121.623 73.9688 118.333C74.3372 118.128 74.7432 117.884 75.2236 117.567C72.5951 114.463 69.5303 112.275 65.9844 110.743C65.107 110.392 64.8878 109.91 64.9316 109.032C64.9755 106.268 64.9316 103.504 64.9316 100.696ZM126.046 100.697V109.691C126.045 109.998 125.519 110.437 125.168 110.612C122.097 111.972 119.377 113.772 117.052 116.141C116.613 116.579 116.262 117.018 115.735 117.544C117.885 118.772 119.904 119.957 121.966 121.142C126.09 123.511 130.257 125.924 134.425 128.293C135.039 128.644 135.39 129.039 135.303 129.784C135.259 130.355 135.215 130.926 135.303 131.452C135.654 133.514 134.732 134.523 132.978 135.532C131.267 136.541 130.038 136.497 128.327 135.488C123.15 132.329 117.842 129.389 112.577 126.362C112.138 126.099 111.699 125.88 110.909 125.441C110.47 127.723 109.944 129.829 109.725 131.979C109.549 133.777 109.812 135.576 109.812 137.375C109.812 137.726 109.681 138.208 109.418 138.34C106.829 139.875 104.241 141.367 101.608 142.902C96.4755 125.704 107.225 105.304 126.09 100.653L126.046 100.697ZM95.3789 65.7744C96.6073 65.7746 97.8361 67.003 99.0645 67.6172C99.8099 67.9682 100.073 68.4947 100.073 69.3281V90.6943C104.066 89.9485 107.488 88.4561 110.559 86.1748C111.392 85.5608 111.962 85.6046 112.752 86.0869C115.077 87.4908 117.446 88.8509 119.859 90.2109C107.838 103.153 84.5857 104.25 70.9414 90.2109C73.6176 88.6754 76.2505 87.1402 78.8828 85.6924C79.1461 85.561 79.7164 85.8246 80.0234 86.0439C83.0067 88.2375 86.2972 89.7728 89.9385 90.5625C90.1578 90.6064 90.4215 90.6066 90.7725 90.6943V69.416C90.7725 68.5386 90.9915 68.012 91.7812 67.6172C93.0097 67.003 94.1944 65.7744 95.3789 65.7744Z" fill="#1C1E28"/>
</g>
<defs>
<clipPath id="clip0_613_517">
<rect width="300" height="300" fill="white"/>
</clipPath>
</defs>
</svg>
