<svg width="300" height="300" viewBox="0 0 300 300" fill="none" xmlns="http://www.w3.org/2000/svg">
<g clip-path="url(#clip0_613_526)">
<path d="M150.002 0.00878906C232.683 0.00878906 300.004 67.3292 300.004 150.011C300.004 232.692 232.683 300.013 150.002 300.013C67.3205 300.013 0 232.692 0 150.011C3.41207e-05 67.3293 67.3205 0.00882319 150.002 0.00878906ZM150.002 7.74121C71.5473 7.74125 7.73246 71.5561 7.73242 150.011C7.73242 228.465 71.5473 292.28 150.002 292.28C228.457 292.28 292.271 228.465 292.271 150.011C292.271 71.5561 228.457 7.74121 150.002 7.74121ZM199.693 63.2041C208.25 63.2042 215.261 70.2147 215.261 78.7715V228.052C215.261 236.609 208.25 243.619 199.693 243.619H103.3C92.4751 243.619 83.6094 234.752 83.6094 223.928V82.8955C83.6094 72.0708 92.4751 63.2043 103.3 63.2041H199.693ZM88.7637 179.89V223.928C88.7637 231.969 95.2587 238.465 103.3 238.465H199.693C205.467 238.465 210.105 233.825 210.105 228.052V98.9951L88.7637 179.89ZM103.3 68.3594C95.2587 68.3596 88.7637 74.8543 88.7637 82.8955V176.792L210.105 95.8975V78.7715C210.105 72.9983 205.467 68.3594 199.693 68.3594H103.3Z" fill="#1C1E28"/>
</g>
<defs>
<clipPath id="clip0_613_526">
<rect width="300" height="300" fill="white"/>
</clipPath>
</defs>
</svg>
