<svg width="300" height="300" viewBox="0 0 300 300" fill="none" xmlns="http://www.w3.org/2000/svg">
<g clip-path="url(#clip0_613_531)">
<path d="M150.002 0.00976562C232.674 0.00976562 300.004 67.2376 300.004 150.011C300.004 232.784 232.674 300.013 150.002 300.013V299.911C67.3298 299.911 0.000976562 232.683 0.000976562 150.011C0.00118985 67.3387 67.3299 0.00997897 150.002 0.00976562ZM150.002 7.58008C71.4686 7.58029 7.5715 71.4774 7.57129 150.011C7.57129 228.544 71.4684 292.441 150.002 292.441C228.536 292.441 292.433 228.544 292.433 150.011C292.432 71.4772 228.536 7.58008 150.002 7.58008ZM150.002 78.4375C160.601 78.4375 169.282 87.1188 169.282 97.7178V101.856H169.483V174.939C173.824 177.867 177.559 181.904 180.184 186.548C183.01 191.595 184.625 197.348 184.625 203.506C184.625 212.994 180.79 221.676 174.531 227.935C168.273 234.193 159.591 238.028 150.103 238.028C140.614 238.028 131.933 234.193 125.675 227.935C119.416 221.676 115.58 212.995 115.58 203.506C115.58 197.349 117.195 191.595 120.021 186.548C122.646 181.905 126.28 177.968 130.722 174.939V97.7178C130.722 87.1188 139.403 78.4375 150.002 78.4375ZM149.901 84.8984C142.835 84.8984 137.081 90.6518 137.081 97.7178V176.756C137.081 177.967 136.375 179.078 135.365 179.583C131.227 182.107 127.794 185.64 125.473 189.778C123.151 193.816 121.839 198.56 121.839 203.607C121.839 211.38 124.969 218.446 130.016 223.493C135.164 228.54 142.129 231.669 149.901 231.669C157.674 231.669 164.74 228.54 169.787 223.493C174.834 218.345 177.963 211.38 177.963 203.607C177.963 198.56 176.651 193.816 174.329 189.778C172.007 185.539 168.475 182.005 164.336 179.481C163.327 178.876 162.821 177.866 162.821 176.756H162.721V128.4H155.554C153.737 128.4 152.323 126.987 152.323 125.17C152.323 123.353 153.737 121.94 155.554 121.939H162.721V115.279H155.554C153.737 115.279 152.323 113.867 152.323 112.05C152.323 110.233 153.737 108.819 155.554 108.819H162.721V102.563H155.554C153.737 102.563 152.323 101.15 152.323 99.333C152.323 97.5161 153.737 96.1026 155.554 96.1025H162.619C161.822 89.7957 156.42 84.8987 149.901 84.8984ZM150.104 137.692C152.829 137.693 155.15 139.913 155.15 142.739V186.456C162.563 188.739 167.97 195.682 167.97 203.809C167.97 213.903 159.894 221.978 149.9 221.978C139.907 221.977 131.832 213.802 131.832 203.809C131.832 195.441 137.436 188.475 145.056 186.335V142.739C145.056 140.014 147.277 137.692 150.104 137.692Z" fill="#1C1E28"/>
</g>
<defs>
<clipPath id="clip0_613_531">
<rect width="300" height="300" fill="white"/>
</clipPath>
</defs>
</svg>
