<svg width="300" height="300" viewBox="0 0 300 300" fill="none" xmlns="http://www.w3.org/2000/svg">
<g clip-path="url(#clip0_610_183)">
<path d="M150.004 0C232.684 0 300.004 67.3196 300.004 150C300.004 232.68 232.684 300 150.004 300C67.3235 300 0.00390625 232.68 0.00390625 150C0.0039084 67.3196 67.3235 2.15503e-06 150.004 0ZM150.004 7.73242C71.5503 7.73242 7.73633 71.5464 7.73633 150C7.73633 228.454 71.5503 292.268 150.004 292.268C228.458 292.268 292.271 228.454 292.271 150C292.271 71.5464 228.458 7.73242 150.004 7.73242ZM109.076 152.374C116.705 152.374 122.891 158.56 122.891 166.188V225.467C122.891 233.096 116.705 239.281 109.076 239.281H88.9736C81.3448 239.281 75.1592 233.096 75.1592 225.467V166.188C75.1592 158.56 81.3448 152.374 88.9736 152.374H109.076ZM162.685 103.506C170.313 103.506 176.499 109.692 176.499 117.32V225.465C176.499 233.093 170.313 239.279 162.685 239.279H142.581C134.952 239.279 128.767 233.094 128.767 225.465V117.32C128.767 109.691 134.952 103.506 142.581 103.506H162.685ZM215.674 54.9492C223.303 54.9492 229.488 61.1348 229.488 68.7637V225.465C229.488 233.094 223.303 239.279 215.674 239.279H195.571C187.942 239.279 181.757 233.094 181.757 225.465V68.7637C181.757 61.1348 187.942 54.9492 195.571 54.9492H215.674ZM88.8701 155.055C82.6846 155.055 77.6328 160.106 77.6328 166.292V225.57C77.633 231.756 82.6848 236.807 88.8701 236.807H108.974C115.159 236.806 120.211 231.756 120.211 225.57V166.292C120.211 160.107 115.159 155.055 108.974 155.055H88.8701ZM142.581 106.083C136.396 106.083 131.344 111.135 131.344 117.32V225.465C131.344 231.65 136.396 236.702 142.581 236.702H162.685C168.87 236.702 173.921 231.65 173.921 225.465V117.32C173.921 111.135 168.87 106.083 162.685 106.083H142.581ZM195.468 57.5264C189.282 57.5265 184.23 62.5782 184.23 68.7637V225.465C184.231 231.65 189.282 236.702 195.468 236.702H215.571C221.757 236.702 226.809 231.65 226.809 225.465V68.7637C226.809 62.5782 221.757 57.5265 215.571 57.5264H195.468Z" fill="white"/>
</g>
<defs>
<clipPath id="clip0_610_183">
<rect width="300" height="300" fill="white"/>
</clipPath>
</defs>
</svg>
