<svg width="300" height="300" viewBox="0 0 300 300" fill="none" xmlns="http://www.w3.org/2000/svg">
<g clip-path="url(#clip0_38_375)">
<path d="M79.1752 107.009C56.8041 107.009 41.5464 122.576 41.5464 149.587C41.5464 176.597 56.8041 192.886 79.1752 192.886C101.546 192.886 116.804 176.597 116.804 149.587C116.804 122.576 101.546 107.009 79.1752 107.009ZM79.1752 176.803C67.835 176.803 60.7216 166.288 60.7216 149.69C60.7216 133.092 67.835 123.298 79.1752 123.298C90.5155 123.298 97.6289 133.092 97.6289 149.69C97.6289 166.288 90.5155 176.803 79.1752 176.803Z" fill="#1C1E28"/>
<path d="M186.701 108.555H122.371V124.225H145.155V191.441H163.814V124.225H186.701V108.555Z" fill="#1C1E28"/>
<path d="M238.557 191.441H258.351L232.371 108.555H210L184.021 191.441H203.196L208.351 171.751H233.608L238.66 191.441H238.557ZM211.959 157.111L213.918 149.483C216.186 141.235 218.454 131.544 220.412 122.781H220.928C223.093 131.441 225.361 141.235 227.629 149.483L229.588 157.111H211.856H211.959Z" fill="#1C1E28"/>
<path d="M150 300C67.3196 300 0 232.68 0 150C0 67.3196 67.3196 0 150 0C232.68 0 300 67.3196 300 150C300 232.68 232.68 300 150 300ZM150 7.73196C71.5464 7.73196 7.73196 71.5464 7.73196 150C7.73196 228.454 71.5464 292.268 150 292.268C228.454 292.268 292.268 228.454 292.268 150C292.268 71.5464 228.454 7.73196 150 7.73196Z" fill="#1C1E28"/>
</g>
<defs>
<clipPath id="clip0_38_375">
<rect width="300" height="300" fill="white"/>
</clipPath>
</defs>
</svg>
