<svg xmlns="http://www.w3.org/2000/svg" xmlns:xlink="http://www.w3.org/1999/xlink" width="300" zoomAndPan="magnify" viewBox="0 0 224.87999 225" height="300" preserveAspectRatio="xMidYMid meet" version="1.2"><defs><clipPath id="480be9a0b2"><path d="M 0 0.0585938 L 224.761719 0.0585938 L 224.761719 224.9375 L 0 224.9375 Z M 0 0.0585938 "/></clipPath></defs><g id="c100ad3b76"><g clip-rule="nonzero" clip-path="url(#480be9a0b2)"><path style=" stroke:none;fill-rule:nonzero;fill:#ffffff;fill-opacity:1;" d="M 112.417969 0.0585938 C 174.414062 0.0585938 224.839844 50.484375 224.839844 112.480469 C 224.839844 174.476562 174.414062 224.898438 112.417969 224.898438 L 110.96875 224.972656 C 49.636719 224.191406 0 173.992188 0 112.480469 C 0 50.484375 50.421875 0.0585938 112.417969 0.0585938 Z M 112.417969 6.257812 C 53.894531 6.257812 6.199219 53.953125 6.199219 112.480469 C 6.199219 171.003906 53.894531 218.699219 112.417969 218.699219 C 170.941406 218.699219 218.640625 171.003906 218.640625 112.480469 C 218.640625 53.953125 171.023438 6.257812 112.417969 6.257812 Z M 118.453125 139.015625 C 125.148438 140.832031 131.183594 145.214844 134.902344 151.746094 C 138.703125 158.191406 139.449219 165.632812 137.710938 172.328125 L 131.101562 168.523438 C 131.597656 165.21875 131.347656 161.828125 130.191406 158.605469 L 114.816406 167.449219 L 111.179688 165.382812 L 111.179688 161.25 L 126.554688 152.40625 C 124.40625 149.761719 121.511719 147.777344 118.453125 146.621094 Z M 166.394531 146.621094 C 163.335938 147.859375 160.527344 149.761719 158.296875 152.40625 L 173.671875 161.25 L 173.671875 165.382812 L 170.035156 167.449219 L 154.660156 158.605469 C 153.5 161.828125 153.253906 165.21875 153.75 168.523438 L 147.21875 172.328125 C 145.398438 165.632812 146.226562 158.273438 149.945312 151.746094 C 153.664062 145.214844 159.699219 140.832031 166.394531 139.015625 Z M 160.34375 68.28125 L 58.699219 169.925781 L 57.238281 168.464844 L 158.882812 66.820312 Z M 146.144531 113.472656 L 146.144531 131.160156 C 149.53125 130.585938 152.589844 129.09375 155.238281 127.03125 L 161.851562 130.832031 C 156.890625 135.707031 150.113281 138.765625 142.589844 138.765625 C 135.066406 138.765625 128.289062 135.707031 123.328125 130.832031 L 129.8125 127.054688 C 132.367188 129.109375 135.496094 130.585938 138.871094 131.160156 L 138.871094 113.472656 L 142.507812 111.40625 Z M 129.859375 127.03125 L 129.8125 127.054688 C 129.800781 127.046875 129.789062 127.039062 129.777344 127.03125 Z M 56.871094 69.910156 C 72.90625 67.679688 83.652344 68.007812 89.027344 68.503906 L 60.34375 97.933594 C 60.339844 97.976562 59.890625 104.425781 68.441406 105.964844 L 68.9375 106.117188 C 73.566406 106.695312 84.398438 107.4375 101.835938 105.207031 C 96.628906 111.242188 88.859375 115.125 80.179688 115.125 C 64.394531 115.125 51.582031 102.3125 51.582031 86.527344 C 51.582031 80.324219 53.5625 74.621094 56.871094 69.910156 Z M 80.097656 57.84375 C 95.886719 57.84375 108.699219 70.65625 108.699219 86.441406 C 108.699219 92.144531 107.046875 97.4375 104.152344 101.898438 C 87.621094 104.214844 76.542969 103.882812 71.089844 103.386719 L 99.773438 73.960938 C 99.773438 73.925781 100.226562 67.46875 91.671875 65.929688 L 91.257812 65.777344 C 86.710938 65.28125 76.210938 64.539062 59.433594 66.605469 C 64.640625 61.230469 71.996094 57.84375 80.097656 57.84375 Z M 80.097656 57.84375 "/></g></g></svg>