<svg width="300" height="300" viewBox="0 0 300 300" fill="none" xmlns="http://www.w3.org/2000/svg">
<path d="M150.041 3C231.102 3.00004 297.082 68.9758 297.082 150.031C297.082 231.087 231.102 297.062 150.041 297.062V297.157C68.9798 297.157 3.00007 231.182 3 150.126C3 69.0704 68.9798 3 150.041 3ZM150.041 10.0693C72.8445 10.0693 10.0695 72.8401 10.0693 150.031C10.0693 227.223 72.8444 289.994 150.041 289.994C227.238 289.994 290.013 227.223 290.013 150.031C290.013 72.8401 227.238 10.0694 150.041 10.0693ZM73.0332 200.173C73.0333 207.524 79.0652 213.556 86.417 213.557H127.325V215.912H86.417C77.7456 215.912 70.6769 208.844 70.6768 200.173V168.41H73.0332V200.173ZM225.353 200.173C225.352 208.844 218.283 215.912 209.611 215.912H168.704V213.557H209.611C216.963 213.557 222.996 207.524 222.996 200.173V168.41H225.353V200.173ZM140.71 127.694C151.361 126.941 162.012 132.219 167.667 142.021C175.679 155.875 170.966 173.5 157.11 181.512C145.517 188.203 131.284 185.941 122.235 176.893C126.571 176.61 130.813 175.385 134.771 173.123C148.533 165.112 153.34 147.487 145.328 133.632C144.256 131.653 142.895 129.89 141.435 128.344L140.71 127.694ZM127.419 98.3818H86.5117C79.1597 98.3818 73.127 104.414 73.127 111.766V143.528H70.7705V111.766C70.7706 103.095 77.8401 96.0264 86.5117 96.0264H127.419V98.3818ZM209.611 96.0264C218.283 96.0264 225.352 103.095 225.353 111.766V143.528H222.996V111.766C222.996 104.414 216.963 98.3818 209.611 98.3818H168.704V96.0264H209.611Z" fill="white"/>
</svg>
