<svg width="300" height="300" viewBox="0 0 300 300" fill="none" xmlns="http://www.w3.org/2000/svg">
<g clip-path="url(#clip0_443_448)">
<path d="M149.999 0C232.719 4.81888e-05 299.998 67.2791 299.998 149.999C299.998 232.719 232.719 299.998 149.999 299.998L148.063 300.096C66.2321 299.054 5.48041e-05 232.073 0 149.999C0 67.279 67.279 0 149.999 0ZM149.999 8.27246C71.9113 8.27246 8.27246 71.9114 8.27246 149.999C8.27252 228.087 71.9114 291.726 149.999 291.726C228.087 291.726 291.726 228.087 291.726 149.999C291.726 71.9114 228.197 8.27251 149.999 8.27246ZM150.109 39.0439C175.697 39.0439 196.543 59.8896 196.543 85.3672H190.697C190.697 63.0881 172.499 44.8896 150.22 44.8896C127.941 44.8897 109.742 63.0881 109.742 85.3672V124.188H190.366L190.587 85.3691H196.433L196.212 124.188C203.16 124.188 208.895 129.923 208.896 136.871V229.297C208.896 236.356 203.271 241.981 196.212 241.981H103.786C96.8377 241.981 91.1025 236.356 91.1025 229.297V136.871C91.1027 129.96 96.7771 124.249 103.676 124.188V85.3672C103.676 59.7793 124.521 39.044 150.109 39.0439ZM103.896 130.144C100.147 130.144 97.0587 133.232 97.0586 136.981V229.407C97.0586 233.157 100.147 236.246 103.896 236.246H196.322C200.072 236.246 203.16 233.157 203.16 229.407V136.981C203.16 133.232 200.072 130.144 196.322 130.144H103.896ZM177.793 165.551L146.029 197.315L128.823 182.646L130.588 180.551L145.919 193.565L175.918 163.565L177.793 165.551Z" fill="white"/>
</g>
<defs>
<clipPath id="clip0_443_448">
<rect width="300" height="300" fill="white"/>
</clipPath>
</defs>
</svg>
