<svg width="300" height="300" viewBox="0 0 300 300" fill="none" xmlns="http://www.w3.org/2000/svg">
<g clip-path="url(#clip0_443_73)">
<path d="M150 0C232.727 2.297e-05 300 67.2734 300 150C300 232.727 232.727 300 150 300C67.2734 300 2.29759e-05 232.727 0 150C0 67.2734 67.2734 0 150 0ZM150 7.72656C71.6003 7.72656 7.72656 71.6003 7.72656 150C7.72659 228.4 71.6003 292.273 150 292.273C228.4 292.273 292.273 228.4 292.273 150C292.273 71.6003 228.503 7.72659 150 7.72656ZM73.6602 226.441H92.6162V229.017H71.085V207.382H73.6602V226.441ZM229.018 229.017H207.383V226.441H226.442V207.382H229.018V229.017ZM132.28 155.046C133.517 156.179 134.547 157.21 135.577 158.034C137.431 159.579 139.286 161.021 141.14 162.566C142.17 163.494 143.097 164.421 144.024 165.451C144.23 165.657 144.127 166.172 144.024 166.481C141.964 172.457 139.801 178.329 137.74 184.201C134.959 192.031 132.074 199.963 129.189 207.793C128.571 209.441 127.747 211.09 126.717 212.636C125.687 214.181 123.935 215.005 122.081 215.211C117.342 215.829 114.045 212.12 113.53 208.617C113.324 207.175 113.942 205.527 114.457 204.085C115.796 200.17 117.342 196.255 118.682 192.34C120.742 186.571 122.905 180.802 124.966 174.93C126.717 170.088 128.469 165.245 130.117 160.403C130.735 158.652 131.456 156.9 132.177 155.046H132.28ZM144.024 113.324C146.6 113.324 149.176 113.839 151.854 114.148C153.503 114.354 155.151 114.457 156.594 115.487C158.448 116.826 159.375 118.578 159.89 120.741C160.405 123.008 159.89 125.172 159.478 127.438C159.169 129.19 158.963 131.044 158.757 132.898C158.448 135.371 158.036 137.843 157.624 140.315C157.315 142.17 157.108 144.128 156.902 145.982C156.593 147.837 156.387 149.691 156.078 151.442C156.078 151.751 156.079 152.163 156.182 152.369C158.036 155.357 159.89 158.345 161.744 161.332C164.732 166.277 167.72 171.222 170.811 176.064C172.665 179.052 173.386 182.142 172.768 185.542C172.562 186.572 172.562 187.706 172.562 188.839C172.355 192.135 172.15 195.329 171.841 198.626C171.532 201.923 171.428 205.322 170.913 208.619C170.398 211.71 168.647 214.182 164.629 215.109C160.405 216.139 155.461 211.607 155.77 207.692C156.079 204.396 156.387 201.098 156.696 197.802C156.902 195.741 157.006 193.784 157.212 191.724C157.418 189.251 157.727 186.676 157.83 184.203C157.83 183.688 157.418 183.173 157.212 182.761C153.709 177.095 150.412 171.222 146.601 165.659C145.055 163.29 142.685 161.435 140.625 159.375C138.668 157.418 136.504 155.666 134.547 153.709C132.692 151.855 132.898 149.588 133.311 147.321C133.62 145.261 133.929 143.2 134.135 141.14C134.444 138.77 134.856 136.504 135.165 134.237C135.371 132.795 135.577 131.456 135.783 129.808V129.704C133.929 130.94 132.28 132.074 130.632 133.207C129.705 133.825 128.674 134.547 127.747 135.165C126.305 136.092 126.099 137.843 125.584 139.285C123.73 144.127 121.978 148.97 120.124 153.812C119.3 155.975 117.754 157.314 115.385 157.417C111.676 157.623 109.306 153.708 110.646 150.103C112.397 145.57 114.149 140.934 115.797 136.401C116.518 134.444 117.033 132.486 117.96 130.734C118.578 129.601 119.712 128.571 120.845 127.747C127.232 123.214 133.62 118.784 140.007 114.354C141.14 113.633 142.685 113.324 144.024 113.324ZM163.038 124.454C165.143 128.563 167.148 132.481 168.956 136.399C169.677 137.945 170.708 139.078 172.253 139.799C176.374 141.962 180.494 144.229 184.615 146.495C185.851 147.216 187.191 147.937 188.324 148.864C189.973 150.101 190.075 151.955 189.663 153.81C189.251 155.767 187.809 156.797 185.955 157.312C184.513 157.725 183.379 157.312 182.04 156.694C176.992 153.81 171.841 151.028 166.689 148.246C164.217 146.907 162.053 145.362 160.92 142.478C160.405 141.241 160.92 140.314 160.92 139.181C161.023 137.12 161.435 135.163 161.744 133.103C161.95 131.351 162.259 129.496 162.568 127.745C162.758 126.702 162.862 125.658 163.038 124.454ZM163.084 124.14C163.068 124.246 163.053 124.351 163.038 124.454C162.985 124.35 162.932 124.244 162.878 124.14H163.084ZM149.588 84.6826C157.314 84.6826 162.465 90.4516 162.98 96.8389C163.599 105.596 156.593 111.468 149.176 111.262C142.479 111.056 136.504 105.493 136.504 97.6631C136.504 90.9699 141.995 84.7762 149.34 84.6826H149.588ZM92.6162 73.6592H73.6602V92.6152H71.085V71.084H92.6162V73.6592ZM229.018 92.6152H226.442V73.6592H207.383V71.084H229.018V92.6152Z" fill="white"/>
</g>
<defs>
<clipPath id="clip0_443_73">
<rect width="300" height="300" fill="white"/>
</clipPath>
</defs>
</svg>
