<svg width="300" height="300" viewBox="0 0 300 300" fill="none" xmlns="http://www.w3.org/2000/svg">
<g clip-path="url(#clip0_443_114)">
<path d="M150.411 0C233.131 0.204616 300.207 67.6899 300.002 150.41C299.9 190.39 284.153 227.915 255.728 256.238C227.405 284.459 189.879 299.899 150.104 299.899L150.001 300.002H149.592C109.613 299.9 72.0864 284.153 43.7632 255.728C15.44 227.2 -0.101749 189.469 0.000501332 149.592C0.205002 66.9738 67.4857 0 150.001 0H150.411ZM150.001 7.66895C71.678 7.66895 7.87395 71.2683 7.66945 149.592C7.5672 187.526 22.2914 223.211 49.1831 250.308C76.0748 277.404 111.658 292.231 149.592 292.333H150.001C187.732 292.333 223.315 277.609 250.309 250.819C277.303 223.928 292.231 188.242 292.334 150.41C292.538 71.9845 228.939 7.87356 150.411 7.66895H150.001ZM182.209 145.401C184.357 145.401 186.198 147.14 186.198 149.39V198.571C186.198 199.389 186.811 200.003 187.629 200.003H193.559C195.195 200.003 196.627 200.923 197.241 202.457C197.854 203.991 197.547 205.627 196.32 206.752L174.439 228.326C173.723 229.042 172.701 229.451 171.678 229.451H171.473C170.451 229.451 169.428 229.042 168.712 228.326L146.832 206.752C145.707 205.627 145.297 203.991 145.911 202.457C146.524 200.923 147.956 200.003 149.592 200.003H155.522C156.34 200.003 156.954 199.389 156.954 198.571V149.39C156.954 147.242 158.692 145.401 160.942 145.401H182.209ZM124.438 144.685C125.972 143.151 128.426 143.151 129.959 144.685L151.841 166.26C152.966 167.384 153.375 169.02 152.761 170.554C152.148 172.087 150.717 173.008 149.081 173.008H143.15C142.332 173.008 141.718 173.622 141.718 174.439V223.622C141.718 225.769 139.98 227.609 137.731 227.609H116.667C114.52 227.609 112.679 225.871 112.679 223.622V174.439C112.679 173.622 112.066 173.008 111.248 173.008H105.318C103.682 173.008 102.25 172.087 101.636 170.554C101.023 169.02 101.33 167.384 102.557 166.26L124.438 144.685ZM160.737 148.061C159.919 148.061 159.305 148.674 159.305 149.492V198.674C159.305 200.821 157.567 202.662 155.318 202.662H149.387C148.467 202.662 148.16 203.377 148.058 203.479C148.058 203.684 147.751 204.4 148.365 205.014L157.875 214.421H158.181L170.553 226.588C171.064 227.099 171.984 227.099 172.496 226.588L194.377 205.014C194.991 204.4 194.786 203.684 194.684 203.479C194.684 203.275 194.275 202.662 193.355 202.662H187.424C185.277 202.662 183.437 200.923 183.437 198.674V149.492C183.437 148.674 182.823 148.061 182.005 148.061H160.737ZM127.301 146.116C127.301 146.116 126.586 146.219 126.279 146.525L104.397 168.1C103.784 168.713 103.988 169.429 104.09 169.634C104.09 169.838 104.499 170.554 105.419 170.554H111.35C113.497 170.554 115.338 172.292 115.338 174.542V223.724C115.338 224.542 115.951 225.155 116.769 225.155H138.038C138.856 225.155 139.469 224.542 139.469 223.724V174.542C139.469 172.395 141.207 170.554 143.457 170.554H149.387C150.307 170.554 150.614 169.838 150.716 169.634C150.716 169.429 151.023 168.713 150.41 168.1L128.528 146.525C128.516 146.517 127.91 146.116 127.505 146.116H127.301ZM202.353 197.341L202.149 197.136H202.353V197.341ZM146.218 74.0273C161.249 68.8127 177.711 70.6532 191.413 79.2422C205.012 87.729 214.01 101.533 215.953 117.177V117.586C215.953 117.893 216.157 118.404 216.055 118.812C215.851 121.266 216.668 122.187 219.94 123.209C237.425 128.424 248.877 145.909 246.423 163.905C243.867 183.026 228.223 196.727 208.386 197.136H202.353V194.784H208.488C227.302 194.375 241.617 181.798 244.071 163.7C246.32 146.931 235.687 130.674 219.327 125.766C216.361 124.845 213.294 123.516 213.601 118.71V118.199C213.601 117.995 213.601 117.79 213.499 117.586C211.658 102.657 203.171 89.569 190.185 81.4912C177.097 73.4137 161.453 71.5728 147.138 76.583C135.073 80.7753 125.87 88.4448 119.019 99.999L118.406 101.021L117.383 100.51C109.203 96.3176 100.512 96.1133 92.8433 99.8965C85.5836 103.475 80.3685 110.428 78.937 118.506C78.4258 121.369 76.9947 122.596 74.9497 123.618C58.0785 132.309 50.3079 151.43 56.4429 169.222C61.8621 184.866 76.1772 194.683 93.7642 194.683H96.2173V197.238H93.7642C75.0525 197.238 59.8171 186.809 53.9888 170.04C47.4448 151.328 55.9317 130.469 73.7232 121.369C75.2566 120.551 75.9724 119.937 76.3814 117.995C78.0173 109.202 83.743 101.533 91.7183 97.5449C99.5914 93.6595 108.897 93.6589 117.383 97.6465C124.439 86.0924 133.948 78.3218 146.218 74.0273Z" fill="white"/>
</g>
<defs>
<clipPath id="clip0_443_114">
<rect width="300" height="300" fill="white"/>
</clipPath>
</defs>
</svg>
