<svg width="300" height="300" viewBox="0 0 300 300" fill="none" xmlns="http://www.w3.org/2000/svg">
<g clip-path="url(#clip0_33_1324)">
<path d="M150 300C67.3196 300 0 232.68 0 150C0 67.3196 67.3196 0 150 0C232.68 0 300 67.3196 300 150C300 232.68 232.68 300 150 300ZM150 7.73196C71.5464 7.73196 7.73196 71.5464 7.73196 150C7.73196 228.454 71.5464 292.268 150 292.268C228.454 292.268 292.268 228.454 292.268 150C292.268 71.5464 228.454 7.73196 150 7.73196Z" fill="#1C1E28"/>
<path d="M150 185.98C138.556 185.98 129.278 176.701 129.278 165.258C129.278 157.938 133.299 151.031 139.794 147.32L141.031 149.588C135.361 152.887 131.855 158.866 131.855 165.258C131.855 175.258 140 183.402 150 183.402C160 183.402 168.144 175.258 168.144 165.258C168.144 158.763 164.536 152.681 158.66 149.382L159.897 147.114C166.598 150.825 170.721 157.732 170.721 165.155C170.721 176.598 161.443 185.876 150 185.876V185.98Z" fill="#1C1E28"/>
<path d="M151.237 142.681H148.66V166.496H151.237V142.681Z" fill="#1C1E28"/>
<path d="M81.5464 142.887L79.8969 140.928L146.392 83.6085C148.763 81.6497 152.165 81.6497 154.433 83.6085L220.206 140.928L218.557 142.887L152.784 85.5672C151.443 84.4332 149.485 84.4332 148.144 85.5672L81.6495 142.887H81.5464Z" fill="#1C1E28"/>
<path d="M197.423 217.835H100.825C97.7319 217.835 95.2576 215.361 95.2576 212.268V139.175H97.8349V212.268C97.8349 213.918 99.1752 215.258 100.825 215.258H197.423C199.072 215.258 200.412 213.918 200.412 212.268V139.175H202.99V212.268C202.99 215.361 200.515 217.835 197.423 217.835Z" fill="#1C1E28"/>
</g>
<defs>
<clipPath id="clip0_33_1324">
<rect width="300" height="300" fill="white"/>
</clipPath>
</defs>
</svg>
