<svg width="300" height="300" viewBox="0 0 300 300" fill="none" xmlns="http://www.w3.org/2000/svg">
<g clip-path="url(#clip0_33_1349)">
<path d="M27.732 117.835V112.99C32.2681 112.577 35.464 111.753 37.3196 110.722C39.1753 109.691 40.5155 107.217 41.3402 103.299H46.3918V153.608H39.5877V117.835H27.732Z" fill="#1C1E28"/>
<path d="M238.557 142.165C240.103 138.969 243.196 135.979 247.732 133.402L254.536 129.484C257.526 127.732 259.691 126.185 260.928 124.948C262.887 122.99 263.814 120.722 263.814 118.247C263.814 115.258 262.99 112.99 261.134 111.237C259.382 109.484 257.01 108.66 254.124 108.66C249.794 108.66 246.804 110.309 245.052 113.608C244.124 115.361 243.711 117.835 243.608 120.928H237.113C237.113 116.495 238.041 112.99 239.588 110.206C242.371 105.361 247.217 102.886 254.124 102.886C259.897 102.886 264.124 104.433 266.804 107.526C269.485 110.618 270.825 114.124 270.825 117.938C270.825 121.959 269.382 125.464 266.598 128.247C264.949 129.897 261.959 131.959 257.732 134.33L252.887 137.01C250.619 138.247 248.763 139.484 247.423 140.618C245.052 142.68 243.608 144.948 242.99 147.423H270.516V153.402H235.876C236.083 149.072 237.01 145.258 238.557 142.062V142.165Z" fill="#1C1E28"/>
<path d="M136.495 279.382C133.815 276.083 132.474 272.165 132.474 267.423H139.072C139.382 270.722 140 273.093 140.928 274.537C142.577 277.217 145.567 278.557 149.794 278.557C153.093 278.557 155.773 277.629 157.835 275.877C159.897 274.124 160.825 271.753 160.825 268.97C160.825 265.464 159.794 263.093 157.629 261.65C155.464 260.31 152.577 259.588 148.763 259.588C148.351 259.588 147.938 259.588 147.526 259.588C147.113 259.588 146.701 259.588 146.186 259.588V254.021C146.804 254.021 147.423 254.124 147.835 254.124C148.247 254.124 148.763 254.124 149.278 254.124C151.65 254.124 153.608 253.712 155.155 252.99C157.835 251.65 159.175 249.279 159.175 245.98C159.175 243.506 158.247 241.547 156.495 240.207C154.742 238.866 152.577 238.145 150.206 238.145C145.979 238.145 143.093 239.588 141.443 242.372C140.516 243.918 140 246.186 139.897 248.97H133.608C133.608 245.155 134.33 242.062 135.876 239.382C138.454 234.64 142.99 232.372 149.485 232.372C154.639 232.372 158.557 233.506 161.443 235.774C164.227 238.042 165.67 241.341 165.67 245.774C165.67 248.866 164.845 251.341 163.196 253.299C162.165 254.537 160.825 255.464 159.175 256.083C161.856 256.805 163.918 258.248 165.361 260.31C166.804 262.372 167.629 264.949 167.629 267.939C167.629 272.784 166.083 276.701 162.887 279.691C159.691 282.681 155.258 284.227 149.382 284.227C143.505 284.227 139.072 282.578 136.392 279.279L136.495 279.382Z" fill="#1C1E28"/>
<path d="M150 300C67.3196 300 0 232.68 0 150C0 67.3196 67.3196 0 150 0C232.68 0 300 67.3196 300 150C300 232.68 232.68 300 150 300ZM150 7.73196C71.5464 7.73196 7.73196 71.5464 7.73196 150C7.73196 228.454 71.5464 292.268 150 292.268C228.454 292.268 292.268 228.454 292.268 150C292.268 71.5464 228.454 7.73196 150 7.73196Z" fill="#1C1E28"/>
<path d="M151.237 6.0835H148.66V77.2175H151.237V6.0835Z" fill="#1C1E28"/>
<path d="M97.4556 200.343L47.1562 250.642L48.9787 252.464L99.278 202.165L97.4556 200.343Z" fill="#1C1E28"/>
<path d="M203.51 200.376L201.688 202.199L251.987 252.498L253.809 250.676L203.51 200.376Z" fill="#1C1E28"/>
<path d="M150 224.33C108.866 224.33 75.3608 190.825 75.3608 149.691C75.3608 108.557 108.866 75.0518 150 75.0518C191.134 75.0518 224.639 108.557 224.639 149.691C224.639 190.825 191.134 224.33 150 224.33ZM150 77.526C110.309 77.526 77.9381 109.897 77.9381 149.588C77.9381 189.279 110.309 221.65 150 221.65C189.691 221.65 222.062 189.279 222.062 149.588C222.062 109.897 189.691 77.526 150 77.526Z" fill="#1C1E28"/>
<path d="M131.649 138.969C133.402 140.721 134.433 142.68 134.639 144.845H131.237C130.825 143.196 130.103 141.855 128.969 140.928C127.835 140 126.186 139.484 124.227 139.484C121.753 139.484 119.691 140.412 118.144 142.165C116.598 143.917 115.876 146.701 115.876 150.412C115.876 153.402 116.598 155.876 117.938 157.835C119.278 159.793 121.443 160.618 124.124 160.618C126.701 160.618 128.557 159.587 129.897 157.629C130.619 156.598 131.134 155.257 131.443 153.505H134.845C134.536 156.185 133.505 158.556 131.856 160.309C129.794 162.577 127.113 163.608 123.608 163.608C120.619 163.608 118.144 162.68 116.082 160.824C113.402 158.453 112.062 154.639 112.062 149.69C112.062 145.876 113.093 142.783 115.052 140.309C117.216 137.629 120.206 136.288 124.021 136.288C127.216 136.288 129.794 137.113 131.546 138.866L131.649 138.969Z" fill="#1C1E28"/>
<path d="M139.278 137.011H142.474V162.887H139.278V137.011Z" fill="#1C1E28"/>
<path d="M147.423 137.011H150.619V140.619H147.423V137.011ZM147.423 144.124H150.619V162.887H147.423V144.124Z" fill="#1C1E28"/>
<path d="M168.041 145.051C169.381 146.082 170.206 147.834 170.412 150.412H167.32C167.113 149.278 166.701 148.247 165.979 147.525C165.258 146.803 164.227 146.391 162.784 146.391C160.722 146.391 159.278 147.422 158.454 149.381C157.938 150.618 157.629 152.267 157.629 154.123C157.629 155.979 158.041 157.628 158.866 158.865C159.691 160.205 160.928 160.824 162.68 160.824C164.021 160.824 165.052 160.412 165.773 159.587C166.495 158.762 167.113 157.731 167.32 156.288H170.412C170.103 158.762 169.175 160.618 167.732 161.752C166.289 162.886 164.536 163.504 162.268 163.504C159.794 163.504 157.835 162.577 156.392 160.824C154.949 159.071 154.227 156.803 154.227 154.02C154.227 150.721 155.052 148.144 156.598 146.288C158.247 144.432 160.309 143.504 162.784 143.504C164.949 143.504 166.598 144.02 167.938 145.051H168.041Z" fill="#1C1E28"/>
<path d="M173.814 137.011H176.907V152.062L185.052 144.021H189.072L181.856 151.031L189.485 162.887H185.464L179.485 153.299L176.907 155.774V162.887H173.814V137.011Z" fill="#1C1E28"/>
</g>
<defs>
<clipPath id="clip0_33_1349">
<rect width="300" height="300" fill="white"/>
</clipPath>
</defs>
</svg>
