<svg width="300" height="300" viewBox="0 0 300 300" fill="none" xmlns="http://www.w3.org/2000/svg">
<g clip-path="url(#clip0_9_4)">
<path fill-rule="evenodd" clip-rule="evenodd" d="M67.3042 110.024C65.088 110.024 63.2914 111.82 63.2914 114.037V185.862C63.2914 188.078 65.088 189.875 67.3042 189.875H219.59C221.806 189.875 223.603 188.078 223.603 185.862V114.037C223.603 111.82 221.806 110.024 219.59 110.024H67.3042ZM60.7516 114.037C60.7516 110.418 63.6853 107.484 67.3042 107.484H219.59C223.209 107.484 226.143 110.418 226.143 114.037V185.862C226.143 189.481 223.209 192.415 219.59 192.415H67.3042C63.6853 192.415 60.7516 189.481 60.7516 185.862V114.037Z" fill="white"/>
<path fill-rule="evenodd" clip-rule="evenodd" d="M223.705 132.323C223.705 131.622 224.273 131.053 224.974 131.053H235.235C237.359 131.053 239.147 132.841 239.147 134.964V164.832C239.147 166.956 237.359 168.744 235.235 168.744H224.974C224.273 168.744 223.705 168.175 223.705 167.474V132.323ZM226.244 133.593V166.204H235.235C235.956 166.204 236.607 165.553 236.607 164.832V134.964C236.607 134.243 235.956 133.593 235.235 133.593H226.244Z" fill="white"/>
<path fill-rule="evenodd" clip-rule="evenodd" d="M73.6029 115.713C71.4428 115.713 69.6916 117.464 69.6916 119.624V181.087C69.6916 183.247 71.4428 184.998 73.6029 184.998H85.3875C87.5477 184.998 89.2988 183.247 89.2988 181.087V119.624C89.2988 117.464 87.5477 115.713 85.3875 115.713H73.6029ZM67.1519 119.624C67.1519 116.061 70.0401 113.173 73.6029 113.173H85.3875C88.9504 113.173 91.8386 116.061 91.8386 119.624V181.087C91.8386 184.65 88.9504 187.538 85.3875 187.538H73.6029C70.0401 187.538 67.1519 184.65 67.1519 181.087V119.624Z" fill="white"/>
<path fill-rule="evenodd" clip-rule="evenodd" d="M99.2043 115.713C97.0441 115.713 95.293 117.464 95.293 119.624V181.087C95.293 183.247 97.0441 184.998 99.2043 184.998H110.989C113.149 184.998 114.9 183.247 114.9 181.087V119.624C114.9 117.464 113.149 115.713 110.989 115.713H99.2043ZM92.7532 119.624C92.7532 116.061 95.6415 113.173 99.2043 113.173H110.989C114.552 113.173 117.44 116.061 117.44 119.624V181.087C117.44 184.65 114.552 187.538 110.989 187.538H99.2043C95.6414 187.538 92.7532 184.65 92.7532 181.087V119.624Z" fill="white"/>
<path fill-rule="evenodd" clip-rule="evenodd" d="M124.704 115.713C122.544 115.713 120.793 117.464 120.793 119.624V181.087C120.793 183.247 122.544 184.998 124.704 184.998H136.488C138.649 184.998 140.4 183.247 140.4 181.087V119.624C140.4 117.464 138.649 115.713 136.488 115.713H124.704ZM118.253 119.624C118.253 116.061 121.141 113.173 124.704 113.173H136.488C140.051 113.173 142.939 116.061 142.939 119.624V181.087C142.939 184.65 140.051 187.538 136.488 187.538H124.704C121.141 187.538 118.253 184.65 118.253 181.087V119.624Z" fill="white"/>
<path fill-rule="evenodd" clip-rule="evenodd" d="M150.304 115.713C148.144 115.713 146.393 117.464 146.393 119.624V181.087C146.393 183.247 148.144 184.998 150.304 184.998H162.089C164.249 184.998 166 183.247 166 181.087V119.624C166 117.464 164.249 115.713 162.089 115.713H150.304ZM143.853 119.624C143.853 116.061 146.742 113.173 150.304 113.173H162.089C165.652 113.173 168.54 116.061 168.54 119.624V181.087C168.54 184.65 165.652 187.538 162.089 187.538H150.304C146.742 187.538 143.853 184.65 143.853 181.087V119.624Z" fill="white"/>
<path fill-rule="evenodd" clip-rule="evenodd" d="M175.804 115.713C173.644 115.713 171.893 117.464 171.893 119.624V181.087C171.893 183.247 173.644 184.998 175.804 184.998H187.589C189.749 184.998 191.5 183.247 191.5 181.087V119.624C191.5 117.464 189.749 115.713 187.589 115.713H175.804ZM169.353 119.624C169.353 116.061 172.241 113.173 175.804 113.173H187.589C191.152 113.173 194.04 116.061 194.04 119.624V181.087C194.04 184.65 191.152 187.538 187.589 187.538H175.804C172.241 187.538 169.353 184.65 169.353 181.087V119.624Z" fill="white"/>
<path fill-rule="evenodd" clip-rule="evenodd" d="M201.405 115.713C199.245 115.713 197.494 117.464 197.494 119.624V181.087C197.494 183.247 199.245 184.998 201.405 184.998H213.19C215.35 184.998 217.101 183.247 217.101 181.087V119.624C217.101 117.464 215.35 115.713 213.19 115.713H201.405ZM194.954 119.624C194.954 116.061 197.843 113.173 201.405 113.173H213.19C216.753 113.173 219.641 116.061 219.641 119.624V181.087C219.641 184.65 216.753 187.538 213.19 187.538H201.405C197.843 187.538 194.954 184.65 194.954 181.087V119.624Z" fill="white"/>
<path fill-rule="evenodd" clip-rule="evenodd" d="M150 7.61937C71.3404 7.61937 7.61937 71.4386 7.61937 150C7.61937 228.561 71.3404 292.381 150 292.381C228.661 292.381 292.381 228.661 292.381 150C292.381 71.3387 228.661 7.61937 150 7.61937ZM0 150C0 67.234 67.1289 0 150 0C232.869 0 300 67.1307 300 150C300 232.869 232.869 300 150 300C67.1289 300 0 232.766 0 150Z" fill="white"/>
</g>
<defs>
<clipPath id="clip0_9_4">
<rect width="300" height="300" fill="white"/>
</clipPath>
</defs>
</svg>
