<svg width="300" height="300" viewBox="0 0 300 300" fill="none" xmlns="http://www.w3.org/2000/svg">
<g clip-path="url(#clip0_9_10)">
<path fill-rule="evenodd" clip-rule="evenodd" d="M150 7.61937C71.3404 7.61937 7.61937 71.4386 7.61937 150C7.61937 228.561 71.3404 292.381 150 292.381C228.661 292.381 292.381 228.661 292.381 150C292.381 71.3387 228.661 7.61937 150 7.61937ZM0 150C0 67.234 67.1289 0 150 0C232.869 0 300 67.1306 300 150C300 232.869 232.869 300 150 300C67.1289 300 0 232.766 0 150Z" fill="white"/>
<path d="M58.0593 126.837C60.2943 126.837 62.2246 127.142 63.85 127.853C65.4755 128.564 66.8978 129.377 68.0153 130.596C69.1328 131.713 70.0471 133.136 70.7582 134.66C71.4694 136.183 71.9773 137.809 72.3837 139.536C72.7901 141.263 72.9933 143.092 73.1964 144.92C73.298 146.749 73.3996 148.578 73.3996 150.305C73.3996 153.352 73.1964 156.197 72.7901 158.94C72.3837 161.683 71.571 164.121 70.4535 166.153C69.336 168.286 67.8121 169.912 65.7803 171.131C63.85 172.35 61.2086 172.96 58.1609 172.96C55.1131 172.96 52.4718 172.35 50.4399 171.131C48.4081 169.912 46.8842 168.185 45.7667 166.051C44.6492 163.918 43.8365 161.48 43.4301 158.635C43.0237 155.791 42.8206 152.845 42.8206 149.695C42.8206 146.851 43.0237 144.006 43.4301 141.263C43.8365 138.52 44.5476 136.082 45.6651 133.847C46.7826 131.713 48.3065 129.986 50.3383 128.666C52.3702 127.345 55.0115 126.634 58.2625 126.634M69.2344 149.898C69.2344 147.46 69.1328 145.022 68.828 142.787C68.5232 140.45 68.0153 138.317 67.2025 136.488C66.3898 134.66 65.2723 133.136 63.7484 132.018C62.2246 130.901 60.2943 130.393 57.9577 130.393C55.7227 130.393 53.7924 131.002 52.3702 132.12C50.9479 133.237 49.8304 134.761 49.0176 136.691C48.2049 138.622 47.5954 140.755 47.2906 143.092C46.9858 145.53 46.7826 147.968 46.7826 150.406C46.7826 153.352 46.9858 155.994 47.2906 158.33C47.697 160.667 48.3065 162.699 49.1192 164.426C49.932 166.051 51.1511 167.372 52.5734 168.286C53.9956 169.201 55.8243 169.709 58.0593 169.709C60.4975 169.709 62.4277 169.099 63.9516 167.88C65.4755 166.661 66.593 165.137 67.3041 163.207C68.1169 161.277 68.6248 159.245 68.828 156.807C69.0312 154.47 69.2344 152.133 69.2344 149.898Z" fill="white"/>
<path d="M94.7339 153.454H78.4792V157.416H94.7339V153.454Z" fill="white"/>
<path d="M116.678 138.52H104.995V135.777C106.722 135.676 108.245 135.472 109.668 135.269C111.09 135.066 112.309 134.66 113.325 134.05C114.341 133.441 115.255 132.628 115.966 131.409C116.678 130.291 117.185 128.767 117.49 126.837H120.741V172.147H116.678V138.52Z" fill="white"/>
<path d="M150.914 126.837C153.149 126.837 155.079 127.142 156.705 127.853C158.33 128.564 159.753 129.377 160.87 130.596C161.988 131.713 162.902 133.136 163.613 134.66C164.324 136.183 164.832 137.809 165.239 139.536C165.645 141.263 165.848 143.092 166.051 144.92C166.153 146.749 166.254 148.578 166.254 150.305C166.254 153.352 166.051 156.197 165.645 158.94C165.239 161.683 164.426 164.121 163.308 166.153C162.191 168.286 160.667 169.912 158.635 171.131C156.705 172.35 154.063 172.96 151.016 172.96C147.968 172.96 145.327 172.35 143.295 171.131C141.263 169.912 139.739 168.185 138.622 166.051C137.504 163.918 136.691 161.48 136.285 158.635C135.879 155.791 135.675 152.845 135.675 149.695C135.675 146.851 135.879 144.006 136.285 141.263C136.691 138.52 137.402 136.082 138.52 133.847C139.637 131.713 141.161 129.986 143.193 128.666C145.225 127.345 147.866 126.634 151.117 126.634M162.089 149.898C162.089 147.46 161.988 145.022 161.683 142.787C161.378 140.45 160.87 138.317 160.057 136.488C159.245 134.66 158.127 133.136 156.603 132.018C155.079 130.901 153.149 130.393 150.813 130.393C148.578 130.393 146.647 131.002 145.225 132.12C143.803 133.237 142.685 134.761 141.873 136.691C141.06 138.622 140.45 140.755 140.145 143.092C139.841 145.53 139.637 147.968 139.637 150.406C139.637 153.352 139.841 155.994 140.145 158.33C140.552 160.667 141.161 162.699 141.974 164.426C142.787 166.051 144.006 167.372 145.428 168.286C146.85 169.201 148.679 169.709 150.914 169.709C153.352 169.709 155.283 169.099 156.806 167.88C158.33 166.661 159.448 165.137 160.159 163.207C160.972 161.277 161.48 159.245 161.683 156.807C161.886 154.47 162.089 152.133 162.089 149.898Z" fill="white"/>
<path d="M186.573 126.837C188.808 126.837 190.738 127.142 192.364 127.853C193.989 128.564 195.411 129.377 196.529 130.596C197.646 131.713 198.561 133.136 199.272 134.66C199.983 136.183 200.491 137.809 200.897 139.536C201.304 141.263 201.507 143.092 201.71 144.92C201.812 146.749 201.913 148.578 201.913 150.305C201.913 153.352 201.71 156.197 201.304 158.94C200.897 161.683 200.085 164.121 198.967 166.153C197.85 168.286 196.326 169.912 194.294 171.131C192.364 172.35 189.722 172.96 186.674 172.96C183.627 172.96 180.985 172.35 178.953 171.131C176.922 169.912 175.398 168.185 174.28 166.051C173.163 163.918 172.35 161.48 171.944 158.635C171.537 155.791 171.334 152.845 171.334 149.695C171.334 146.851 171.537 144.006 171.944 141.263C172.35 138.52 173.061 136.082 174.179 133.847C175.296 131.713 176.82 129.986 178.852 128.666C180.884 127.345 183.525 126.634 186.776 126.634M197.748 149.898C197.748 147.46 197.646 145.022 197.342 142.787C197.037 140.45 196.529 138.317 195.716 136.488C194.903 134.66 193.786 133.136 192.262 132.018C190.738 130.901 188.808 130.393 186.471 130.393C184.236 130.393 182.306 131.002 180.884 132.12C179.461 133.237 178.344 134.761 177.531 136.691C176.718 138.622 176.109 140.755 175.804 143.092C175.499 145.53 175.296 147.968 175.296 150.406C175.296 153.352 175.499 155.994 175.804 158.33C176.21 160.667 176.82 162.699 177.633 164.426C178.446 166.051 179.665 167.372 181.087 168.286C182.509 169.201 184.338 169.709 186.573 169.709C189.011 169.709 190.941 169.099 192.465 167.88C193.989 166.661 195.107 165.137 195.818 163.207C196.63 161.277 197.138 159.245 197.342 156.807C197.545 154.47 197.748 152.133 197.748 149.898Z" fill="white"/>
<path d="M230.055 138.012C230.055 139.434 229.75 140.857 229.242 142.076C228.734 143.397 227.921 144.514 227.007 145.428C225.991 146.444 224.874 147.155 223.553 147.663C222.232 148.273 220.912 148.476 219.388 148.476C217.864 148.476 216.543 148.171 215.324 147.663C214.003 147.155 212.886 146.343 211.972 145.428C211.057 144.514 210.245 143.295 209.737 142.076C209.229 140.755 208.924 139.434 208.924 138.012C208.924 136.59 209.229 135.168 209.737 133.949C210.245 132.628 211.057 131.51 211.972 130.596C212.886 129.682 214.105 128.869 215.324 128.259C216.645 127.65 217.965 127.447 219.388 127.447C220.81 127.447 222.232 127.751 223.553 128.259C224.874 128.767 225.991 129.58 227.007 130.596C228.023 131.612 228.734 132.729 229.242 133.949C229.75 135.269 230.055 136.59 230.055 138.114M219.388 144.819C220.302 144.819 221.216 144.616 222.029 144.311C222.842 143.905 223.553 143.498 224.264 142.787C224.975 142.076 225.382 141.365 225.788 140.552C226.194 139.739 226.398 138.825 226.398 137.911C226.398 136.996 226.194 136.082 225.89 135.269C225.483 134.456 225.077 133.745 224.366 133.034C223.756 132.425 222.943 131.917 222.131 131.51C221.318 131.104 220.404 130.901 219.388 130.901C218.372 130.901 217.559 131.104 216.746 131.409C215.934 131.714 215.223 132.221 214.511 132.933C213.902 133.542 213.394 134.355 212.987 135.168C212.581 135.98 212.48 136.895 212.48 137.809C212.48 138.723 212.683 139.638 212.987 140.45C213.394 141.263 213.902 141.974 214.511 142.685C215.121 143.397 215.934 143.803 216.746 144.209C217.559 144.616 218.473 144.717 219.388 144.717M221.826 173.061H218.473L243.973 126.837H247.325L221.826 173.061ZM246.716 150.813C248.138 150.813 249.56 151.118 250.78 151.625C252.1 152.133 253.218 152.946 254.132 153.962C255.046 154.978 255.859 156.096 256.367 157.315C256.875 158.635 257.18 159.956 257.18 161.48C257.18 163.004 256.875 164.324 256.367 165.645C255.859 166.966 255.046 168.083 254.132 169.099C253.218 170.115 252.1 170.826 250.78 171.436C249.459 171.944 248.138 172.249 246.716 172.249C245.294 172.249 243.871 171.944 242.551 171.436C241.23 170.928 240.112 170.115 239.198 169.099C238.284 168.083 237.471 166.966 236.963 165.645C236.455 164.324 236.15 162.902 236.15 161.48C236.15 160.058 236.455 158.635 236.963 157.315C237.573 155.994 238.284 154.876 239.3 153.962C240.214 152.946 241.433 152.235 242.652 151.625C243.973 151.118 245.294 150.813 246.716 150.813ZM246.716 154.572C245.7 154.572 244.786 154.775 243.973 155.181C243.16 155.588 242.449 156.096 241.84 156.705C241.23 157.315 240.722 158.127 240.417 158.94C240.011 159.753 239.909 160.667 239.909 161.581C239.909 162.496 240.112 163.309 240.519 164.121C240.925 164.934 241.433 165.645 242.043 166.356C242.652 166.966 243.465 167.474 244.278 167.88C245.09 168.287 246.005 168.388 246.919 168.388C247.833 168.388 248.748 168.185 249.56 167.779C250.373 167.372 251.084 166.864 251.694 166.255C252.303 165.645 252.811 164.934 253.218 164.02C253.624 163.207 253.726 162.293 253.726 161.378C253.726 160.464 253.523 159.55 253.218 158.737C252.811 157.924 252.405 157.213 251.694 156.502C251.084 155.892 250.373 155.384 249.56 154.978C248.748 154.572 247.833 154.47 246.919 154.47" fill="white"/>
</g>
<defs>
<clipPath id="clip0_9_10">
<rect width="300" height="300" fill="white"/>
</clipPath>
</defs>
</svg>
