<svg width="300" height="300" viewBox="0 0 300 300" fill="none" xmlns="http://www.w3.org/2000/svg">
<g clip-path="url(#clip0_9_12)">
<path fill-rule="evenodd" clip-rule="evenodd" d="M150 7.7293C71.4405 7.7293 7.7293 71.4405 7.7293 150C7.7293 228.561 71.3392 292.271 150 292.271C228.664 292.271 292.374 228.558 292.374 150C292.374 71.444 228.563 7.7293 150 7.7293ZM0 150C0 67.1717 67.1717 0 150 0C232.825 0 300.103 67.1682 300.103 150C300.103 232.83 232.93 300 150 300C67.0669 300 0 232.827 0 150Z" fill="white"/>
<path fill-rule="evenodd" clip-rule="evenodd" d="M207.669 102.563L207.234 180.831L205.212 179.39C200.569 176.08 195.534 174.536 191.635 173.824C189.69 173.469 188.04 173.323 186.882 173.265C186.304 173.237 185.849 173.23 185.543 173.231C185.39 173.231 185.275 173.233 185.2 173.235L185.118 173.237L185.1 173.238L185.039 173.241C177.152 173.241 170.034 175.662 164.916 179.488C159.795 183.317 156.75 188.48 156.75 194.005C156.75 199.534 159.773 204.697 164.878 208.523C169.982 212.348 177.099 214.772 185.039 214.772C192.982 214.772 200.1 212.372 205.202 208.561C210.304 204.75 213.329 199.588 213.329 194.005H215.905C215.905 200.584 212.334 206.449 206.744 210.625C201.154 214.801 193.482 217.348 185.039 217.348C176.593 217.348 168.922 214.773 163.333 210.585C157.747 206.398 154.174 200.535 154.174 194.005C154.174 187.473 157.776 181.609 163.373 177.425C168.967 173.243 176.628 170.668 185.014 170.663L185.026 170.663L185.136 170.659C185.23 170.657 185.365 170.655 185.539 170.654C185.885 170.654 186.384 170.661 187.01 170.692C188.261 170.754 190.025 170.911 192.098 171.289C195.689 171.945 200.248 173.275 204.685 175.962L205.076 105.51L126.142 116.088V205.651H123.566V113.833L207.669 102.563Z" fill="white"/>
<path fill-rule="evenodd" clip-rule="evenodd" d="M216.949 71.0517L215.802 194.018L213.225 193.994L214.345 73.9502L115.626 85.4994L115.209 190.845L113.254 189.64C109.013 187.027 104.451 185.806 100.922 185.242C99.162 184.962 97.6727 184.847 96.6282 184.802C96.1064 184.779 95.6966 184.774 95.421 184.775C95.2832 184.775 95.179 184.777 95.1112 184.778L95.0371 184.78L95.0211 184.781L94.9671 184.783C87.024 184.783 79.9066 187.181 74.8045 190.993C69.7025 194.804 66.6778 199.966 66.6778 205.548C66.6778 211.132 69.6787 216.267 74.7638 220.05C79.8508 223.835 86.968 226.211 94.9671 226.211C102.967 226.211 110.138 223.834 115.278 220.047C120.418 216.26 123.462 211.124 123.462 205.548H126.039C126.039 212.132 122.436 217.973 116.806 222.121C111.177 226.269 103.457 228.787 94.9671 228.787C86.477 228.787 78.8055 226.268 73.226 222.117C67.6447 217.965 64.1014 212.125 64.1014 205.548C64.1014 198.969 67.6724 193.104 73.2626 188.929C78.8477 184.757 86.5103 182.21 94.9444 182.206L94.9556 182.205L95.0541 182.203C95.1386 182.201 95.26 182.199 95.4157 182.198C95.727 182.198 96.1755 182.203 96.739 182.228C97.8652 182.276 99.4547 182.399 101.328 182.698C104.541 183.211 108.628 184.247 112.65 186.339L113.058 83.2057L216.949 71.0517Z" fill="white"/>
</g>
<defs>
<clipPath id="clip0_9_12">
<rect width="300" height="300" fill="white"/>
</clipPath>
</defs>
</svg>
