<svg xmlns="http://www.w3.org/2000/svg" xmlns:xlink="http://www.w3.org/1999/xlink" width="134" zoomAndPan="magnify" viewBox="0 0 100.5 127.499994" height="170" preserveAspectRatio="xMidYMid meet" version="1.0"><path fill="#ffffff" d="M 85.203125 39.929688 C 84.667969 40.207031 83.777344 40.59375 83.097656 40.796875 C 82.769531 40.890625 80.03125 41.71875 77.785156 42.40625 L 77.613281 42.453125 C 77.597656 42.460938 77.578125 42.46875 77.554688 42.472656 L 71.644531 44.257812 C 75.695312 40.132812 77.660156 33.601562 76.703125 27.0625 C 75.539062 19.09375 70.679688 12.863281 64.703125 10.445312 C 69.261719 9.90625 74.007812 9.363281 76.441406 9.078125 L 76.671875 9.054688 C 77.171875 8.996094 77.710938 8.964844 78.179688 8.964844 C 82.039062 8.964844 85.726562 10.757812 88.5625 14.019531 C 91.34375 17.21875 92.949219 21.503906 92.949219 25.765625 C 92.941406 35.464844 86.496094 39.265625 85.203125 39.929688 M 70.808594 64.535156 C 66.6875 69.796875 54.390625 85.148438 53.867188 85.804688 L 53.671875 86.042969 L 36.472656 94.363281 C 39.972656 89.730469 50.398438 76.101562 52.808594 72.871094 C 56.105469 68.445312 60.457031 60.347656 59.015625 48.363281 C 60.097656 48.578125 61.457031 48.667969 62.703125 48.550781 C 63.5625 48.472656 64.390625 48.316406 65.179688 48.101562 C 65.1875 48.101562 65.195312 48.101562 65.210938 48.09375 L 65.253906 48.078125 C 65.433594 48.027344 65.613281 47.972656 65.792969 47.914062 L 77.03125 44.542969 C 77.242188 52.25 75.152344 58.976562 70.808594 64.535156 M 70.867188 90.558594 C 73.007812 90.945312 75.007812 92.25 76.496094 94.238281 C 77.890625 96.101562 78.6875 98.394531 78.695312 100.503906 L 78.695312 101.582031 C 78.695312 103.4375 78.695312 106.886719 78.695312 107.492188 C 78.695312 107.714844 78.644531 108.019531 78.40625 108.164062 C 73.84375 110.976562 65.785156 115.839844 62.054688 118.082031 C 62.054688 116.3125 62.089844 113.109375 62.0625 111.378906 C 61.972656 106 57.835938 100.214844 52.613281 99.164062 C 49.054688 98.445312 40.703125 96.75 37.253906 96.050781 L 54.570312 87.632812 L 54.792969 87.667969 C 58.203125 88.289062 66.597656 89.78125 70.867188 90.558594 M 36.136719 17.382812 L 47.269531 15.945312 C 46.121094 17.617188 45.226562 19.535156 44.636719 21.609375 C 41.769531 19.554688 38.910156 18.183594 36.136719 17.382812 M 21.828125 52.390625 C 21.753906 52.152344 21.679688 51.90625 21.636719 51.675781 C 19.457031 41.355469 26.164062 37.003906 30.464844 37.496094 C 35.21875 38.042969 39.238281 42.214844 40.292969 47.324219 Z M 59.046875 22.242188 C 62.039062 21.921875 65.179688 24.652344 65.671875 28.496094 C 66.160156 32.207031 64.261719 35.683594 60.71875 36.085938 C 57.769531 36.421875 54.613281 33.585938 54.113281 29.789062 C 53.621094 26.003906 55.71875 22.59375 59.046875 22.242188 M 89.933594 12.808594 C 86.75 9.144531 82.570312 7.121094 78.171875 7.121094 C 77.628906 7.121094 77.023438 7.160156 76.457031 7.226562 L 76.226562 7.25 C 72.417969 7.699219 62.992188 8.78125 57.425781 9.449219 C 57.425781 9.449219 57.417969 9.449219 57.417969 9.449219 C 54.082031 9.882812 51.179688 11.496094 48.925781 13.867188 L 28.058594 16.585938 C 19.410156 17.347656 11.710938 23.199219 9.121094 31.921875 C 6.328125 41.300781 9.828125 52.535156 18.457031 54.558594 C 19.640625 54.832031 20.582031 54.652344 21.128906 54.488281 C 21.136719 54.488281 21.140625 54.488281 21.148438 54.480469 L 40.539062 49.160156 C 40.664062 51.28125 40.277344 53.496094 39.230469 55.640625 C 37.613281 58.945312 32.046875 66.847656 30.164062 69.585938 C 28.277344 72.324219 10.984375 98.273438 8.417969 102.574219 C 7.8125 103.585938 7.269531 105.101562 7.621094 106.445312 C 7.941406 107.640625 9.015625 108.714844 10.597656 109.117188 C 16.492188 110.632812 58.628906 120.609375 59.890625 120.910156 C 60.375 121.027344 60.816406 120.960938 61.164062 120.761719 C 61.171875 120.753906 61.179688 120.753906 61.1875 120.746094 C 62.746094 119.820312 73.734375 113.207031 79.367188 109.730469 C 80.089844 109.28125 80.515625 108.46875 80.523438 107.503906 C 80.53125 106.894531 80.523438 103.4375 80.523438 101.582031 L 80.523438 100.503906 C 80.523438 98.003906 79.589844 95.320312 77.957031 93.140625 C 76.195312 90.78125 73.800781 89.230469 71.195312 88.757812 C 67.261719 88.050781 59.828125 86.722656 56.015625 86.042969 C 58.785156 82.585938 68.644531 70.265625 72.25 65.660156 C 76.957031 59.632812 79.171875 52.347656 78.835938 43.996094 C 82.480469 42.890625 83.457031 42.59375 83.628906 42.550781 C 84.480469 42.300781 85.464844 41.863281 86.046875 41.554688 C 87.503906 40.808594 94.769531 36.527344 94.769531 25.765625 C 94.761719 21.0625 93.003906 16.339844 89.933594 12.808594 " fill-opacity="1" fill-rule="nonzero"/></svg>