<svg width="300" height="300" viewBox="0 0 300 300" fill="none" xmlns="http://www.w3.org/2000/svg">
<g clip-path="url(#clip0_443_222)">
<path d="M150 0C232.679 3.621e-06 300 67.3213 300 150C300 232.679 232.679 300 150 300C67.3213 300 3.62192e-06 232.679 0 150C0 67.3213 67.3213 0 150 0ZM150 7.24414C71.2814 7.24414 7.24414 71.2814 7.24414 150C7.24414 228.719 71.2814 292.756 150 292.756C228.719 292.756 292.756 228.719 292.756 150C292.756 71.2814 228.719 7.24414 150 7.24414ZM111.075 178.687C118.416 178.687 124.211 180.715 128.461 184.771C132.807 188.828 134.933 194.14 134.933 200.805C134.933 205.924 133.387 210.464 130.393 214.424C128.364 217.032 125.08 220.026 120.541 223.213L115.132 227.076C111.751 229.491 109.433 231.23 108.178 232.292C106.922 233.354 105.86 234.611 104.99 236.06H135.126V248.036H87.8945C87.9911 243.11 89.0537 238.57 91.082 234.514C93.0138 229.878 97.5529 225.048 104.797 219.929C111.075 215.486 115.132 212.299 116.967 210.271C119.768 207.276 121.217 203.992 121.217 200.418C121.217 197.521 120.444 195.106 118.803 193.175L118.706 192.981C117.064 191.05 114.745 190.084 111.751 190.084C107.598 190.084 104.797 191.629 103.349 194.72C102.479 196.458 101.996 199.356 101.803 203.22H88.5703C88.7635 197.328 89.8262 192.595 91.7578 189.021C95.3315 182.164 101.803 178.687 111.075 178.687ZM161.204 206.793L188.249 177.913H207.18L178.396 206.793L208.629 248.036H189.794L168.158 217.418L161.204 224.565V248.036H146.812V177.913H161.204V206.793ZM221.088 153.381H72.3438V140.728H221.088V153.381ZM74.7588 150.966H218.674V143.143H74.7588V150.966ZM88.8604 98.0361C89.15 97.4567 89.9225 97.2633 90.502 97.5527L147.103 127.785L203.992 97.7461C204.572 97.4563 205.345 97.7466 205.635 98.2295C205.924 98.8089 205.634 99.5814 205.151 99.8711L147.199 130.586H147.103L89.3428 99.6777C88.7636 99.3878 88.5707 98.6155 88.8604 98.0361ZM170.283 55.9238C174.629 55.9238 177.817 57.469 179.652 60.5596C181.391 63.6503 182.356 68.0936 182.356 73.8887C182.356 79.6837 181.487 84.0303 179.652 87.1211C177.817 90.2119 174.726 91.7578 170.38 91.7578H170.283C165.84 91.7578 162.749 90.2119 161.011 87.1211C159.272 84.0303 158.307 79.5871 158.307 73.8887C158.307 68.1902 159.176 63.7469 161.011 60.5596C162.749 57.469 165.937 55.9239 170.283 55.9238ZM120.638 90.9854H113.587V67.0312H105.377V62.3955C107.502 62.3955 109.047 62.2019 109.916 62.0088C111.268 61.719 112.428 61.1397 113.297 60.1738C113.876 59.5943 114.36 58.7246 114.649 57.6621C114.842 57.083 114.938 56.6003 114.938 56.3105H120.638V90.9854ZM151.062 78.042H155.022L155.119 78.1387V83.4512H151.159V90.8887H144.494V83.4512H130.683V77.4629L143.432 56.3105H151.062V78.042ZM170.283 61.6221C168.255 61.6221 166.903 62.5882 166.227 64.6162C165.55 66.6445 165.261 69.7356 165.261 73.8887C165.261 78.0417 165.551 80.9396 166.227 83.0645C166.903 85.1893 168.255 86.2519 170.283 86.252C172.312 86.252 173.664 85.1894 174.243 83.0645C174.823 80.9396 175.209 77.9451 175.209 73.8887C175.209 69.8322 174.919 66.6445 174.243 64.6162C173.567 62.5882 172.311 61.6221 170.283 61.6221ZM135.802 78.1387H144.494V63.0713L135.802 78.1387ZM195.88 59.6631C198.46 59.6636 200.544 61.7481 200.544 64.3281C200.543 66.9077 198.459 68.9917 195.88 68.9922C193.3 68.9922 191.215 66.908 191.215 64.3281C191.215 61.7478 193.3 59.6631 195.88 59.6631ZM195.88 59.9131C193.438 59.9131 191.465 61.8859 191.465 64.3281C191.465 66.7699 193.438 68.7422 195.88 68.7422C198.321 68.7417 200.293 66.7696 200.294 64.3281C200.294 61.8862 198.322 59.9136 195.88 59.9131Z" fill="#1C1E28"/>
</g>
<defs>
<clipPath id="clip0_443_222">
<rect width="300" height="300" fill="white"/>
</clipPath>
</defs>
</svg>
