<svg width="300" height="300" viewBox="0 0 300 300" fill="none" xmlns="http://www.w3.org/2000/svg">
<path d="M150.041 3C231.102 3.00012 297.177 68.9757 297.177 150.031C297.177 231.087 231.196 297.062 150.041 297.062C68.9798 297.062 3.00008 231.087 3 150.031C3 68.9756 68.9798 3 150.041 3ZM150.041 9.97461C72.8445 9.97461 10.0695 72.7453 10.0693 149.937C10.0693 227.128 72.8444 289.899 150.041 289.899C227.238 289.899 290.107 227.128 290.107 149.937C290.107 72.7454 227.332 9.97473 150.041 9.97461ZM236.852 133.537H212.816L211.685 145.79C213.982 144.818 215.949 144.343 218.438 144.287L219.037 144.376C230.348 144.376 239.868 150.22 239.868 164.734C239.868 179.249 228.651 187.638 215.832 187.638C205.181 187.638 197.923 183.49 192.739 178.4L199.525 168.787C203.39 172.369 208.103 175.29 213.664 175.29C220.356 175.29 224.692 171.52 224.692 165.017C224.692 158.514 220.451 154.933 214.419 154.933C210.649 154.933 208.669 155.781 204.71 158.231L197.924 153.896L199.715 120.813H236.852V133.537ZM171.72 119.494C180.391 119.494 186.707 123.17 190.854 127.411L182.842 136.459C180.58 133.914 176.527 131.746 172.662 131.746C165.499 131.746 159.843 137.119 159.184 152.387C162.671 147.957 168.232 145.318 172.285 145.318C183.502 145.318 191.797 151.916 191.797 165.582C191.797 179.248 181.9 187.543 170.023 187.543C157.299 187.543 145.233 178.023 145.233 155.026C145.233 130.521 157.958 119.494 171.72 119.494ZM81.9873 186.317H66.8115V119.117H81.9873V186.317ZM115.637 119.117C130.435 119.117 142.406 124.866 142.406 140.7C142.406 156.534 130.341 163.509 116.108 163.509H107.813V186.317H92.6387V119.117H115.637ZM169.363 156.062C166.064 156.063 162.482 157.854 159.561 162.566C160.93 172.428 164.954 175.919 169.317 176.128L169.646 176.139C174.171 176.139 177.94 172.933 177.94 165.582C177.94 158.702 174.265 156.062 169.363 156.062ZM107.813 151.444H115.166C123.555 151.444 127.514 147.675 127.514 140.7C127.514 133.726 122.989 131.181 114.789 131.181H107.813V151.444Z" fill="#1C1E28"/>
</svg>
