<svg width="300" height="300" viewBox="0 0 300 300" fill="none" xmlns="http://www.w3.org/2000/svg">
<g clip-path="url(#clip0_443_475)">
<path d="M150.002 0C232.765 0.000189957 300.003 67.239 300.003 150.002C300.003 232.765 232.765 300.003 150.002 300.003V299.9C67.239 299.9 0.000190242 232.662 0 150.002C0 67.3417 67.2389 0 150.002 0ZM150.002 7.71094C71.557 7.71094 7.71094 71.557 7.71094 150.002C7.71113 228.447 71.5571 292.292 150.002 292.292C228.447 292.292 292.292 228.447 292.292 150.002C292.292 71.5571 228.447 7.71113 150.002 7.71094ZM194.107 86.3604C209.837 86.3604 221.147 92.0153 227.624 103.222C233.895 114.222 236.979 129.953 236.979 150.001C236.979 170.049 233.792 185.779 227.521 196.677C221.146 207.78 209.837 213.435 194.107 213.436C178.274 213.436 167.068 207.78 160.693 196.677C154.422 185.779 151.235 170.049 151.235 150.001C151.235 129.953 154.422 114.222 160.693 103.222C167.068 92.0153 178.377 86.3604 194.107 86.3604ZM194.107 88.9307C179.303 88.9307 168.816 94.1739 162.853 104.558C156.787 115.147 153.702 130.467 153.702 150.001C153.702 169.535 156.787 184.854 162.853 195.341C168.713 205.622 179.303 210.865 194.107 210.865C208.912 210.865 219.296 205.827 225.362 195.341C231.428 184.854 234.512 169.535 234.512 150.001C234.512 130.467 231.428 115.147 225.465 104.558C219.502 94.1738 209.015 88.9307 194.21 88.9307H194.107ZM118.13 210.455H91.2959V127.28H62.9209V108.672H64.1543C71.5566 108.261 76.8 107.746 79.6787 107.129C84.2023 106.101 87.9038 104.148 90.6797 101.166C92.633 99.2126 94.0718 96.4366 94.9971 93.0439C95.7167 90.4737 95.8203 89.2399 95.8203 88.623V87.3896H118.13V210.455ZM98.2871 89.7539C98.1843 90.782 97.8761 92.119 97.4648 93.6611C96.3339 97.4651 94.6893 100.55 92.5303 102.812C89.3431 106.101 85.2301 108.363 80.1924 109.494C77.3136 110.111 72.4811 110.625 65.4902 110.934V124.607H93.8662V207.885H115.56V89.7539H98.2871ZM194.107 105.895C201.715 105.895 206.856 109.699 209.221 117.307C211.483 124.401 212.613 135.402 212.613 150.001C212.613 164.6 211.482 174.778 209.323 182.181C206.959 190.097 201.818 194.209 194.21 194.209L194.107 194.106C186.499 194.106 181.359 190.097 178.892 182.181C176.63 174.778 175.396 163.88 175.396 150.001C175.396 136.121 176.527 124.401 178.892 117.307C181.359 109.801 186.499 105.895 194.107 105.895ZM194.107 108.465C187.63 108.465 183.415 111.652 181.358 118.026C179.199 124.812 178.068 135.607 178.068 149.897C178.068 164.188 179.2 174.162 181.462 181.358C183.621 188.144 187.733 191.434 194.21 191.434C200.687 191.434 204.799 188.143 206.855 181.255C209.014 174.058 210.043 163.469 210.043 149.795C210.043 135.504 208.912 124.709 206.855 117.924C204.799 111.447 200.687 108.362 194.21 108.362L194.107 108.465Z" fill="white"/>
</g>
<defs>
<clipPath id="clip0_443_475">
<rect width="300" height="300" fill="white"/>
</clipPath>
</defs>
</svg>
