<svg width="300" height="300" viewBox="0 0 300 300" fill="none" xmlns="http://www.w3.org/2000/svg">
<g clip-path="url(#clip0_443_552)">
<path d="M150.002 0C232.683 0 300.004 67.3205 300.004 150.002C300.004 232.683 232.683 300.004 150.002 300.004C67.3205 300.004 0 232.683 0 150.002C3.41207e-05 67.3205 67.3205 3.41294e-05 150.002 0ZM150.002 7.73242C71.5473 7.73246 7.73246 71.5473 7.73242 150.002C7.73242 228.457 71.5473 292.271 150.002 292.271C228.457 292.271 292.271 228.457 292.271 150.002C292.271 71.5473 228.457 7.73242 150.002 7.73242ZM155.982 202.682C155.055 201.857 155.982 200.723 157.013 201.342C169.899 208.868 185.879 213.404 202.374 213.404C213.508 213.404 225.674 211.135 236.911 206.29C238.663 205.569 240.003 207.424 238.354 208.661C228.354 216.084 213.818 220.002 201.24 220.002C183.714 220.002 167.941 213.506 155.982 202.682ZM230.519 202.063C236.291 198.043 245.673 199.176 246.808 200.517C247.942 201.857 246.498 211.341 241.138 215.774C240.313 216.496 239.488 216.084 239.9 215.156C241.138 212.167 243.818 205.363 242.581 203.713L242.415 203.74C241.015 202.192 233.972 202.997 230.725 203.403C229.694 203.506 229.591 202.682 230.519 202.063ZM212.286 83.2598L87.0459 208.499L85.2236 206.677L210.464 81.4365L212.286 83.2598ZM198.146 168.454C200.827 168.454 202.993 169.072 204.539 170.31C206.085 171.547 206.807 173.299 206.807 175.567C206.807 177.835 205.982 179.485 204.333 180.619C202.684 181.753 200.209 182.372 197.116 182.372C194.951 182.372 192.992 182.062 191.343 181.547C191.343 184.33 192.065 186.392 193.302 187.732C194.539 188.97 196.395 189.589 199.075 189.589C200.931 189.589 202.683 189.28 204.436 188.661C204.848 188.558 205.055 188.454 205.261 188.454C205.673 188.454 205.879 188.764 205.879 189.279V190.619C205.879 190.619 205.879 191.341 205.673 191.444C205.57 191.65 205.26 191.754 204.951 191.96C204.126 192.372 203.095 192.682 201.858 192.888C200.724 193.094 199.487 193.197 198.25 193.197L197.547 193.391C194.091 193.27 191.53 192.243 189.693 190.311C187.735 188.249 186.807 185.156 186.807 180.929C186.807 176.702 187.837 173.918 189.796 171.753C191.755 169.588 194.538 168.454 198.146 168.454ZM161.96 168.454C164.949 168.454 167.012 169.073 168.455 170.31C169.898 171.547 170.518 173.403 170.518 175.877V191.754C170.517 192.372 170.208 192.681 169.59 192.682H167.631C167.012 192.682 166.703 192.372 166.6 191.754L166.394 190.207C165.26 191.135 164.022 191.857 162.682 192.372C161.342 192.887 160.001 193.197 158.661 193.197L158.363 193.293C156.382 193.22 154.763 192.604 153.507 191.444C152.167 190.207 151.548 188.558 151.548 186.393C151.548 184.125 152.373 182.371 153.919 181.031C155.568 179.691 157.734 178.97 160.414 178.97C162.167 178.97 164.125 179.176 166.29 179.795V176.702C166.29 175.053 165.878 173.815 165.156 173.196C164.48 172.52 163.26 172.206 161.581 172.169L161.239 172.166C159.074 172.166 157.012 172.475 154.95 173.094C154.229 173.3 153.816 173.402 153.609 173.402C153.197 173.402 153.095 173.093 153.095 172.578V171.341C153.095 171.332 153.096 170.618 153.301 170.413C153.404 170.207 153.713 170.104 154.022 169.897C154.95 169.485 156.188 169.072 157.631 168.866C159.074 168.557 160.517 168.454 161.96 168.454ZM241.858 168.454C244.848 168.454 246.91 169.072 248.354 170.31C249.797 171.547 250.415 173.403 250.415 175.877V191.754C250.415 192.372 250.106 192.682 249.487 192.682H247.528C246.91 192.682 246.601 192.372 246.498 191.754L246.291 190.207C245.157 191.135 243.92 191.857 242.58 192.372C241.24 192.888 239.9 193.197 238.56 193.197L238.262 193.293C236.28 193.221 234.661 192.604 233.404 191.444C232.064 190.207 231.446 188.557 231.446 186.393C231.446 184.125 232.271 182.371 233.817 181.031C235.467 179.691 237.632 178.97 240.312 178.97C242.064 178.97 244.023 179.176 246.188 179.795V176.702C246.188 175.053 245.776 173.815 245.055 173.196C244.333 172.475 242.992 172.166 241.137 172.166C238.972 172.166 236.91 172.475 234.848 173.094C234.126 173.3 233.714 173.402 233.508 173.402C233.095 173.402 232.992 173.094 232.992 172.578V171.341C232.992 171.332 232.993 170.618 233.198 170.413C233.301 170.207 233.611 170.104 233.92 169.897C234.848 169.485 236.085 169.072 237.528 168.866C238.972 168.557 240.415 168.454 241.858 168.454ZM179.692 158.457C180.311 158.457 180.62 158.766 180.62 159.385V187.22C180.62 187.941 180.724 188.457 181.033 188.767C181.343 189.076 181.858 189.282 182.477 189.282H183.61C183.92 189.282 184.125 189.282 184.229 189.488C184.332 189.694 184.435 189.901 184.435 190.21V191.653C184.435 191.659 184.433 192.17 184.229 192.375C184.125 192.581 183.816 192.684 183.507 192.787C182.682 192.993 181.96 193.097 181.136 193.097L180.831 192.987C179.333 192.927 178.198 192.42 177.425 191.55C176.6 190.622 176.084 189.282 176.084 187.529V159.385C176.084 158.766 176.394 158.457 177.013 158.457H179.692ZM212.786 169.179C212.786 169.179 213.405 169.179 213.611 169.282C213.817 169.385 214.024 169.592 214.127 169.798L219.179 177.323L224.229 169.798C224.229 169.798 224.539 169.385 224.849 169.282C225.055 169.282 225.364 169.179 225.776 169.179H228.251C228.266 169.183 228.972 169.389 228.973 169.694C228.973 169.901 228.766 170.314 228.457 170.829L221.652 180.313L229.075 190.932C229.488 191.447 229.591 191.86 229.591 192.066C229.591 192.17 229.591 192.376 229.385 192.479C229.282 192.582 229.075 192.685 228.869 192.685H226.086C226.086 192.685 225.468 192.684 225.158 192.479C224.952 192.375 224.746 192.169 224.643 191.963L219.075 183.612L213.508 191.963C213.502 191.97 213.196 192.376 212.89 192.479C212.683 192.582 212.374 192.685 211.962 192.685H209.385L209.591 192.788C209.591 192.788 209.178 192.787 209.075 192.581C208.972 192.478 208.869 192.375 208.869 192.169C208.869 191.963 209.076 191.55 209.385 191.035L216.704 180.623L209.797 170.829C209.797 170.829 209.281 170.004 209.281 169.694C209.281 169.282 209.488 169.179 210.003 169.179H212.786ZM161.342 182.166C157.837 182.166 156.084 183.506 156.084 186.187C156.084 187.321 156.393 188.249 157.012 188.867C157.63 189.486 158.559 189.795 159.796 189.795L160.285 189.888C161.189 189.843 162.102 189.64 163.095 189.279C164.229 188.867 165.259 188.248 166.29 187.526V182.784C164.641 182.372 162.991 182.166 161.342 182.166ZM241.24 182.166C237.735 182.166 235.982 183.506 235.982 186.187C235.982 187.321 236.292 188.249 236.91 188.867C237.529 189.486 238.456 189.795 239.693 189.795L240.184 189.888C241.087 189.843 242 189.64 242.992 189.279C244.126 188.867 245.158 188.248 246.188 187.526V182.784C244.539 182.372 242.89 182.166 241.24 182.166ZM197.734 171.959C193.817 171.959 191.652 174.124 191.239 178.454C192.889 178.97 194.642 179.279 196.601 179.279L197.311 179.368C198.912 179.301 200.119 178.995 200.931 178.454C201.858 177.836 202.27 176.908 202.271 175.671C202.271 174.434 201.858 173.506 201.137 172.888C200.312 172.269 199.281 171.959 197.734 171.959ZM58.5576 110.618H50V83.6084H58.5576V110.618ZM81.7539 83.6084V92.2676H70.8252V94.7422H78.1455V103.299H70.8252V110.618H62.166V83.6084H81.7539ZM105.156 83.6084V92.2676H98.9697V110.618H90.4131V92.165H84.2275V83.6084H105.156ZM128.455 83.6084V92.2676H122.27V110.618H113.713V92.165H107.527V83.6084H128.455ZM151.754 83.6084V92.2676H145.568V110.618H137.012V92.165H130.826V83.6084H151.754Z" fill="white"/>
</g>
<defs>
<clipPath id="clip0_443_552">
<rect width="300" height="300" fill="white"/>
</clipPath>
</defs>
</svg>
