<svg width="300" height="300" viewBox="0 0 300 300" fill="none" xmlns="http://www.w3.org/2000/svg">
<g clip-path="url(#clip0_443_613)">
<path d="M150 0C232.68 0 300 67.3196 300 150C300 232.68 232.68 300 150 300C67.3196 300 0 232.68 0 150C2.15448e-06 67.3196 67.3196 2.15503e-06 150 0ZM150 7.73242C71.5464 7.73242 7.73242 71.5464 7.73242 150C7.73242 228.454 71.5464 292.268 150 292.268C228.454 292.268 292.268 228.454 292.268 150C292.268 71.5464 228.454 7.73242 150 7.73242ZM146.187 58.6592C146.805 58.6594 147.423 59.278 147.423 59.8965V88.4395C172.078 88.1817 189.319 83.0903 190.36 78.3838C190.326 78.2723 190.309 78.1565 190.309 78.041C190.309 76.4212 187.843 74.0978 181.12 71.8828L185.052 77.3193C185.464 77.9378 185.36 78.659 184.742 79.0713C184.536 79.2775 184.227 79.2773 184.021 79.2773C184.012 79.2752 183.194 79.0694 182.989 78.7617L177.01 70.4121C177.01 70.4121 176.701 69.5873 176.804 69.1748C176.907 68.7625 177.319 68.4528 177.731 68.3496L190.928 65.7725C191.649 65.6694 192.267 66.0821 192.474 66.8037C192.577 67.5252 192.165 68.1434 191.443 68.3496L183.456 69.9619C189.497 72.1268 192.714 74.8183 192.877 77.8027C192.883 77.8469 192.887 77.8912 192.887 77.9355C192.887 77.9573 192.885 77.9793 192.885 78.001C192.885 78.0143 192.887 78.0277 192.887 78.041C192.887 78.0667 192.883 78.092 192.882 78.1172C192.545 86.2061 169.718 90.7497 147.423 91.0146V113.179L157.835 112.577C158.002 112.577 158.176 112.616 158.342 112.685C158.903 112.69 159.503 112.71 160.104 112.785C160.236 112.785 160.362 112.809 160.478 112.854L208.543 119.997C208.548 119.998 208.552 119.998 208.557 119.999C210.479 120.287 212.043 120.845 213.666 121.838C213.929 121.86 214.197 121.966 214.434 122.163C218.042 124.947 220.309 129.483 220.206 133.606C220.206 133.803 220.159 133.983 220.08 134.143L216.598 215.259C216.598 215.269 216.596 215.28 216.596 215.29C216.597 215.313 216.599 215.336 216.599 215.358C216.392 219.791 213.918 223.915 210.001 225.977C209.795 226.08 209.588 226.183 209.382 226.183V226.163C209.068 226.296 208.732 226.415 208.374 226.5C208.246 226.584 208.1 226.653 207.938 226.699L138.412 241.013C138.275 241.109 138.116 241.185 137.938 241.235C136.804 241.442 135.361 241.648 133.814 241.648V241.442C131.237 241.442 128.247 241.029 126.392 239.896C126.314 239.844 126.242 239.787 126.178 239.726L87.1191 216.27C86.9515 216.249 86.7208 216.203 86.5986 216.081C85.5119 215.39 84.6161 214.601 83.8174 213.63C83.3137 213.099 82.8845 212.47 82.6807 212.062L82.6797 212.061C81.4426 210.102 80.9273 208.143 80.8242 205.875C80.8242 205.69 80.8576 205.512 80.9199 205.35L79.8965 129.279V129.278C79.897 127.835 80.515 125.466 80.8242 124.332C80.866 124.186 80.9339 124.057 81.0195 123.945C80.9995 123.725 81.0338 123.501 81.1348 123.299C82.0626 121.34 83.9181 119.588 85.3613 118.454C85.5181 118.35 85.6814 118.277 85.8447 118.237C87.6487 117.076 89.555 116.492 91.752 116.393C91.7653 116.393 91.7787 116.393 91.792 116.394C91.8132 116.392 91.8349 116.391 91.8564 116.391L144.949 113.321V91.0254C122.079 90.9716 97.835 86.4412 97.835 77.9355C97.8352 74.4306 101.959 71.3379 110.103 68.9668C110.824 68.7606 111.444 69.1726 111.753 69.791C111.959 70.5127 111.546 71.2352 110.928 71.4414C103.196 73.7093 100.516 76.2861 100.516 77.9355C100.516 82.8519 118.73 88.3777 144.949 88.4492V59.8965C144.949 59.1748 145.568 58.6592 146.187 58.6592ZM86.1035 121.07C85.8352 121.306 85.5626 121.559 85.2979 121.827L124.746 130.969C124.988 130.864 125.268 130.842 125.567 130.928C129.588 131.856 130.722 137.835 130.619 141.237C130.619 141.417 130.58 141.583 130.513 141.732L130 231.754C130 231.935 129.96 232.102 129.893 232.252C129.869 233.77 129.654 235.035 129.072 236.393C128.746 236.991 128.361 237.474 127.935 237.843C129.599 238.713 132.463 238.958 134.846 238.886C134.444 238.681 134.063 238.433 133.712 238.146C132.063 236.805 131.032 234.538 131.135 232.063C131.135 232.05 131.136 232.037 131.137 232.024C131.136 232.002 131.134 231.98 131.134 231.957L131.85 141.968C131.787 141.805 131.753 141.626 131.753 141.44C131.753 137.008 134.846 131.956 139.897 131.544C139.93 131.544 139.964 131.546 139.997 131.549H140L164.238 129.637L138.351 130.515H138.248C138.004 130.515 137.784 130.454 137.599 130.348C136.314 130.436 134.961 130.517 133.607 130.517L133.711 130.724C131.855 130.724 129.897 130.62 127.835 130.104C127.779 130.096 127.724 130.083 127.672 130.067L86.4941 121.135C86.39 121.135 86.2533 121.115 86.1035 121.07ZM140.103 134.022L140 134.126C139.874 134.126 139.748 134.104 139.627 134.063C136.386 134.565 134.4 137.858 134.238 140.933C134.297 141.091 134.329 141.263 134.329 141.441L133.607 232.061C133.607 232.071 133.606 232.081 133.605 232.091C133.607 232.116 133.608 232.141 133.608 232.166C133.608 233.815 134.227 235.362 135.258 236.29C136.068 236.92 137.036 237.236 138.093 237.1C138.249 236.969 138.44 236.868 138.66 236.806L208.97 222.476C209.132 222.452 209.288 222.457 209.437 222.483C211.928 221.745 213.716 218.529 213.814 215.874V215.871L217.319 133.813C217.319 133.809 217.319 133.804 217.319 133.8C217.316 131.95 216.801 130.103 215.773 129.178C215.052 128.559 214.227 128.25 213.3 128.353C213.107 128.38 212.921 128.355 212.753 128.293L140.103 134.022ZM83.9648 124.135C83.7617 124.199 83.4879 124.591 83.2998 125.155C83.2993 125.156 83.2983 125.158 83.2979 125.159C82.8858 126.499 82.4746 128.353 82.4746 129.28C82.4746 129.463 82.4402 129.639 82.3789 129.801L83.4023 205.774C83.4023 205.778 83.4014 205.782 83.4014 205.786C83.404 207.594 83.8975 209.108 84.7842 210.616C84.8432 210.679 84.8977 210.749 84.9482 210.825C85.0562 211.041 85.2774 211.341 85.5078 211.608C85.602 211.676 85.6922 211.756 85.7734 211.854C85.8191 211.914 85.8682 211.973 85.916 212.031C85.9764 212.085 86.0318 212.131 86.0801 212.163L86.082 212.164L125.464 235.669C125.587 235.751 125.693 235.846 125.782 235.949C125.848 235.967 125.913 235.98 125.979 235.98C126.289 235.98 126.495 235.568 126.805 235.155C127.32 234.124 127.423 233.196 127.423 231.856C127.423 231.678 127.46 231.513 127.526 231.364L128.041 141.238C128.041 141.233 128.041 141.228 128.041 141.224C128.038 138.608 127.277 134.733 125.525 133.646C125.401 133.688 125.275 133.712 125.154 133.712V133.609C125.154 133.609 124.948 133.609 124.845 133.609L83.9648 124.135ZM147.423 115.762V124.433C147.423 125.154 146.805 125.67 146.187 125.67C145.465 125.67 144.949 125.051 144.949 124.433V115.904L91.959 118.969H91.8721C91.8665 118.969 91.861 118.97 91.8555 118.97C91.2192 119.005 90.6314 119.089 90.0713 119.222L128.291 127.513C128.344 127.515 128.398 127.52 128.453 127.527C131.752 128.249 134.948 128.043 138.041 127.837C138.29 127.806 138.51 127.841 138.697 127.922L211.237 125.463C211.619 125.463 211.972 125.608 212.22 125.852L213.195 125.775C213.352 125.775 213.515 125.808 213.672 125.867C214.001 125.871 214.325 125.898 214.643 125.952C214.144 125.37 213.589 124.838 212.985 124.377C212.87 124.347 212.755 124.301 212.681 124.227C211.237 123.299 209.897 122.783 208.248 122.577C208.02 122.577 207.812 122.504 207.638 122.383L160.233 115.338C160.157 115.353 160.079 115.362 160.001 115.362V115.304L159.691 115.258C159.689 115.257 159.686 115.256 159.684 115.256C159.091 115.245 158.418 115.163 157.836 115.26C157.677 115.26 157.523 115.233 157.38 115.187L147.423 115.762Z" fill="white"/>
</g>
<defs>
<clipPath id="clip0_443_613">
<rect width="300" height="300" fill="white"/>
</clipPath>
</defs>
</svg>
