<svg width="300" height="300" viewBox="0 0 300 300" fill="none" xmlns="http://www.w3.org/2000/svg">
<g clip-path="url(#clip0_613_646)">
<path d="M149.896 0.104492C232.577 0.104492 299.896 67.4241 299.896 150.104C299.896 232.785 232.577 300.104 149.896 300.104C67.2162 300.104 -0.103516 232.785 -0.103516 150.104C-0.103513 67.4241 67.2162 0.104594 149.896 0.104492ZM149.896 7.83691C71.443 7.83702 7.62891 71.6509 7.62891 150.104C7.62891 228.558 71.443 292.372 149.896 292.372C228.35 292.372 292.165 228.558 292.165 150.104C292.165 71.6509 228.35 7.83691 149.896 7.83691ZM181.031 197.22C182.268 197.22 183.299 197.632 184.124 198.457C184.949 199.282 185.361 200.416 185.361 201.756C185.361 203.096 184.949 204.23 184.124 205.158C183.299 205.983 182.269 206.498 181.135 206.498C180.001 206.498 178.969 205.983 178.145 205.055V209.694H176.289V197.529H178.145V199.075C178.866 197.941 179.897 197.426 181.031 197.426V197.22ZM230.104 197.32C231.444 197.32 232.577 197.836 233.505 198.764L232.371 200.104C231.65 199.382 230.825 199.073 230 199.073C229.175 199.073 228.557 199.382 227.938 199.897C227.32 200.413 227.113 201.135 227.113 201.96C227.113 202.785 227.423 203.506 227.938 204.021C228.557 204.64 229.175 204.846 230 204.846C230.825 204.846 231.649 204.434 232.371 203.712L233.505 204.949C232.371 206.083 231.134 206.599 229.794 206.599V206.393C228.557 206.393 227.525 205.98 226.598 205.155C225.67 204.331 225.258 203.196 225.258 201.856C225.258 200.516 225.773 199.382 226.701 198.558C227.629 197.733 228.763 197.32 230.104 197.32ZM237.01 197.425H239.381V198.972H237.113V203.404C237.113 203.404 237.217 204.126 237.423 204.436C237.629 204.642 237.938 204.848 238.351 204.848C238.763 204.848 239.175 204.642 239.484 204.229L240.206 205.569C239.587 206.188 238.866 206.497 238.041 206.497C237.216 206.497 236.598 206.188 235.979 205.673C235.464 205.157 235.154 204.332 235.154 203.404V194.642H237.01V197.425ZM223.299 206.289H221.443V204.64C221.134 205.155 220.722 205.568 220.206 205.98C219.691 206.29 219.072 206.495 218.453 206.495C217.422 206.495 216.598 206.186 215.979 205.567C215.361 204.949 215.052 204.022 215.052 202.888V197.424H216.907V202.269C216.907 203.918 217.629 204.743 218.969 204.743C219.587 204.743 220.206 204.536 220.618 204.124C221.134 203.712 221.34 203.093 221.34 202.269L221.443 202.166V197.32H223.299V206.289ZM197.732 197.108C199.072 197.108 200.206 197.521 201.134 198.448C202.062 199.376 202.475 200.408 202.475 201.748C202.475 203.088 202.062 204.119 201.134 205.047C200.206 205.974 199.072 206.387 197.732 206.387C196.392 206.387 195.258 205.975 194.33 205.047C193.402 204.119 192.99 203.088 192.99 201.748C192.99 200.408 193.402 199.376 194.33 198.448C195.258 197.521 196.392 197.108 197.732 197.108ZM213.093 206.19H211.237V204.85C210.516 205.88 209.485 206.293 208.248 206.293C207.114 206.293 206.083 205.88 205.258 205.056H205.155C204.331 204.231 203.918 203.097 203.918 201.654C203.918 200.211 204.33 199.18 205.258 198.355C206.083 197.531 207.114 197.118 208.351 197.118C209.588 197.118 210.516 197.633 211.237 198.664V193.716H213.093V206.19ZM192.062 199.075C191.134 199.075 190.515 199.385 190 200.003C189.485 200.621 189.278 201.447 189.278 202.478V206.292H187.423V197.323H189.278V198.82C190.407 197.228 192.045 197.22 192.062 197.22V199.075ZM208.557 198.87C207.835 198.87 207.113 199.18 206.598 199.695C206.082 200.314 205.773 200.933 205.773 201.86C205.773 202.685 206.082 203.406 206.598 203.922C207.113 204.437 207.835 204.747 208.557 204.747C209.278 204.747 209.897 204.437 210.412 203.922C210.928 203.406 211.134 202.685 211.134 201.86C211.134 201.036 210.928 200.314 210.412 199.695C209.897 199.077 209.278 198.87 208.557 198.87ZM197.835 198.964C197.01 198.964 196.392 199.274 195.773 199.789C195.258 200.305 194.948 201.026 194.948 201.851C194.948 202.675 195.258 203.397 195.773 203.912C196.289 204.428 197.01 204.737 197.835 204.737C198.66 204.737 199.279 204.428 199.897 203.912C200.413 203.397 200.722 202.675 200.722 201.851C200.722 201.026 200.413 200.304 199.897 199.789C199.382 199.274 198.66 198.964 197.835 198.964ZM180.722 198.767C179.897 198.767 179.382 199.075 178.866 199.591C178.351 200.106 178.145 200.828 178.145 201.756C178.145 202.58 178.351 203.302 178.866 203.817C179.382 204.333 180 204.643 180.722 204.643C181.443 204.643 182.062 204.333 182.681 203.817C183.196 203.302 183.506 202.581 183.506 201.756C183.506 200.931 183.196 200.209 182.681 199.591C182.165 199.075 181.546 198.767 180.722 198.767ZM179.897 178.866C181.237 178.866 182.371 179.382 183.299 180.31L182.165 181.649C181.443 180.928 180.619 180.619 179.794 180.619C178.969 180.619 178.351 180.928 177.732 181.443C177.114 181.959 176.907 182.681 176.907 183.506C176.907 184.33 177.217 185.052 177.732 185.567C178.351 186.186 178.969 186.392 179.794 186.392C180.619 186.392 181.443 185.979 182.165 185.258L183.299 186.495C182.165 187.629 180.928 188.145 179.588 188.145V187.938C178.351 187.938 177.32 187.526 176.393 186.701C175.465 185.876 175.052 184.743 175.052 183.402C175.052 182.062 175.567 180.928 176.495 180.104C177.423 179.279 178.557 178.866 179.897 178.866ZM203.401 178.971H205.772V180.518H203.505V184.95C203.505 184.95 203.608 185.672 203.814 185.981C204.021 186.188 204.33 186.394 204.742 186.394C205.154 186.394 205.567 186.188 205.876 185.775L206.598 187.115C205.979 187.734 205.257 188.043 204.433 188.043C203.608 188.043 202.99 187.734 202.371 187.219C201.856 186.703 201.546 185.878 201.546 184.95V176.188H203.401V178.971ZM186.083 179.795C187.217 178.97 188.248 178.662 189.588 178.765C190.928 178.868 191.958 179.383 192.783 180.414C193.704 181.642 193.508 182.87 193.505 182.888L186.701 184.95C187.217 185.878 188.145 186.29 189.382 186.29C190.619 186.29 191.547 185.362 191.547 185.362L192.577 186.702C191.959 187.218 190.619 188.042 188.866 187.939C187.423 187.836 186.392 187.321 185.567 186.394C184.743 185.363 184.536 184.228 184.536 182.991C184.639 181.651 185.052 180.517 186.083 179.795ZM224.021 179.795C225.154 178.97 226.185 178.662 227.525 178.765C228.866 178.868 229.897 179.383 230.722 180.414C231.641 181.641 231.447 182.867 231.443 182.888L224.64 184.95C225.155 185.878 226.083 186.29 227.319 186.29C228.547 186.29 229.471 185.376 229.484 185.362L230.516 186.702C229.897 187.218 228.556 188.043 226.804 187.939C225.361 187.836 224.33 187.321 223.505 186.394C222.68 185.363 222.475 184.228 222.475 182.991C222.578 181.651 222.99 180.517 224.021 179.795ZM241.752 187.837H239.896V186.496C239.175 187.527 238.144 187.939 236.907 187.939C235.773 187.939 234.742 187.527 233.917 186.702H233.814C232.99 185.877 232.577 184.744 232.577 183.301C232.577 181.858 232.989 180.827 233.917 180.002C234.742 179.177 235.773 178.765 237.01 178.765C238.247 178.765 239.175 179.28 239.896 180.311V175.362H241.752V187.837ZM199.896 180.621C198.969 180.621 198.35 180.93 197.835 181.549C197.319 182.167 197.113 182.993 197.113 184.023V187.838H195.258V178.869H197.113V180.366C198.238 178.778 199.871 178.766 199.896 178.766V180.621ZM210.103 187.832H208.247V178.862H210.103V187.832ZM221.03 187.832H219.175V178.862H221.03V187.832ZM215.67 175.675C216.598 175.675 217.422 175.984 218.041 176.603L217.319 178.149C217.319 178.149 216.392 177.531 215.773 177.53C214.846 177.53 214.33 177.943 214.33 178.768V180.314H216.701V181.86H214.33V187.736H212.474V178.768C212.474 177.84 212.783 177.015 213.401 176.5C214.02 175.985 214.742 175.675 215.67 175.675ZM237.217 180.414C236.495 180.414 235.773 180.723 235.258 181.238C234.742 181.857 234.433 182.476 234.433 183.403C234.433 184.228 234.742 184.95 235.258 185.466C235.773 185.981 236.495 186.29 237.217 186.29C237.938 186.29 238.557 185.981 239.072 185.466C239.588 184.95 239.794 184.228 239.794 183.403C239.794 182.579 239.588 181.857 239.072 181.238C238.557 180.62 237.938 180.414 237.217 180.414ZM229.278 181.754C228.866 180.62 227.422 180.105 226.082 180.62C224.856 181.029 224.239 182.146 224.228 183.37L229.278 181.754ZM191.34 181.754C190.927 180.62 189.485 180.105 188.145 180.62C186.919 181.029 186.301 182.145 186.29 183.369L191.34 181.754ZM209.175 175.151C209.484 175.151 209.794 175.255 210 175.461C210.206 175.667 210.309 175.976 210.309 176.285C210.309 176.594 210.206 176.904 210 177.11C209.794 177.317 209.484 177.419 209.175 177.419C208.866 177.419 208.557 177.316 208.351 177.11C208.351 177.11 208.041 176.594 208.041 176.285C208.041 175.976 208.144 175.667 208.351 175.461C208.557 175.255 208.866 175.151 209.175 175.151ZM220.103 175.151C220.412 175.151 220.722 175.255 220.928 175.461C221.134 175.667 221.237 175.976 221.237 176.285C221.237 176.594 221.134 176.904 220.928 177.11C220.722 177.316 220.412 177.419 220.103 177.419C219.793 177.419 219.484 177.316 219.278 177.11C219.278 177.11 218.969 176.594 218.969 176.285C218.969 175.976 219.072 175.667 219.278 175.461C219.484 175.255 219.793 175.151 220.103 175.151ZM152.681 128.146C156.804 128.146 160.206 130.414 162.165 133.403V128.764H170.619V153.712C170.619 161.856 168.351 167.011 164.846 170.104C161.959 172.681 158.145 173.918 153.815 173.918C143.741 173.918 138.586 167.357 138.558 167.32L143.918 161.753C143.918 161.753 151.341 169.382 158.454 164.949C161.856 162.887 162.578 158.764 162.578 155.465V154.434L162.475 154.537C159.794 157.527 156.598 159.176 152.475 159.176C144.124 159.176 138.66 152.887 138.66 143.712C138.66 134.537 144.33 128.146 152.681 128.146ZM29.7939 125.772C45.2578 123.608 55.6706 123.917 60.8252 124.433L33.1963 152.782C33.1963 152.782 32.7836 159.278 41.4434 160.618V160.721C45.8764 161.236 56.3922 161.958 73.1963 159.793C68.1447 165.669 60.6181 169.381 52.2676 169.381C37.0101 169.381 24.6397 157.009 24.6396 141.752C24.6396 135.773 26.5981 130.309 29.7939 125.772ZM183.712 131.95C185.98 129.373 188.97 128.136 192.578 128.136C196.186 128.136 199.382 129.476 202.062 132.362L202.269 132.466C204.949 135.249 206.289 138.857 206.289 143.394C206.289 147.93 204.846 151.641 202.062 154.631C199.279 157.62 196.186 159.167 192.578 159.167C188.97 159.167 186.083 157.62 183.712 154.733V158.651H175.361V118.651H183.712V131.95ZM214.021 131.649C217.526 128.866 221.134 127.629 225.67 128.041C230.206 128.453 233.815 130.206 236.495 133.608C239.691 137.629 239.69 142.681 239.69 142.681L218.763 149.382C220.309 151.134 221.753 151.856 223.814 152.062V151.959C228.35 152.371 231.855 149.073 232.165 148.454L237.011 153.608C236.392 154.33 231.031 159.588 223.196 158.97C218.66 158.557 215.052 156.804 212.269 153.608C209.485 150.413 208.351 146.598 208.66 142.269C208.969 137.939 210.618 134.227 214.021 131.649ZM247.629 131.649C251.134 128.866 254.742 127.629 259.278 128.041C263.814 128.453 267.423 130.206 270.104 133.608C273.299 137.629 273.299 142.681 273.299 142.681L252.371 149.382C253.917 151.134 255.361 151.856 257.423 152.062V151.959C261.958 152.371 265.463 149.073 265.773 148.454L270.619 153.608C270.001 154.33 264.64 159.588 256.805 158.97C252.269 158.557 248.66 156.804 245.877 153.608C243.094 150.413 241.959 146.598 242.269 142.269C242.578 137.939 244.227 134.227 247.629 131.649ZM122.371 135.153L107.835 151.545H123.196V158.556H97.1133V151.648L111.237 135.565H98.248V128.658H122.371V135.153ZM135.361 158.556H126.907V128.658H135.361V158.556ZM52.2676 114.021C67.5253 114.021 79.8965 126.392 79.8965 141.649C79.8964 147.216 78.2473 152.268 75.4639 156.598C59.4847 158.866 48.8662 158.556 43.6084 158.041L71.2373 129.69C71.2373 129.69 71.6491 123.196 62.9893 121.855V121.752C58.6591 121.133 48.5561 120.412 32.3711 122.474C37.4225 117.319 44.4328 114.021 52.2676 114.021ZM154.846 134.949C150.516 134.949 147.526 138.351 147.526 143.3C147.526 148.248 150.516 151.96 154.846 151.96C159.176 151.96 162.269 148.145 162.269 143.3C162.269 138.454 159.176 134.949 154.846 134.949ZM190.619 134.837C186.289 134.837 183.3 138.239 183.3 143.188C183.3 148.136 186.289 151.848 190.619 151.848C194.949 151.848 198.042 148.033 198.042 143.188C198.042 138.342 194.949 134.837 190.619 134.837ZM231.649 138.866C229.588 135.67 225.979 134.33 222.165 135.67C218.557 137.01 216.599 140.103 216.805 143.608L231.649 138.866ZM265.155 138.866C263.093 135.67 259.484 134.33 255.67 135.67C252.062 137.01 250.103 140.103 250.31 143.608L265.155 138.866ZM126.907 123.913C124.434 119.274 129.176 114.635 133.814 117.006C134.536 117.418 135.156 118.038 135.465 118.656C137.938 123.295 133.196 127.934 128.558 125.563C127.836 125.151 127.217 124.532 126.907 123.913Z" fill="#1C1E28"/>
</g>
<defs>
<clipPath id="clip0_613_646">
<rect width="300" height="300" fill="white"/>
</clipPath>
</defs>
</svg>
