<svg width="300" height="300" viewBox="0 0 300 300" fill="none" xmlns="http://www.w3.org/2000/svg">
<g clip-path="url(#clip0_613_688)">
<path d="M150 0C232.68 0 300 67.3196 300 150C300 232.68 232.68 300 150 300C67.3196 300 0 232.68 0 150C2.15448e-06 67.3196 67.3196 2.15503e-06 150 0ZM150 7.73242C71.5464 7.73242 7.73242 71.5464 7.73242 150C7.73242 228.454 71.5464 292.268 150 292.268C228.454 292.268 292.268 228.454 292.268 150C292.268 71.5464 228.454 7.73242 150 7.73242ZM120.104 254.844L120 254.946L120.078 254.828L120.104 254.844ZM153.814 49.998L129.69 130.72L193.711 144.225L192.681 145.771L120.078 254.828L117.835 253.503L166.083 159.482L106.392 145.152L151.443 49.0703L153.814 49.998ZM110.104 143.297L169.896 157.73L130.516 234.534L189.588 145.771L126.598 132.473L146.495 65.7715L110.104 143.297Z" fill="#1C1E28"/>
</g>
<defs>
<clipPath id="clip0_613_688">
<rect width="300" height="300" fill="white"/>
</clipPath>
</defs>
</svg>
