<svg width="300" height="300" viewBox="0 0 300 300" fill="none" xmlns="http://www.w3.org/2000/svg">
<g clip-path="url(#clip0_613_493)">
<path d="M150 0C232.68 0 300 67.3196 300 150C300 232.68 232.68 300 150 300C67.3197 300 0 232.68 0 150C2.15447e-06 67.3197 67.3197 0.000109858 150 0ZM150 7.73242C71.5465 7.73253 7.73242 71.5465 7.73242 150C7.73242 228.454 71.5465 292.267 150 292.268C228.454 292.268 292.269 228.454 292.269 150C292.269 71.5464 228.454 7.73242 150 7.73242ZM150.722 86.7031C158.66 86.7031 165.052 93.1978 164.949 101.136C164.949 108.557 159.122 114.682 151.849 115.309L151.448 184.687C152.626 184.809 153.786 185.079 154.907 185.497L184.542 122.836C181.729 121.129 179.538 118.523 178.454 115.362C177.217 111.754 177.32 107.837 178.97 104.435C180.619 101.033 183.505 98.3514 187.113 97.1143C190.721 95.8772 194.639 95.9806 198.041 97.6299C205.154 101.032 208.248 109.589 204.846 116.702C203.196 120.104 200.309 122.784 196.701 124.021C195.155 124.537 193.505 124.847 191.855 124.847C190.199 124.847 188.477 124.58 186.901 123.994L157.274 186.64C158.322 187.265 159.262 188.003 160.087 188.83L213.302 144.684C211.403 141.905 210.564 138.622 210.928 135.26C211.34 131.445 213.093 128.043 216.083 125.569C222.165 120.518 231.238 121.343 236.289 127.425C238.763 130.414 239.898 134.126 239.485 137.94C239.073 141.755 237.32 145.158 234.33 147.632C231.753 149.797 228.557 150.931 225.258 150.931H223.814C220.396 150.561 217.309 149.114 214.924 146.666L161.725 190.799C162.442 191.837 163.015 192.958 163.436 194.132L230.258 176.613C229.051 169.387 233.5 162.261 240.722 160.31C248.351 158.351 256.186 162.888 258.248 170.517C260.206 178.145 255.67 185.98 248.041 188.042C246.804 188.351 245.67 188.454 244.434 188.454L244.33 188.558C238.366 188.558 232.942 184.878 230.902 179.109L164.087 196.626C164.623 199.812 164.098 203.192 162.371 206.191C159.691 210.727 154.948 213.305 150 213.305V213.202C147.526 213.202 145.051 212.583 142.783 211.243C137.346 208.03 134.805 201.789 136.003 195.938L68.9795 177.532C66.8598 183.212 61.4392 186.808 55.5674 186.808L55.6699 186.911C54.4329 186.911 53.1955 186.705 51.8555 186.396C44.2269 184.334 39.7937 176.395 41.8555 168.767C42.8864 165.055 45.2577 161.962 48.5566 160.106C51.8556 158.251 55.7736 157.736 59.3818 158.767C63.0931 159.798 66.1854 162.169 68.041 165.468C69.6856 168.391 70.2761 171.8 69.6719 175.05L136.747 193.471C136.995 192.854 137.288 192.247 137.629 191.655C137.884 191.225 138.159 190.811 138.452 190.413L85.5645 145.425C83.165 147.802 80.0053 149.314 76.5977 149.59H75.4639C72.0618 149.59 68.8659 148.352 66.1855 146.188C63.2992 143.713 61.4436 140.209 61.2373 136.395C60.928 132.58 62.1654 128.868 64.6396 125.981C69.7943 120.002 78.8664 119.281 84.8457 124.332C87.7322 126.806 89.4847 130.312 89.7939 134.126C90.0664 137.486 89.1375 140.765 87.2217 143.472L140.146 188.493C141.013 187.671 141.975 186.961 143.02 186.384L114.016 123.274C112.502 123.806 110.89 124.123 109.278 124.123C107.629 124.123 105.876 123.813 104.33 123.194C100.722 121.854 97.9385 119.174 96.2891 115.772C94.7427 112.267 94.5369 108.453 95.877 104.845C97.2171 101.237 99.8969 98.4522 103.299 96.8027C106.804 95.2563 110.722 95.0504 114.228 96.3906C117.836 97.7309 120.619 100.412 122.269 103.813C125.39 110.642 122.695 118.578 116.369 122.206L145.389 185.349C145.718 185.24 146.052 185.143 146.392 185.058C147.215 184.852 148.045 184.717 148.872 184.653L149.271 115.299C141.97 114.613 136.294 108.413 136.392 100.93C136.392 93.0948 142.887 86.7033 150.722 86.7031ZM155.979 188.769C153.299 187.222 150.103 186.708 147.113 187.532C144.124 188.357 141.546 190.213 140 192.996C136.701 198.563 138.66 205.779 144.227 209.078H144.124C149.691 212.377 156.907 210.418 160.206 204.852C163.505 199.285 161.547 192.068 155.979 188.769ZM244.33 162.578C243.402 162.578 242.372 162.681 241.341 162.99C235.052 164.64 231.341 171.032 232.99 177.32C234.64 183.609 241.032 187.32 247.32 185.671C253.609 184.021 257.319 177.629 255.67 171.341C254.33 166.083 249.485 162.578 244.33 162.578ZM55.6699 160.828C50.5154 160.828 45.7733 164.231 44.3301 169.488C42.5776 175.674 46.2888 182.168 52.5771 183.921C58.7627 185.673 65.2582 181.962 67.0107 175.674C67.8355 172.684 67.4233 169.488 65.877 166.808C64.3306 164.127 61.7524 162.169 58.7627 161.241C57.7318 160.932 56.7008 160.828 55.6699 160.828ZM225.111 124.848C222.447 124.858 219.885 125.785 217.629 127.528C215.258 129.487 213.712 132.374 213.402 135.467C213.093 138.559 214.021 141.652 216.083 144.023C218.042 146.394 220.928 147.941 224.021 148.25C227.216 148.559 230.207 147.631 232.578 145.569C234.949 143.611 236.495 140.724 236.805 137.632C237.114 134.539 236.186 131.445 234.124 129.074C231.767 126.307 228.492 124.864 225.111 124.848ZM75.5674 123.508C72.2684 123.508 68.9688 124.95 66.5977 127.631C64.5359 130.002 63.6084 133.095 63.8145 136.188C64.0206 139.28 65.5673 142.167 67.9385 144.126C70.3096 146.188 73.4024 147.218 76.4951 146.909C79.5877 146.703 82.4743 145.157 84.5361 142.786C86.5979 140.415 87.5254 137.322 87.3193 134.229C87.1132 131.137 85.5674 128.249 83.1963 126.188C81.0314 124.332 78.2477 123.404 75.5674 123.404V123.508ZM191.855 98.8672C190.515 98.8672 189.175 99.0735 187.938 99.5889C184.949 100.62 182.578 102.785 181.237 105.568C179.897 108.352 179.691 111.547 180.825 114.537C181.856 117.527 184.021 119.898 186.805 121.238C192.681 124.022 199.691 121.547 202.475 115.671C205.258 109.795 202.783 102.784 196.907 100.001C195.361 99.2794 193.608 98.8672 191.855 98.8672ZM109.278 98.04C107.629 98.0401 105.98 98.4528 104.434 99.0713C101.547 100.411 99.3815 102.679 98.3506 105.669C97.3197 108.659 97.4232 111.751 98.6602 114.638C100 117.524 102.268 119.69 105.258 120.721C108.144 121.855 111.341 121.648 114.228 120.411C120.103 117.731 122.68 110.721 120 104.845C118.66 101.958 116.392 99.7926 113.402 98.7617C112.062 98.2463 110.722 98.04 109.278 98.04ZM150.619 89.2803C144.227 89.2803 138.866 94.538 138.866 100.93C138.866 107.424 144.021 112.682 150.516 112.785C156.907 112.785 162.269 107.527 162.269 101.136C162.268 94.6412 157.114 89.3835 150.619 89.2803Z" fill="white"/>
</g>
<defs>
<clipPath id="clip0_613_493">
<rect width="300" height="300" fill="white"/>
</clipPath>
</defs>
</svg>
