<svg width="300" height="300" viewBox="0 0 300 300" fill="none" xmlns="http://www.w3.org/2000/svg">
<g clip-path="url(#clip0_33_1570)">
<path d="M224.227 230.101H190.619V227.524H221.649V85.7712H79.8969V227.524H126.392L179.072 205.05L180.103 207.421L126.701 230.101H77.3196V83.1938H224.227V230.101Z" fill="#1C1E28"/>
<path d="M150 300C67.3196 300 0 232.68 0 150C0 67.3196 67.3196 0 150 0C232.68 0 300 67.3196 300 150C300 232.68 232.68 300 150 300ZM150 7.73196C71.5464 7.73196 7.73196 71.5464 7.73196 150C7.73196 228.454 71.5464 292.268 150 292.268C228.454 292.268 292.268 228.454 292.268 150C292.268 71.5464 228.454 7.73196 150 7.73196Z" fill="#1C1E28"/>
</g>
<defs>
<clipPath id="clip0_33_1570">
<rect width="300" height="300" fill="white"/>
</clipPath>
</defs>
</svg>
