<svg width="300" height="300" viewBox="0 0 300 300" fill="none" xmlns="http://www.w3.org/2000/svg">
<g clip-path="url(#clip0_38_3)">
<path d="M214.536 203.608H88.9691C77.2165 203.608 67.6288 194.02 67.6288 182.268V119.278C67.6288 107.526 77.2165 97.938 88.9691 97.938H214.536V203.608ZM88.9691 100.515C78.6598 100.515 70.2062 108.969 70.2062 119.278V182.268C70.2062 192.577 78.6598 201.031 88.9691 201.031H211.959V100.515H88.9691Z" fill="#1C1E28"/>
<path d="M101.134 99.2773H98.5566V202.37H101.134V99.2773Z" fill="#1C1E28"/>
<path d="M202.99 108.248H130.825V110.825H202.99V108.248Z" fill="#1C1E28"/>
<path d="M202.99 118.557H130.825V121.134H202.99V118.557Z" fill="#1C1E28"/>
<path d="M202.99 128.866H130.825V131.444H202.99V128.866Z" fill="#1C1E28"/>
<path d="M202.99 139.175H130.825V141.753H202.99V139.175Z" fill="#1C1E28"/>
<path d="M202.99 149.484H130.825V152.062H202.99V149.484Z" fill="#1C1E28"/>
<path d="M202.99 159.794H130.825V162.371H202.99V159.794Z" fill="#1C1E28"/>
<path d="M202.99 170.103H130.825V172.68H202.99V170.103Z" fill="#1C1E28"/>
<path d="M202.99 180.413H130.825V182.99H202.99V180.413Z" fill="#1C1E28"/>
<path d="M202.99 190.722H130.825V193.299H202.99V190.722Z" fill="#1C1E28"/>
<path d="M70.2061 162.371H57.3195V139.175H70.2061V162.371ZM59.8969 159.794H67.6288V141.753H59.8969V159.794Z" fill="#1C1E28"/>
<path d="M235.155 193.299H211.959V108.248H235.155V193.299ZM214.536 190.722H232.577V110.825H214.536V190.722Z" fill="#1C1E28"/>
<path d="M150 300C67.3196 300 0 232.68 0 150C0 67.3196 67.3196 0 150 0C232.68 0 300 67.3196 300 150C300 232.68 232.68 300 150 300ZM150 7.73196C71.5464 7.73196 7.73196 71.5464 7.73196 150C7.73196 228.454 71.5464 292.268 150 292.268C228.454 292.268 292.268 228.454 292.268 150C292.268 71.5464 228.454 7.73196 150 7.73196Z" fill="#1C1E28"/>
</g>
<defs>
<clipPath id="clip0_38_3">
<rect width="300" height="300" fill="white"/>
</clipPath>
</defs>
</svg>
