<svg width="300" height="300" viewBox="0 0 300 300" fill="none" xmlns="http://www.w3.org/2000/svg">
<g clip-path="url(#clip0_38_16)">
<path d="M289.175 110.825H189.381V113.402H289.175V110.825Z" fill="#1C1E28"/>
<path d="M117.217 110.825H10.8252V113.402H117.217V110.825Z" fill="#1C1E28"/>
<path d="M289.175 193.299H189.381V195.876H289.175V193.299Z" fill="#1C1E28"/>
<path d="M117.217 193.299H10.8252V195.876H117.217V193.299Z" fill="#1C1E28"/>
<path d="M67.5251 159.791H46.9065C43.2983 159.791 40.5148 156.905 40.5148 153.4C40.5148 149.894 43.4014 147.008 46.9065 147.008H67.5251C71.1333 147.008 73.9168 149.894 73.9168 153.4C73.9168 156.905 71.0302 159.791 67.5251 159.791ZM46.9065 149.482C44.7416 149.482 42.989 151.235 42.989 153.4C42.989 155.565 44.7416 157.317 46.9065 157.317H67.5251C69.69 157.317 71.4426 155.565 71.4426 153.4C71.4426 151.235 69.69 149.482 67.5251 149.482H46.9065Z" fill="#1C1E28"/>
<path d="M117.216 159.791H108.762C105.257 159.791 102.37 156.905 102.37 153.4C102.37 149.894 105.257 147.008 108.762 147.008H117.216V149.585H108.762C106.597 149.585 104.845 151.338 104.845 153.503C104.845 155.668 106.597 157.42 108.762 157.42H117.216V159.998V159.791Z" fill="#1C1E28"/>
<path d="M191.237 159.796H189.381V157.219H191.237C193.402 157.219 195.155 155.466 195.155 153.301C195.155 151.137 193.402 149.384 191.237 149.384H189.381V146.807H191.237C194.845 146.807 197.629 149.693 197.629 153.198C197.629 156.704 194.742 159.59 191.237 159.59" fill="#1C1E28"/>
<path d="M253.092 159.791H232.474C228.865 159.791 226.082 156.905 226.082 153.4C226.082 149.894 228.968 147.008 232.474 147.008H253.092C256.7 147.008 259.484 149.894 259.484 153.4C259.484 156.905 256.597 159.791 253.092 159.791ZM232.474 149.482C230.309 149.482 228.556 151.235 228.556 153.4C228.556 155.565 230.309 157.317 232.474 157.317H253.092C255.257 157.317 257.01 155.565 257.01 153.4C257.01 151.235 255.257 149.482 253.092 149.482H232.474Z" fill="#1C1E28"/>
<path d="M180.722 224.228H125.773C120.309 224.228 115.876 220.826 115.876 216.599V194.537H118.454V216.599C118.454 219.382 121.753 221.651 125.773 221.651H180.722C184.742 221.651 188.041 219.382 188.041 216.599V194.537H190.618V216.599C190.618 220.826 186.186 224.228 180.722 224.228Z" fill="#1C1E28"/>
<path d="M190.618 112.164H188.041V194.638H190.618V112.164Z" fill="#1C1E28"/>
<path d="M118.454 194.639H115.876V87.2167C115.876 81.7528 120.309 77.3198 125.773 77.3198H180.722C186.186 77.3198 190.618 81.7528 190.618 87.2167V112.165H188.041V87.2167C188.041 83.1961 184.742 79.8971 180.722 79.8971H125.773C121.753 79.8971 118.454 83.1961 118.454 87.2167V194.639Z" fill="#1C1E28"/>
<path d="M150 300C67.3196 300 0 232.68 0 150C0 67.3196 67.3196 0 150 0C232.68 0 300 67.3196 300 150C300 232.68 232.68 300 150 300ZM150 7.73196C71.5464 7.73196 7.73196 71.5464 7.73196 150C7.73196 228.454 71.5464 292.268 150 292.268C228.454 292.268 292.268 228.454 292.268 150C292.268 71.5464 228.454 7.73196 150 7.73196Z" fill="#1C1E28"/>
</g>
<defs>
<clipPath id="clip0_38_16">
<rect width="300" height="300" fill="white"/>
</clipPath>
</defs>
</svg>
