<svg width="300" height="300" viewBox="0 0 300 300" fill="none" xmlns="http://www.w3.org/2000/svg">
<g clip-path="url(#clip0_38_69)">
<path d="M150 300C67.3196 300 0 232.68 0 150C0 67.3196 67.3196 0 150 0C232.68 0 300 67.3196 300 150C300 232.68 232.68 300 150 300ZM150 7.73196C71.5464 7.73196 7.73196 71.5464 7.73196 150C7.73196 228.454 71.5464 292.268 150 292.268C228.454 292.268 292.268 228.454 292.268 150C292.268 71.5464 228.454 7.73196 150 7.73196Z" fill="white"/>
<path d="M149.175 232.268C103.608 232.268 66.4944 195.155 66.4944 149.691C66.4944 104.227 103.608 67.0103 149.175 67.0103C194.742 67.0103 231.855 104.124 231.855 149.691C231.855 195.258 194.742 232.268 149.175 232.268ZM149.175 69.5876C105.051 69.5876 69.0717 105.464 69.0717 149.691C69.0717 193.917 104.948 229.691 149.175 229.691C193.402 229.691 229.278 193.814 229.278 149.691C229.278 105.567 193.402 69.5876 149.175 69.5876Z" fill="white"/>
<path d="M149.175 193.71C144.433 193.71 139.691 192.885 135.052 191.339C123.918 187.628 114.948 179.69 109.691 169.174C104.433 158.659 103.608 146.7 107.423 135.566C112.062 121.648 123.299 111.03 137.526 107.215L138.247 109.69C124.948 113.401 114.33 123.401 110 136.391C106.495 146.906 107.216 158.143 112.165 168.04C117.113 177.937 125.567 185.36 136.082 188.865C146.598 192.37 157.835 191.648 167.732 186.7C177.629 181.751 185.052 173.298 188.557 162.782C195.876 141.133 184.124 117.525 162.474 110.308L163.299 107.834C186.289 115.566 198.66 140.617 190.928 163.607C187.216 174.741 179.278 183.71 168.763 188.968C162.577 192.061 155.979 193.607 149.278 193.607" fill="white"/>
<path d="M150.413 91.958H147.836V161.958H150.413V91.958Z" fill="white"/>
<path d="M143.505 69.6907L141.753 67.9381L155.67 53.9175L157.526 55.7731L143.505 69.6907Z" fill="white"/>
<path d="M143.497 67.8963L141.675 69.7188L154.723 82.7674L156.546 80.945L143.497 67.8963Z" fill="white"/>
<path d="M143.092 245.464L141.237 243.608L155.257 229.588L157.01 231.444L143.092 245.464Z" fill="white"/>
<path d="M144 216.64L142.178 218.463L155.227 231.512L157.049 229.689L144 216.64Z" fill="white"/>
</g>
<defs>
<clipPath id="clip0_38_69">
<rect width="300" height="300" fill="white"/>
</clipPath>
</defs>
</svg>
