<svg width="300" height="300" viewBox="0 0 300 300" fill="none" xmlns="http://www.w3.org/2000/svg">
<g clip-path="url(#clip0_9_9)">
<path fill-rule="evenodd" clip-rule="evenodd" d="M150 7.61937C71.3404 7.61937 7.61937 71.4386 7.61937 150C7.61937 228.561 71.3404 292.381 150 292.381C228.661 292.381 292.381 228.661 292.381 150C292.381 71.3387 228.661 7.61937 150 7.61937ZM0 150C0 67.234 67.1289 0 150 0C232.869 0 300 67.1307 300 150C300 232.869 232.869 300 150 300C67.1289 300 0 232.766 0 150Z" fill="#1C1E28"/>
<path fill-rule="evenodd" clip-rule="evenodd" d="M113.833 80.1558C95.2339 80.1558 80.1559 95.2337 80.1559 113.833V186.167C80.1559 204.766 95.2339 219.844 113.833 219.844H186.167C204.766 219.844 219.844 204.766 219.844 186.167V113.833C219.844 95.2337 204.766 80.1558 186.167 80.1558H113.833ZM77.6161 113.833C77.6161 93.8311 93.8312 77.616 113.833 77.616H186.167C206.169 77.616 222.384 93.8311 222.384 113.833V186.167C222.384 206.169 206.169 222.384 186.167 222.384H113.833C93.8312 222.384 77.6161 206.169 77.6161 186.167V113.833Z" fill="#1C1E28"/>
<path fill-rule="evenodd" clip-rule="evenodd" d="M150 100.474C122.648 100.474 100.474 122.648 100.474 150C100.474 177.352 122.648 199.526 150 199.526C177.353 199.526 199.526 177.352 199.526 150C199.526 122.648 177.353 100.474 150 100.474ZM97.9344 150C97.9344 121.245 121.245 97.9343 150 97.9343C178.755 97.9343 202.066 121.245 202.066 150C202.066 178.755 178.755 202.066 150 202.066C121.245 202.066 97.9344 178.755 97.9344 150Z" fill="#1C1E28"/>
</g>
<defs>
<clipPath id="clip0_9_9">
<rect width="300" height="300" fill="white"/>
</clipPath>
</defs>
</svg>
