<svg width="300" height="300" viewBox="0 0 300 300" fill="none" xmlns="http://www.w3.org/2000/svg">
<g clip-path="url(#clip0_30_1092)">
<path d="M150 299.899C67.3284 299.899 0 232.672 0 150C0 67.3284 67.3284 0 150 0C232.672 0 300 67.2275 300 150C300 232.773 232.773 300 150 300V299.899ZM150 7.57066C71.467 7.57066 7.57066 71.467 7.57066 150C7.57066 228.533 71.467 292.429 150 292.429C228.533 292.429 292.429 228.533 292.429 150C292.429 71.467 228.533 7.57066 150 7.57066Z" fill="#1C1E28"/>
<path d="M102.759 227.825H83.0756C75.6058 227.825 69.5493 221.769 69.5493 214.299V156.257C69.5493 148.787 75.6058 142.731 83.0756 142.731H102.759C110.229 142.731 116.286 148.787 116.286 156.257V214.299C116.286 221.769 110.229 227.825 102.759 227.825ZM82.9746 145.355C76.9181 145.355 71.9719 150.302 71.9719 156.358V214.4C71.9719 220.456 76.9181 225.403 82.9746 225.403H102.658C108.715 225.403 113.661 220.456 113.661 214.4V156.358C113.661 150.302 108.715 145.355 102.658 145.355H82.9746Z" fill="#1C1E28"/>
<path d="M155.249 227.825H135.565C128.095 227.825 122.039 221.769 122.039 214.299V108.411C122.039 100.941 128.095 94.8845 135.565 94.8845H155.249C162.718 94.8845 168.775 100.941 168.775 108.411V214.299C168.775 221.769 162.718 227.825 155.249 227.825ZM135.565 97.4081C129.508 97.4081 124.562 102.354 124.562 108.411V214.299C124.562 220.356 129.508 225.302 135.565 225.302H155.249C161.305 225.302 166.251 220.356 166.251 214.299V108.411C166.251 102.354 161.305 97.4081 155.249 97.4081H135.565Z" fill="#1C1E28"/>
<path d="M207.133 227.826H187.449C179.98 227.826 173.923 221.769 173.923 214.3V60.8676C173.923 53.3978 179.98 47.3413 187.449 47.3413H207.133C214.603 47.3413 220.659 53.3978 220.659 60.8676V214.3C220.659 221.769 214.603 227.826 207.133 227.826ZM187.348 49.8649C181.292 49.8649 176.346 54.811 176.346 60.8676V214.3C176.346 220.356 181.292 225.302 187.348 225.302H207.032C213.089 225.302 218.035 220.356 218.035 214.3V60.8676C218.035 54.811 213.089 49.8649 207.032 49.8649H187.348Z" fill="#1C1E28"/>
</g>
<defs>
<clipPath id="clip0_30_1092">
<rect width="300" height="300" fill="white"/>
</clipPath>
</defs>
</svg>
