<svg width="300" height="300" viewBox="0 0 300 300" fill="none" xmlns="http://www.w3.org/2000/svg">
<g clip-path="url(#clip0_38_277)">
<path d="M73.125 175.209C66.4583 175.209 61.25 173.438 57.7083 169.688C52.9167 165.209 50.625 158.75 50.625 150.313C50.625 141.875 53.0208 135.209 57.7083 130.938C61.25 127.292 66.3542 125.417 73.125 125.417C79.8958 125.417 85 127.292 88.5417 130.938C93.2292 135.209 95.625 141.667 95.625 150.313C95.625 158.959 93.2292 165.209 88.5417 169.688C85 173.334 79.8958 175.209 73.125 175.209ZM82.3958 162.604C84.6875 159.792 85.8333 155.625 85.8333 150.417C85.8333 145.209 84.6875 141.042 82.3958 138.229C80.1042 135.313 77.0833 133.959 73.125 133.959C69.1667 133.959 66.1458 135.417 63.8542 138.229C61.5625 141.146 60.4167 145.209 60.4167 150.417C60.4167 155.625 61.5625 159.792 63.8542 162.604C66.1458 165.417 69.2708 166.875 73.125 166.875C76.9792 166.875 80.1042 165.417 82.3958 162.604Z" fill="white"/>
<path d="M118.75 145.831C115.625 145.831 113.542 147.081 112.396 149.789C111.771 151.144 111.562 152.914 111.562 155.102V173.852H102.5V139.164H111.25V144.269C112.396 142.498 113.542 141.248 114.583 140.414C116.458 139.06 118.854 138.331 121.667 138.331C125.208 138.331 128.229 139.269 130.521 141.144C132.812 143.019 133.958 146.144 133.958 150.519V173.852H124.687V152.706C124.687 150.831 124.479 149.477 123.958 148.539C123.021 146.769 121.354 145.831 118.854 145.831" fill="white"/>
<path d="M141.458 179.688H137.812L153.125 125.625H156.771L141.458 179.688Z" fill="white"/>
<path d="M181.875 175.209C175.208 175.209 170 173.438 166.458 169.688C161.667 165.209 159.375 158.75 159.375 150.313C159.375 141.875 161.771 135.209 166.458 130.938C170 127.292 175.104 125.417 181.875 125.417C188.646 125.417 193.75 127.292 197.292 130.938C201.979 135.209 204.375 141.667 204.375 150.313C204.375 158.959 201.979 165.209 197.292 169.688C193.75 173.334 188.646 175.209 181.875 175.209ZM191.146 162.604C193.438 159.792 194.583 155.625 194.583 150.417C194.583 145.209 193.438 141.042 191.146 138.229C188.854 135.313 185.833 133.959 181.875 133.959C177.917 133.959 174.896 135.417 172.604 138.229C170.313 141.146 169.167 145.209 169.167 150.417C169.167 155.625 170.313 159.792 172.604 162.604C174.896 165.417 178.021 166.875 181.875 166.875C185.729 166.875 188.854 165.417 191.146 162.604Z" fill="white"/>
<path d="M227.396 126.666V134.062C227.396 134.062 226.042 133.957 224.792 133.957C223.646 133.957 222.708 134.166 222.292 134.791C221.875 135.312 221.563 135.937 221.563 136.666V139.582H227.5V145.937H221.563V173.957H212.5V145.937H207.396V139.582H212.396V137.395C212.396 133.645 213.021 131.145 214.271 129.687C215.625 127.603 218.75 126.562 223.75 126.562C224.271 126.562 224.896 126.562 225.313 126.562C225.729 126.562 226.458 126.562 227.188 126.666" fill="white"/>
<path d="M249.167 126.666V134.062C249.167 134.062 247.813 133.957 246.563 133.957C245.417 133.957 244.479 134.166 244.063 134.791C243.646 135.312 243.333 135.937 243.333 136.666V139.582H249.271V145.937H243.333V173.957H234.271V145.937H229.167V139.582H234.167V137.395C234.167 133.645 234.792 131.145 236.042 129.687C237.396 127.603 240.521 126.562 245.521 126.562C246.042 126.562 246.667 126.562 247.083 126.562C247.5 126.562 248.229 126.562 248.958 126.666" fill="white"/>
<path d="M149.896 245.834C116.354 245.834 85.5208 227.501 69.4792 197.917L71.7708 196.667C87.3958 225.313 117.292 243.126 149.896 243.126C182.5 243.126 212.812 225.105 228.333 196.146L230.625 197.396C214.687 227.188 183.75 245.73 149.896 245.73V245.834Z" fill="white"/>
<path d="M81.8749 198.125L74.1666 203.333L66.5624 208.542L65.8333 199.271L65.2083 190.104L73.5416 194.166L81.8749 198.125Z" fill="white"/>
<path d="M69.0625 102.185L66.7709 100.935C82.7084 71.1437 113.646 52.6021 147.5 52.6021C181.354 52.6021 211.875 70.9354 227.917 100.519L225.625 101.769C210 73.1229 180.104 55.3104 147.5 55.3104C114.896 55.3104 84.5834 73.3312 69.1667 102.29L69.0625 102.185Z" fill="white"/>
<path d="M215.417 100.207L223.125 95.1029L230.729 89.8945L231.458 99.1654L232.083 108.332L223.75 104.27L215.417 100.207Z" fill="white"/>
<path d="M150 300C67.2917 300 0 232.708 0 150C0 67.2917 67.2917 0 150 0C232.708 0 300 67.2917 300 150C300 232.708 232.708 300 150 300ZM150 7.8125C71.5625 7.8125 7.8125 71.5625 7.8125 150C7.8125 228.438 71.5625 292.188 150 292.188C228.438 292.188 292.188 228.438 292.188 150C292.188 71.5625 228.333 7.8125 150 7.8125Z" fill="white"/>
</g>
<defs>
<clipPath id="clip0_38_277">
<rect width="300" height="300" fill="white"/>
</clipPath>
</defs>
</svg>
