<svg width="300" height="300" viewBox="0 0 300 300" fill="none" xmlns="http://www.w3.org/2000/svg">
<g clip-path="url(#clip0_613_587)">
<path d="M150.049 0C232.827 0.000199546 300 67.2703 300 150.049C300 232.827 232.73 300 150.049 300C67.2703 300 0.000199831 232.73 0 150.049C0 67.3671 67.2702 0 150.049 0ZM150.049 7.26953C71.3412 7.26953 7.26953 71.3412 7.26953 150.049C7.26973 228.756 71.3414 292.73 150.049 292.73C228.756 292.73 292.73 228.659 292.73 150.049C292.73 71.4383 228.659 7.26973 150.049 7.26953ZM150.437 67.0762C196.188 67.0764 233.408 104.298 233.408 150.049C233.408 152.006 233.339 153.964 233.202 155.979L235.832 156.155C237.286 156.252 238.061 157.9 237.286 159.16L232.245 166.527H232.439C231.567 167.69 229.822 167.593 229.144 166.236L227.205 162.262L225.267 158.288C224.588 156.931 225.654 155.477 227.108 155.574L230.875 155.824C231.012 153.869 231.082 151.925 231.082 150.049C231.082 105.655 194.927 69.4991 150.533 69.499C106.139 69.499 69.9834 105.655 69.9834 150.049C69.9835 194.443 106.139 230.598 150.533 230.598C169.144 230.598 187.173 224.104 201.519 212.375C202.003 211.987 202.779 211.988 203.264 212.569C203.651 213.054 203.651 213.829 203.069 214.313C188.336 226.43 169.628 233.021 150.533 233.021H150.437C104.685 233.021 67.4639 195.8 67.4639 150.049C67.4639 104.298 104.685 67.0762 150.437 67.0762ZM150.049 107.593C151.406 107.593 152.471 108.659 152.472 110.016V147.625H180.097C181.454 147.625 182.52 148.691 182.521 150.048C182.521 151.405 181.454 152.472 180.097 152.472H149.951C148.594 152.472 147.528 151.405 147.528 150.048C147.528 149.809 147.563 149.58 147.625 149.363V110.016C147.625 108.659 148.692 107.593 150.049 107.593Z" fill="#1C1E28"/>
</g>
<defs>
<clipPath id="clip0_613_587">
<rect width="300" height="300" fill="white"/>
</clipPath>
</defs>
</svg>
