<svg width="300" height="300" viewBox="0 0 300 300" fill="none" xmlns="http://www.w3.org/2000/svg">
<g clip-path="url(#clip0_610_294)">
<path d="M126.01 1.93945C165.557 -4.45794 205.202 4.84672 237.77 28.3037C270.242 51.7609 291.664 86.3655 298.158 125.913C304.652 165.461 295.25 205.105 271.793 237.674C248.336 270.145 213.732 291.567 174.184 298.062C166.042 299.419 157.9 300 149.854 300H149.661C118.449 300 88.1095 290.307 62.326 271.696C29.7576 248.239 8.33574 213.538 1.93832 174.088C-11.3412 92.3755 44.2972 15.219 126.01 1.93945ZM150.29 7.27051C142.648 7.273 134.91 7.85492 127.173 9.1123C89.5637 15.219 56.5106 35.5743 34.2166 66.4951C11.9228 97.4158 3.0047 135.218 9.11117 172.827C15.2178 210.436 35.5732 243.49 66.494 265.784C97.4148 288.078 135.121 296.995 172.827 290.889C210.436 284.782 243.489 264.427 265.686 233.506C287.98 202.585 296.898 164.782 290.792 127.173C284.685 89.564 264.33 56.5107 233.409 34.2168C208.899 16.488 180.031 7.28031 150.29 7.27051ZM189.984 53.5059C196.381 53.5061 201.615 58.7404 201.615 65.1377V231.083C201.615 237.48 196.381 242.715 189.984 242.715H108.562C102.165 242.715 96.9306 237.48 96.9305 231.083V65.1377C96.9306 58.7403 102.165 53.5059 108.562 53.5059H189.984ZM108.562 58.3525C104.782 58.3525 101.777 61.3574 101.777 65.1377V231.083C101.777 234.863 104.782 237.868 108.562 237.868H189.984C193.764 237.868 196.769 234.863 196.769 231.083V65.1377C196.769 61.3576 193.764 58.3527 189.984 58.3525H108.562ZM149.952 124.459C164.104 124.459 175.541 135.897 175.541 150.049C175.541 164.201 164.104 175.638 149.952 175.639C135.8 175.639 124.362 164.201 124.362 150.049C124.362 135.897 135.8 124.459 149.952 124.459ZM149.952 126.883C137.157 126.883 126.785 137.254 126.785 150.049C126.785 162.844 137.157 173.215 149.952 173.215C162.747 173.215 173.118 162.844 173.118 150.049C173.118 137.254 162.747 126.883 149.952 126.883ZM162.553 142.004C162.557 142.002 163.814 141.52 164.298 142.004C164.782 142.488 164.782 143.263 164.298 143.748L145.977 162.068C145.977 162.068 145.396 162.456 145.105 162.456C145.105 162.456 144.523 162.359 144.232 162.068L136.187 154.023C136.187 154.023 135.703 152.763 136.187 152.278C136.672 151.794 137.448 151.794 137.932 152.278L145.105 159.451L162.553 142.004ZM149.273 65.1377C151.696 65.1378 153.635 67.0768 153.635 69.5C153.635 71.9231 151.696 73.8612 149.273 73.8613C146.85 73.8613 144.911 71.9232 144.911 69.5C144.911 67.0767 146.85 65.1377 149.273 65.1377ZM149.273 67.5615C148.207 67.5615 147.335 68.4338 147.335 69.5C147.335 70.5662 148.207 71.4385 149.273 71.4385C150.339 71.4383 151.212 70.5661 151.212 69.5C151.212 68.4339 150.339 67.5617 149.273 67.5615Z" fill="white"/>
</g>
<defs>
<clipPath id="clip0_610_294">
<rect width="300" height="300" fill="white"/>
</clipPath>
</defs>
</svg>
