<svg width="300" height="300" viewBox="0 0 300 300" fill="none" xmlns="http://www.w3.org/2000/svg">
<g clip-path="url(#clip0_613_594)">
<path d="M126.009 1.93848C165.557 -4.45892 205.201 4.84665 237.77 28.3037C270.242 51.7608 291.664 86.3646 298.159 125.912C304.653 165.46 295.251 205.105 271.794 237.674C248.336 270.146 213.732 291.567 174.184 298.062C166.042 299.419 157.9 300 149.855 300H149.661C118.449 300 88.1102 290.307 62.3268 271.696C29.7581 248.239 8.33647 213.538 1.93906 174.087C-11.3404 92.3746 44.2971 15.2181 126.009 1.93848ZM150.29 7.26953C142.648 7.27204 134.91 7.85395 127.172 9.11133C89.5636 15.218 56.5103 35.5734 34.2164 66.4941C11.9224 97.415 3.00529 135.218 9.11191 172.827C15.2186 210.436 35.5739 243.489 66.4947 265.783C97.4154 288.077 135.121 296.995 172.827 290.889C210.436 284.782 243.489 264.426 265.686 233.506C287.98 202.585 296.898 164.782 290.792 127.173C284.685 89.5638 264.33 56.5098 233.409 34.2158C208.898 16.487 180.031 7.27929 150.29 7.26953ZM189.984 53.5059C196.381 53.5059 201.616 58.7396 201.616 65.1367V231.082C201.616 237.479 196.381 242.714 189.984 242.714H108.562C102.165 242.714 96.9303 237.479 96.9303 231.082V65.1367C96.9305 58.7395 102.165 53.5059 108.562 53.5059H189.984ZM108.562 58.3516C104.782 58.3516 101.777 61.3567 101.777 65.1367V231.082C101.777 234.862 104.782 237.867 108.562 237.867H189.984C193.764 237.867 196.769 234.862 196.769 231.082V65.1367C196.769 61.3567 193.764 58.3516 189.984 58.3516H108.562ZM149.952 124.459C164.103 124.459 175.541 135.896 175.542 150.048C175.542 164.2 164.104 175.638 149.952 175.638C135.8 175.638 124.362 164.2 124.362 150.048C124.362 135.896 135.8 124.459 149.952 124.459ZM149.952 126.882C137.157 126.882 126.785 137.253 126.785 150.048C126.785 162.843 137.157 173.215 149.952 173.215C162.746 173.215 173.118 162.843 173.118 150.048C173.118 137.253 162.746 126.882 149.952 126.882ZM162.552 142.003C162.552 142.003 163.813 141.518 164.297 142.003C164.782 142.488 164.782 143.263 164.297 143.748L145.977 162.067C145.977 162.067 145.396 162.455 145.105 162.455C145.105 162.455 144.524 162.358 144.233 162.067L136.187 154.022C136.181 154.007 135.706 152.759 136.187 152.277C136.672 151.793 137.448 151.793 137.932 152.277L145.105 159.45L162.552 142.003ZM149.273 65.1377C151.696 65.1377 153.635 67.0759 153.635 69.499C153.635 71.9223 151.696 73.8613 149.273 73.8613C146.85 73.8613 144.911 71.9223 144.911 69.499C144.911 67.0759 146.85 65.1377 149.273 65.1377ZM149.273 67.5605C148.207 67.5605 147.335 68.4329 147.335 69.499C147.335 70.5653 148.207 71.4375 149.273 71.4375C150.339 71.4375 151.212 70.5652 151.212 69.499C151.211 68.4329 150.339 67.5606 149.273 67.5605Z" fill="#1C1E28"/>
</g>
<defs>
<clipPath id="clip0_613_594">
<rect width="300" height="300" fill="white"/>
</clipPath>
</defs>
</svg>
