<svg width="300" height="300" viewBox="0 0 300 300" fill="none" xmlns="http://www.w3.org/2000/svg">
<g clip-path="url(#clip0_610_317)">
<path d="M150.115 -0.0986328C232.823 -0.0986328 300.164 67.2423 300.164 149.95C300.164 232.658 232.823 299.999 150.115 299.999V299.901C67.4071 299.901 0.0662231 232.658 0.0662231 149.95C0.0662783 67.2423 67.4071 -0.0985776 150.115 -0.0986328ZM150.115 7.24219C71.4202 7.24224 7.4071 71.2553 7.40704 149.95C7.40704 228.645 71.4202 292.658 150.115 292.658C228.81 292.658 292.823 228.645 292.823 149.95C292.823 71.2553 228.81 7.24219 150.115 7.24219ZM161.763 54.5176C162.35 54.5176 162.839 54.909 162.937 55.4961L167.342 73.7021C176.053 75.6597 184.373 79.0858 191.91 83.8818L207.962 74.0938C207.962 74.0938 209.039 73.8975 209.43 74.2891L225.874 90.7334C225.885 90.7566 226.359 91.7177 226.069 92.2012L216.282 108.253C221.078 115.79 224.503 124.11 226.461 132.821L244.667 137.226C245.254 137.324 245.645 137.813 245.645 138.4V161.695C245.645 162.283 245.254 162.772 244.667 162.87L226.461 167.274C224.503 175.985 221.078 184.305 216.282 191.842L226.069 207.895C226.071 207.903 226.264 208.972 225.874 209.362L209.43 225.807C209.43 225.807 208.353 226.296 207.962 226.002L191.91 216.214C184.373 221.01 176.053 224.436 167.342 226.394L162.937 244.6C162.839 245.187 162.35 245.578 161.763 245.578H138.468C137.88 245.578 137.391 245.187 137.293 244.6L132.888 226.394C124.177 224.436 115.858 221.01 108.321 216.214L92.2684 226.002C92.2556 226.004 91.19 226.195 90.8006 225.807L74.3563 209.362C74.3454 209.34 73.8707 208.378 74.1609 207.895L83.949 191.842C79.153 184.305 75.7269 175.986 73.7693 167.274L55.5643 162.87C54.977 162.772 54.5848 162.283 54.5848 161.695V138.4C54.5848 137.813 54.977 137.323 55.5643 137.226L73.7693 132.821C75.7269 124.012 79.153 115.79 83.949 108.253L74.1609 92.2012C74.1609 92.2012 73.9653 91.1253 74.3563 90.7334L90.8006 74.2891C90.819 74.2799 91.7837 73.8029 92.2684 74.0938L108.321 83.8818C115.858 79.0858 124.177 75.6597 132.888 73.7021L137.293 55.4961C137.391 54.9089 137.88 54.5176 138.468 54.5176H161.763ZM135.042 74.9746C135.034 74.9875 134.549 75.7583 134.161 75.8555C125.156 77.8131 116.738 81.3363 109.006 86.3281C108.614 86.6217 108.125 86.6218 107.733 86.3281L91.8768 76.6387L76.8035 91.7119L86.494 107.568C86.4978 107.586 86.6877 108.453 86.494 108.841C81.5022 116.573 77.9779 124.99 76.0203 133.995C76.0203 134.485 75.531 134.779 75.1395 134.975L57.1297 139.379V160.717L75.1395 165.121C75.1395 165.121 75.9221 165.61 76.0203 166.1C77.9779 175.105 81.5021 183.522 86.494 191.255C86.7875 191.646 86.7874 192.136 86.494 192.527L76.8035 208.384L91.8768 223.457L107.733 213.768C107.733 213.768 108.614 213.572 109.006 213.768C116.738 218.759 125.156 222.283 134.161 224.24C134.65 224.24 134.944 224.73 135.042 225.121L139.446 243.131H160.784L165.188 225.121C165.188 225.121 165.678 224.338 166.069 224.24C175.074 222.283 183.492 218.759 191.224 213.768C191.616 213.572 192.105 213.474 192.497 213.768L208.353 223.457L223.427 208.384L213.835 192.527C213.835 192.527 213.639 191.646 213.835 191.255C218.827 183.522 222.35 175.104 224.307 166.1C224.308 165.611 224.797 165.317 225.188 165.121L243.198 160.717V139.379L225.188 134.975C225.178 134.968 224.405 134.481 224.307 133.995C222.35 124.99 218.924 116.573 213.835 108.841C213.541 108.449 213.541 107.96 213.835 107.568L223.427 91.7119L208.353 76.6387L192.497 86.3281C192.497 86.3281 191.616 86.5239 191.224 86.3281C183.492 81.3363 174.976 77.813 166.069 75.8555C165.58 75.8552 165.286 75.366 165.188 74.9746L160.784 56.9648H139.446L135.042 74.9746ZM108.713 108.547C120.458 96.8995 136.706 90.6351 153.247 91.418C182.904 92.8862 207.277 117.356 208.745 146.916C209.626 163.457 203.361 179.706 191.616 191.451C180.654 202.414 165.58 208.579 150.115 208.579H147.081C117.423 207.111 93.052 182.739 91.5838 153.082C90.8008 136.54 96.9672 120.292 108.713 108.547ZM150.213 93.7676C135.335 93.7677 120.947 99.6401 110.376 110.211C99.1198 121.467 93.1492 136.932 94.0301 152.887C95.4985 181.271 118.794 204.665 147.179 206.035C163.133 206.818 178.598 200.847 189.854 189.688C201.11 178.432 207.081 162.968 206.2 147.014C204.732 118.629 181.437 95.2356 153.052 93.8652H150.213V93.7676ZM181.045 125.872C181.045 125.872 182.317 125.383 182.806 125.872C183.296 126.361 183.296 127.144 182.806 127.634L142.774 167.666C142.774 167.666 142.187 168.058 141.893 168.058C141.893 168.058 141.306 167.96 141.013 167.666L123.394 150.048C123.391 150.039 122.907 148.774 123.394 148.286C123.884 147.797 124.667 147.797 125.156 148.286L141.893 165.023L181.045 125.872Z" fill="white"/>
</g>
<defs>
<clipPath id="clip0_610_317">
<rect width="300" height="300" fill="white"/>
</clipPath>
</defs>
</svg>
