<svg width="300" height="300" viewBox="0 0 300 300" fill="none" xmlns="http://www.w3.org/2000/svg">
<g clip-path="url(#clip0_613_606)">
<path d="M149.952 -0.0986328C232.671 -0.0986328 300 67.2305 300 149.949C300 232.668 232.671 299.997 149.952 299.997V299.901C67.2334 299.901 -0.0957031 232.572 -0.0957031 149.949C-0.0955714 67.3268 67.2335 -0.098501 149.952 -0.0986328ZM149.952 7.11523C71.1771 7.11537 7.1183 71.1742 7.11816 149.949C7.11816 228.724 71.177 292.784 149.952 292.784C228.727 292.784 292.787 228.724 292.787 149.949C292.787 71.1741 228.631 7.11523 149.952 7.11523ZM210.934 108.302C222.476 108.302 231.806 117.728 231.806 129.174V136.772H236.615C240.366 136.773 243.444 139.851 243.444 143.602V167.455C243.444 171.206 240.366 174.284 236.615 174.284H231.806V181.883C231.806 193.425 222.38 202.755 210.934 202.755V202.852H83.6816C72.1396 202.852 62.8097 193.425 62.8096 181.979V129.174C62.8096 117.632 72.2357 108.302 83.6816 108.302H210.934ZM83.6816 110.706C73.4861 110.706 65.2139 118.978 65.2139 129.174V181.979C65.214 192.175 73.4862 200.446 83.6816 200.446H210.934C221.129 200.446 229.401 192.175 229.401 181.979V171.976H236.615C239.116 171.975 241.039 169.956 241.039 167.552V143.697C241.039 141.197 239.02 139.274 236.615 139.273H229.401V129.27C229.401 119.074 221.129 110.803 210.934 110.803H83.6816V110.706ZM107.92 192.752H82.5273C77.3334 192.752 73.1973 188.52 73.1973 183.422V126.77C73.1973 121.576 77.4296 117.439 82.5273 117.439H107.92V192.752ZM145.239 192.752H110.517V117.343H145.239V192.752ZM182.655 192.752H147.933V117.343H182.655V192.752ZM210.645 117.343C215.839 117.343 219.975 121.575 219.975 126.673V183.325C219.975 188.519 215.742 192.655 210.645 192.655V192.752H185.252V117.343H210.645ZM187.657 190.347H210.645C214.492 190.347 217.57 187.269 217.57 183.422V126.769C217.57 122.921 214.492 119.844 210.645 119.844H187.657V190.347ZM82.5273 119.844C78.68 119.844 75.6016 122.922 75.6016 126.77V183.422C75.6016 187.269 78.68 190.348 82.5273 190.348H105.515V119.748H82.5273V119.844ZM112.921 190.347H142.835V119.747H112.921V190.347ZM150.337 190.347H180.251V119.747H150.337V190.347Z" fill="#1C1E28"/>
</g>
<defs>
<clipPath id="clip0_613_606">
<rect width="300" height="300" fill="white"/>
</clipPath>
</defs>
</svg>
