<svg width="300" height="300" viewBox="0 0 300 300" fill="none" xmlns="http://www.w3.org/2000/svg">
<g clip-path="url(#clip0_30_1095)">
<path d="M149.897 229.381L39.8969 119.381L40.6185 118.453C41.0309 117.938 81.8556 66.3915 142.577 63.0926C182.371 60.9276 221.546 79.4843 259.175 118.35L260.103 119.278L150 229.381H149.897ZM43.402 119.175L150 225.773L256.495 119.278C219.691 81.6492 181.34 63.7111 142.783 65.773C87.6288 68.7627 49.0721 112.474 43.402 119.175Z" fill="white"/>
<path d="M235.052 140.824C206.598 111.237 176.598 96.9067 145.773 98.1438C97.526 99.9995 63.7116 140.309 63.4023 140.721L61.4435 139.072C61.4435 139.072 96.1858 97.5252 145.67 95.5665C177.217 94.3294 207.938 108.969 236.907 139.072L235.052 140.824Z" fill="white"/>
<path d="M213.196 162.887C193.299 141.031 172.062 130 150.103 130C149.485 130 148.969 130 148.35 130C111.856 130.928 85.567 162.577 85.3608 162.887L83.402 161.237C83.402 161.237 110.619 128.454 148.35 127.423C171.753 126.804 194.124 138.144 215.155 161.134L213.299 162.887H213.196Z" fill="white"/>
<path d="M191.856 185.464C178.557 170.103 164.33 162.371 149.484 162.371C149.278 162.371 148.969 162.371 148.763 162.371C124.639 162.783 107.113 184.124 106.907 184.33L104.948 182.68C105.67 181.753 123.402 160.206 148.763 159.691C149.072 159.691 149.278 159.691 149.588 159.691C165.155 159.691 180 167.732 193.814 183.711L191.856 185.361V185.464Z" fill="white"/>
<path d="M151.237 63.2979H148.66V228.246H151.237V63.2979Z" fill="white"/>
<path d="M207.686 80.4236L148.867 227.778L151.261 228.734L210.079 81.3791L207.686 80.4236Z" fill="white"/>
<path d="M92.2311 80.4347L89.8381 81.3918L148.759 228.705L151.152 227.748L92.2311 80.4347Z" fill="white"/>
<path d="M201.546 226.907H98.4535V229.485H201.546V226.907Z" fill="white"/>
<path d="M150 300C67.3196 300 0 232.68 0 150C0 67.3196 67.3196 0 150 0C232.68 0 300 67.3196 300 150C300 232.68 232.68 300 150 300ZM150 7.73196C71.5464 7.73196 7.73196 71.5464 7.73196 150C7.73196 228.454 71.5464 292.268 150 292.268C228.454 292.268 292.268 228.454 292.268 150C292.268 71.5464 228.454 7.73196 150 7.73196Z" fill="white"/>
</g>
<defs>
<clipPath id="clip0_30_1095">
<rect width="300" height="300" fill="white"/>
</clipPath>
</defs>
</svg>
