<svg width="300" height="300" viewBox="0 0 300 300" fill="none" xmlns="http://www.w3.org/2000/svg">
<g clip-path="url(#clip0_33_1143)">
<path d="M212.99 208.865H193.917C186.907 208.865 180.515 205.36 176.701 199.587C172.887 205.36 166.495 208.865 159.484 208.865H140.412C133.402 208.865 127.01 205.36 123.196 199.587C119.381 205.36 112.99 208.865 105.979 208.865H86.9071C75.5669 208.865 66.2886 199.587 66.2886 188.247V156.288C66.2886 147.216 72.1649 139.277 80.7216 136.597C75.9793 132.37 73.2989 126.185 73.2989 119.793C73.2989 107.319 83.5051 97.1125 95.9793 97.1125C108.454 97.1125 118.66 107.319 118.66 119.793C118.66 126.082 115.979 132.061 111.443 136.391C116.289 137.731 120.515 140.721 123.299 144.948C125.876 141.03 129.794 138.04 134.33 136.7C129.588 132.473 126.804 126.288 126.804 119.896C126.804 107.422 137.01 97.2156 149.484 97.2156C161.959 97.2156 172.165 107.422 172.165 119.896C172.165 126.185 169.484 132.164 164.948 136.494C169.794 137.834 174.021 140.824 176.804 145.051C179.381 141.133 183.299 138.143 187.835 136.803C183.093 132.576 180.412 126.391 180.412 119.999C180.412 107.525 190.618 97.3187 203.093 97.3187C215.567 97.3187 225.773 107.525 225.773 119.999C225.773 126.288 223.093 132.267 218.557 136.597C227.423 138.968 233.814 147.113 233.814 156.494V188.453C233.814 199.793 224.536 209.071 213.196 209.071L212.99 208.865ZM176.701 194.226L177.835 196.494C180.928 202.576 187.113 206.288 193.917 206.288H212.99C222.887 206.288 231.031 198.143 231.031 188.247V156.288C231.031 147.216 224.227 139.587 215.258 138.453L212.062 138.04L214.639 136.082C219.794 132.267 222.99 126.185 222.99 119.793C222.99 108.659 213.917 99.6899 202.887 99.6899C191.856 99.6899 182.783 108.762 182.783 119.793C182.783 126.288 185.979 132.37 191.237 136.185L193.711 137.937L190.722 138.453C185.258 139.381 180.412 142.989 177.835 147.937L176.701 150.205L175.567 147.937C172.887 142.68 167.732 139.071 161.856 138.247L158.66 137.834L161.237 135.875C166.392 132.061 169.484 125.979 169.484 119.587C169.484 108.453 160.412 99.4837 149.381 99.4837C138.35 99.4837 129.278 108.556 129.278 119.587C129.278 126.082 132.474 132.164 137.732 135.979L140.206 137.731L137.216 138.247C131.752 139.174 126.907 142.783 124.33 147.731L123.196 149.999L122.062 147.731C119.381 142.473 114.227 138.865 108.35 138.04L105.155 137.628L107.732 135.669C112.887 131.855 116.082 125.772 116.082 119.381C116.082 108.247 107.01 99.2775 95.9793 99.2775C84.9484 99.2775 75.8762 108.35 75.8762 119.381C75.8762 125.875 79.0721 131.958 84.3298 135.772L86.804 137.525L83.8144 138.04C75.1546 139.587 68.8659 147.009 68.8659 155.772V187.731C68.8659 197.628 77.0102 205.772 86.9071 205.772H105.979C112.783 205.772 118.866 202.061 121.959 195.979L123.093 193.71L124.227 195.979C127.32 202.061 133.505 205.772 140.309 205.772H159.381C166.185 205.772 172.268 202.061 175.464 195.979L176.598 193.71L176.701 194.226Z" fill="#1C1E28"/>
<path d="M150 300C67.3196 300 0 232.68 0 150C0 67.3196 67.3196 0 150 0C232.68 0 300 67.3196 300 150C300 232.68 232.68 300 150 300ZM150 7.73196C71.5464 7.73196 7.73196 71.5464 7.73196 150C7.73196 228.454 71.5464 292.268 150 292.268C228.454 292.268 292.268 228.454 292.268 150C292.268 71.5464 228.454 7.73196 150 7.73196Z" fill="#1C1E28"/>
</g>
<defs>
<clipPath id="clip0_33_1143">
<rect width="300" height="300" fill="white"/>
</clipPath>
</defs>
</svg>
