<svg width="300" height="300" viewBox="0 0 300 300" fill="none" xmlns="http://www.w3.org/2000/svg">
<g clip-path="url(#clip0_33_1144)">
<path d="M88.2473 106.701C88.2473 102.578 88.3504 98.4538 88.2473 94.4332C88.2473 92.3714 88.7628 91.1343 90.9277 91.1343C99.7936 91.1343 108.66 91.1343 117.422 91.1343C118.453 91.1343 119.793 91.3405 119.69 92.5776C119.69 94.1239 118.041 93.9178 117.01 93.9178C110 93.9178 102.886 94.0209 95.8761 93.9178C92.5772 93.9178 91.3401 94.9487 91.3401 98.3507C91.5463 105.361 91.3401 112.474 91.3401 119.485C91.3401 120.619 91.9586 122.474 89.8968 122.371C88.2473 122.371 88.2473 120.619 88.2473 119.382C88.2473 115.155 88.2473 110.928 88.2473 106.701Z" fill="white"/>
<path d="M88.2471 199.071C88.2471 194.741 88.2471 190.308 88.2471 185.978C88.2471 184.638 88.4533 183.091 90.1028 183.195C91.6491 183.298 91.2368 184.947 91.2368 185.978C91.2368 192.885 91.2368 199.792 91.2368 206.7C91.2368 211.339 91.5461 211.648 96.2883 211.648C102.989 211.648 109.587 211.648 116.288 211.648C117.525 211.648 119.381 211.236 119.484 212.885C119.484 214.741 117.525 214.431 116.185 214.431C107.938 214.431 99.7934 214.431 91.5461 214.431C88.9687 214.431 87.8347 213.607 87.9378 210.823C88.144 206.906 87.9378 202.885 87.9378 198.968L88.2471 199.071Z" fill="white"/>
<path d="M212.06 198.761C212.06 202.885 212.06 207.009 212.06 211.029C212.06 213.297 211.442 214.637 208.762 214.637C200.411 214.637 192.061 214.637 183.813 214.637C182.679 214.637 180.824 214.844 180.927 213.091C180.927 211.648 182.679 211.854 183.71 211.854C190.617 211.854 197.524 211.751 204.432 211.854C207.834 211.854 209.277 210.72 209.174 207.215C208.968 200.308 209.174 193.4 209.174 186.493C209.174 185.256 208.968 183.401 210.617 183.504C212.267 183.504 211.957 185.359 211.957 186.596C211.957 190.72 211.957 194.741 211.957 198.864L212.06 198.761Z" fill="white"/>
<path d="M211.958 106.907C211.958 111.134 211.958 115.36 211.958 119.587C211.958 120.618 212.061 122.267 210.618 122.267C209.071 122.267 209.277 120.618 209.277 119.587C209.277 112.886 209.277 106.288 209.277 99.5872C209.277 95.8072 207.319 93.9172 203.401 93.9172C197.009 93.9172 190.618 93.9172 184.226 93.9172C183.092 93.9172 181.133 94.3295 181.03 92.6801C181.03 90.6182 182.989 91.1337 184.226 91.1337C192.267 91.1337 200.411 91.1337 208.453 91.1337C211.133 91.1337 212.164 92.1646 212.164 94.7419C212.164 98.8656 212.164 102.886 212.164 107.01L211.958 106.907Z" fill="white"/>
<path d="M142.061 154.226C140.412 153.607 136.701 155.669 136.598 152.679C136.598 150.514 140.309 151.545 142.268 151.442C148.762 151.236 148.659 151.442 148.865 144.741C148.865 142.783 147.731 139.174 150.309 139.174C152.886 139.174 151.649 142.783 151.649 144.741C151.855 151.339 151.649 151.339 158.659 151.442C160.412 151.442 163.711 150.514 163.711 152.679C163.711 155.463 160.515 153.916 158.659 154.226C157.835 154.432 156.907 154.226 155.979 154.226C152.886 154.02 151.443 155.257 151.649 158.453C151.752 160.514 151.649 162.576 151.649 164.638C151.649 165.566 151.649 166.597 150.412 166.7C149.278 166.7 148.969 165.669 148.865 164.844C148.762 163.401 148.865 162.061 148.865 160.617C148.865 156.425 146.632 154.329 142.165 154.329" fill="white"/>
<path d="M89.2786 151.442C92.7837 151.442 96.1858 151.442 99.6909 151.442C100.722 151.442 101.959 151.442 102.062 152.782C102.165 154.122 100.825 154.225 99.8971 154.328C92.7837 154.328 85.5673 154.328 78.4539 154.328C77.5261 154.328 76.0828 154.328 76.1859 152.885C76.1859 151.648 77.6292 151.545 78.557 151.545C82.1652 151.545 85.7735 151.545 89.2786 151.545V151.442Z" fill="white"/>
<path d="M211.133 154.225C207.525 154.225 203.917 154.225 200.308 154.225C199.381 154.225 197.937 154.225 197.834 152.885C197.834 151.442 199.174 151.442 200.102 151.442C207.319 151.442 214.432 151.442 221.648 151.442C222.576 151.442 223.607 151.648 223.71 152.782C223.71 154.225 222.473 154.225 221.442 154.225C217.937 154.225 214.535 154.225 211.03 154.225" fill="white"/>
<path d="M151.649 213.709C151.649 217.111 151.649 220.617 151.649 224.122C151.649 225.153 151.649 226.39 150.309 226.39C148.969 226.39 148.865 225.153 148.865 224.122C148.865 217.111 148.865 210.101 148.865 202.988C148.865 201.957 149.072 200.72 150.412 200.617C151.752 200.617 151.752 201.957 151.752 202.988C151.752 206.596 151.752 210.204 151.752 213.709" fill="white"/>
<path d="M151.649 92.4734C151.649 95.8754 151.649 99.3805 151.649 102.886C151.649 103.917 151.649 105.154 150.206 105.051C149.175 105.051 148.865 103.917 148.865 102.989C148.865 95.6692 148.865 88.3497 148.865 81.1332C148.865 80.2054 149.278 79.2776 150.412 79.3807C151.649 79.3807 151.649 80.5147 151.752 81.4425C151.752 85.1538 151.752 88.8651 151.752 92.5765L151.649 92.4734Z" fill="white"/>
<path d="M150 300H149.588C109.588 299.897 72.0624 284.124 43.712 255.67C15.3617 227.217 -0.102092 189.485 0.00100043 149.589C0.104093 109.589 15.8772 72.0634 44.3306 43.7131C72.784 15.3627 110.516 -0.204162 150.412 0.00202225C190.412 0.105114 227.938 15.8782 256.288 44.3316C284.638 72.785 300.102 110.517 299.999 150.413C299.793 232.99 232.474 300 150 300ZM150 7.73393C112.268 7.73393 76.7015 22.4761 49.7945 49.1769C22.7844 75.9809 7.836 111.651 7.73291 149.589C7.62981 187.527 22.372 223.196 49.1759 250.207C75.9799 277.217 111.65 292.165 149.588 292.268H150C187.732 292.268 223.298 277.526 250.206 250.825C277.216 224.021 292.164 188.351 292.267 150.413C292.37 112.475 277.628 76.8056 250.824 49.7955C224.02 22.7854 188.247 7.83702 150.412 7.73393H150Z" fill="white"/>
</g>
<defs>
<clipPath id="clip0_33_1144">
<rect width="300" height="300" fill="white"/>
</clipPath>
</defs>
</svg>
