<svg width="300" height="300" viewBox="0 0 300 300" fill="none" xmlns="http://www.w3.org/2000/svg">
<g clip-path="url(#clip0_33_1180)">
<path d="M150 300C67.3196 300 0 232.68 0 150C0 67.3196 67.3196 0 150 0C232.68 0 300 67.3196 300 150C300 232.68 232.68 300 150 300ZM150 7.73196C71.5464 7.73196 7.73196 71.5464 7.73196 150C7.73196 228.454 71.5464 292.268 150 292.268C228.454 292.268 292.268 228.454 292.268 150C292.268 71.5464 228.454 7.73196 150 7.73196Z" fill="white"/>
<path d="M143.196 152.681H84.5365C81.4438 152.681 79.8974 151.031 79.8974 147.938V110.619H74.0211C72.784 110.619 71.8561 110 71.5469 108.969C71.1345 107.835 71.5469 106.598 72.784 105.67C73.1963 105.361 79.2788 100.516 86.3922 94.9486C97.217 86.3919 110.619 75.7733 111.134 75.361C113.196 73.8146 114.537 73.8146 116.598 75.361C116.908 75.5672 121.134 78.9692 126.701 83.2991L135.98 90.6187V86.8043C135.98 85.8764 136.289 84.33 138.454 84.33H145.464C146.908 84.33 147.836 85.2579 147.836 86.8043V99.897C151.856 103.093 154.64 105.258 154.949 105.567C156.083 106.495 156.495 107.732 156.186 108.866C155.877 109.897 154.846 110.516 153.712 110.516H147.836V147.835C147.836 151.031 146.289 152.577 143.196 152.577V152.681ZM74.1242 108.041H81.2376C81.9592 108.041 82.4747 108.66 82.4747 109.278V147.938C82.4747 149.794 82.9901 150.103 84.5365 150.103H143.196C144.743 150.103 145.258 149.794 145.258 147.938V109.278C145.258 108.557 145.877 108.041 146.495 108.041H153.609C153.609 108.041 153.815 108.041 153.299 107.732C152.99 107.526 149.897 105.052 145.671 101.65C145.361 101.443 145.155 101.031 145.155 100.619V87.0104H138.454V93.2991C138.454 93.8146 138.145 94.2269 137.732 94.4331C137.32 94.6393 136.701 94.5362 136.392 94.33L124.949 85.361C119.382 80.928 115.052 77.629 114.846 77.4228C114.124 76.9074 113.918 76.9074 113.712 76.9074C113.506 76.9074 113.299 76.9074 112.578 77.4228C112.062 77.8352 98.6603 88.4537 87.8355 97.0104C80.619 102.681 74.6396 107.423 74.2273 107.732C73.918 107.938 73.918 108.144 73.918 108.144L74.1242 108.041Z" fill="white"/>
<path d="M137.938 146.702H89.8965C87.5253 146.702 85.8759 145.052 85.8759 142.475V106.392C85.8759 103.609 87.2161 101.959 88.3501 101.135C89.381 100.31 110.824 83.4028 111.443 82.8873C113.092 81.6502 114.742 81.5471 116.391 82.8873C117.01 83.4028 138.453 100.31 139.484 101.135C140.618 102.063 141.958 103.712 141.958 106.392V142.475C141.958 145.052 140.412 146.702 137.938 146.702ZM113.917 84.5368C113.917 84.5368 113.608 84.5368 113.092 84.9491C112.474 85.4646 91.0305 102.372 89.9996 103.197C89.0717 103.918 88.5563 105.052 88.5563 106.496V142.578C88.5563 144.227 89.5872 144.227 89.9996 144.227H138.041C138.041 144.227 139.484 144.227 139.484 142.578V106.496C139.484 105.155 138.969 104.021 138.041 103.197C137.01 102.372 115.567 85.4646 114.948 84.9491C114.639 84.6399 114.329 84.5368 114.123 84.5368H113.917Z" fill="white"/>
<path d="M132.372 140.722H95.4644C93.2994 140.722 91.9592 139.279 91.9592 137.114V108.867C91.9592 106.908 92.5778 105.671 93.918 104.537C94.5365 104.021 111.341 90.7224 111.753 90.4131C113.093 89.3822 114.743 89.3822 116.083 90.4131C116.495 90.7224 133.196 103.918 134.021 104.537C135.361 105.671 135.98 106.908 135.98 108.867V137.114C135.98 139.279 134.64 140.722 132.475 140.722H132.372ZM113.918 92.1657C113.918 92.1657 113.609 92.1657 113.299 92.4749C112.887 92.7842 96.0829 106.083 95.4644 106.599C94.7427 107.114 94.4335 107.63 94.4335 108.97V137.217C94.4335 138.145 94.7427 138.248 95.3613 138.248H132.269C132.887 138.248 133.196 138.042 133.196 137.217V108.97C133.196 107.63 132.887 107.217 132.165 106.599C131.444 105.98 114.743 92.8873 114.33 92.4749C114.021 92.2688 113.815 92.1657 113.712 92.1657H113.918Z" fill="white"/>
<path d="M110.825 109.589C110.825 109.589 110.104 109.382 109.794 109.073C109.382 108.558 109.485 107.733 110 107.217L111.134 106.393C111.65 105.98 112.475 106.083 112.99 106.599C113.402 107.114 113.299 107.939 112.784 108.454L111.65 109.279C111.65 109.279 111.134 109.589 110.825 109.589Z" fill="white"/>
<path d="M107.216 112.372C107.216 112.372 106.494 112.166 106.185 111.857C105.773 111.341 105.876 110.517 106.391 110.001L107.525 109.176C108.041 108.764 108.866 108.867 109.381 109.383C109.793 109.898 109.69 110.723 109.175 111.238L108.041 112.166C108.041 112.166 107.525 112.475 107.216 112.475V112.372Z" fill="white"/>
<path d="M111.959 108.66C111.959 108.66 111.237 108.454 110.928 108.145C110.516 107.629 110.619 106.804 111.134 106.289L111.959 105.67C112.475 105.258 113.299 105.361 113.712 105.877C114.124 106.392 114.021 107.217 113.505 107.629L112.681 108.248C112.681 108.248 112.165 108.557 111.856 108.557L111.959 108.66Z" fill="white"/>
<path d="M126.907 134.743H100.928C99.0721 134.743 97.9381 133.506 97.9381 131.651V111.341C97.9381 110.31 97.9381 109.073 99.3814 107.939C99.7938 107.63 104.742 103.712 108.35 100.826L112.062 97.9393C113.299 97.0114 114.639 97.0114 115.876 97.9393C116.186 98.2486 127.835 107.424 128.557 107.939C130 109.176 130 110.414 130 111.341V131.651C130 133.506 128.866 134.743 127.01 134.743H126.907ZM112.783 98.9702L113.608 100.001L109.897 102.888C106.289 105.671 101.34 109.589 100.928 109.898C100.412 110.31 100.412 110.517 100.412 111.341V131.651V132.063C100.412 132.063 100.515 132.063 100.722 132.063H126.701H127.01C127.01 132.063 127.01 132.063 127.01 131.651V111.341C127.01 110.517 127.01 110.31 126.495 109.898C125.876 109.383 114.227 100.207 113.814 99.898L112.474 98.8671L112.783 98.9702Z" fill="white"/>
<path d="M107.216 112.372C107.216 112.372 106.494 112.166 106.185 111.857C105.773 111.341 105.876 110.517 106.391 110.001L107.525 109.176C108.041 108.764 108.866 108.867 109.381 109.383C109.793 109.898 109.69 110.723 109.175 111.238L108.041 112.166C108.041 112.166 107.525 112.475 107.216 112.475V112.372Z" fill="white"/>
<path d="M110.825 109.589C110.825 109.589 110.104 109.382 109.794 109.073C109.382 108.558 109.485 107.733 110 107.217L111.134 106.29C111.65 105.877 112.475 105.98 112.99 106.496C113.402 107.011 113.299 107.836 112.784 108.351L111.65 109.176C111.65 109.176 111.134 109.485 110.825 109.485V109.589Z" fill="white"/>
<path d="M111.959 108.66C111.959 108.66 111.237 108.454 110.928 108.145C110.516 107.63 110.619 106.805 111.134 106.289L111.959 105.671C112.475 105.258 113.299 105.361 113.712 105.98C114.124 106.599 114.021 107.32 113.402 107.733L112.681 108.351C112.681 108.351 112.165 108.66 111.856 108.66H111.959Z" fill="white"/>
<path d="M121.443 128.763H106.391C104.845 128.763 103.917 127.835 103.917 126.289V113.918C103.917 112.784 104.433 111.753 105.257 111.134L105.464 110.928L106.391 110.206C106.907 109.794 107.732 109.897 108.247 110.412C108.659 110.928 108.556 111.753 108.041 112.268L107.113 112.99L106.804 113.196C106.494 113.402 106.494 113.814 106.494 114.021V126.289H121.34V114.021C121.34 113.918 121.34 113.505 120.927 113.196C120.824 113.093 119.381 111.959 117.835 110.825C115.979 109.381 113.917 107.732 113.814 107.629L113.505 107.938C112.989 108.351 112.165 108.247 111.752 107.732C111.34 107.217 111.443 106.392 111.958 105.979L113.092 106.701L112.268 105.67C113.195 104.948 114.536 104.948 115.464 105.67C115.67 105.773 117.628 107.32 119.484 108.763C121.031 110 122.474 111.031 122.577 111.237C123.402 111.959 123.917 112.99 123.917 114.021V126.392C123.917 127.938 122.989 128.866 121.443 128.866V128.763Z" fill="white"/>
<path d="M108.35 111.546C108.35 111.546 107.628 111.339 107.319 111.03C106.907 110.515 107.01 109.69 107.525 109.174L109.999 107.216C110.618 106.803 111.34 106.906 111.855 107.422C112.267 107.937 112.164 108.762 111.649 109.277L109.175 111.236C109.175 111.236 108.659 111.546 108.35 111.546Z" fill="white"/>
<path d="M218.223 98.2663L92.9849 223.504L94.8073 225.327L220.045 100.089L218.223 98.2663Z" fill="white"/>
<path d="M164.639 194.434C164.639 191.547 166.804 189.176 169.69 189.176C172.577 189.176 174.845 191.547 174.845 194.434C174.845 197.527 172.68 199.589 169.69 199.589C166.495 199.486 164.639 197.321 164.639 194.434Z" fill="white"/>
<path d="M190.825 194.434C190.825 191.547 192.99 189.176 195.876 189.176C198.763 189.176 201.031 191.547 201.031 194.434C201.031 197.527 198.866 199.589 195.876 199.589C192.68 199.486 190.825 197.321 190.825 194.434Z" fill="white"/>
<path d="M217.011 194.434C217.011 191.547 219.176 189.176 222.062 189.176C224.949 189.176 227.217 191.547 227.217 194.434C227.217 197.527 225.052 199.589 222.062 199.589C218.866 199.486 217.011 197.321 217.011 194.434Z" fill="white"/>
</g>
<defs>
<clipPath id="clip0_33_1180">
<rect width="300" height="300" fill="white"/>
</clipPath>
</defs>
</svg>
