<svg width="300" height="300" viewBox="0 0 300 300" fill="none" xmlns="http://www.w3.org/2000/svg">
<g clip-path="url(#clip0_33_1459)">
<path d="M150 300C67.2244 300 0 232.677 0 150C0 67.3228 67.2244 0 150 0C232.776 0 300 67.3228 300 150C300 232.677 232.677 300 150 300ZM150 7.38189C71.3583 7.38189 7.38189 71.3583 7.38189 150C7.38189 228.642 71.3583 292.618 150 292.618C228.642 292.618 292.618 228.642 292.618 150C292.618 71.3583 228.642 7.38189 150 7.38189Z" fill="#1C1E28"/>
<path d="M150 243.405C128.15 243.405 110.433 225.688 110.433 203.838C110.433 181.988 128.15 164.271 150 164.271C171.85 164.271 189.567 181.988 189.567 203.838C189.567 225.688 171.85 243.405 150 243.405ZM150 166.83C129.528 166.83 112.894 183.464 112.894 203.936C112.894 224.409 129.528 241.043 150 241.043C170.472 241.043 187.106 224.409 187.106 203.936C187.106 183.464 170.472 166.83 150 166.83Z" fill="#1C1E28"/>
<path d="M151.181 57.1855H148.72V165.552H151.181V57.1855Z" fill="#1C1E28"/>
<path d="M178.74 87.6982H150V90.1589H178.74V87.6982Z" fill="#1C1E28"/>
<path d="M188.287 119.389H150V121.849H188.287V119.389Z" fill="#1C1E28"/>
</g>
<defs>
<clipPath id="clip0_33_1459">
<rect width="300" height="300" fill="white"/>
</clipPath>
</defs>
</svg>
