<svg width="300" height="300" viewBox="0 0 300 300" fill="none" xmlns="http://www.w3.org/2000/svg">
<g clip-path="url(#clip0_9_14)">
<path fill-rule="evenodd" clip-rule="evenodd" d="M150 7.68705C71.3592 7.68705 7.68705 71.4582 7.68705 150C7.68705 228.542 71.3592 292.313 150 292.313C228.643 292.313 292.313 228.643 292.313 150C292.313 71.3574 228.643 7.68705 150 7.68705ZM0 150C0 67.2162 67.1102 0 150 0C232.888 0 300 67.112 300 150C300 232.888 232.888 300 150 300C67.1102 300 0 232.784 0 150Z" fill="white"/>
<path fill-rule="evenodd" clip-rule="evenodd" d="M86.5722 217.765L221.762 82.4732L223.574 84.2843L88.3848 219.576L86.5722 217.765Z" fill="white"/>
<path fill-rule="evenodd" clip-rule="evenodd" d="M173.932 162.146H239.836V210.882H237.274V164.708H176.495V222.515H202.682V225.077H173.932V162.146Z" fill="white"/>
<path fill-rule="evenodd" clip-rule="evenodd" d="M238.555 184.797H175.214V182.234H238.555V184.797Z" fill="white"/>
<path fill-rule="evenodd" clip-rule="evenodd" d="M238.555 205.091H175.214V202.528H238.555V205.091Z" fill="white"/>
<path fill-rule="evenodd" clip-rule="evenodd" d="M181.568 172.395C180.841 172.395 180.184 173.051 180.184 173.779C180.184 174.506 180.841 175.162 181.568 175.162C182.295 175.162 182.952 174.506 182.952 173.779C182.952 173.051 182.295 172.395 181.568 172.395ZM177.622 173.779C177.622 171.636 179.426 169.833 181.568 169.833C183.711 169.833 185.514 171.636 185.514 173.779C185.514 175.921 183.711 177.725 181.568 177.725C179.426 177.725 177.622 175.921 177.622 173.779Z" fill="white"/>
<path fill-rule="evenodd" clip-rule="evenodd" d="M181.568 192.279C180.841 192.279 180.184 192.935 180.184 193.663C180.184 194.39 180.841 195.046 181.568 195.046C182.295 195.046 182.952 194.39 182.952 193.663C182.952 192.935 182.295 192.279 181.568 192.279ZM177.622 193.663C177.622 191.52 179.426 189.717 181.568 189.717C183.711 189.717 185.514 191.52 185.514 193.663C185.514 195.805 183.711 197.609 181.568 197.609C179.426 197.609 177.622 195.805 177.622 193.663Z" fill="white"/>
<path fill-rule="evenodd" clip-rule="evenodd" d="M181.568 212.572C180.841 212.572 180.184 213.229 180.184 213.956C180.184 214.683 180.841 215.34 181.568 215.34C182.295 215.34 182.952 214.683 182.952 213.956C182.952 213.229 182.295 212.572 181.568 212.572ZM177.622 213.956C177.622 211.814 179.426 210.01 181.568 210.01C183.711 210.01 185.514 211.814 185.514 213.956C185.514 216.099 183.711 217.902 181.568 217.902C179.426 217.902 177.622 216.099 177.622 213.956Z" fill="white"/>
<path d="M215.494 219.696C215.494 221.438 215.801 223.591 215.904 225.231L214.366 221.848L210.369 214.264H206.884V229.535H210.164V224.103C210.164 222.361 209.856 220.208 209.754 218.568L211.291 221.848L215.289 229.433H218.773V214.161H215.494V219.491V219.696Z" fill="white"/>
<path d="M225.231 214.264L220.413 229.535H223.898L224.821 225.948H229.433L230.355 229.535H233.943L229.125 214.264H225.026H225.231ZM225.641 223.181L226.051 221.746C226.461 220.208 226.871 218.466 227.281 216.826C227.691 218.363 228.1 220.208 228.51 221.746L228.92 223.181H225.641Z" fill="white"/>
<path d="M243.167 220.926L241.22 220.106C239.887 219.593 238.862 219.286 238.862 218.261C238.862 217.441 239.58 216.929 240.81 216.929C242.04 216.929 242.962 217.339 243.987 218.159L245.729 216.006C244.397 214.674 242.552 213.956 240.81 213.956C237.632 213.956 235.378 216.006 235.378 218.466C235.378 220.721 236.915 221.951 238.452 222.566L240.4 223.386C241.732 223.898 242.552 224.206 242.552 225.231C242.552 226.153 241.835 226.666 240.4 226.666C239.17 226.666 237.735 226.051 236.71 225.026L234.763 227.383C236.3 228.818 238.452 229.535 240.4 229.535C243.987 229.535 246.139 227.383 246.139 224.821C246.139 222.668 245.012 221.438 243.167 220.721" fill="white"/>
<path d="M97.5231 78.9718H136.676C138.111 78.9718 139.443 78.9718 140.878 78.9718C142.928 78.9718 144.158 80.2017 144.158 82.2516C144.158 90.4511 144.158 98.6507 144.158 106.85C144.158 116.075 144.158 125.299 144.158 134.626C144.158 135.446 144.158 136.266 144.158 137.188C144.158 139.238 142.928 140.468 140.878 140.468C135.548 140.468 130.219 140.468 124.889 140.468C122.634 140.468 120.994 140.981 119.559 142.826C118.432 144.363 116.997 145.695 115.665 147.13C114.947 147.848 114.127 148.258 113.102 148.258C111.36 148.258 109.515 148.258 107.773 148.258C106.03 148.258 104.698 147.028 104.595 145.183C104.595 144.67 104.595 144.158 104.595 143.646C104.595 141.801 103.365 140.571 101.418 140.571C99.6755 140.571 97.8306 140.571 96.0882 140.571C94.9608 140.571 94.1408 140.981 93.4234 141.801C91.7835 143.646 90.0411 145.49 88.4012 147.335C87.7862 147.95 87.0687 148.258 86.1463 148.258C83.2765 148.258 80.5091 148.258 77.6393 148.258H54.0657C51.8108 148.258 50.6834 147.13 50.6834 144.875V107.055C50.6834 98.8557 50.6834 90.7586 50.6834 82.5591C50.6834 80.4067 51.8108 79.2793 53.9632 79.2793H97.3181L97.5231 78.9718ZM107.465 114.845C107.465 117.51 107.465 120.174 107.465 122.737C107.465 123.659 107.773 123.864 108.695 123.967C109.207 123.967 109.822 123.967 110.335 123.967C113.205 123.967 116.075 123.967 118.842 123.762C123.352 123.352 126.631 120.584 127.041 116.075C127.349 113 126.631 110.232 124.172 108.08C122.532 106.748 120.584 106.03 118.534 105.928C115.152 105.723 111.872 105.825 108.49 105.723C107.773 105.723 107.465 106.03 107.465 106.85C107.465 109.515 107.465 112.077 107.465 114.742M95.2683 124.479C95.9857 124.479 96.6007 124.479 97.3181 124.479C99.163 124.274 101.008 123.864 102.545 122.737C105.825 120.379 105.518 115.972 101.828 114.332C100.29 113.615 98.5481 113.41 96.9082 113C95.6782 112.692 94.3458 112.487 93.0134 112.18C92.7059 112.18 92.2959 111.667 92.2959 111.36C92.2959 110.95 92.6034 110.54 92.9109 110.232C93.2184 110.028 93.7309 109.823 94.1408 109.823C95.8832 109.618 97.5231 109.618 98.6506 111.36C98.8556 111.667 99.368 111.872 99.778 111.872C100.905 111.872 102.033 111.872 103.16 111.872C103.878 111.872 104.185 111.462 104.185 110.745C104.185 110.335 104.083 109.925 103.878 109.618C103.263 107.875 101.828 106.85 100.188 106.235C97.9331 105.415 95.6782 105.313 93.3209 105.518C91.476 105.723 89.7336 106.133 88.2987 107.26C85.3263 109.515 85.6338 113.82 89.0161 115.46C90.451 116.177 92.0909 116.485 93.7309 116.895C95.0633 117.202 96.4982 117.407 97.8306 117.715C98.2406 117.715 98.7531 118.33 98.7531 118.637C98.7531 119.047 98.3431 119.457 98.0356 119.764C97.8306 119.969 97.5231 120.072 97.3181 120.072C96.0882 120.072 94.8583 120.174 93.6284 120.072C92.7059 120.072 91.9885 119.559 91.5785 118.739C91.1685 118.022 90.5535 117.817 89.8361 117.817C88.9136 117.817 87.9912 117.817 87.0687 117.817C86.1463 117.817 85.7363 118.227 85.8388 119.252C86.0438 121.199 87.2737 122.429 88.8111 123.249C90.861 124.274 93.0134 124.582 95.2683 124.582M67.2874 113.41C67.2874 115.05 67.2874 116.69 67.2874 118.33C66.7749 125.402 65.4425 132.269 62.9827 138.931C62.6752 139.751 62.9826 140.263 63.4951 140.571C64.1101 140.776 64.725 140.571 64.93 139.751C65.75 137.188 66.5699 134.626 67.2874 132.064C69.4398 123.454 69.9522 114.64 69.1323 105.723C68.5173 99.4706 67.0824 93.321 65.0325 87.3763C64.725 86.5564 64.2126 86.2489 63.4951 86.4539C62.8802 86.6589 62.7777 87.2738 62.9827 88.0938C63.7001 90.3487 64.4176 92.706 65.0325 95.0634C66.6724 101.111 67.2874 107.363 67.1849 113.717M88.9136 97.5232C88.9136 97.5232 88.1962 97.2157 87.8887 97.2157C87.5812 97.2157 87.3762 97.2157 87.0687 97.2157C86.0438 97.2157 86.0438 97.2158 86.0438 98.2407C86.0438 99.5731 86.0438 100.906 86.0438 102.34C86.0438 104.39 85.7363 104.083 87.8887 104.083C88.5037 104.083 88.7086 103.878 88.7086 103.263C88.7086 102.135 88.7086 101.111 88.7086 99.9831C88.7086 99.3681 89.1186 98.9581 89.7336 98.8557C90.3486 98.8557 90.7585 99.1631 90.7585 99.8806C90.7585 100.701 90.7585 101.418 90.7585 102.238C90.7585 104.288 90.5535 103.98 92.6034 103.98C93.1159 103.98 93.4234 103.775 93.3209 103.16C93.3209 102.033 93.3209 100.906 93.3209 99.7781C93.3209 99.4706 93.5259 99.1631 93.7309 98.9581C94.5508 98.4457 95.3708 98.9582 95.3708 99.8806C95.3708 101.008 95.3708 102.135 95.3708 103.263C95.3708 103.673 95.4733 103.98 95.9857 103.98C96.7032 103.878 97.5231 104.39 98.0356 103.57V103.365C98.0356 102.135 98.0356 100.803 98.0356 99.5731C98.0356 98.1382 97.0107 97.1133 95.5757 96.9083C94.4483 96.7033 93.5259 97.1133 92.7059 97.8307C91.1685 96.6008 89.9386 96.4983 88.8111 97.4207M122.942 104.288C122.942 104.288 123.864 104.288 124.377 104.083C126.119 103.775 127.144 102.443 127.144 100.598C127.144 98.7532 126.119 97.4207 124.377 97.1133C123.454 97.0108 122.532 96.9083 121.712 97.1133C119.867 97.4207 118.842 98.7532 118.842 100.496C118.842 102.34 119.764 103.673 121.609 104.083C122.019 104.185 122.532 104.185 122.942 104.288ZM107.773 104.288C107.773 104.288 108.797 104.288 109.31 104.083C110.335 103.775 111.155 103.365 111.36 102.238C111.36 102.033 111.36 101.52 111.052 101.418C110.54 101.111 109.207 101.418 108.797 101.93C108.285 102.443 107.465 102.545 106.953 102.135C106.338 101.623 106.133 100.291 106.645 99.5731C107.055 99.0606 107.773 98.7532 108.387 99.0606C108.387 99.0606 108.49 99.0606 108.592 99.1631C109.105 99.9831 109.925 99.7781 110.745 99.8806C111.36 99.8806 111.565 99.5731 111.36 99.1631C111.155 98.6507 110.847 98.0357 110.437 97.8307C109.72 97.4207 108.9 97.1133 108.08 97.1133C105.005 96.9083 103.058 99.1631 103.878 101.93C104.288 103.365 105.825 104.288 107.875 104.39M115.255 97.5232C115.255 97.5232 114.845 97.3182 114.537 97.3182C114.127 97.3182 113.717 97.3182 113.307 97.3182C112.692 97.3182 112.487 97.5232 112.59 98.1382C112.59 99.5731 112.59 101.008 112.59 102.443C112.59 104.493 112.282 104.185 114.537 104.288C115.05 104.288 115.255 104.083 115.255 103.57C115.255 102.545 115.255 101.521 115.255 100.496C115.255 99.8806 115.46 99.5731 115.972 99.4706C116.382 99.3681 116.792 99.2656 117.202 99.2656C118.124 99.2656 118.227 99.2656 118.227 98.3432C118.227 98.1382 118.227 97.9332 118.227 97.7282C118.227 97.2158 118.022 97.0108 117.509 97.0108C116.792 97.1133 116.075 97.3183 115.255 97.5232ZM102.34 100.701V99.0606C102.34 97.1133 102.648 97.3182 100.598 97.3182C99.8805 97.3182 99.6755 97.6257 99.6755 98.2407C99.6755 99.5731 99.6755 100.906 99.6755 102.238C99.6755 104.39 99.368 103.98 101.623 104.083C102.135 104.083 102.34 103.878 102.34 103.365C102.34 102.443 102.34 101.52 102.34 100.598M101.008 94.3459C99.778 94.3459 99.573 94.5509 99.6755 95.6783C99.6755 95.9858 100.085 96.4983 100.29 96.4983C100.905 96.4983 101.623 96.9083 102.135 96.1908C102.135 96.1908 102.135 96.1908 102.135 96.0883C102.135 94.9609 102.238 94.2434 100.905 94.3459" fill="white"/>
<path d="M113.204 109.822C114.947 109.925 116.587 109.925 118.227 110.232C119.867 110.54 120.789 111.77 121.097 113.41C121.199 114.23 121.301 115.152 121.097 116.074C120.789 118.432 119.457 119.559 117.202 119.764C115.972 119.867 114.639 119.764 113.307 119.764V109.822H113.204Z" fill="white"/>
<path d="M121.506 100.598C121.506 99.4703 122.019 98.8554 123.044 98.8554C123.966 98.8554 124.479 99.5728 124.479 100.598C124.479 101.623 123.864 102.238 123.044 102.238C122.121 102.238 121.609 101.52 121.609 100.495" fill="white"/>
</g>
<defs>
<clipPath id="clip0_9_14">
<rect width="300" height="300" fill="white"/>
</clipPath>
</defs>
</svg>
