<svg width="300" height="300" viewBox="0 0 300 300" fill="none" xmlns="http://www.w3.org/2000/svg">
<g clip-path="url(#clip0_23_113)">
<path d="M150.051 300C67.3386 300 0 232.764 0 150.051C0 67.3386 67.3386 0 150.051 0C232.764 0 300.102 67.3386 300.102 150.051C300.102 232.764 232.764 300.102 150.051 300.102V300ZM150.051 7.68705C71.5408 7.68705 7.68705 71.5408 7.68705 150.051C7.68705 228.562 71.5408 292.415 150.051 292.415C228.562 292.415 292.415 228.562 292.415 150.051C292.415 71.5408 228.459 7.68705 150.051 7.68705Z" fill="#1C1E28"/>
<path d="M87.53 228.767L85.6851 226.922L220.977 91.6296L222.72 93.4745L87.53 228.767Z" fill="#1C1E28"/>
<path d="M191.049 260.847C178.237 260.847 167.885 250.495 167.885 237.684C167.885 228.972 172.805 221.08 180.492 217.082C180.492 216.877 180.492 216.57 180.492 216.262V159.788C180.492 154.663 184.694 150.359 189.921 150.359H192.381C197.506 150.359 201.811 154.561 201.811 159.788V216.262C201.811 216.262 201.811 216.877 201.811 217.082C209.498 221.08 214.418 228.972 214.418 237.684C214.418 250.495 204.066 260.847 191.254 260.847H191.049ZM189.819 153.024C186.027 153.024 182.952 156.098 182.952 159.891V216.365C182.952 216.365 182.952 216.775 183.054 216.98C183.054 217.185 183.157 217.39 183.259 217.595L183.464 218.62L182.542 219.03C175.162 222.412 170.448 229.689 170.448 237.786C170.448 249.163 179.672 258.387 191.049 258.387C202.426 258.387 211.65 249.163 211.65 237.786C211.65 229.792 206.935 222.412 199.556 219.03L198.633 218.62L198.838 217.595C198.838 217.595 198.838 217.185 199.043 216.98C199.043 216.672 199.146 216.467 199.146 216.365V159.891C199.146 156.098 196.071 153.024 192.279 153.024H189.819Z" fill="#1C1E28"/>
<path d="M205.091 237.991C205.091 245.781 198.736 252.135 190.946 252.135C183.157 252.135 176.802 245.781 176.802 237.991C176.802 230.202 183.157 223.847 190.946 223.847C198.736 223.847 205.091 230.202 205.091 237.991Z" fill="#1C1E28"/>
<path d="M192.996 188.691H189.101V233.481H192.996V188.691Z" fill="#1C1E28"/>
<path d="M200.376 168.09H192.996V171.063H200.376V168.09Z" fill="#1C1E28"/>
<path d="M200.376 172.6H192.996V175.572H200.376V172.6Z" fill="#1C1E28"/>
<path d="M200.376 177.212H192.996V180.184H200.376V177.212Z" fill="#1C1E28"/>
<path d="M87.6324 127.503C80.6628 127.503 75.0256 120.635 75.0256 112.231C75.0256 111.616 75.1281 97.7793 85.89 83.8401C86.3 83.3276 86.9149 82.9177 87.6324 82.9177C88.4524 82.9177 88.9648 83.2251 89.3748 83.8401C100.034 97.7793 100.239 111.616 100.239 112.231C100.239 120.635 94.602 127.503 87.6324 127.503ZM87.5299 85.685C77.793 98.7017 77.588 112.128 77.588 112.231C77.588 119.303 82.0977 124.94 87.6324 124.94C93.1671 124.94 97.6768 119.201 97.6768 112.231C97.6768 112.128 97.5743 98.8042 87.5299 85.685Z" fill="#1C1E28"/>
<path d="M110.181 161.531C103.212 161.531 97.5743 154.663 97.5743 146.259C97.5743 145.644 97.6768 131.807 108.439 117.868C108.849 117.356 109.464 116.946 110.181 116.946C110.899 116.946 111.514 117.253 111.923 117.868C122.583 131.807 122.788 145.644 122.788 146.259C122.788 154.663 117.151 161.531 110.181 161.531ZM110.181 119.611C100.444 132.627 100.239 146.054 100.239 146.156C100.239 153.229 104.749 158.866 110.284 158.866C115.818 158.866 120.328 153.126 120.328 146.156C120.328 146.054 120.226 132.73 110.181 119.611Z" fill="#1C1E28"/>
<path d="M121.558 113.666C114.588 113.666 108.951 106.799 108.951 98.3943C108.951 97.7793 109.054 83.9426 119.816 70.0034C120.635 68.876 122.48 68.876 123.3 70.0034C133.96 83.9426 134.062 97.7793 134.062 98.3943C134.062 106.799 128.425 113.666 121.455 113.666H121.558ZM121.455 71.7458C111.616 84.865 111.514 98.1893 111.514 98.2918C111.514 105.364 116.023 111.001 121.558 111.001C127.093 111.001 131.602 105.261 131.602 98.2918C131.602 98.1893 131.5 84.865 121.455 71.7458Z" fill="#1C1E28"/>
</g>
<defs>
<clipPath id="clip0_23_113">
<rect width="300" height="300" fill="white"/>
</clipPath>
</defs>
</svg>
