<svg width="300" height="300" viewBox="0 0 300 300" fill="none" xmlns="http://www.w3.org/2000/svg">
<g clip-path="url(#clip0_23_173)">
<path d="M150 300C67.3 300 0 232.7 0 150C0 67.3 67.3 0 150 0C232.7 0 300 67.3 300 150C300 232.7 232.7 300 150 300ZM150 10C72.8 10 10 72.8 10 150C10 227.2 72.8 290 150 290C227.2 290 290 227.2 290 150C290 72.8 227.2 10 150 10Z" fill="white"/>
<path d="M87.9 228.1L86.2 226.3L220.4 92.1L222.1 93.9L87.9 228.1Z" fill="white"/>
<path d="M204.4 238.5C193.8 238.5 183.3 234.4 175.3 226.5C159.3 210.5 159.3 184.4 175.3 168.4C180.8 162.9 187.7 159.1 195.4 157.4L200.9 156.2L196.4 159.6C194.8 160.9 193.5 161.9 192.5 163C177.5 178 177.5 202.5 192.5 217.6C201.9 227 215.3 230.8 228.2 227.9L233.7 226.7L229.2 230.1C221.8 235.7 213 238.5 204.3 238.5H204.4ZM190.6 161.4C185.6 163.3 181 166.3 177.2 170.1C162.1 185.1 162.1 209.6 177.2 224.7C189.5 237 208.4 239.3 223.2 231.2C211.2 232.2 199.5 227.9 190.9 219.3C175 203.3 174.9 177.5 190.6 161.4Z" fill="white"/>
<path d="M65.3001 160.1H62.8001V139.1L58.3 142.5L56.8 140.5L65.3001 134V160.1Z" fill="white"/>
<path d="M79.4001 160.2C75.1001 160.2 71.8 155 71.8 148.3C71.8 141.6 75.1001 136.4 79.4001 136.4C83.7001 136.4 87 141.6 87 148.3C87 155 83.7001 160.2 79.4001 160.2ZM79.4001 138.9C76.6001 138.9 74.3 143.2 74.3 148.3C74.3 153.4 76.6001 157.7 79.4001 157.7C82.2001 157.7 84.5 153.4 84.5 148.3C84.5 143.2 82.2001 138.9 79.4001 138.9Z" fill="white"/>
<path d="M116.7 160.2C112.4 160.2 109.1 155 109.1 148.3C109.1 141.6 112.4 136.4 116.7 136.4C121 136.4 124.3 141.6 124.3 148.3C124.3 155 121 160.2 116.7 160.2ZM116.7 138.9C113.9 138.9 111.6 143.2 111.6 148.3C111.6 153.4 113.9 157.7 116.7 157.7C119.5 157.7 121.8 153.4 121.8 148.3C121.8 143.2 119.5 138.9 116.7 138.9Z" fill="white"/>
<path d="M98.1 148.2C94.7 148.2 92 145.5 92 142.1C92 138.7 94.7 136 98.1 136C101.5 136 104.2 139.7 104.2 142.1C104.2 145.5 101.5 148.2 98.1 148.2ZM98.1 138.5C96.1 138.5 94.5 140.1 94.5 142.1C94.5 144.1 96.1 145.7 98.1 145.7C100.1 145.7 101.7 144.1 101.7 142.1C101.7 141.1 100 138.5 98.1 138.5Z" fill="white"/>
<path d="M98.1001 160.7C96.8001 160.7 95.4001 160.4 94.2001 159.7C93.2001 159.2 92.4001 158.3 91.8001 157.3C90.1001 154.2 90.5001 150.6 92.9001 148.2C95.3001 145.8 98.9001 145.4 102 147.1C103 147.6 103.8 148.5 104.4 149.5C106.1 152.6 105.7 156.2 103.3 158.6C101.9 160 100 160.7 98.1001 160.7ZM98.1001 148.5C96.7001 148.5 95.5001 149.1 94.7001 149.9C93.4001 151.2 92.6001 153.4 94.0001 156C94.3001 156.6 94.8001 157.1 95.4001 157.4C98.0001 158.8 100.3 158 101.5 156.7C102.8 155.4 103.6 153.2 102.2 150.6C101.9 150 101.4 149.5 100.8 149.2C99.8001 148.7 98.9001 148.5 98.1001 148.5Z" fill="white"/>
<path d="M130.1 159.8H127.6V141.9H135.3C138.2 141.9 140.6 144.3 140.6 147.2C140.6 150.1 138.2 152.5 135.3 152.5H130.1V159.9V159.8ZM130.1 149.9H135.3C136.8 149.9 138.1 148.7 138.1 147.1C138.1 145.5 136.9 144.3 135.3 144.3H130.1V149.8V149.9Z" fill="white"/>
<path d="M120.7 124.3C120.7 124.3 120.1 124.3 119.8 124.3H102.8V75.1H120.3C135.4 75.6 143.3 83.9 143.8 99.8C144 108.1 142 114.4 137.9 118.5C134 122.4 128.3 124.3 120.7 124.3ZM105.2 121.8H119.8C119.8 121.8 120.4 121.8 120.7 121.8C127.5 121.8 132.7 120.1 136.1 116.7C139.7 113.1 141.4 107.4 141.3 99.8C140.8 85.3 134 78 120.3 77.6H105.3V121.8H105.2Z" fill="white"/>
<path d="M59.6001 76H57.1001V122.4H59.6001V76Z" fill="white"/>
<path d="M91.7 76H89.2V122.4H91.7V76Z" fill="white"/>
<path d="M90.4999 97H58.3999V99.5H90.4999V97Z" fill="white"/>
</g>
<defs>
<clipPath id="clip0_23_173">
<rect width="300" height="300" fill="white"/>
</clipPath>
</defs>
</svg>
