<svg width="300" height="300" viewBox="0 0 300 300" fill="none" xmlns="http://www.w3.org/2000/svg">
<g clip-path="url(#clip0_24_375)">
<path d="M191.157 236.118H108.745C102.893 236.118 98.212 231.339 98.212 225.585V143.173C98.212 137.321 102.991 132.64 108.745 132.64H191.157C197.009 132.64 201.691 137.418 201.691 143.173V225.585C201.691 231.437 196.912 236.118 191.157 236.118ZM108.745 137.418C105.624 137.418 103.088 139.954 103.088 143.075V225.487C103.088 228.608 105.624 231.144 108.745 231.144H191.157C194.278 231.144 196.814 228.608 196.814 225.487V143.075C196.814 139.954 194.278 137.418 191.157 137.418H108.745Z" fill="#1C1E28"/>
<path d="M114.109 136.346H109.233V98.0169C109.233 75.5851 127.568 57.2496 150 57.2496C172.432 57.2496 190.767 75.5851 190.767 98.0169H185.891C185.891 78.2184 169.799 62.1261 150 62.1261C130.202 62.1261 114.109 78.2184 114.109 98.0169V136.346Z" fill="#1C1E28"/>
<path d="M190.67 98.1144H185.793V123.96H190.67V98.1144Z" fill="#1C1E28"/>
<path d="M156.437 164.727H127.666V152.243H172.334V161.411C157.412 179.356 155.364 191.45 154.193 216.515H139.272C140.442 195.156 144.246 181.599 156.437 164.824" fill="#1C1E28"/>
<path d="M150 299.902C67.2952 299.902 0 232.607 0 150C0 67.3927 67.2952 0 150 0C232.705 0 300 67.2952 300 150C300 232.705 232.705 300 150 300V299.902ZM150 7.31469C71.2939 7.31469 7.31469 71.2939 7.31469 150C7.31469 228.706 71.2939 292.588 150 292.588C228.706 292.588 292.588 228.609 292.588 150C292.588 71.3914 228.609 7.31469 150 7.31469Z" fill="#1C1E28"/>
</g>
<defs>
<clipPath id="clip0_24_375">
<rect width="300" height="300" fill="white"/>
</clipPath>
</defs>
</svg>
