<svg width="300" height="300" viewBox="0 0 300 300" fill="none" xmlns="http://www.w3.org/2000/svg">
<g clip-path="url(#clip0_24_377)">
<path d="M150 299.902C67.2952 299.902 0 232.607 0 150C0 67.3927 67.2952 0 150 0C232.705 0 300 67.2952 300 150C300 232.705 232.705 300 150 300V299.902ZM150 7.31469C71.2939 7.31469 7.31469 71.2939 7.31469 150C7.31469 228.706 71.2939 292.588 150 292.588C228.706 292.588 292.588 228.609 292.588 150C292.588 71.3914 228.609 7.31469 150 7.31469Z" fill="#1C1E28"/>
<path d="M150 228.609C146.391 228.609 142.783 227.438 139.759 225.097C124.155 213.101 97.2367 189.402 91.4825 165.215C87.9715 150.293 84.5579 130.884 86.2159 100.748C86.7036 92.0676 94.0183 85.0455 102.796 84.8504C120.059 84.4603 133.225 78.6085 141.32 73.7321C146.684 70.5136 153.316 70.5136 158.778 73.7321C166.873 78.6085 180.039 84.5578 197.302 84.8504C206.079 85.0455 213.394 91.9701 213.882 100.748C215.54 130.982 212.224 150.293 208.615 165.215C202.958 189.304 175.943 213.101 160.436 225.097C157.412 227.438 153.804 228.609 150.195 228.609H150ZM149.903 76.1703C147.757 76.1703 145.611 76.7555 143.758 77.9258C135.176 83.0949 121.131 89.4343 102.893 89.8244C96.6516 89.9219 91.4825 94.8959 91.0924 101.04C89.4344 130.592 92.7504 149.512 96.1639 164.142C101.723 187.646 130.494 211.931 142.588 221.294C146.879 224.61 152.926 224.61 157.217 221.294C172.237 209.688 198.277 186.768 203.641 164.142C207.055 149.512 210.371 130.592 208.713 101.04C208.323 94.7984 203.251 89.9219 196.912 89.8244C178.576 89.4343 164.532 83.1924 156.047 77.9258C154.096 76.7555 151.951 76.1703 149.903 76.1703Z" fill="#1C1E28"/>
<path d="M136.736 171.066C136.151 171.066 135.468 170.871 134.981 170.383L114.207 149.61C113.232 148.634 113.232 147.074 114.207 146.196C115.182 145.318 116.743 145.221 117.62 146.196L136.639 165.214L181.99 119.863C182.965 118.888 184.525 118.888 185.403 119.863C186.281 120.838 186.378 122.399 185.403 123.277L138.297 170.383C138.297 170.383 137.224 171.066 136.541 171.066H136.736Z" fill="#1C1E28"/>
</g>
<defs>
<clipPath id="clip0_24_377">
<rect width="300" height="300" fill="white"/>
</clipPath>
</defs>
</svg>
