<svg width="300" height="300" viewBox="0 0 300 300" fill="none" xmlns="http://www.w3.org/2000/svg">
<g clip-path="url(#clip0_33_1546)">
<path d="M150 300C67.2757 300 0 232.724 0 150C0 67.2757 67.2757 0 150 0C232.724 0 300 67.2757 300 150C300 232.724 232.724 300 150 300ZM150 7.47508C71.3621 7.47508 7.47508 71.3621 7.47508 150C7.47508 228.638 71.3621 292.525 150 292.525C228.638 292.525 292.525 228.638 292.525 150C292.525 71.3621 228.538 7.47508 150 7.47508Z" fill="#1C1E28"/>
<path d="M91.9932 284.153C91.2955 284.153 90.7972 283.555 90.7972 282.957V111.23C90.7972 110.532 91.3952 110.034 91.9932 110.034C92.5912 110.034 93.1892 110.632 93.1892 111.23V282.858C93.1892 283.555 92.5912 284.054 91.9932 284.054V284.153Z" fill="#1C1E28"/>
<path d="M207.508 270.997C207.508 270.997 206.91 270.897 206.611 270.598L90.9968 154.984C90.9968 154.984 90.4984 153.688 90.9968 153.19C91.4951 152.691 92.2925 152.691 92.7908 153.19L208.405 268.804C208.405 268.804 208.904 270.1 208.405 270.598C208.206 270.798 207.807 270.997 207.508 270.997Z" fill="#1C1E28"/>
<path d="M207.508 246.878C207.508 246.878 206.91 246.778 206.611 246.479L90.9968 130.865C90.9968 130.865 90.4984 129.569 90.9968 129.071C91.4951 128.572 92.2925 128.572 92.7908 129.071L208.405 244.685C208.405 244.685 208.904 245.981 208.405 246.479C208.206 246.678 207.807 246.878 207.508 246.878Z" fill="#1C1E28"/>
<path d="M207.508 222.657C207.508 222.657 206.91 222.558 206.611 222.259L96.3786 112.026C96.3786 112.026 95.8803 110.73 96.3786 110.232C96.877 109.734 97.6743 109.734 98.1726 110.232L208.405 220.465C208.405 220.465 208.904 221.76 208.405 222.259C208.206 222.458 207.807 222.657 207.508 222.657Z" fill="#1C1E28"/>
<path d="M207.508 198.538C207.508 198.538 206.91 198.438 206.611 198.139L120.498 112.026C120.498 112.026 120 110.73 120.498 110.232C120.997 109.734 121.794 109.734 122.292 110.232L208.405 196.345C208.405 196.345 208.904 197.641 208.405 198.139C208.206 198.338 207.807 198.538 207.508 198.538Z" fill="#1C1E28"/>
<path d="M207.508 174.421C207.508 174.421 206.91 174.321 206.611 174.022L144.718 112.128C144.718 112.128 144.219 110.833 144.718 110.334C145.216 109.836 146.013 109.836 146.512 110.334L208.405 172.228C208.405 172.228 208.904 173.524 208.405 174.022C208.206 174.221 207.807 174.421 207.508 174.421Z" fill="#1C1E28"/>
<path d="M207.608 150.301C207.608 150.301 207.01 150.201 206.711 149.902L168.937 112.128C168.937 112.128 168.439 110.833 168.937 110.334C169.435 109.836 170.233 109.836 170.731 110.334L208.505 148.108C208.505 148.108 209.003 149.404 208.505 149.902C208.306 150.102 207.907 150.301 207.608 150.301Z" fill="#1C1E28"/>
<path d="M207.608 126.079C207.608 126.079 207.01 125.98 206.711 125.681L193.056 112.026C193.056 112.026 192.558 110.73 193.056 110.232C193.555 109.734 194.352 109.734 194.85 110.232L208.505 123.887C208.505 123.887 209.003 125.182 208.505 125.681C208.306 125.88 207.907 126.079 207.608 126.079Z" fill="#1C1E28"/>
<path d="M198.538 289.039C198.538 289.039 197.94 288.939 197.641 288.64L91.0965 182.096C91.0965 182.096 90.5982 180.8 91.0965 180.301C91.5949 179.803 92.3922 179.803 92.8906 180.301L199.435 286.846C199.435 286.846 199.934 288.142 199.435 288.64C199.236 288.84 198.837 289.039 198.538 289.039Z" fill="#1C1E28"/>
<path d="M176.611 294.219C176.611 294.219 176.013 294.119 175.714 293.82L91.0965 209.202C91.0965 209.202 90.5982 207.907 91.0965 207.408C91.5949 206.91 92.3922 206.91 92.8906 207.408L177.508 292.026C177.508 292.026 178.007 293.322 177.508 293.82C177.309 294.02 176.91 294.219 176.611 294.219Z" fill="#1C1E28"/>
<path d="M153.09 297.508C153.09 297.508 152.492 297.408 152.193 297.109L91.0965 236.411C91.0965 236.411 90.5982 235.116 91.0965 234.617C91.5949 234.119 92.3922 234.119 92.8906 234.617L153.987 295.315C153.987 295.315 154.485 296.611 153.987 297.109C153.788 297.308 153.389 297.508 153.09 297.508Z" fill="#1C1E28"/>
<path d="M121.894 293.72C121.894 293.72 121.296 293.62 120.997 293.321L91.0965 263.421C91.0965 263.421 90.5982 262.125 91.0965 261.627C91.5949 261.128 92.3922 261.128 92.8906 261.627L122.791 291.527C122.791 291.527 123.289 292.823 122.791 293.321C122.592 293.52 122.193 293.72 121.894 293.72Z" fill="#1C1E28"/>
<path d="M208.007 284.951C207.309 284.951 206.811 284.353 206.811 283.755V111.23C206.811 110.532 207.409 110.034 208.007 110.034C208.605 110.034 209.203 110.632 209.203 111.23V283.655C209.203 284.353 208.605 284.851 208.007 284.851V284.951Z" fill="#1C1E28"/>
<path d="M208.007 112.523H91.9932C91.2955 112.523 90.7972 111.925 90.7972 111.327C90.7972 110.729 91.3952 110.131 91.9932 110.131H208.007C208.704 110.131 209.203 110.729 209.203 111.327C209.203 111.925 208.605 112.523 208.007 112.523Z" fill="#1C1E28"/>
<path d="M91.9932 100.066C91.2955 100.066 90.7972 99.4679 90.7972 98.8699V83.0227C90.7972 82.325 91.3952 81.8267 91.9932 81.8267C92.5912 81.8267 93.1892 82.4247 93.1892 83.0227V98.8699C93.1892 99.5675 92.5912 100.066 91.9932 100.066Z" fill="#1C1E28"/>
<path d="M208.007 100.066C207.309 100.066 206.811 99.4679 206.811 98.8699V83.0227C206.811 82.325 207.409 81.8267 208.007 81.8267C208.605 81.8267 209.203 82.4247 209.203 83.0227V98.8699C209.203 99.5675 208.605 100.066 208.007 100.066Z" fill="#1C1E28"/>
<path d="M208.007 92.1904H91.9932C91.2955 92.1904 90.7972 91.5924 90.7972 90.9944C90.7972 90.3963 91.3952 89.7983 91.9932 89.7983H208.007C208.704 89.7983 209.203 90.3963 209.203 90.9944C209.203 91.5924 208.605 92.1904 208.007 92.1904Z" fill="#1C1E28"/>
</g>
<defs>
<clipPath id="clip0_33_1546">
<rect width="300" height="300" fill="white"/>
</clipPath>
</defs>
</svg>
