<svg width="300" height="300" viewBox="0 0 300 300" fill="none" xmlns="http://www.w3.org/2000/svg">
<g clip-path="url(#clip0_33_1404)">
<path d="M150 300C67.3469 300 0 232.675 0 149.951C0 67.2261 67.3469 0 150 0C232.653 0 300 67.3248 300 149.951C300 232.577 232.653 299.901 150 299.901V300ZM150 7.40375C71.3957 7.40375 7.40619 71.3722 7.40619 149.951C7.40619 228.529 71.3957 292.498 150 292.498C228.604 292.498 292.594 228.529 292.594 149.951C292.594 71.3722 228.703 7.40375 150 7.40375Z" fill="white"/>
<path d="M145.951 214.313C133.41 214.313 125.214 208.587 120.573 203.849L119.783 203.059L131.731 189.535L132.62 190.621C135.089 193.385 140.026 196.248 144.667 196.248C153.95 196.248 159.282 188.943 160.566 174.629C155.629 179.268 149.407 181.341 145.161 181.341C128.769 181.341 118.993 171.174 118.993 154.194C118.993 137.215 131.238 124.875 148.025 124.875C172.317 124.875 180.908 146.988 180.908 167.62C180.908 202.072 162.047 214.214 145.852 214.214L145.951 214.313ZM123.14 202.96C127.584 207.205 134.99 211.845 145.951 211.845C160.961 211.845 178.538 200.295 178.538 167.719C178.538 138.005 162.837 127.442 148.124 127.442C132.423 127.442 121.56 138.498 121.56 154.293C121.56 170.088 130.25 178.972 145.26 178.972C149.802 178.972 156.715 176.109 161.159 170.483L163.529 167.521L163.331 171.371C162.442 194.076 152.765 198.814 144.766 198.814C140.322 198.814 135.188 196.643 131.83 193.385L123.239 203.059L123.14 202.96ZM148.914 167.719C141.014 167.719 136.669 162.98 136.669 154.293C136.669 143.434 142.791 139.584 148.42 139.584C152.469 139.584 157.999 141.46 161.06 150.542C162.245 154.096 161.85 158.044 159.974 161.302C158.196 164.461 155.234 166.731 151.679 167.521C150.79 167.719 149.802 167.817 148.815 167.817L148.914 167.719ZM148.519 141.953C142.692 141.953 139.236 146.494 139.236 154.194C139.236 161.499 142.495 165.152 149.012 165.152C149.802 165.152 150.592 165.152 151.284 164.856C154.147 164.263 156.517 162.487 157.999 159.92C159.48 157.255 159.776 154.096 158.887 151.134C156.814 145.014 153.357 141.855 148.617 141.855L148.519 141.953Z" fill="white"/>
<path d="M193.943 233.069H106.254C97.3667 233.069 90.1581 225.863 90.1581 216.979V129.219C90.1581 121.519 95.5893 115.004 102.995 113.425V92.2006C102.995 66.9292 123.634 46.2974 148.914 46.2974C174.194 46.2974 194.832 66.9292 194.832 92.2006V101.48C194.832 103.849 192.857 105.824 190.487 105.824H187.031C184.661 105.824 182.686 103.849 182.686 101.48V94.175C182.686 75.6162 167.577 60.4138 148.914 60.4138C130.25 60.4138 115.142 75.5175 115.142 94.175V113.129H193.943C202.831 113.129 210.04 120.335 210.04 129.219V216.979C210.04 225.863 202.831 233.069 193.943 233.069ZM148.815 48.7653C124.819 48.7653 105.365 68.2125 105.365 92.2006V115.596H104.279C97.5642 116.682 92.4293 122.408 92.4293 129.219V216.979C92.4293 224.481 98.5517 230.601 106.057 230.601H193.746C201.251 230.601 207.373 224.481 207.373 216.979V129.219C207.373 121.717 201.251 115.596 193.746 115.596H112.475V94.175C112.475 74.2342 128.67 57.9459 148.716 57.9459C168.762 57.9459 184.957 74.1355 184.957 94.175V101.48C184.957 102.566 185.846 103.356 186.833 103.356H190.29C191.376 103.356 192.166 102.467 192.166 101.48V92.2006C192.166 68.2125 172.712 48.7653 148.716 48.7653H148.815Z" fill="white"/>
</g>
<defs>
<clipPath id="clip0_33_1404">
<rect width="300" height="300" fill="white"/>
</clipPath>
</defs>
</svg>
