<svg width="300" height="300" viewBox="0 0 300 300" fill="none" xmlns="http://www.w3.org/2000/svg">
<g clip-path="url(#clip0_33_1461)">
<path d="M150 300C67.3469 300 0 232.675 0 149.951C0 67.2261 67.3469 0 150 0C232.653 0 300 67.3248 300 149.951C300 232.577 232.653 299.901 150 299.901V300ZM150 7.40375C71.3957 7.40375 7.40619 71.3722 7.40619 149.951C7.40619 228.529 71.3957 292.498 150 292.498C228.604 292.498 292.594 228.529 292.594 149.951C292.594 71.3722 228.703 7.40375 150 7.40375Z" fill="#1C1E28"/>
<path d="M123.658 146.889H64.7051C61.6439 146.889 60.0639 145.31 60.0639 142.151V104.54H54.1389C52.954 104.54 51.9665 103.947 51.6702 102.96C51.2752 101.874 51.6702 100.591 52.8552 99.8013C53.9414 98.9129 90.6761 69.9889 91.4661 69.2979C93.4411 67.7184 94.9224 67.7184 96.8973 69.2979C97.1936 69.594 103.02 74.135 109.932 79.5644L116.548 84.7964V80.8477C116.548 79.7618 116.943 78.3798 119.017 78.3798H126.028C127.411 78.3798 128.3 79.2683 128.3 80.8477V94.0758C132.348 97.2347 135.212 99.5052 135.508 99.8013C136.595 100.69 137.088 101.874 136.693 102.96C136.298 103.947 135.41 104.54 134.225 104.54H128.3V142.151C128.3 145.31 126.818 146.889 123.658 146.889ZM54.1389 102.072H61.2489C61.9401 102.072 62.4339 102.664 62.4339 103.256V142.151C62.4339 144.125 63.0264 144.421 64.6064 144.421H123.56C125.14 144.421 125.732 144.125 125.732 142.151V103.256C125.732 102.565 126.325 102.072 126.917 102.072H134.027C134.027 102.072 134.027 101.874 133.83 101.677C133.435 101.381 130.373 99.0116 126.127 95.5565C125.831 95.3591 125.633 94.9642 125.633 94.5694V80.8477H118.82V87.2643C118.82 87.7579 118.523 88.1528 118.128 88.3502C117.733 88.5476 117.24 88.5476 116.845 88.2515L108.254 81.44C101.242 75.9119 95.5149 71.3709 95.2186 71.1735C94.5274 70.5812 94.2311 70.5812 94.0336 70.5812C93.8361 70.5812 93.5399 70.5812 92.8486 71.1735C91.9599 71.8645 55.3239 100.789 54.2377 101.677C53.9414 101.874 53.8427 102.171 53.8427 102.171H53.9414L54.1389 102.072Z" fill="#1C1E28"/>
<path d="M118.227 140.869H69.9391C67.5691 140.869 65.9891 139.191 65.9891 136.723V100.396C65.9891 97.6316 67.2729 96.0521 68.4579 95.1636C69.3466 94.4726 83.1715 83.5151 89.0964 78.8754L91.6639 76.8023C93.2439 75.519 94.8239 75.519 96.5026 76.8023C97.0951 77.2959 118.721 94.2752 119.709 95.1636C120.795 96.0521 122.177 97.6316 122.177 100.396V136.723C122.177 139.29 120.597 140.869 118.227 140.869ZM94.1327 78.3818C94.1327 78.3818 93.7377 78.3818 93.2439 78.7767L90.6764 80.8497C84.7515 85.4894 70.9266 96.447 70.0379 97.138C69.0504 97.9277 68.5566 99.0136 68.5566 100.494V136.822C68.5566 138.5 69.5441 138.5 70.0379 138.5H118.326C118.326 138.5 119.807 138.5 119.807 136.822V100.494C119.807 99.1123 119.314 97.9277 118.326 97.138C117.24 96.3482 95.7126 79.2702 95.1201 78.7767C94.7251 78.4805 94.4289 78.3818 94.2314 78.3818H94.1327Z" fill="#1C1E28"/>
<path d="M112.697 134.847H75.5678C73.3953 134.847 72.1116 133.465 72.1116 131.293V102.961C72.1116 100.987 72.7041 99.7034 74.0866 98.6175C74.5803 98.2227 91.3677 84.9946 92.0589 84.4023C93.4414 83.3165 95.0214 83.4152 96.3051 84.4023C96.7001 84.6985 113.685 98.124 114.277 98.6175C115.66 99.7034 116.252 100.987 116.252 102.961V131.293C116.252 133.465 114.87 134.847 112.796 134.847H112.697ZM94.1326 86.0805C94.1326 86.0805 93.8364 86.0805 93.5401 86.3767C92.8489 86.8703 76.0615 100.098 75.5678 100.592C74.7778 101.184 74.5803 101.776 74.5803 102.961V131.293C74.5803 132.28 74.9753 132.379 75.5678 132.379H112.697C113.389 132.379 113.685 132.181 113.685 131.293V102.961C113.685 101.776 113.487 101.184 112.697 100.592C112.105 100.098 95.2189 86.7715 94.7251 86.3767C94.4289 86.1792 94.2314 86.0805 94.1326 86.0805Z" fill="#1C1E28"/>
<path d="M91.0717 103.555C91.0717 103.555 90.3804 103.358 90.0842 103.062C89.6892 102.568 89.7879 101.779 90.2817 101.285L91.3679 100.396C91.9604 100.002 92.6517 100.1 93.1454 100.594C93.5404 101.087 93.4417 101.877 92.9479 102.371L91.8617 103.259C91.8617 103.259 91.3679 103.555 91.0717 103.555Z" fill="#1C1E28"/>
<path d="M87.418 106.419C87.418 106.419 86.628 106.221 86.4305 105.925C86.0355 105.333 86.1343 104.642 86.628 104.148L87.7142 103.26C88.208 102.865 88.998 102.964 89.4917 103.457C89.8867 103.951 89.788 104.741 89.2942 105.234L88.1092 106.123C88.1092 106.123 87.6155 106.419 87.3192 106.419H87.418Z" fill="#1C1E28"/>
<path d="M92.1577 102.664C92.1577 102.664 91.4665 102.467 91.1702 102.171C90.7752 101.677 90.874 100.887 91.3677 100.394C91.664 100.098 91.9602 99.9001 92.1577 99.7026C92.6515 99.3078 93.4415 99.4065 93.8365 99.9001C94.2315 100.492 94.1327 101.183 93.639 101.677C93.4415 101.874 93.1452 102.072 92.849 102.269C92.6515 102.467 92.3552 102.565 92.059 102.565L92.1577 102.664Z" fill="#1C1E28"/>
<path d="M107.266 128.827H81.0975C79.32 128.827 78.135 127.642 78.135 125.766V105.332C78.135 104.345 78.135 103.16 79.6162 101.976C80.3075 101.482 92.0586 92.2027 92.3549 91.9066C93.5399 91.0181 94.9224 91.0181 96.0086 91.9066L108.747 101.976C110.229 103.16 110.228 104.345 110.228 105.332V125.766C110.228 127.642 109.044 128.827 107.266 128.827ZM94.1324 93.7822C94.1324 93.7822 94.0336 93.7822 93.8361 93.9796C93.4411 94.2758 81.7887 103.456 81.0975 104.049C80.6037 104.444 80.6037 104.74 80.6037 105.529V125.964C80.6037 126.556 80.7025 126.556 81.0975 126.556H107.266C107.266 126.556 107.76 126.556 107.76 125.964V105.529C107.76 104.74 107.76 104.444 107.266 104.049L94.5274 93.9796L94.2311 93.7822H94.1324Z" fill="#1C1E28"/>
<path d="M87.418 106.419C87.418 106.419 86.628 106.221 86.4305 105.925C86.0355 105.333 86.1343 104.642 86.628 104.148L87.7142 103.26C88.208 102.865 88.998 102.964 89.4917 103.457C89.8867 103.951 89.788 104.741 89.2942 105.234L88.1092 106.123C88.1092 106.123 87.6155 106.419 87.3192 106.419H87.418Z" fill="#1C1E28"/>
<path d="M91.0717 103.555C91.0717 103.555 90.3804 103.358 90.0842 103.062C89.6892 102.568 89.7879 101.779 90.2817 101.285L91.3679 100.396C91.9604 100.002 92.6517 100.1 93.1454 100.594C93.5404 101.087 93.4417 101.877 92.9479 102.371L91.8617 103.259C91.8617 103.259 91.3679 103.555 91.0717 103.555Z" fill="#1C1E28"/>
<path d="M92.1577 102.666C92.1577 102.666 91.4665 102.469 91.1702 102.173C90.7752 101.679 90.874 100.89 91.3677 100.396L92.1577 99.8037C92.6515 99.4088 93.4415 99.5076 93.9352 100.001C94.3302 100.495 94.2315 101.284 93.7377 101.778L92.9477 102.37C92.9477 102.37 92.454 102.666 92.1577 102.666Z" fill="#1C1E28"/>
<path d="M101.737 122.802H86.6279C85.1467 122.802 84.1592 121.914 84.1592 120.335V107.896C84.1592 106.81 84.6529 105.823 85.4429 105.132L86.6279 104.145C87.1217 103.75 87.9116 103.849 88.3066 104.342C88.7016 104.836 88.6029 105.626 88.1091 106.119L86.9242 107.008C86.9242 107.008 86.5292 107.699 86.5292 107.896V120.335H101.539V107.896C101.539 107.699 101.539 107.304 101.144 107.008C100.848 106.81 94.3303 101.677 94.0341 101.48L93.6391 101.776C93.1454 102.171 92.3554 102.171 91.8616 101.578C91.4666 101.085 91.4666 100.295 92.0591 99.8015C92.2566 99.6041 92.4541 99.5053 92.4541 99.4066C93.2441 98.8143 94.6266 98.8143 95.5153 99.4066C95.7128 99.6041 102.329 104.737 102.625 104.935C103.415 105.626 103.909 106.613 103.909 107.699V120.137C103.909 121.717 103.02 122.605 101.44 122.605L101.737 122.802Z" fill="#1C1E28"/>
<path d="M88.5042 105.528C88.5042 105.528 87.8129 105.331 87.5167 105.034C87.1217 104.541 87.2204 103.751 87.7142 103.258L90.1829 101.283C90.6767 100.888 91.4666 100.987 91.8616 101.481C92.2566 101.974 92.1579 102.764 91.6641 103.258L89.1954 105.232C89.1954 105.232 88.7017 105.528 88.4054 105.528H88.5042Z" fill="#1C1E28"/>
<path d="M102.131 223.788L100.354 222.11L235.838 86.6709L237.615 88.4478L102.131 223.788Z" fill="#1C1E28"/>
<path d="M242.158 188.152C238.702 188.152 235.838 185.289 235.838 181.834C235.838 178.379 238.702 175.516 242.158 175.516C245.614 175.516 248.478 178.379 248.478 181.834C248.478 185.289 245.614 188.152 242.158 188.152ZM242.158 178.083C240.084 178.083 238.307 179.761 238.307 181.933C238.307 184.104 239.985 185.783 242.158 185.783C244.33 185.783 246.009 184.104 246.009 181.933C246.009 179.761 244.33 178.083 242.158 178.083Z" fill="#1C1E28"/>
<path d="M227.049 204.935C220.828 204.935 215.693 199.901 215.693 193.583C215.693 187.265 220.729 182.23 227.049 182.23C233.369 182.23 238.405 187.265 238.405 193.583C238.405 199.901 233.369 204.935 227.049 204.935ZM227.049 184.797C222.111 184.797 218.161 188.746 218.161 193.682C218.161 198.617 222.111 202.566 227.049 202.566C231.986 202.566 235.936 198.617 235.936 193.682C235.936 188.746 231.986 184.797 227.049 184.797Z" fill="#1C1E28"/>
<path d="M227.049 231.886C219.84 231.886 214.014 226.062 214.014 218.856C214.014 211.649 219.84 205.825 227.049 205.825C234.258 205.825 240.084 211.649 240.084 218.856C240.084 226.062 234.258 231.886 227.049 231.886ZM227.049 208.293C221.223 208.293 216.483 213.032 216.483 218.856C216.483 224.68 221.223 229.418 227.049 229.418C232.875 229.418 237.615 224.68 237.615 218.856C237.615 213.032 232.875 208.293 227.049 208.293Z" fill="#1C1E28"/>
<path d="M193.375 204.935C181.525 204.935 171.947 195.359 171.947 183.513C171.947 171.667 181.525 162.092 193.375 162.092C205.225 162.092 214.804 171.667 214.804 183.513C214.804 195.359 205.225 204.935 193.375 204.935ZM193.375 164.56C182.908 164.56 174.416 173.049 174.416 183.513C174.416 193.977 182.908 202.467 193.375 202.467C203.843 202.467 212.335 193.977 212.335 183.513C212.335 173.049 203.843 164.56 193.375 164.56Z" fill="#1C1E28"/>
</g>
<defs>
<clipPath id="clip0_33_1461">
<rect width="300" height="300" fill="white"/>
</clipPath>
</defs>
</svg>
