<svg width="300" height="300" viewBox="0 0 300 300" fill="none" xmlns="http://www.w3.org/2000/svg">
<g clip-path="url(#clip0_33_1567)">
<path d="M150 300C67.2962 300 0 232.704 0 150C0 67.2962 67.2962 0 150 0C232.704 0 300 67.2962 300 150C300 232.704 232.704 300 150 300ZM150 7.45527C71.3718 7.45527 7.45527 71.3718 7.45527 150C7.45527 228.628 71.3718 292.545 150 292.545C228.628 292.545 292.545 228.628 292.545 150C292.545 71.3718 228.628 7.45527 150 7.45527Z" fill="white"/>
<path d="M197.018 187.97H103.082C101.292 187.97 99.8012 186.976 99.006 185.386C98.3102 183.795 98.6084 182.006 99.7018 180.714C104.871 174.749 111.332 161.628 112.922 133.596C113.917 115.406 119.185 101.986 128.429 93.8349C138.469 84.988 149.602 85.5844 150.099 85.6839C150.398 85.6839 161.431 84.988 171.571 93.8349C180.915 101.986 186.084 115.406 187.177 133.696C188.767 161.827 195.229 174.849 200.398 180.813C201.491 182.105 201.789 183.895 201.093 185.485C200.398 187.076 198.807 188.07 197.117 188.07L197.018 187.97ZM149.503 88.0695C147.117 88.0695 138.171 88.5666 130.119 95.6242C121.372 103.378 116.402 116.201 115.408 133.696C113.817 162.523 106.958 176.042 101.59 182.304C101.093 182.901 100.994 183.596 101.292 184.292C101.59 184.988 102.286 185.386 103.082 185.386H197.018C197.813 185.386 198.41 184.988 198.807 184.292C199.105 183.596 199.006 182.901 198.509 182.304C193.141 176.042 186.282 162.523 184.692 133.696C183.698 116.201 178.728 103.378 169.98 95.6242C160.636 87.3737 150.298 88.0695 150.199 88.0695C150.199 88.0695 149.901 88.0695 149.602 88.0695H149.503Z" fill="white"/>
<path d="M150 200.893C142.346 200.893 136.183 194.63 136.183 187.076H138.668C138.668 193.338 143.738 198.408 150 198.408C156.262 198.408 161.332 193.338 161.332 187.076H163.817C163.817 194.73 157.555 200.893 150 200.893Z" fill="white"/>
<path d="M151.491 74.5516C150.795 74.5516 150.298 73.9552 150.298 73.3587V54.6709C150.298 53.975 150.895 53.478 151.491 53.478C152.087 53.478 152.684 54.0744 152.684 54.6709V73.3587C152.684 74.0546 152.087 74.5516 151.491 74.5516Z" fill="white"/>
<path d="M112.823 89.3623C112.823 89.3623 112.227 89.2629 111.928 88.9647L98.7077 75.7441C98.7077 75.7441 98.2107 74.4518 98.7077 73.9548C99.2048 73.4578 100 73.4578 100.497 73.9548L113.718 87.1755C113.718 87.1755 114.215 88.4677 113.718 88.9647C113.519 89.1635 113.121 89.3623 112.823 89.3623Z" fill="white"/>
<path d="M95.9244 146.618H77.2365C76.5407 146.618 76.0437 146.022 76.0437 145.425C76.0437 144.829 76.6401 144.232 77.2365 144.232H95.9244C96.6202 144.232 97.1172 144.829 97.1172 145.425C97.1172 146.022 96.5208 146.618 95.9244 146.618Z" fill="white"/>
<path d="M97.5149 211.431C97.5149 211.431 96.9184 211.332 96.6202 211.034C96.1232 210.537 96.1232 209.741 96.6202 209.244L109.841 196.024C109.841 196.024 111.133 195.527 111.63 196.024C112.127 196.521 112.127 197.316 111.63 197.813L98.4095 211.034C98.4095 211.034 97.8131 211.431 97.5149 211.431Z" fill="white"/>
<path d="M151.392 231.112C150.696 231.112 150.199 230.516 150.199 229.919V211.231C150.199 210.536 150.795 210.039 151.392 210.039C151.988 210.039 152.584 210.635 152.584 211.231V229.919C152.584 230.615 151.988 231.112 151.392 231.112Z" fill="white"/>
<path d="M200.398 213.52C200.398 213.52 199.801 213.42 199.503 213.122L186.282 199.901C186.282 199.901 185.785 198.609 186.282 198.112C186.779 197.615 187.575 197.615 188.072 198.112L201.292 211.333C201.292 211.333 201.789 212.625 201.292 213.122C201.093 213.321 200.696 213.52 200.398 213.52Z" fill="white"/>
<path d="M222.763 149.501H204.076C203.38 149.501 202.883 148.904 202.883 148.308C202.883 147.712 203.479 147.115 204.076 147.115H222.763C223.459 147.115 223.956 147.712 223.956 148.308C223.956 148.904 223.36 149.501 222.763 149.501Z" fill="white"/>
<path d="M189.264 91.3511C189.264 91.3511 188.668 91.2517 188.37 90.9535C187.873 90.4565 187.873 89.6613 188.37 89.1642L201.591 75.9436C201.591 75.9436 202.883 75.4465 203.38 75.9436C203.877 76.4406 203.877 77.2358 203.38 77.7328L190.159 90.9535C190.159 90.9535 189.563 91.3511 189.264 91.3511Z" fill="white"/>
</g>
<defs>
<clipPath id="clip0_33_1567">
<rect width="300" height="300" fill="white"/>
</clipPath>
</defs>
</svg>
