<svg width="300" height="300" viewBox="0 0 300 300" fill="none" xmlns="http://www.w3.org/2000/svg">
<g clip-path="url(#clip0_24_273)">
<path d="M189.066 232.108L110.636 231.909C106.66 231.909 103.38 228.628 103.38 224.652L103.778 75.1493C103.778 71.1731 107.058 67.8928 111.034 67.8928L189.464 68.0916C191.352 68.0916 193.241 68.8869 194.533 70.2785C195.925 71.6702 196.621 73.4594 196.621 75.4475L196.223 224.95C196.223 226.839 195.428 228.728 194.135 230.02C192.744 231.412 190.955 232.108 189.066 232.108ZM111.034 70.3779C108.45 70.3779 106.263 72.4654 106.263 75.1493L105.865 224.652C105.865 227.237 107.953 229.424 110.636 229.424L189.066 229.622C190.358 229.622 191.551 229.125 192.346 228.231C193.241 227.336 193.738 226.143 193.738 224.851L194.135 75.3481C194.135 72.7636 192.048 70.5767 189.364 70.5767L110.935 70.3779H111.034Z" fill="white"/>
<path d="M188.568 212.127L111.133 211.928V210.735L111.53 81.9084L188.966 82.1073V83.3001L188.568 212.127ZM113.618 209.443L186.083 209.642L186.48 84.4929L114.015 84.2941L113.618 209.443Z" fill="white"/>
<path d="M150 300C67.2962 300 0 232.704 0 150C0 67.2962 67.2962 0 150 0C232.704 0 300 67.2962 300 150C300 232.704 232.704 300 150 300ZM150 7.45527C71.3718 7.45527 7.45527 71.3718 7.45527 150C7.45527 228.628 71.3718 292.545 150 292.545C228.628 292.545 292.545 228.628 292.545 150C292.545 71.3718 228.628 7.45527 150 7.45527Z" fill="white"/>
</g>
<defs>
<clipPath id="clip0_24_273">
<rect width="300" height="300" fill="white"/>
</clipPath>
</defs>
</svg>
