<svg xmlns="http://www.w3.org/2000/svg" xmlns:xlink="http://www.w3.org/1999/xlink" width="1000" zoomAndPan="magnify" viewBox="0 0 750 749.999995" height="1000" preserveAspectRatio="xMidYMid meet" version="1.2"><defs><clipPath id="d8b63329a6"><path d="M 749.679688 375.023438 C 749.679688 582.019531 582.007812 749.691406 375.011719 749.691406 L 375.011719 740.527344 L 375.011719 749.691406 C 168.015625 749.691406 0.34375 582.019531 0.34375 375.023438 L 9.511719 375.023438 L 0.34375 375.023438 C 0.34375 168.027344 168.015625 0.355469 375.011719 0.355469 L 375.011719 9.523438 L 375.011719 0.355469 C 582.007812 0.355469 749.679688 168.027344 749.679688 375.023438 L 740.511719 375.023438 L 749.679688 375.023438 M 731.585938 375.023438 C 731.585938 178.160156 571.875 18.449219 375.011719 18.449219 C 178.148438 18.449219 18.4375 178.160156 18.4375 375.023438 C 18.4375 571.886719 178.148438 731.597656 375.011719 731.597656 C 571.875 731.597656 731.585938 571.886719 731.585938 375.023438 Z M 731.585938 375.023438 "/></clipPath><clipPath id="e11efa5189"><path d="M 323 324 L 425 324 L 425 425 L 323 425 Z M 323 324 "/></clipPath><clipPath id="b4d1917605"><path d="M 424.226562 374.78125 C 424.226562 402.527344 401.792969 424.964844 374.046875 424.964844 L 374.046875 422.070312 L 374.046875 424.964844 C 346.300781 424.964844 323.867188 402.527344 323.867188 374.78125 L 326.761719 374.78125 L 323.867188 374.78125 C 323.867188 347.039062 346.300781 324.601562 374.046875 324.601562 L 374.046875 327.496094 L 374.046875 324.601562 C 401.792969 324.601562 424.226562 347.039062 424.226562 374.78125 L 418.195312 374.78125 C 418.195312 350.417969 398.414062 330.632812 374.046875 330.632812 C 349.679688 330.632812 329.898438 350.417969 329.898438 374.78125 C 329.898438 399.148438 349.679688 418.933594 374.046875 418.933594 C 398.414062 418.933594 418.195312 399.148438 418.195312 374.78125 Z M 424.226562 374.78125 "/></clipPath><clipPath id="f2c9b1f9e9"><path d="M 362 199 L 393 199 L 393 230 L 362 230 Z M 362 199 "/></clipPath><clipPath id="0f173222bf"><path d="M 390.210938 206.144531 C 394.792969 213.140625 392.863281 222.308594 385.867188 226.652344 L 384.179688 224.238281 L 385.867188 226.652344 C 378.871094 231.234375 369.703125 229.304688 365.363281 222.308594 L 367.773438 220.621094 L 365.363281 222.308594 C 360.777344 215.3125 362.707031 206.144531 369.703125 201.804688 L 371.394531 204.214844 L 369.703125 201.804688 C 376.699219 197.21875 385.867188 199.148438 390.453125 206.144531 L 385.386719 209.523438 C 382.730469 205.421875 377.183594 204.214844 373.082031 206.871094 C 368.980469 209.523438 367.773438 215.070312 370.429688 219.171875 C 373.082031 223.273438 378.628906 224.480469 382.730469 221.828125 C 386.832031 219.171875 388.039062 213.625 385.386719 209.523438 Z M 390.210938 206.144531 "/></clipPath><clipPath id="0260886c62"><path d="M 455 235 L 486 235 L 486 265 L 455 265 Z M 455 235 "/></clipPath><clipPath id="f16c77ea5a"><path d="M 485.265625 250.535156 C 485.023438 258.738281 478.027344 265.253906 469.824219 264.769531 L 470.066406 261.875 L 469.824219 264.769531 C 461.621094 264.527344 455.109375 257.53125 455.589844 249.332031 L 458.484375 249.570312 L 455.589844 249.332031 C 455.832031 241.128906 462.828125 234.613281 471.03125 235.097656 L 470.789062 237.992188 L 471.03125 235.097656 C 479.234375 235.578125 485.75 242.332031 485.265625 250.535156 L 479.234375 250.296875 C 479.476562 245.46875 475.617188 241.367188 470.789062 241.128906 C 465.964844 240.886719 461.863281 244.746094 461.621094 249.570312 C 461.382812 254.398438 465.242188 258.496094 470.066406 258.738281 C 474.890625 258.980469 478.992188 255.121094 479.234375 250.296875 Z M 485.265625 250.535156 "/></clipPath><clipPath id="a57f2ae825"><path d="M 514 314 L 545 314 L 545 345 L 514 345 Z M 514 314 "/></clipPath><clipPath id="f70c1fa7c0"><path d="M 540.996094 338.351562 C 535.929688 344.867188 526.519531 346.074219 520.007812 341.007812 L 521.9375 338.59375 L 520.007812 341.007812 C 513.492188 335.941406 512.285156 326.53125 517.351562 320.019531 L 519.765625 321.949219 L 517.351562 320.019531 C 522.417969 313.503906 531.828125 312.296875 538.339844 317.363281 C 544.855469 322.429688 546.0625 331.839844 540.996094 338.351562 L 536.171875 334.734375 C 539.066406 330.875 538.582031 325.324219 534.722656 322.1875 L 536.652344 319.777344 L 534.722656 322.1875 C 530.863281 319.292969 525.3125 319.777344 522.175781 323.636719 C 519.28125 327.496094 519.765625 333.046875 523.625 336.183594 C 527.484375 339.316406 533.035156 338.59375 536.171875 334.734375 Z M 540.996094 338.351562 "/></clipPath><clipPath id="e56c0f0c07"><path d="M 510.414062 412 L 541 412 L 541 443 L 510.414062 443 Z M 510.414062 412 "/></clipPath><clipPath id="8ac9207f75"><path d="M 529.65625 441.609375 C 521.695312 444.023438 513.492188 439.4375 511.078125 431.476562 C 508.667969 423.515625 513.25 415.3125 521.210938 412.902344 L 522.175781 415.796875 L 521.210938 412.902344 C 529.175781 410.488281 537.375 415.074219 539.789062 422.792969 C 542.203125 430.753906 537.617188 438.957031 529.65625 441.371094 L 527.96875 435.578125 C 532.550781 434.132812 535.445312 429.304688 534 424.480469 L 536.894531 423.515625 L 534 424.480469 C 532.550781 419.898438 527.726562 417.003906 522.902344 418.449219 C 518.078125 419.898438 515.421875 424.722656 516.871094 429.546875 L 513.976562 430.511719 L 516.871094 429.546875 C 518.316406 434.132812 523.144531 437.027344 527.96875 435.578125 Z M 529.65625 441.609375 "/></clipPath><clipPath id="13224b4f08"><path d="M 455 492 L 486 492 L 486 523 L 455 523 Z M 455 492 "/></clipPath><clipPath id="a1767bbea9"><path d="M 465.484375 521.464844 C 457.761719 518.8125 453.417969 510.367188 456.316406 502.40625 C 458.96875 494.6875 467.414062 490.585938 475.375 493.238281 C 483.09375 495.894531 487.4375 504.335938 484.542969 512.296875 C 481.886719 520.019531 473.445312 524.121094 465.484375 521.464844 L 467.414062 515.675781 C 471.996094 517.363281 477.0625 514.710938 478.75 510.128906 L 481.648438 511.09375 L 478.75 510.128906 C 480.441406 505.542969 477.785156 500.476562 473.203125 498.789062 L 474.167969 495.894531 L 473.203125 498.789062 C 468.617188 497.097656 463.550781 499.753906 461.863281 504.335938 L 458.96875 503.371094 L 461.863281 504.335938 C 460.175781 508.921875 462.828125 513.988281 467.414062 515.675781 Z M 465.484375 521.464844 "/></clipPath><clipPath id="47c3c2bbad"><path d="M 362 520 L 393 520 L 393 551 L 362 551 Z M 362 520 "/></clipPath><clipPath id="f41e525cd0"><path d="M 365.601562 544.386719 C 360.777344 537.628906 362.226562 528.460938 368.980469 523.636719 C 375.734375 518.8125 384.902344 520.257812 389.730469 527.015625 L 387.316406 528.703125 L 389.730469 527.015625 C 394.554688 533.769531 392.863281 542.9375 386.351562 547.761719 L 384.664062 545.351562 L 386.351562 547.761719 C 379.597656 552.585938 370.429688 550.898438 365.601562 544.386719 L 370.429688 540.765625 C 373.324219 544.867188 378.871094 545.589844 382.730469 542.9375 C 386.59375 540.042969 387.558594 534.492188 384.664062 530.632812 C 381.765625 526.773438 376.21875 525.808594 372.359375 528.703125 L 370.667969 526.292969 L 372.359375 528.703125 C 368.257812 531.597656 367.53125 537.148438 370.1875 541.007812 Z M 365.601562 544.386719 "/></clipPath><clipPath id="0706f26de0"><path d="M 262.777344 489 L 293 489 L 293 520 L 262.777344 520 Z M 262.777344 489 "/></clipPath><clipPath id="2a7fe46ffd"><path d="M 263.070312 504.09375 C 263.070312 495.894531 269.824219 489.136719 278.027344 489.136719 C 286.230469 489.136719 292.984375 495.894531 292.984375 504.09375 L 289.847656 504.09375 L 292.742188 504.09375 C 292.742188 512.296875 286.230469 519.054688 277.785156 519.054688 L 277.785156 516.160156 L 277.785156 519.054688 C 269.582031 519.054688 262.828125 512.539062 262.828125 504.09375 L 268.859375 504.09375 C 268.859375 508.921875 272.960938 513.023438 277.785156 513.023438 C 282.609375 513.023438 286.710938 509.160156 286.710938 504.09375 C 286.710938 499.027344 282.609375 495.167969 277.785156 495.167969 L 277.785156 492.273438 L 277.785156 495.167969 C 272.960938 495.167969 268.859375 499.269531 268.859375 504.09375 Z M 263.070312 504.09375 "/></clipPath><clipPath id="0410351aa2"><path d="M 206 412 L 237 412 L 237 442 L 206 442 Z M 206 412 "/></clipPath><clipPath id="81c2714cfb"><path d="M 209.027344 418.449219 C 213.855469 411.695312 223.019531 410.246094 229.777344 414.832031 L 228.085938 417.242188 L 229.777344 414.832031 C 236.53125 419.65625 237.980469 428.824219 233.394531 435.578125 L 230.984375 433.890625 L 233.394531 435.578125 C 228.570312 442.335938 219.402344 443.78125 212.648438 439.199219 L 214.335938 436.785156 L 212.648438 439.199219 C 205.890625 434.371094 204.445312 425.207031 209.027344 418.449219 L 213.855469 421.828125 C 210.957031 425.929688 211.921875 431.476562 216.023438 434.132812 C 220.125 437.027344 225.675781 436.0625 228.328125 431.960938 C 231.222656 427.859375 230.257812 422.308594 226.15625 419.65625 C 222.054688 416.761719 216.75 417.726562 213.855469 421.828125 Z M 209.027344 418.449219 "/></clipPath><clipPath id="74027154a9"><path d="M 206 314 L 236 314 L 236 344 L 206 344 Z M 206 314 "/></clipPath><clipPath id="a48baba030"><path d="M 216.023438 314.953125 C 223.746094 312.296875 232.429688 316.398438 235.085938 324.121094 C 237.738281 331.839844 233.636719 340.285156 225.917969 343.179688 C 218.195312 345.832031 209.753906 341.730469 206.855469 334.011719 C 204.203125 326.289062 208.304688 317.605469 216.023438 314.953125 L 217.953125 320.742188 C 213.371094 322.429688 210.957031 327.496094 212.40625 332.082031 L 209.511719 333.046875 L 212.40625 332.082031 C 214.09375 336.664062 219.160156 339.078125 223.746094 337.628906 L 224.710938 340.523438 L 223.746094 337.628906 C 228.328125 335.941406 230.742188 330.875 229.292969 326.289062 L 232.1875 325.324219 L 229.292969 326.289062 C 227.605469 321.707031 222.539062 319.054688 217.953125 320.742188 Z M 216.023438 314.953125 "/></clipPath><clipPath id="c5feff177a"><path d="M 262.777344 231 L 293 231 L 293 262 L 262.777344 262 Z M 262.777344 231 "/></clipPath><clipPath id="72e63f2d8d"><path d="M 282.128906 231.960938 C 290.089844 234.371094 294.433594 242.574219 292.261719 250.535156 L 289.367188 249.570312 L 292.261719 250.535156 C 289.847656 258.496094 281.644531 262.839844 273.683594 260.667969 C 265.722656 258.257812 261.378906 250.054688 263.550781 242.09375 L 266.445312 243.058594 L 263.550781 242.09375 C 265.964844 234.132812 274.167969 229.789062 282.128906 231.960938 L 280.441406 237.75 C 275.613281 236.300781 270.789062 238.957031 269.34375 243.78125 C 267.894531 248.363281 270.546875 253.429688 275.375 254.878906 L 274.410156 257.773438 L 275.132812 254.878906 C 279.957031 256.328125 284.78125 253.429688 286.230469 248.847656 C 287.675781 244.023438 284.78125 239.199219 280.199219 237.75 Z M 282.128906 231.960938 "/></clipPath></defs><g id="d9cbd57957"><g clip-rule="nonzero" clip-path="url(#d8b63329a6)"><rect x="0" width="750" y="0" height="749.999995" style="fill:#ffffff;fill-opacity:1;stroke:none;"/></g><g clip-rule="nonzero" clip-path="url(#e11efa5189)"><g clip-rule="nonzero" clip-path="url(#b4d1917605)"><rect x="0" width="750" y="0" height="749.999995" style="fill:#ffffff;fill-opacity:1;stroke:none;"/></g></g><g clip-rule="nonzero" clip-path="url(#f2c9b1f9e9)"><g clip-rule="nonzero" clip-path="url(#0f173222bf)"><rect x="0" width="750" y="0" height="749.999995" style="fill:#ffffff;fill-opacity:1;stroke:none;"/></g></g><g clip-rule="nonzero" clip-path="url(#0260886c62)"><g clip-rule="nonzero" clip-path="url(#f16c77ea5a)"><rect x="0" width="750" y="0" height="749.999995" style="fill:#ffffff;fill-opacity:1;stroke:none;"/></g></g><g clip-rule="nonzero" clip-path="url(#a57f2ae825)"><g clip-rule="nonzero" clip-path="url(#f70c1fa7c0)"><rect x="0" width="750" y="0" height="749.999995" style="fill:#ffffff;fill-opacity:1;stroke:none;"/></g></g><g clip-rule="nonzero" clip-path="url(#e56c0f0c07)"><g clip-rule="nonzero" clip-path="url(#8ac9207f75)"><rect x="0" width="750" y="0" height="749.999995" style="fill:#ffffff;fill-opacity:1;stroke:none;"/></g></g><g clip-rule="nonzero" clip-path="url(#13224b4f08)"><g clip-rule="nonzero" clip-path="url(#a1767bbea9)"><rect x="0" width="750" y="0" height="749.999995" style="fill:#ffffff;fill-opacity:1;stroke:none;"/></g></g><g clip-rule="nonzero" clip-path="url(#47c3c2bbad)"><g clip-rule="nonzero" clip-path="url(#f41e525cd0)"><rect x="0" width="750" y="0" height="749.999995" style="fill:#ffffff;fill-opacity:1;stroke:none;"/></g></g><g clip-rule="nonzero" clip-path="url(#0706f26de0)"><g clip-rule="nonzero" clip-path="url(#2a7fe46ffd)"><rect x="0" width="750" y="0" height="749.999995" style="fill:#ffffff;fill-opacity:1;stroke:none;"/></g></g><g clip-rule="nonzero" clip-path="url(#0410351aa2)"><g clip-rule="nonzero" clip-path="url(#81c2714cfb)"><rect x="0" width="750" y="0" height="749.999995" style="fill:#ffffff;fill-opacity:1;stroke:none;"/></g></g><g clip-rule="nonzero" clip-path="url(#74027154a9)"><g clip-rule="nonzero" clip-path="url(#a48baba030)"><rect x="0" width="750" y="0" height="749.999995" style="fill:#ffffff;fill-opacity:1;stroke:none;"/></g></g><g clip-rule="nonzero" clip-path="url(#c5feff177a)"><g clip-rule="nonzero" clip-path="url(#72e63f2d8d)"><rect x="0" width="750" y="0" height="749.999995" style="fill:#ffffff;fill-opacity:1;stroke:none;"/></g></g></g></svg>