<svg xmlns="http://www.w3.org/2000/svg" xmlns:xlink="http://www.w3.org/1999/xlink" width="1000" zoomAndPan="magnify" viewBox="0 0 750 749.999995" height="1000" preserveAspectRatio="xMidYMid meet" version="1.2"><defs><clipPath id="209b926e07"><path d="M 749.925781 375.121094 C 749.925781 582.226562 581.984375 750.167969 375.121094 750.167969 L 375.121094 741.039062 L 375.121094 750.167969 C 168.015625 749.925781 0.0742188 581.984375 0.0742188 375.121094 L 9.203125 375.121094 L 0.0742188 375.121094 C 0.0742188 168.015625 168.015625 0.0742188 375.121094 0.0742188 L 375.121094 9.203125 L 375.121094 0.0742188 C 582.226562 0.0742188 749.925781 168.015625 749.925781 375.121094 L 731.90625 375.121094 C 731.90625 178.105469 572.132812 18.09375 375.121094 18.09375 C 178.105469 18.09375 18.09375 177.867188 18.09375 375.121094 C 18.09375 572.375 177.867188 731.90625 375.121094 731.90625 C 572.375 731.90625 731.90625 572.132812 731.90625 374.878906 Z M 749.925781 375.121094 "/></clipPath><clipPath id="894ec2fa7b"><path d="M 152 248 L 336 248 L 336 514 L 152 514 Z M 152 248 "/></clipPath><clipPath id="b2f2d796d4"><path d="M 282.859375 332.355469 C 282.859375 346.527344 277.09375 359.742188 266.28125 371.515625 C 259.074219 378.964844 243.699219 391.21875 220.390625 407.796875 C 193.722656 426.777344 177.144531 444.796875 170.175781 461.132812 C 162.96875 476.03125 159.125 492.367188 158.644531 510.628906 L 155.761719 510.628906 L 155.761719 507.742188 L 332.355469 507.742188 L 332.355469 510.628906 L 329.230469 510.628906 L 329.230469 465.9375 L 332.113281 465.9375 L 332.113281 468.820312 L 214.144531 468.820312 L 216.789062 464.257812 C 220.152344 458.730469 224.238281 453.683594 229.28125 449.601562 C 234.085938 445.515625 242.976562 438.789062 255.46875 429.898438 L 257.152344 432.300781 L 255.46875 429.898438 L 275.652344 415.484375 C 292.710938 403.472656 304.722656 392.660156 311.929688 383.289062 C 322.984375 369.113281 328.507812 352.777344 328.507812 334.277344 L 331.394531 334.277344 L 328.507812 334.277344 C 328.507812 310.007812 320.820312 290.789062 305.203125 276.371094 C 289.828125 261.957031 268.925781 254.507812 242.015625 254.507812 L 242.015625 251.625 L 242.015625 254.507812 C 208.378906 254.507812 185.554688 267.003906 172.582031 291.507812 C 165.613281 304.484375 161.769531 321.78125 161.046875 343.40625 L 158.164062 343.40625 L 158.164062 340.523438 L 207.417969 340.523438 L 207.417969 343.40625 L 204.535156 343.164062 C 205.253906 328.507812 206.9375 317.457031 210.542969 310.25 C 216.789062 297.515625 228.5625 291.269531 244.660156 291.269531 L 244.660156 294.152344 L 244.660156 291.269531 C 256.671875 291.269531 266.28125 295.113281 273.007812 303.28125 L 270.605469 305.203125 L 273.007812 303.28125 C 279.496094 311.210938 282.859375 320.820312 282.859375 332.355469 L 279.976562 332.355469 L 282.859375 332.355469 M 276.851562 332.355469 C 276.851562 322.023438 273.96875 313.613281 268.445312 307.125 C 263.160156 300.640625 255.46875 297.277344 244.898438 297.277344 C 230.242188 297.277344 221.113281 302.5625 216.066406 312.894531 L 213.425781 311.691406 L 216.066406 312.894531 C 213.183594 318.898438 211.261719 328.988281 210.78125 343.40625 L 210.78125 346.289062 L 155.523438 346.289062 L 155.523438 343.164062 C 156.484375 320.820312 160.328125 302.800781 167.773438 288.625 L 170.417969 290.066406 L 167.773438 288.625 C 181.949219 261.71875 207.179688 248.503906 242.496094 248.503906 C 270.367188 248.503906 292.949219 256.191406 309.769531 272.046875 L 307.605469 274.210938 L 309.769531 272.046875 C 326.585938 287.90625 334.996094 308.566406 334.996094 334.277344 C 334.996094 353.976562 328.988281 371.515625 317.21875 386.894531 L 314.816406 384.972656 L 317.21875 386.894531 C 309.527344 396.984375 296.796875 408.277344 279.738281 420.53125 L 278.054688 418.125 L 279.738281 420.53125 L 259.554688 434.945312 C 246.820312 443.835938 238.171875 450.320312 233.605469 454.40625 L 231.683594 452.003906 L 233.605469 454.164062 C 229.28125 458.011719 225.4375 462.335938 222.3125 467.621094 L 219.671875 466.179688 L 219.671875 463.296875 L 335.238281 463.296875 L 335.238281 513.75 L 152.636719 513.75 L 152.636719 510.628906 C 153.121094 491.648438 157.203125 474.347656 164.890625 458.730469 L 167.535156 459.933594 L 164.652344 458.730469 C 172.101562 440.710938 189.878906 422.210938 217.027344 402.75 L 218.710938 405.152344 L 217.027344 402.75 C 240.332031 385.933594 255.230469 374.160156 261.957031 367.191406 L 264.121094 369.355469 L 261.957031 367.191406 C 272.046875 356.378906 277.09375 344.847656 277.09375 332.113281 Z M 276.851562 332.355469 "/></clipPath><clipPath id="1acf3eb581"><path d="M 372 245 L 614 245 L 614 514 L 372 514 Z M 372 245 "/></clipPath><clipPath id="e49bfd8c39"><path d="M 491.886719 354.21875 L 599.285156 246.101562 L 601.445312 248.261719 L 601.445312 251.144531 L 530.570312 251.144531 L 530.570312 248.261719 L 532.730469 250.425781 L 431.582031 358.542969 L 426.296875 364.066406 L 426.296875 248.261719 L 429.179688 248.261719 L 429.179688 251.144531 L 375.359375 251.144531 L 375.359375 248.261719 L 378.242188 248.261719 L 378.242188 510.628906 L 375.359375 510.628906 L 375.359375 507.742188 L 429.179688 507.742188 L 429.179688 510.628906 L 426.296875 510.628906 L 426.296875 421.730469 L 427.257812 420.769531 L 453.445312 393.859375 L 455.847656 391.21875 L 458.011719 394.101562 L 538.976562 508.703125 L 536.574219 510.386719 L 536.574219 507.503906 L 606.972656 507.503906 L 606.972656 510.386719 L 604.570312 512.070312 L 491.648438 357.820312 L 490.203125 355.660156 L 492.128906 353.738281 M 496.453125 358.0625 L 494.289062 355.898438 L 496.691406 354.21875 L 609.613281 508.464844 L 613.21875 513.269531 L 535.375 513.269531 L 534.414062 512.070312 L 453.445312 397.464844 L 455.847656 395.78125 L 458.011719 397.945312 L 431.820312 424.855469 L 429.660156 422.691406 L 432.542969 422.691406 L 432.542969 513.269531 L 372.957031 513.269531 L 372.957031 245.621094 L 432.542969 245.621094 L 432.542969 356.621094 L 429.660156 356.621094 L 427.496094 354.457031 L 528.648438 246.339844 L 529.609375 245.378906 L 608.894531 245.378906 L 603.847656 250.425781 L 496.453125 358.542969 Z M 496.453125 358.0625 "/></clipPath></defs><g id="9e42d32c78"><g clip-rule="nonzero" clip-path="url(#209b926e07)"><rect x="0" width="750" y="0" height="749.999995" style="fill:#ffffff;fill-opacity:1;stroke:none;"/></g><g clip-rule="nonzero" clip-path="url(#894ec2fa7b)"><g clip-rule="nonzero" clip-path="url(#b2f2d796d4)"><rect x="0" width="750" y="0" height="749.999995" style="fill:#ffffff;fill-opacity:1;stroke:none;"/></g></g><g clip-rule="nonzero" clip-path="url(#1acf3eb581)"><g clip-rule="nonzero" clip-path="url(#e49bfd8c39)"><rect x="0" width="750" y="0" height="749.999995" style="fill:#ffffff;fill-opacity:1;stroke:none;"/></g></g></g></svg>